<svg width="18" height="16" viewBox="0 0 18 16" fill="none" xmlns="http://www.w3.org/2000/svg">
<path d="M17.25 7.25006H2.28787L8.01713 1.79306C8.31713 1.50731 8.32875 1.03256 8.043 0.732561C7.75763 0.432936 7.28288 0.420936 6.9825 0.706686L0.4395 6.93919C0.156375 7.22269 0 7.59919 0 8.00006C0 8.40056 0.156375 8.77744 0.452625 9.07331L6.98287 15.2931C7.128 15.4314 7.314 15.5001 7.5 15.5001C7.698 15.5001 7.896 15.4221 8.04338 15.2672C8.32912 14.9672 8.3175 14.4928 8.0175 14.2071L2.26425 8.75006H17.25C17.664 8.75006 18 8.41406 18 8.00006C18 7.58606 17.664 7.25006 17.25 7.25006Z" fill="#2D2F43"/>
</svg>
