<svg width="24" height="24" viewBox="0 0 24 24" fill="none" xmlns="http://www.w3.org/2000/svg">
<g clip-path="url(#clip0_64_146)">
<path d="M22.2507 5.1658H15.8978L14.615 3.0107C14.5534 2.90713 14.4658 2.82136 14.3611 2.76179C14.2563 2.70222 14.1378 2.6709 14.0173 2.6709H9.98258C9.86205 2.67089 9.74358 2.70221 9.63879 2.76178C9.53399 2.82135 9.44648 2.90712 9.38483 3.0107L8.102 5.1658H6.01734V4.69081C6.01734 4.50632 5.94405 4.32939 5.8136 4.19894C5.68314 4.06849 5.50621 3.9952 5.32172 3.9952H2.74786C2.56337 3.9952 2.38644 4.06849 2.25599 4.19894C2.12554 4.32939 2.05225 4.50632 2.05225 4.69081V5.1658H1.74923C0.783084 5.1658 0 5.94896 0 6.91495V19.5797C0 20.5458 0.783084 21.3289 1.74915 21.3289H22.2507C23.2168 21.3289 23.9999 20.5458 23.9999 19.5797V6.91495C24 5.94896 23.2168 5.1658 22.2507 5.1658ZM11.9999 18.2263C9.25011 18.2263 7.02097 15.9972 7.02097 13.2473C7.02097 10.4975 9.25011 8.26831 11.9999 8.26831C14.7497 8.26831 16.9789 10.4975 16.9789 13.2473C16.9789 15.9972 14.7497 18.2263 11.9999 18.2263ZM21.1594 8.77204H18.9797C18.8883 8.77204 18.7978 8.75404 18.7134 8.71908C18.629 8.68411 18.5523 8.63287 18.4878 8.56827C18.4232 8.50366 18.3719 8.42697 18.337 8.34257C18.302 8.25816 18.284 8.1677 18.284 8.07634C18.284 7.98499 18.302 7.89452 18.337 7.81012C18.3719 7.72571 18.4232 7.64902 18.4878 7.58442C18.5523 7.51981 18.629 7.46857 18.7134 7.43361C18.7978 7.39864 18.8883 7.38065 18.9797 7.38065H21.1594C21.2507 7.38064 21.3412 7.39863 21.4256 7.43358C21.51 7.46854 21.5867 7.51979 21.6513 7.58439C21.7159 7.64899 21.7672 7.72569 21.8021 7.8101C21.8371 7.89451 21.8551 7.98498 21.8551 8.07634C21.8551 8.26085 21.7818 8.4378 21.6513 8.56827C21.5208 8.69874 21.3439 8.77204 21.1594 8.77204Z" fill="#2D2F43"/>
<path d="M12 16.7255C13.9211 16.7255 15.4783 15.1682 15.4783 13.2472C15.4783 11.3262 13.9211 9.76892 12 9.76892C10.079 9.76892 8.52173 11.3262 8.52173 13.2472C8.52173 15.1682 10.079 16.7255 12 16.7255Z" fill="#2D2F43"/>
</g>
<defs>
<clipPath id="clip0_64_146">
<rect width="24" height="24" fill="white"/>
</clipPath>
</defs>
</svg>
