<svg width="24" height="24" viewBox="0 0 24 24" fill="none" xmlns="http://www.w3.org/2000/svg">
<g clip-path="url(#clip0_0_4731)">
<path d="M18.7397 5.57133C18.5917 3.50822 16.8658 1.875 14.7656 1.875C14.1084 1.875 13.4624 2.03916 12.888 2.34581C11.7892 0.883078 10.0543 0 8.20312 0C4.97227 0 2.34375 2.62852 2.34375 5.85938C2.34375 6.59419 2.48381 7.3238 2.75288 8.00578C2.06597 8.34487 1.45725 8.84433 0.993234 9.45792C0.343453 10.3171 0 11.3421 0 12.4219C0 15.1358 2.20795 17.3438 4.92188 17.3438C6.04416 17.3438 7.10395 16.9718 7.96875 16.2847C8.83355 16.9718 9.89334 17.3438 11.0156 17.3438C12.2314 17.3438 13.3882 16.897 14.2838 16.0986C15.3424 16.9665 16.6545 17.4375 18.0469 17.4375C21.3294 17.4375 24 14.7669 24 11.4844C24 8.43605 21.6972 5.91548 18.7397 5.57133ZM10.3162 10.7304C10.2393 10.8221 10.1559 10.9082 10.0666 10.9878C9.6158 11.3894 9.03623 11.6016 8.39062 11.6016C6.77522 11.6016 5.46094 10.2873 5.46094 8.67188C5.46094 7.05642 6.77522 5.74219 8.39062 5.74219C8.97759 5.74219 9.54417 5.9153 10.029 6.24286C10.2972 6.42398 10.3678 6.78825 10.1866 7.05637C10.0055 7.32455 9.6412 7.39509 9.37308 7.21392C9.08269 7.0177 8.74294 6.91406 8.39067 6.91406C7.42139 6.91406 6.63286 7.70259 6.63286 8.67188C6.63286 9.64116 7.42139 10.4297 8.39067 10.4297C8.74945 10.4297 9.05109 10.323 9.2873 10.1127C9.33413 10.0708 9.37787 10.0257 9.41817 9.97753C9.62611 9.72947 9.99563 9.69703 10.2436 9.90492C10.4916 10.1129 10.5241 10.4824 10.3162 10.7304ZM13.6875 11.6016C12.0721 11.6016 10.7578 10.2873 10.7578 8.67188C10.7578 7.05642 12.0721 5.74219 13.6875 5.74219C15.3029 5.74219 16.6172 7.05642 16.6172 8.67188C16.6172 10.2873 15.3029 11.6016 13.6875 11.6016ZM19.0855 13.9379C18.6194 13.9437 18.279 13.9464 18.0284 13.9464C17.3835 13.9464 17.3308 13.9288 17.2529 13.9028C17.0667 13.8408 16.9216 13.6932 16.8646 13.508C16.7689 13.197 16.921 12.9978 17.1316 12.7221C17.2941 12.5093 17.5965 12.1134 18.1035 11.3888C18.2588 11.1671 18.3229 11.0131 18.3489 10.9177L18.3543 10.8755C18.3478 10.8174 18.3201 10.7637 18.2765 10.7247C18.233 10.6857 18.1766 10.6641 18.1181 10.6641C18.0048 10.6641 17.9068 10.7444 17.885 10.8549C17.8226 11.1725 17.5147 11.3796 17.1971 11.3169C16.8796 11.2545 16.6727 10.9466 16.7351 10.629C16.8645 9.97027 17.4462 9.49214 18.1181 9.49214C18.8953 9.49214 19.5276 10.1244 19.5276 10.9016C19.5256 10.9774 19.5107 11.0838 19.4965 11.1584C19.4303 11.4439 19.2887 11.739 19.0636 12.0607C18.897 12.2991 18.7282 12.5359 18.5572 12.7711C18.7266 12.7699 18.9018 12.7681 19.0707 12.766C19.3951 12.7617 19.6599 13.021 19.6639 13.3446C19.6681 13.6682 19.4091 13.9338 19.0855 13.9379Z" fill="#30C46C"/>
<path d="M13.6875 10.4297C14.6583 10.4297 15.4453 9.64269 15.4453 8.67188C15.4453 7.70106 14.6583 6.91406 13.6875 6.91406C12.7167 6.91406 11.9297 7.70106 11.9297 8.67188C11.9297 9.64269 12.7167 10.4297 13.6875 10.4297Z" fill="#30C46C"/>
<path d="M13.9035 21.3934C13.6289 21.1188 13.1837 21.1188 12.9091 21.3934L12.7031 21.5994V19.5469C12.7031 19.1586 12.3883 18.8438 12 18.8438C11.6117 18.8438 11.2969 19.1586 11.2969 19.5469V21.5994L11.0909 21.3934C10.8163 21.1188 10.3712 21.1188 10.0966 21.3934C9.82198 21.668 9.82198 22.1132 10.0966 22.3878L11.5028 23.794C11.7774 24.0686 12.2226 24.0686 12.4972 23.794L13.9034 22.3878C14.1781 22.1132 14.1781 21.668 13.9035 21.3934ZM20.466 21.3934C20.1914 21.1188 19.7462 21.1188 19.4716 21.3934L19.2656 21.5994V19.5469C19.2656 19.1586 18.9508 18.8438 18.5625 18.8438C18.1742 18.8438 17.8594 19.1586 17.8594 19.5469V21.5994L17.6534 21.3934C17.3788 21.1188 16.9337 21.1188 16.6591 21.3934C16.3845 21.668 16.3845 22.1132 16.6591 22.3878L18.0653 23.794C18.3399 24.0686 18.7851 24.0686 19.0597 23.794L20.4659 22.3878C20.7406 22.1132 20.7406 21.668 20.466 21.3934ZM7.34098 21.3934C7.06638 21.1188 6.62121 21.1188 6.34662 21.3934L6.14065 21.5994V19.5469C6.14065 19.1586 5.82584 18.8438 5.43752 18.8438C5.04921 18.8438 4.7344 19.1586 4.7344 19.5469V21.5994L4.52843 21.3934C4.25384 21.1188 3.80866 21.1188 3.53407 21.3934C3.25948 21.668 3.25948 22.1132 3.53407 22.3878L4.94032 23.794C5.21491 24.0686 5.66009 24.0686 5.93468 23.794L7.34093 22.3878C7.61557 22.1132 7.61557 21.668 7.34098 21.3934Z" fill="#30C46C"/>
</g>
<defs>
<clipPath id="clip0_0_4731">
<rect width="24" height="24" fill="white"/>
</clipPath>
</defs>
</svg>
