<svg width="24" height="24" viewBox="0 0 24 24" fill="none" xmlns="http://www.w3.org/2000/svg">
<g clip-path="url(#clip0_0_4897)">
<path d="M17.4022 5.3662C17.4022 4.20225 16.4559 3.25537 15.2926 3.25537C14.1295 3.25537 13.1831 4.20229 13.1831 5.3662C13.1831 6.53011 14.1294 7.47703 15.2926 7.47703C16.4559 7.47707 17.4022 6.53015 17.4022 5.3662ZM15.2926 6.07082C14.9049 6.07082 14.5894 5.75475 14.5894 5.36625C14.5894 4.97775 14.9048 4.66167 15.2926 4.66167C15.6804 4.66167 15.9959 4.97775 15.9959 5.36625C15.9959 5.75475 15.6805 6.07082 15.2926 6.07082Z" fill="#8D8E97"/>
<path d="M21.3514 16.5641H8.31459C7.65459 16.5641 7.11769 16.0263 7.11769 15.3653C7.11769 14.7044 7.65459 14.1666 8.31459 14.1666H15.2925C15.5485 14.1666 15.7443 14.042 15.8986 13.83L19.5958 8.74397C22.3188 5.20486 19.8055 0 15.2925 0C10.8703 0 8.25928 5.05397 10.9649 8.71294L13.9675 12.7604H8.31459C6.87919 12.7604 5.71144 13.929 5.71144 15.3653C5.71144 16.8017 6.87919 17.9703 8.31459 17.9703H21.3514C22.0364 17.9703 22.5938 18.5285 22.5938 19.2145C22.5938 19.9006 22.0364 20.4587 21.3514 20.4587H5.58413C5.27072 19.2328 4.15758 18.3237 2.83617 18.3237C1.27233 18.3237 0 19.5969 0 21.1619C0 22.7268 1.27233 24 2.83617 24C4.15758 24 5.27072 23.0909 5.58413 21.865H21.3514C22.8118 21.865 24 20.676 24 19.2145C24 17.7531 22.8118 16.5641 21.3514 16.5641ZM12.0901 7.86848C10.0954 5.2448 11.9572 1.40625 15.2925 1.40625C18.6493 1.40625 20.4988 5.28408 18.4719 7.89858C18.466 7.90617 15.328 12.2233 15.3241 12.2287C15.3206 12.224 12.0937 7.87317 12.0901 7.86848ZM2.83617 22.5938C2.04773 22.5938 1.40625 21.9514 1.40625 21.1619C1.40625 20.3723 2.04773 19.73 2.83617 19.73C3.62461 19.73 4.26609 20.3723 4.26609 21.1619C4.26609 21.9514 3.62461 22.5938 2.83617 22.5938Z" fill="#8D8E97"/>
</g>
<defs>
<clipPath id="clip0_0_4897">
<rect width="24" height="24" fill="white"/>
</clipPath>
</defs>
</svg>
