<svg width="24" height="24" viewBox="0 0 24 24" fill="none" xmlns="http://www.w3.org/2000/svg">
<g clip-path="url(#clip0_0_4684)">
<path d="M19.8696 10.5C17.5952 10.5023 15.7465 12.3656 15.7488 14.654C15.7498 15.9042 16.3727 17.3291 17.6004 18.8901C18.4765 20.0043 19.3446 20.7787 19.3811 20.811C19.666 21.0639 20.0948 21.0622 20.3777 20.8101C20.4143 20.7777 21.281 20.0015 22.1552 18.8859C23.0931 17.6885 23.9988 16.1612 23.9988 14.646C23.9969 12.362 22.162 10.5 19.8696 10.5ZM18.7488 14.6259C18.7478 14.0046 19.2506 13.5009 19.8724 13.4999C20.8733 13.4999 21.3742 14.715 20.6697 15.4195C19.9687 16.1221 18.7488 15.6328 18.7488 14.6259ZM3.62793 10.3106C3.76524 10.4326 3.94253 10.5 4.1262 10.5C4.30988 10.5 4.48717 10.4326 4.62448 10.3106C4.66105 10.2782 5.5287 9.50293 6.40385 8.38825C7.62963 6.82591 8.25119 5.40045 8.25119 4.14983C8.25119 1.86187 6.40057 0 4.1262 0C1.85184 0 0.0012207 1.86187 0.0012207 4.14983C0.0012207 5.40045 0.622781 6.82591 1.84856 8.38825C2.72371 9.50293 3.59136 10.2782 3.62793 10.3106ZM4.1262 2.99999C4.74636 2.99999 5.2512 3.50483 5.2512 4.12498C5.2512 4.74514 4.74636 5.24998 4.1262 5.24998C3.50605 5.24998 3.00121 4.74514 3.00121 4.12498C3.00121 3.50483 3.50605 2.99999 4.1262 2.99999Z" fill="#1EA5F7"/>
<path d="M21.0063 22.874C21.0063 23.9015 19.732 24.393 19.0436 23.6249H3.37621C1.51528 23.6249 0.0012207 22.1109 0.0012207 20.2499C0.0012207 18.389 1.51528 16.8749 3.37621 16.8749H10.8996C11.9205 16.8749 12.7512 16.0443 12.7512 15.0234C12.7512 14.0024 11.9205 13.1718 10.8996 13.1718H4.9648C4.73839 13.4217 4.43703 13.5468 4.1262 13.5468C3.1289 13.5468 2.62518 12.3319 3.3298 11.6273C3.79302 11.1631 4.54555 11.1971 4.96433 11.6718H10.8996C12.7479 11.6718 14.2512 13.1751 14.2512 15.0234C14.2512 16.8717 12.7479 18.3749 10.8996 18.3749H3.37621C2.34215 18.3749 1.50121 19.2159 1.50121 20.2499C1.50121 21.284 2.34215 22.1249 3.37621 22.1249C20.2519 22.1249 19.0189 22.1469 19.0854 22.0804C19.7882 21.376 21.0055 21.8707 21.0063 22.874Z" fill="#1EA5F7"/>
</g>
<defs>
<clipPath id="clip0_0_4684">
<rect width="24" height="24" fill="white"/>
</clipPath>
</defs>
</svg>
