<svg width="24" height="24" viewBox="0 0 24 24" fill="none" xmlns="http://www.w3.org/2000/svg">
<path d="M17.9999 1.25H5.99988C4.7401 1.25 3.53192 1.75044 2.64112 2.64124C1.75032 3.53204 1.24988 4.74022 1.24988 6V18C1.24516 18.0163 1.24516 18.0337 1.24988 18.05C1.26305 19.3011 1.7693 20.4965 2.65868 21.3765C3.54805 22.2565 4.74872 22.7501 5.99988 22.75H17.9999C19.2459 22.7475 20.441 22.2555 21.3277 21.3801C22.2143 20.5047 22.7215 19.3159 22.7399 18.07V6C22.7399 4.74195 22.2408 3.53528 21.3522 2.64477C20.4635 1.75426 19.2579 1.25265 17.9999 1.25ZM21.2499 16L17.0699 11.22C16.8043 10.9373 16.4836 10.7119 16.1276 10.5579C15.7716 10.4039 15.3878 10.3244 14.9999 10.3244C14.612 10.3244 14.2282 10.4039 13.8722 10.5579C13.5161 10.7119 13.1955 10.9373 12.9299 11.22L10.0599 14.5L9.11988 13.36C8.86086 13.0493 8.53669 12.7993 8.17034 12.6277C7.80399 12.4562 7.40441 12.3673 6.99988 12.3673C6.59535 12.3673 6.19577 12.4562 5.82942 12.6277C5.46307 12.7993 5.1389 13.0493 4.87988 13.36L2.74988 15.93V6C2.75252 5.13886 3.09577 4.31374 3.7047 3.70482C4.31362 3.09589 5.13874 2.75264 5.99988 2.75H17.9999C18.861 2.75264 19.6861 3.09589 20.2951 3.70482C20.904 4.31374 21.2472 5.13886 21.2499 6V16Z" fill="#2D2F43"/>
<path d="M7 9C8.10457 9 9 8.10457 9 7C9 5.89543 8.10457 5 7 5C5.89543 5 5 5.89543 5 7C5 8.10457 5.89543 9 7 9Z" fill="#2D2F43"/>
</svg>
