<svg width="240" height="240" viewBox="0 0 240 240" fill="none" xmlns="http://www.w3.org/2000/svg">
<path d="M221.568 187.536C221.568 131.424 176.112 85.968 120 85.968C63.8879 85.968 18.4319 131.424 18.4319 187.536" fill="#FFDE25"/>
<path d="M123.984 158.496L142.848 143.856L156.48 153.552L177.552 140.448L204.672 160.752L203.328 172.752L133.488 175.824" fill="#FF9900"/>
<path d="M169.44 176.352C169.392 176.352 169.344 176.352 169.296 176.352C168.912 176.304 168.624 175.92 168.72 175.536C171.792 158.448 164.208 148.272 164.112 148.176C163.872 147.84 163.92 147.408 164.256 147.168C164.592 146.928 165.024 146.976 165.264 147.312C165.6 147.744 173.328 158.064 170.16 175.824C170.112 176.112 169.776 176.352 169.44 176.352Z" fill="#29A25A"/>
<path d="M166.32 150.432C166.32 150.432 168.48 145.584 162.528 144.912C161.52 150.72 166.32 150.432 166.32 150.432Z" fill="#29A25A"/>
<path d="M167.808 153.504C167.808 153.504 173.04 154.56 172.368 148.608C166.512 148.848 167.808 153.504 167.808 153.504Z" fill="#29A25A"/>
<path d="M167.904 153.408C167.904 153.408 164.544 149.28 161.28 154.272C165.984 157.824 167.904 153.408 167.904 153.408Z" fill="#29A25A"/>
<path d="M169.152 158.736C169.152 158.736 173.952 161.088 174.816 155.184C169.056 153.888 169.152 158.736 169.152 158.736Z" fill="#29A25A"/>
<path d="M169.248 158.64C169.248 158.64 167.04 153.792 162.624 157.824C166.272 162.432 169.248 158.64 169.248 158.64Z" fill="#29A25A"/>
<path d="M170.016 164.976C170.016 164.976 174.336 168.096 176.16 162.432C170.736 160.224 170.016 164.976 170.016 164.976Z" fill="#29A25A"/>
<path d="M170.16 164.928C170.16 164.928 168.816 159.744 163.776 162.96C166.512 168.144 170.16 164.928 170.16 164.928Z" fill="#29A25A"/>
<path d="M207.072 160.512C206.976 160.512 206.88 160.512 206.784 160.464C206.448 160.272 206.256 159.888 206.448 159.504C214.128 143.184 226.416 139.248 226.944 139.104C227.328 139.008 227.712 139.2 227.856 139.584C227.952 139.968 227.76 140.352 227.376 140.496C227.232 140.544 215.136 144.432 207.792 160.176C207.6 160.368 207.36 160.512 207.072 160.512Z" fill="#30C46C"/>
<path d="M224.208 141.024C224.208 141.024 225.264 135.792 230.496 138.72C228 144.048 224.208 141.024 224.208 141.024Z" fill="#30C46C"/>
<path d="M221.232 142.704C221.232 142.704 216.336 140.544 220.32 136.08C224.976 139.632 221.232 142.704 221.232 142.704Z" fill="#30C46C"/>
<path d="M221.232 142.56C221.232 142.56 226.368 141.12 226.128 147.12C220.224 147.264 221.232 142.56 221.232 142.56Z" fill="#30C46C"/>
<path d="M217.152 146.16C217.152 146.16 211.872 145.296 214.608 139.968C219.984 142.272 217.152 146.16 217.152 146.16Z" fill="#30C46C"/>
<path d="M217.104 146.016C217.104 146.016 221.712 143.328 223.008 149.184C217.344 150.864 217.104 146.016 217.104 146.016Z" fill="#30C46C"/>
<path d="M212.784 150.768C212.784 150.768 207.456 150.816 209.232 145.104C214.944 146.448 212.784 150.768 212.784 150.768Z" fill="#30C46C"/>
<path d="M212.736 150.624C212.736 150.624 216.816 147.168 219.072 152.736C213.792 155.376 212.736 150.624 212.736 150.624Z" fill="#30C46C"/>
<path d="M159.984 129.744C159.984 122.88 154.416 104.208 147.504 104.208C140.64 104.208 135.024 122.88 135.024 129.744C135.024 136.608 140.592 142.224 147.504 142.224C154.416 142.176 159.984 136.608 159.984 129.744Z" fill="#30C46C"/>
<path d="M147.552 159.984C147.168 159.984 146.832 159.648 146.832 159.264V124.176C146.832 123.792 147.168 123.456 147.552 123.456C147.936 123.456 148.272 123.792 148.272 124.176V159.264C148.272 159.648 147.936 159.984 147.552 159.984Z" fill="#0A3F7F"/>
<path d="M147.552 139.2C147.36 139.2 147.168 139.152 147.024 139.008L142.368 134.4C142.08 134.112 142.08 133.68 142.368 133.392C142.656 133.104 143.088 133.104 143.376 133.392L148.032 138C148.32 138.288 148.32 138.72 148.032 139.008C147.888 139.152 147.744 139.2 147.552 139.2Z" fill="#0A3F7F"/>
<path d="M147.552 132.672C147.36 132.672 147.168 132.624 147.024 132.48C146.736 132.192 146.736 131.76 147.024 131.472L150.192 128.256C150.48 127.968 150.912 127.968 151.2 128.256C151.488 128.544 151.488 128.976 151.2 129.264L148.032 132.48C147.888 132.576 147.744 132.672 147.552 132.672Z" fill="#0A3F7F"/>
<path d="M147.552 149.376C147.36 149.376 147.12 149.28 146.976 149.136C146.736 148.848 146.784 148.368 147.072 148.128L150.912 144.912C151.2 144.672 151.68 144.72 151.92 145.008C152.16 145.296 152.112 145.776 151.824 146.016L147.984 149.232C147.84 149.328 147.696 149.376 147.552 149.376Z" fill="#0A3F7F"/>
<path d="M168.864 131.328C168.864 122.496 176.016 98.496 184.896 98.496C193.776 98.496 200.928 122.496 200.928 131.328C200.928 140.16 193.728 147.36 184.896 147.36C176.064 147.36 168.864 140.16 168.864 131.328Z" fill="#30C46C"/>
<path d="M184.896 170.016C184.512 170.016 184.176 169.68 184.176 169.296V124.176C184.176 123.792 184.512 123.456 184.896 123.456C185.28 123.456 185.616 123.792 185.616 124.176V169.296C185.616 169.68 185.28 170.016 184.896 170.016Z" fill="#0A3F7F"/>
<path d="M184.896 143.28C184.704 143.28 184.512 143.232 184.368 143.088C184.08 142.8 184.08 142.368 184.368 142.08L190.368 136.176C190.656 135.888 191.088 135.888 191.376 136.176C191.664 136.464 191.664 136.896 191.376 137.184L185.376 143.088C185.232 143.232 185.088 143.28 184.896 143.28Z" fill="#0A3F7F"/>
<path d="M184.896 134.88C184.704 134.88 184.512 134.832 184.368 134.688L180.288 130.56C180 130.272 180 129.84 180.288 129.552C180.576 129.264 181.008 129.264 181.296 129.552L185.376 133.68C185.664 133.968 185.664 134.4 185.376 134.688C185.232 134.832 185.088 134.88 184.896 134.88Z" fill="#0A3F7F"/>
<path d="M184.896 156.384C184.752 156.384 184.56 156.336 184.416 156.24L179.472 152.112C179.184 151.872 179.136 151.392 179.376 151.104C179.616 150.816 180.096 150.768 180.384 151.008L185.328 155.136C185.616 155.376 185.664 155.856 185.424 156.144C185.28 156.288 185.088 156.384 184.896 156.384Z" fill="#0A3F7F"/>
<path d="M214.896 166.608C215.04 161.28 213.456 156.24 209.808 153.84C201.888 148.656 189.36 153.84 190.464 164.544C176.688 162.384 176.064 172.608 176.064 172.608C176.064 172.608 171.888 165.12 161.808 170.496C162.336 158.64 151.728 151.584 142.464 157.248C137.136 140.64 120 139.152 120 139.152V183.024L202.56 182.832C204.48 186.096 207.984 183.456 212.064 183.456C218.16 183.456 223.056 183.36 223.056 177.264C223.056 172.128 219.6 167.856 214.896 166.608Z" fill="#29A25A"/>
<path opacity="0.2" d="M215.568 177.84C215.568 184.56 210.096 185.856 203.376 185.856C196.656 185.856 191.184 184.56 191.184 177.84C191.184 171.12 196.656 165.648 203.376 165.648C210.096 165.648 215.568 171.12 215.568 177.84Z" fill="#0A3F7F"/>
<path d="M184.08 181.152C184.08 181.152 179.472 177.072 180.384 175.68C181.248 174.24 184.656 177.552 184.656 177.552C184.656 177.552 181.344 171.984 183.504 170.976C185.664 169.968 186.816 176.496 186.816 176.496C186.816 176.496 187.44 171.168 189.216 171.6C190.992 171.984 189.312 177.984 189.312 177.984C189.312 177.984 191.184 173.76 192.864 174.336C194.544 174.96 190.752 181.584 190.752 181.584" fill="#30C46C"/>
<path opacity="0.2" d="M120 181.584V160.56C120 160.56 142.944 156.912 144.576 181.584" fill="#0A3F7F"/>
<path d="M120.768 180.576C120.768 180.576 121.344 169.344 123.792 169.296C126.192 169.248 125.04 176.928 125.04 176.928C125.04 176.928 127.104 169.296 129.36 170.16C131.472 170.976 127.584 177.648 127.584 177.648C127.584 177.648 131.664 173.232 133.104 174.768C134.736 176.496 127.872 181.584 127.872 181.584" fill="#30C46C"/>
<path d="M197.424 128.736C197.424 130.56 195.936 132 194.16 132C192.336 132 190.896 130.512 190.896 128.736C190.896 126.912 192.384 125.472 194.16 125.472C195.984 125.472 197.424 126.96 197.424 128.736Z" fill="#A4CD49"/>
<path d="M195.648 120.672C195.648 121.392 195.072 121.92 194.4 121.92C193.68 121.92 193.152 121.344 193.152 120.672C193.152 119.952 193.728 119.424 194.4 119.424C195.072 119.376 195.648 119.952 195.648 120.672Z" fill="#A4CD49"/>
<path d="M175.872 139.632C177.383 139.632 178.608 138.407 178.608 136.896C178.608 135.385 177.383 134.16 175.872 134.16C174.361 134.16 173.136 135.385 173.136 136.896C173.136 138.407 174.361 139.632 175.872 139.632Z" fill="#A4CD49"/>
<path d="M154.896 132.72C154.896 133.488 154.272 134.16 153.456 134.16C152.688 134.16 152.016 133.536 152.016 132.72C152.016 131.904 152.64 131.28 153.456 131.28C154.224 131.328 154.896 131.952 154.896 132.72Z" fill="#A4CD49"/>
<path d="M141.072 129.456C142.689 129.456 144 128.145 144 126.528C144 124.911 142.689 123.6 141.072 123.6C139.455 123.6 138.144 124.911 138.144 126.528C138.144 128.145 139.455 129.456 141.072 129.456Z" fill="#A4CD49"/>
<path opacity="0.2" d="M153.36 183.84C156.594 183.84 159.216 181.218 159.216 177.984C159.216 174.75 156.594 172.128 153.36 172.128C150.126 172.128 147.504 174.75 147.504 177.984C147.504 181.218 150.126 183.84 153.36 183.84Z" fill="#0A3F7F"/>
<path opacity="0.2" d="M146.016 172.416C146.811 172.416 147.456 171.771 147.456 170.976C147.456 170.181 146.811 169.536 146.016 169.536C145.221 169.536 144.576 170.181 144.576 170.976C144.576 171.771 145.221 172.416 146.016 172.416Z" fill="#0A3F7F"/>
<path opacity="0.2" d="M209.568 163.344C210.363 163.344 211.008 162.699 211.008 161.904C211.008 161.109 210.363 160.464 209.568 160.464C208.773 160.464 208.128 161.109 208.128 161.904C208.128 162.699 208.773 163.344 209.568 163.344Z" fill="#0A3F7F"/>
<path opacity="0.2" d="M153.552 167.664C153.552 168.864 152.592 169.824 151.392 169.824C150.192 169.824 149.232 168.864 149.232 167.664C149.232 166.464 150.192 165.504 151.392 165.504C152.592 165.504 153.552 166.464 153.552 167.664Z" fill="#0A3F7F"/>
<path opacity="0.2" d="M130.128 154.608C130.128 156.288 128.736 157.68 127.056 157.68C125.376 157.68 123.984 156.288 123.984 154.608C123.984 152.928 125.376 151.536 127.056 151.536C128.736 151.536 130.128 152.928 130.128 154.608Z" fill="#0A3F7F"/>
<path d="M138.24 81.696H171.504C171.504 81.696 169.392 73.872 162.384 76.032C160.8 65.712 146.88 64.848 145.632 76.656C140.208 75.408 138.24 81.696 138.24 81.696Z" fill="#DBEBB7"/>
<path d="M179.904 69.984H218.976C218.976 69.984 215.664 64.176 208.272 66.288C208.032 58.512 196.656 53.328 188.256 61.632C181.632 59.232 177.456 66.384 179.904 69.984Z" fill="#DBEBB7"/>
<path d="M193.584 48.528H145.824C145.824 48.528 149.856 41.424 158.928 44.016C159.216 34.512 173.136 28.176 183.36 38.352C191.52 35.376 196.608 44.16 193.584 48.528Z" fill="#DBEBB7"/>
<path d="M201.456 102.384C201.408 102.384 201.36 102.384 201.312 102.384C201.12 102.336 200.976 102.144 200.976 101.952C200.88 100.608 198.912 99.792 198.912 99.792C198.672 99.696 198.528 99.408 198.624 99.168C198.72 98.928 199.008 98.784 199.248 98.88C199.344 98.928 201.072 99.6 201.696 100.992C203.184 99.984 205.248 100.512 205.344 100.512C205.584 100.56 205.776 100.848 205.68 101.088C205.632 101.328 205.344 101.52 205.104 101.424C205.104 101.424 202.848 100.848 201.792 102.144C201.744 102.336 201.6 102.384 201.456 102.384Z" fill="#0A3F7F"/>
<path d="M209.136 93.12C209.088 93.12 209.088 93.12 209.136 93.12C208.896 93.12 208.752 92.976 208.656 92.784C208.416 91.968 206.976 91.728 206.976 91.728C206.736 91.68 206.544 91.44 206.592 91.2C206.64 90.96 206.88 90.768 207.12 90.816C207.168 90.816 208.416 91.008 209.184 91.824C210.096 90.96 211.584 90.96 211.632 90.96C211.92 90.96 212.112 91.2 212.112 91.44C212.112 91.728 211.872 91.92 211.632 91.92C211.632 91.92 210.048 91.92 209.568 92.88C209.472 92.976 209.28 93.12 209.136 93.12Z" fill="#0A3F7F"/>
<path d="M193.056 89.328C192.912 89.328 192.72 89.232 192.624 89.088C191.952 87.936 189.84 88.08 189.792 88.08C189.552 88.08 189.312 87.888 189.264 87.648C189.264 87.408 189.456 87.168 189.696 87.12C189.792 87.12 191.664 86.976 192.864 87.888C193.728 86.304 195.84 85.824 195.936 85.824C196.176 85.776 196.464 85.92 196.512 86.208C196.56 86.448 196.416 86.736 196.128 86.784C196.128 86.784 193.824 87.312 193.488 88.944C193.44 89.136 193.296 89.28 193.104 89.328C193.104 89.328 193.104 89.328 193.056 89.328Z" fill="#0A3F7F"/>
<path d="M89.9042 56.208C89.9042 56.208 86.9762 54.672 88.4162 50.736C84.9602 53.184 78.5762 49.92 79.2002 44.64C74.6882 46.896 66.7202 45.408 69.7442 36.528C66.3842 36.288 64.8482 29.568 69.9842 28.704C69.3602 23.952 84.0962 15.84 90.4802 29.616C95.2322 28.416 96.9602 35.568 92.3522 37.152C95.0882 38.064 96.4802 44.016 92.4962 46.272C99.8882 45.504 100.56 52.368 99.7442 55.776" fill="#497EBD"/>
<path d="M76.4642 41.952C76.5602 42.672 76.0802 43.344 75.3602 43.488C74.6402 43.584 73.9682 43.104 73.8242 42.384C73.7282 41.664 74.2082 40.992 74.9282 40.848C75.6482 40.752 76.3682 41.232 76.4642 41.952Z" fill="#6AA1E3"/>
<path d="M82.8001 40.56C82.9441 41.52 82.272 42.432 81.312 42.576C80.352 42.72 79.44 42.048 79.296 41.088C79.152 40.128 79.8241 39.216 80.7841 39.072C81.7441 38.928 82.6561 39.6 82.8001 40.56Z" fill="#6AA1E3"/>
<path d="M87.2642 45.84C87.5042 47.328 86.4482 48.672 85.0082 48.912C83.5682 49.152 82.1762 48.096 81.9362 46.656C81.6962 45.168 82.7522 43.824 84.1922 43.584C85.6322 43.344 87.0242 44.352 87.2642 45.84Z" fill="#6AA1E3"/>
<path d="M34.4161 45.6C34.4161 45.6 40.4161 45.12 42.0961 50.64C43.7761 56.208 39.0241 60.624 39.0241 60.624C39.0241 60.624 40.5601 60.816 40.3201 62.496C42.3841 61.824 44.6401 63.36 44.2081 65.664C47.9521 67.008 48.2881 72.192 44.5441 74.112C49.3441 78.48 43.6801 85.056 43.6801 85.056H38.3041C38.3041 85.056 37.5841 81.456 36.8641 80.064C30.7201 81.264 29.5681 75.936 29.5681 75.936C29.5681 75.936 24.2401 75.456 24.6721 69.312C17.5681 70.272 15.4561 63.024 19.1521 59.328C11.7601 54.48 15.6001 39.408 26.2081 41.904C27.8881 39.6 29.5201 41.808 29.5201 41.808C29.5201 41.808 33.9361 40.416 34.4161 45.6Z" fill="#497EBD"/>
<path d="M25.1522 65.04C25.2002 66.432 24.0962 67.632 22.6562 67.68C21.2642 67.728 20.0642 66.624 20.0162 65.184C19.9682 63.792 21.0722 62.592 22.5122 62.544C23.9522 62.544 25.1042 63.648 25.1522 65.04Z" fill="#6AA1E3"/>
<path d="M29.0881 70.224C29.0881 70.896 28.5601 71.472 27.8881 71.472C27.2161 71.472 26.6401 70.944 26.6401 70.272C26.6401 69.6 27.1681 69.024 27.8401 69.024C28.4641 69.024 29.0401 69.552 29.0881 70.224Z" fill="#6AA1E3"/>
<path d="M44.208 76.608C44.208 77.28 43.68 77.856 43.008 77.856C42.336 77.856 41.76 77.328 41.76 76.656C41.76 75.984 42.288 75.408 42.96 75.408C43.632 75.408 44.208 75.936 44.208 76.608Z" fill="#6AA1E3"/>
<path d="M32.016 66.096C32.064 67.248 31.152 68.208 30 68.208C28.848 68.256 27.888 67.344 27.888 66.192C27.84 65.04 28.752 64.08 29.904 64.08C31.008 64.032 31.968 64.944 32.016 66.096Z" fill="#6AA1E3"/>
<path d="M109.776 79.056H106.224V121.248H109.776V79.056Z" fill="#2466B7"/>
<path d="M106.224 77.856C106.224 77.856 104.784 76.368 106.224 74.016C99.6482 75.408 91.7282 71.52 90.0962 67.008C85.3442 72.192 77.4722 72.96 75.1202 65.136C72.1442 65.136 71.3282 60.144 74.3042 58.944C74.8802 56.16 76.9922 57.312 76.9922 57.312C76.9922 57.312 83.8082 51.84 86.9762 59.376C91.8722 58.416 91.3922 62.832 91.3922 62.832C91.3922 62.832 106.896 58.08 107.328 68.976C110.784 68.88 110.4 72.144 110.4 72.144C110.4 72.144 112.752 74.544 109.824 77.856" fill="#497EBD"/>
<path d="M80.9762 66C81.0722 66.768 80.5922 67.44 79.8242 67.584C79.0562 67.68 78.3842 67.2 78.2402 66.432C78.1442 65.664 78.6242 64.992 79.3922 64.848C80.1602 64.752 80.8802 65.28 80.9762 66Z" fill="#6AA1E3"/>
<path d="M86.1122 66.768C86.2562 67.776 85.5362 68.736 84.5282 68.928C83.5202 69.072 82.5602 68.352 82.3682 67.344C82.2242 66.336 82.9442 65.376 83.9522 65.184C85.0082 65.04 85.9682 65.76 86.1122 66.768Z" fill="#6AA1E3"/>
<path d="M110.784 76.992H105.216V81.168H110.784V76.992Z" fill="#0A3F7F"/>
<path d="M109.776 83.616H106.224V86.256H109.776V83.616Z" fill="#0A3F7F"/>
<path d="M109.776 88.56H106.224V89.808H109.776V88.56Z" fill="#497EBD"/>
<path d="M109.776 91.44H106.224V92.688H109.776V91.44Z" fill="#497EBD"/>
<path d="M109.776 94.272H106.224V95.52H109.776V94.272Z" fill="#497EBD"/>
<path d="M109.776 97.104H106.224V98.352H109.776V97.104Z" fill="#497EBD"/>
<path d="M99.6961 56.64H88.4641V127.488H99.6961V56.64Z" fill="#0A3F7F"/>
<path d="M99.6961 82.416H88.4641V83.568H99.6961V82.416Z" fill="white"/>
<path d="M99.6961 84.912H88.4641V86.064H99.6961V84.912Z" fill="white"/>
<path d="M99.6961 87.408H88.4641V88.56H99.6961V87.408Z" fill="white"/>
<path d="M99.6961 89.904H88.4641V91.056H99.6961V89.904Z" fill="white"/>
<path d="M99.024 54.672H89.136C88.128 54.672 87.312 55.488 87.312 56.496V56.736C87.312 57.744 88.128 58.56 89.136 58.56H99.024C100.032 58.56 100.848 57.744 100.848 56.736V56.496C100.848 55.488 100.032 54.672 99.024 54.672Z" fill="#2466B7"/>
<path d="M99.6961 61.536H88.4641V65.808H99.6961V61.536Z" fill="#2466B7"/>
<path d="M99.6961 68.736H88.4641V73.008H99.6961V68.736Z" fill="#2466B7"/>
<path d="M99.6961 75.936H88.4641V80.208H99.6961V75.936Z" fill="#2466B7"/>
<path d="M84.6723 181.152H33.0723V89.328L84.6723 93.648V181.152Z" fill="#0A3F7F"/>
<path d="M40.3682 113.088H38.6882C38.1122 113.088 37.6802 112.608 37.6802 112.08V107.952C37.6802 107.376 38.1602 106.944 38.6882 106.944H40.3682C40.9442 106.944 41.3762 107.424 41.3762 107.952V112.08C41.3762 112.608 40.9442 113.088 40.3682 113.088Z" fill="#2466B7"/>
<path d="M47.3281 113.088H45.6481C45.0721 113.088 44.6401 112.608 44.6401 112.08V107.952C44.6401 107.376 45.1201 106.944 45.6481 106.944H47.3281C47.9041 106.944 48.3361 107.424 48.3361 107.952V112.08C48.3841 112.608 47.9041 113.088 47.3281 113.088Z" fill="#2466B7"/>
<path d="M54.3362 113.088H52.6562C52.0802 113.088 51.6482 112.608 51.6482 112.08V107.952C51.6482 107.376 52.1282 106.944 52.6562 106.944H54.3362C54.9122 106.944 55.3442 107.424 55.3442 107.952V112.08C55.3442 112.608 54.8642 113.088 54.3362 113.088Z" fill="#2466B7"/>
<path d="M45.1681 83.616H37.6321V99.744H45.1681V83.616Z" fill="#0A3F7F"/>
<path d="M50.9762 86.208H48.7202V95.472H50.9762V86.208Z" fill="#0A3F7F"/>
<path d="M58.8963 80.496H54.1443V96.624H58.8963V80.496Z" fill="#0A3F7F"/>
<path d="M56.7842 96.192H31.4402V104.208H56.7842V96.192Z" fill="#0A3F7F"/>
<path d="M79.2961 132.24H24.6721V182.784H79.2961V132.24Z" fill="#0A3F7F"/>
<path d="M79.3441 108.72L24.6721 127.056V132.24H79.3441V108.72Z" fill="#2466B7"/>
<path d="M35.8562 136.224H28.1282V148.656H35.8562V136.224Z" fill="#2466B7"/>
<path d="M34.2721 138.48H29.6641V146.4H34.2721V138.48Z" fill="white"/>
<path d="M46.5122 136.224H38.7842V148.656H46.5122V136.224Z" fill="#2466B7"/>
<path d="M44.9281 138.48H40.3201V146.4H44.9281V138.48Z" fill="white"/>
<path d="M57.1682 136.224H49.4402V148.656H57.1682V136.224Z" fill="#2466B7"/>
<path d="M55.5841 138.48H50.9761V146.4H55.5841V138.48Z" fill="white"/>
<path d="M35.8562 151.584H28.1282V164.016H35.8562V151.584Z" fill="#2466B7"/>
<path d="M34.2721 153.84H29.6641V161.76H34.2721V153.84Z" fill="white"/>
<path d="M46.5122 151.584H38.7842V164.016H46.5122V151.584Z" fill="#2466B7"/>
<path d="M44.9281 153.84H40.3201V161.76H44.9281V153.84Z" fill="white"/>
<path d="M57.1682 151.584H49.4402V164.016H57.1682V151.584Z" fill="#2466B7"/>
<path d="M55.5841 153.84H50.9761V161.76H55.5841V153.84Z" fill="white"/>
<path d="M79.2961 167.664H24.6721V182.784H79.2961V167.664Z" fill="#2466B7"/>
<path d="M30.2401 169.44H26.0161V171.6H30.2401V169.44Z" fill="#0A3F7F"/>
<path d="M37.1041 169.44H32.8801V171.6H37.1041V169.44Z" fill="#0A3F7F"/>
<path d="M43.9681 169.44H39.7441V171.6H43.9681V169.44Z" fill="#0A3F7F"/>
<path d="M50.8322 169.44H46.6082V171.6H50.8322V169.44Z" fill="#0A3F7F"/>
<path d="M57.6962 169.44H53.4722V171.6H57.6962V169.44Z" fill="#0A3F7F"/>
<path d="M64.5602 169.44H60.3362V171.6H64.5602V169.44Z" fill="#0A3F7F"/>
<path d="M71.4242 169.44H67.2002V171.6H71.4242V169.44Z" fill="#0A3F7F"/>
<path d="M78.2882 169.44H74.0642V171.6H78.2882V169.44Z" fill="#0A3F7F"/>
<path d="M33.5521 172.608H29.3281V174.768H33.5521V172.608Z" fill="#0A3F7F"/>
<path d="M40.4161 172.608H36.1921V174.768H40.4161V172.608Z" fill="#0A3F7F"/>
<path d="M47.2802 172.608H43.0562V174.768H47.2802V172.608Z" fill="#0A3F7F"/>
<path d="M54.1442 172.608H49.9202V174.768H54.1442V172.608Z" fill="#0A3F7F"/>
<path d="M61.0082 172.608H56.7842V174.768H61.0082V172.608Z" fill="#0A3F7F"/>
<path d="M67.8722 172.608H63.6482V174.768H67.8722V172.608Z" fill="#0A3F7F"/>
<path d="M74.7362 172.608H70.5122V174.768H74.7362V172.608Z" fill="#0A3F7F"/>
<path d="M30.2401 175.824H26.0161V177.984H30.2401V175.824Z" fill="#0A3F7F"/>
<path d="M37.1041 175.824H32.8801V177.984H37.1041V175.824Z" fill="#0A3F7F"/>
<path d="M43.9681 175.824H39.7441V177.984H43.9681V175.824Z" fill="#0A3F7F"/>
<path d="M50.8322 175.824H46.6082V177.984H50.8322V175.824Z" fill="#0A3F7F"/>
<path d="M57.6962 175.824H53.4722V177.984H57.6962V175.824Z" fill="#0A3F7F"/>
<path d="M64.5602 175.824H60.3362V177.984H64.5602V175.824Z" fill="#0A3F7F"/>
<path d="M71.4242 175.824H67.2002V177.984H71.4242V175.824Z" fill="#0A3F7F"/>
<path d="M78.2882 175.824H74.0642V177.984H78.2882V175.824Z" fill="#0A3F7F"/>
<path d="M33.5521 178.992H29.3281V181.152H33.5521V178.992Z" fill="#0A3F7F"/>
<path d="M40.4161 178.992H36.1921V181.152H40.4161V178.992Z" fill="#0A3F7F"/>
<path d="M47.2802 178.992H43.0562V181.152H47.2802V178.992Z" fill="#0A3F7F"/>
<path d="M54.1442 178.992H49.9202V181.152H54.1442V178.992Z" fill="#0A3F7F"/>
<path d="M61.0082 178.992H56.7842V181.152H61.0082V178.992Z" fill="#0A3F7F"/>
<path d="M67.8722 178.992H63.6482V181.152H67.8722V178.992Z" fill="#0A3F7F"/>
<path d="M74.7362 178.992H70.5122V181.152H74.7362V178.992Z" fill="#0A3F7F"/>
<path d="M118.656 132.24H64.0322V182.784H118.656V132.24Z" fill="#2466B7"/>
<path d="M118.656 108.72L64.0322 127.056V132.24H118.656V108.72Z" fill="#497EBD"/>
<path d="M75.1682 136.224H67.4402V148.656H75.1682V136.224Z" fill="#0A3F7F"/>
<path d="M73.6322 138.48H69.0242V146.4H73.6322V138.48Z" fill="white"/>
<path d="M85.8242 136.224H78.0962V148.656H85.8242V136.224Z" fill="#0A3F7F"/>
<path d="M84.2401 138.48H79.6321V146.4H84.2401V138.48Z" fill="white"/>
<path d="M96.4802 136.224H88.7522V148.656H96.4802V136.224Z" fill="#0A3F7F"/>
<path d="M94.8961 138.48H90.2881V146.4H94.8961V138.48Z" fill="white"/>
<path d="M75.1682 151.584H67.4402V164.016H75.1682V151.584Z" fill="#0A3F7F"/>
<path d="M73.6322 153.84H69.0242V161.76H73.6322V153.84Z" fill="white"/>
<path d="M85.8242 151.584H78.0962V164.016H85.8242V151.584Z" fill="#0A3F7F"/>
<path d="M84.2401 153.84H79.6321V161.76H84.2401V153.84Z" fill="white"/>
<path d="M96.4802 151.584H88.7522V164.016H96.4802V151.584Z" fill="#0A3F7F"/>
<path d="M94.8961 153.84H90.2881V161.76H94.8961V153.84Z" fill="white"/>
<path d="M118.656 167.664H64.0322V182.784H118.656V167.664Z" fill="#0A3F7F"/>
<g opacity="0.2">
<path d="M69.5521 169.44H65.3281V171.6H69.5521V169.44Z" fill="#0A3F7F"/>
<path d="M76.4161 169.44H72.1921V171.6H76.4161V169.44Z" fill="#0A3F7F"/>
<path d="M83.2802 169.44H79.0562V171.6H83.2802V169.44Z" fill="#0A3F7F"/>
<path d="M90.1442 169.44H85.9202V171.6H90.1442V169.44Z" fill="#0A3F7F"/>
<path d="M97.0082 169.44H92.7842V171.6H97.0082V169.44Z" fill="#0A3F7F"/>
<path d="M103.872 169.44H99.6482V171.6H103.872V169.44Z" fill="#0A3F7F"/>
<path d="M110.736 169.44H106.512V171.6H110.736V169.44Z" fill="#0A3F7F"/>
<path d="M117.6 169.44H113.376V171.6H117.6V169.44Z" fill="#0A3F7F"/>
<path d="M72.8641 172.608H68.6401V174.768H72.8641V172.608Z" fill="#0A3F7F"/>
<path d="M79.7282 172.608H75.5042V174.768H79.7282V172.608Z" fill="#0A3F7F"/>
<path d="M86.5922 172.608H82.3682V174.768H86.5922V172.608Z" fill="#0A3F7F"/>
<path d="M93.4562 172.608H89.2322V174.768H93.4562V172.608Z" fill="#0A3F7F"/>
<path d="M100.32 172.608H96.0962V174.768H100.32V172.608Z" fill="#0A3F7F"/>
<path d="M107.184 172.608H102.96V174.768H107.184V172.608Z" fill="#0A3F7F"/>
<path d="M114.048 172.608H109.824V174.768H114.048V172.608Z" fill="#0A3F7F"/>
</g>
<g opacity="0.2">
<path d="M69.5521 175.824H65.3281V177.984H69.5521V175.824Z" fill="#0A3F7F"/>
<path d="M76.4161 175.824H72.1921V177.984H76.4161V175.824Z" fill="#0A3F7F"/>
<path d="M83.2802 175.824H79.0562V177.984H83.2802V175.824Z" fill="#0A3F7F"/>
<path d="M90.1442 175.824H85.9202V177.984H90.1442V175.824Z" fill="#0A3F7F"/>
<path d="M97.0082 175.824H92.7842V177.984H97.0082V175.824Z" fill="#0A3F7F"/>
<path d="M103.872 175.824H99.6482V177.984H103.872V175.824Z" fill="#0A3F7F"/>
<path d="M110.736 175.824H106.512V177.984H110.736V175.824Z" fill="#0A3F7F"/>
<path d="M117.6 175.824H113.376V177.984H117.6V175.824Z" fill="#0A3F7F"/>
<path d="M72.8641 178.992H68.6401V181.152H72.8641V178.992Z" fill="#0A3F7F"/>
<path d="M79.7282 178.992H75.5042V181.152H79.7282V178.992Z" fill="#0A3F7F"/>
<path d="M86.5922 178.992H82.3682V181.152H86.5922V178.992Z" fill="#0A3F7F"/>
<path d="M93.4562 178.992H89.2322V181.152H93.4562V178.992Z" fill="#0A3F7F"/>
<path d="M100.32 178.992H96.0962V181.152H100.32V178.992Z" fill="#0A3F7F"/>
<path d="M107.184 178.992H102.96V181.152H107.184V178.992Z" fill="#0A3F7F"/>
<path d="M114.048 178.992H109.824V181.152H114.048V178.992Z" fill="#0A3F7F"/>
</g>
<path d="M114.864 140.448H100.944C100.608 140.448 100.32 140.16 100.32 139.824C100.32 139.488 100.608 139.2 100.944 139.2H114.864C115.2 139.2 115.488 139.488 115.488 139.824C115.488 140.16 115.2 140.448 114.864 140.448Z" fill="#497EBD"/>
<path d="M114.864 145.44H100.944C100.608 145.44 100.32 145.152 100.32 144.816C100.32 144.48 100.608 144.192 100.944 144.192H114.864C115.2 144.192 115.488 144.48 115.488 144.816C115.488 145.152 115.2 145.44 114.864 145.44Z" fill="#497EBD"/>
<path d="M114.864 150.48H100.944C100.608 150.48 100.32 150.192 100.32 149.856C100.32 149.52 100.608 149.232 100.944 149.232H114.864C115.2 149.232 115.488 149.52 115.488 149.856C115.488 150.192 115.2 150.48 114.864 150.48Z" fill="#497EBD"/>
<path d="M114.864 155.52H100.944C100.608 155.52 100.32 155.232 100.32 154.896C100.32 154.56 100.608 154.272 100.944 154.272H114.864C115.2 154.272 115.488 154.56 115.488 154.896C115.488 155.232 115.2 155.52 114.864 155.52Z" fill="#497EBD"/>
<path d="M114.864 160.56H100.944C100.608 160.56 100.32 160.272 100.32 159.936C100.32 159.6 100.608 159.312 100.944 159.312H114.864C115.2 159.312 115.488 159.6 115.488 159.936C115.488 160.272 115.2 160.56 114.864 160.56Z" fill="#497EBD"/>
<path d="M45.5041 82.464H37.2961C36.9601 82.464 36.6721 82.752 36.6721 83.088V84.144C36.6721 84.48 36.9601 84.768 37.2961 84.768H45.5041C45.8401 84.768 46.1281 84.48 46.1281 84.144V83.088C46.0801 82.752 45.8401 82.464 45.5041 82.464Z" fill="#0A3F7F"/>
<path opacity="0.2" d="M78.5281 99.936H52.8481C52.0321 99.936 51.3601 99.264 51.3601 98.448C51.3601 97.632 52.0321 96.96 52.8481 96.96H78.5281C79.3441 96.96 80.0161 97.632 80.0161 98.448C80.0161 99.264 79.3441 99.936 78.5281 99.936Z" fill="#0A3F7F"/>
<path opacity="0.2" d="M78.5281 104.496H52.8481C52.0321 104.496 51.3601 103.824 51.3601 103.008C51.3601 102.192 52.0321 101.52 52.8481 101.52H78.5281C79.3441 101.52 80.0161 102.192 80.0161 103.008C80.0161 103.824 79.3441 104.496 78.5281 104.496Z" fill="#0A3F7F"/>
<path d="M120 24.816C119.088 24.816 118.368 25.536 118.368 26.448V182.736H121.584V26.448C121.632 25.536 120.912 24.816 120 24.816Z" fill="#0A3F7F"/>
<path d="M120 220.896C157.485 220.896 187.872 214.298 187.872 206.16C187.872 198.022 157.485 191.424 120 191.424C82.5153 191.424 52.1279 198.022 52.1279 206.16C52.1279 214.298 82.5153 220.896 120 220.896Z" fill="#2466B7"/>
<path d="M205.872 190.032H34.1279V206.112C34.1279 208.896 36.3839 211.2 39.2159 211.2H200.784C203.568 211.2 205.872 208.944 205.872 206.112V190.032Z" fill="#0A3F7F"/>
<path d="M218.88 183.84H21.1201V193.632C21.1201 196.416 23.3761 198.72 26.2081 198.72H213.84C216.624 198.72 218.928 196.464 218.928 193.632V183.84H218.88Z" fill="#A4CD49"/>
<path d="M225.552 186.768H14.448C12.384 186.768 10.656 185.088 10.656 182.976C10.656 180.912 12.336 179.184 14.448 179.184H225.504C227.568 179.184 229.296 180.864 229.296 182.976C229.296 185.088 227.616 186.768 225.552 186.768Z" fill="#30C46C"/>
</svg>
