<svg width="342" height="208" viewBox="0 0 342 208" fill="none" xmlns="http://www.w3.org/2000/svg">
<g clip-path="url(#clip0_0_6775)">
<path d="M342 174.941H0V174.987H342V174.941Z" fill="#E0E0E0"/>
<path d="M323.441 188.384H298.042V188.567H323.441V188.384Z" fill="#EBEBEB"/>
<path d="M232.378 190.442H225.72V190.625H232.378V190.442Z" fill="#EBEBEB"/>
<path d="M51.6649 182.532H18.5137V182.714H51.6649V182.532Z" fill="#EBEBEB"/>
<path d="M63.3841 182.532H58.5049V182.714H63.3841V182.532Z" fill="#EBEBEB"/>
<path d="M151.027 185.778H79.1616V185.961H151.027V185.778Z" fill="#EBEBEB"/>
<path d="M97.4471 141.837C97.6295 142.111 97.9031 142.294 98.2223 142.386C99.8639 143.026 97.7207 145.083 98.4959 145.22C99.5447 145.403 100.73 145.175 100.821 146.455C100.821 146.638 100.867 146.867 100.913 147.049C101.095 147.735 101.597 148.055 102.645 147.552C103.284 147.232 103.466 146.867 104.196 146.958C104.743 147.049 105.108 147.415 105.701 147.324C105.792 147.324 105.883 147.324 105.929 147.278C106.02 147.232 106.065 147.141 106.111 147.095C106.613 146.364 107.023 146.638 107.889 146.638C107.935 146.638 108.026 146.638 108.072 146.592C108.117 146.546 108.163 146.455 108.163 146.409C108.163 146.181 108.163 145.998 108.117 145.769C108.072 145.678 108.072 145.541 108.072 145.449C108.117 145.312 108.3 145.22 108.437 145.175C108.801 144.992 108.984 144.626 109.029 144.26C109.85 144.352 110.58 144.443 110.671 145.403C110.671 145.632 110.717 145.815 110.762 145.998C110.945 146.684 111.446 147.004 112.495 146.501C113.133 146.181 113.316 145.815 114.045 145.906C114.593 145.998 114.957 146.364 115.55 146.272H115.596C115.641 146.318 115.687 146.364 115.778 146.409C116.827 146.592 118.013 146.364 118.104 147.644C118.104 147.872 118.15 148.055 118.195 148.238C118.378 148.924 118.879 149.244 119.928 148.741C120.566 148.421 120.749 148.055 121.478 148.147C122.025 148.193 122.39 148.604 122.983 148.513C123.074 148.513 123.166 148.467 123.211 148.467C123.302 148.421 123.348 148.375 123.393 148.284C123.895 147.552 124.305 147.827 125.172 147.827C125.217 147.827 125.309 147.827 125.354 147.781C125.4 147.735 125.445 147.644 125.445 147.598C125.445 147.37 125.445 147.187 125.4 146.958C125.354 146.867 125.354 146.729 125.354 146.638C125.4 146.501 125.582 146.455 125.719 146.364C126.266 146.044 126.494 145.312 126.175 144.763C126.13 144.718 126.129 144.672 126.084 144.626C125.901 144.443 125.674 144.26 125.719 143.986C125.765 143.757 126.13 143.666 126.403 143.529C126.996 143.209 126.905 142.066 126.449 141.7C126.175 141.471 125.856 141.197 125.947 140.877C126.266 140.877 126.54 140.785 126.813 140.648C127.406 140.374 127.589 140.054 128.181 140.054L128.501 140.099C129.002 140.191 129.367 140.511 129.914 140.465C130.142 140.648 130.279 140.968 130.279 141.288C130.279 141.517 130.325 141.7 130.37 141.883C130.553 142.568 131.054 142.889 132.103 142.386C132.742 142.066 132.924 141.7 133.653 141.791C134.201 141.883 134.565 142.248 135.158 142.157C135.249 142.157 135.341 142.157 135.386 142.111C135.477 142.066 135.523 141.974 135.569 141.928C136.07 141.197 136.481 141.471 137.347 141.471C137.393 141.471 137.484 141.471 137.529 141.425C137.575 141.38 137.621 141.288 137.621 141.242C137.621 141.014 137.621 140.831 137.575 140.602C137.53 140.511 137.529 140.374 137.529 140.282C137.575 140.145 137.757 140.054 137.894 140.008C138.441 139.688 138.669 139.002 138.35 138.408C138.305 138.362 138.305 138.316 138.259 138.27C138.077 138.087 137.849 137.905 137.894 137.63C137.94 137.402 138.305 137.31 138.578 137.173C139.171 136.853 139.08 135.71 138.624 135.344C138.35 135.115 138.031 134.795 138.122 134.475C138.213 134.201 138.533 134.109 138.761 133.927C139.125 133.515 138.806 132.829 138.35 132.463C137.894 132.098 137.302 131.869 137.119 131.32C137.074 131.183 137.028 131.046 136.982 130.909C136.709 130.497 136.07 130.772 135.66 131.046C135.249 131.32 134.611 131.595 134.383 131.183C134.246 130.954 134.338 130.589 134.155 130.36C134.018 130.131 133.653 130.086 133.334 130.223C133.425 129.994 133.745 129.903 133.927 129.674C134.292 129.263 133.973 128.577 133.517 128.211C133.061 127.845 132.468 127.571 132.285 127.068C132.24 126.931 132.194 126.794 132.149 126.656C131.875 126.245 131.237 126.519 130.826 126.794C130.416 127.068 129.778 127.342 129.549 126.931C129.413 126.702 129.504 126.336 129.321 126.108C129.094 125.696 128.455 125.879 128.09 126.199C127.725 126.519 127.315 126.931 126.859 126.794C126.677 126.748 126.54 126.656 126.403 126.519C126.586 126.016 126.494 125.468 126.129 125.056C125.856 124.827 125.537 124.507 125.628 124.187C125.719 123.913 126.038 123.821 126.266 123.639C126.631 123.227 126.312 122.541 125.856 122.175C125.4 121.81 124.807 121.535 124.625 121.032C124.579 120.895 124.533 120.758 124.488 120.621C124.214 120.209 123.576 120.484 123.165 120.758C122.755 121.032 122.117 121.307 121.889 120.895C121.752 120.667 121.843 120.301 121.661 120.072C121.433 119.661 120.794 119.843 120.429 120.164C120.065 120.484 119.654 120.895 119.198 120.758C118.788 120.667 118.56 120.209 118.149 120.164C117.739 120.118 117.374 120.575 117.283 120.987C117.192 121.398 117.192 121.855 116.964 122.221C116.325 122.084 115.505 122.13 115.322 122.724C115.231 123.136 115.55 123.501 115.778 123.821C116.052 124.142 116.234 124.645 116.006 124.965C115.869 124.965 115.733 124.965 115.596 125.01C115.55 124.965 115.505 124.919 115.459 124.873C115.322 124.645 115.413 124.279 115.231 124.05C115.003 123.639 114.365 123.821 114 124.142C113.635 124.462 113.225 124.873 112.769 124.736C112.358 124.645 112.13 124.187 111.72 124.142C111.309 124.096 110.945 124.553 110.853 124.965C110.762 125.239 110.762 125.559 110.671 125.833C110.625 125.742 110.534 125.65 110.534 125.559C110.489 125.422 110.443 125.285 110.397 125.148C110.124 124.736 109.485 125.01 109.075 125.285C108.665 125.559 108.026 125.833 107.753 125.422C107.616 125.193 107.707 124.827 107.525 124.599C107.297 124.187 106.658 124.37 106.293 124.69C105.929 125.01 105.518 125.422 105.062 125.285C104.652 125.193 104.424 124.736 104.013 124.69C103.603 124.645 103.238 125.056 103.147 125.513C103.056 125.925 103.056 126.382 102.828 126.748C102.189 126.611 101.369 126.656 101.186 127.251C101.095 127.662 101.414 128.028 101.642 128.348C101.916 128.668 102.098 129.171 101.87 129.491C101.46 129.491 101.004 129.583 100.639 129.811C100.274 130.04 100.137 130.543 100.274 130.954C100.457 131.229 100.73 131.412 101.049 131.503C102.691 132.143 100.548 134.201 101.369 134.338C102.417 134.521 103.603 134.292 103.694 135.573C103.649 135.618 103.603 135.618 103.557 135.664C103.193 135.984 102.782 136.396 102.326 136.259C101.916 136.167 101.688 135.71 101.277 135.664C100.867 135.618 100.502 136.03 100.411 136.487C100.32 136.899 100.32 137.356 100.092 137.722C99.4535 137.585 98.6327 137.63 98.4503 138.225C98.3591 138.636 98.6783 139.002 98.9063 139.322C99.1799 139.642 99.3623 140.145 99.1343 140.465C98.7239 140.465 98.2679 140.557 97.9031 140.785C97.4471 140.968 97.3103 141.425 97.4471 141.837Z" fill="#238D61"/>
<path d="M127.634 148.33C127.953 148.147 128.318 148.055 128.637 148.055C128.865 147.781 128.683 147.37 128.455 147.095C128.227 146.821 127.999 146.501 128.045 146.181C128.181 145.678 128.865 145.632 129.367 145.769C129.549 145.449 129.549 145.083 129.641 144.718C129.732 144.352 130.005 143.986 130.37 144.032C130.735 144.077 130.917 144.443 131.237 144.535C131.601 144.626 131.966 144.306 132.24 144.032C132.559 143.757 133.061 143.62 133.289 143.94C133.425 144.123 133.334 144.443 133.471 144.626C133.699 144.992 134.246 144.763 134.565 144.489C134.885 144.26 135.432 144.032 135.66 144.352C135.705 144.443 135.751 144.58 135.797 144.718C135.933 145.175 136.435 145.403 136.8 145.678C137.165 145.952 137.484 146.546 137.165 146.912C137.028 147.095 136.709 147.141 136.663 147.37C136.572 147.644 136.845 147.918 137.073 148.101C137.438 148.421 137.529 149.381 137.028 149.61C136.8 149.701 136.526 149.747 136.435 149.976C136.389 150.204 136.617 150.342 136.709 150.479C137.028 150.89 136.982 151.53 136.526 151.851C136.481 151.896 136.435 151.896 136.389 151.942C136.253 151.988 136.116 152.033 136.07 152.171C136.07 152.262 136.07 152.353 136.116 152.445C136.161 152.628 136.161 152.811 136.161 152.994C136.161 153.039 136.161 153.131 136.116 153.177C136.07 153.222 136.025 153.222 135.979 153.222C135.249 153.268 134.93 152.994 134.474 153.634C134.429 153.679 134.383 153.771 134.337 153.771C134.292 153.817 134.201 153.817 134.155 153.817C133.653 153.862 133.334 153.542 132.878 153.497C132.24 153.405 132.149 153.725 131.601 154C130.735 154.411 130.325 154.137 130.188 153.588C130.142 153.405 130.142 153.268 130.097 153.085C130.051 152.033 129.048 152.216 128.181 152.033C127.497 151.942 129.276 150.25 127.953 149.701C127.68 149.61 127.452 149.473 127.315 149.244C127.178 148.924 127.315 148.513 127.634 148.33Z" fill="#238D61"/>
<path d="M114.547 142.477L113.453 138.956L111.309 136.213L111.674 135.893L113.681 138.087L114.045 134.567H114.638C114.638 134.567 114.137 138.728 114.866 140.237C114.866 140.237 117.374 146.638 118.925 148.055C119.016 148.147 119.107 148.238 119.153 148.33C119.609 147.141 120.201 146.044 120.931 144.992C120.338 143.437 119.016 140.054 118.605 138.225C118.241 136.807 118.013 135.39 117.83 133.927L118.332 133.881C118.332 133.881 119.745 140.602 122.117 143.666C122.801 143.026 123.621 142.477 124.442 142.066C124.625 141.105 124.716 139.459 124.077 136.899L124.579 136.761C124.579 136.761 125.537 138.956 125.445 141.563C125.81 141.38 126.129 141.197 126.449 140.968C128.729 139.368 130.325 136.487 130.325 136.487L130.781 136.944C130.781 136.944 128.865 141.197 126.129 142.614C123.439 144.032 121.706 147.507 121.569 148.421C121.524 148.696 121.205 150.753 121.661 154.365C124.533 153.131 130.233 149.747 130.598 149.427L131.282 150.342L122.071 156.926C121.934 165.705 122.573 172.747 122.573 174.713H117.192C117.329 171.969 118.469 163.83 117.967 153.085C117.921 152.811 117.876 152.536 117.83 152.171C117.42 148.878 114.912 144.397 113.726 143.117C112.449 141.745 111.036 140.648 111.036 140.648L111.355 139.962L114.547 142.477Z" fill="#9B4D0C"/>
<path d="M62.3808 156.24C62.016 156.011 61.56 155.92 61.1496 155.92C60.876 155.6 61.104 155.097 61.3776 154.777C61.6512 154.457 61.9704 154.045 61.8792 153.634C61.7424 152.994 60.876 152.994 60.2376 153.131C60.0096 152.765 60.0096 152.308 59.9184 151.85C59.8272 151.439 59.4168 150.982 59.052 151.027C58.6416 151.073 58.4136 151.53 58.0032 151.622C57.5472 151.713 57.1368 151.302 56.772 151.027C56.7264 150.982 56.6808 150.936 56.6352 150.936C56.7264 149.656 57.9576 149.839 58.9608 149.656C59.7816 149.519 57.6384 147.461 59.28 146.775C59.5992 146.684 59.8728 146.501 60.0552 146.226C60.2376 145.815 60.0552 145.312 59.6904 145.083C59.3256 144.855 58.8696 144.763 58.4592 144.763C58.1856 144.443 58.4136 143.94 58.6872 143.62C58.9608 143.3 59.28 142.889 59.1888 142.477C59.052 141.837 58.1856 141.837 57.5472 141.974C57.3192 141.608 57.3192 141.151 57.228 140.694C57.1368 140.282 56.772 139.825 56.3616 139.871C55.9512 139.916 55.7232 140.374 55.3128 140.465C54.8568 140.557 54.4464 140.145 54.0816 139.871C53.7168 139.551 53.0784 139.368 52.8048 139.779C52.668 140.008 52.7592 140.374 52.5768 140.602C52.3032 141.014 51.6648 140.739 51.2544 140.465C50.844 140.191 50.2056 139.916 49.932 140.328C49.8408 140.465 49.7952 140.602 49.7952 140.739C49.7496 140.831 49.704 140.968 49.6128 141.014C49.5216 140.739 49.5216 140.419 49.4304 140.145C49.3392 139.734 48.9744 139.276 48.564 139.322C48.1536 139.368 47.9256 139.825 47.5152 139.916C47.0592 140.008 46.6488 139.596 46.284 139.322C45.9192 139.048 45.2808 138.819 45.0072 139.231C44.8704 139.459 44.9616 139.825 44.7792 140.054C44.7336 140.099 44.688 140.145 44.6424 140.191C44.5056 140.145 44.3688 140.145 44.232 140.145C43.9584 139.825 44.1864 139.322 44.46 139.002C44.7336 138.682 45.0528 138.27 44.9616 137.859C44.8248 137.219 43.9584 137.219 43.32 137.356C43.092 136.99 43.092 136.533 43.0008 136.076C42.9096 135.664 42.5448 135.207 42.1344 135.253C41.724 135.298 41.496 135.756 41.0856 135.847C40.6296 135.938 40.2192 135.527 39.8544 135.253C39.4896 134.932 38.8512 134.75 38.5776 135.161C38.4408 135.39 38.532 135.756 38.3496 135.984C38.076 136.396 37.4376 136.121 37.0272 135.847C36.6168 135.573 35.9784 135.298 35.7048 135.71C35.6136 135.847 35.568 135.984 35.568 136.121C35.3856 136.67 34.7928 136.944 34.3368 137.31C33.8808 137.676 33.516 138.362 33.8808 138.773C34.0632 139.002 34.428 139.048 34.5192 139.322C34.656 139.642 34.2912 139.962 34.0176 140.191C33.6528 140.602 33.5616 141.151 33.744 141.654C33.6072 141.791 33.4248 141.883 33.288 141.928C32.832 142.02 32.4216 141.608 32.0568 141.334C31.692 141.014 31.0536 140.831 30.78 141.242C30.6432 141.471 30.7344 141.837 30.552 142.065C30.2784 142.477 29.64 142.203 29.2296 141.928C28.8192 141.654 28.1808 141.38 27.9072 141.791C27.816 141.928 27.7704 142.065 27.7704 142.203C27.588 142.751 26.9952 143.026 26.5392 143.391C26.0832 143.757 25.7184 144.443 26.0832 144.855C26.2656 145.083 26.5848 145.175 26.676 145.403C26.3568 145.266 25.992 145.312 25.8096 145.541C25.6728 145.769 25.764 146.135 25.5816 146.364C25.308 146.775 24.6696 146.501 24.2592 146.226C23.8488 145.952 23.2104 145.678 22.9368 146.089C22.8456 146.226 22.8 146.364 22.8 146.501C22.6176 147.049 22.0248 147.324 21.5688 147.69C21.1128 148.055 20.748 148.741 21.1128 149.153C21.2952 149.381 21.66 149.427 21.7512 149.701C21.888 150.022 21.5232 150.342 21.2496 150.57C20.7936 150.936 20.7024 152.125 21.2952 152.445C21.5688 152.582 21.9336 152.628 21.9792 152.902C22.0248 153.131 21.7968 153.359 21.6144 153.542C21.5688 153.588 21.5232 153.634 21.5232 153.679C21.204 154.274 21.432 155.005 21.9792 155.28C22.116 155.326 22.2984 155.417 22.344 155.554C22.344 155.646 22.344 155.783 22.2984 155.874C22.2528 156.103 22.2072 156.286 22.2528 156.514C22.2528 156.606 22.2984 156.652 22.344 156.697C22.3896 156.743 22.4808 156.743 22.5264 156.743C23.3928 156.789 23.8032 156.469 24.3504 157.246C24.396 157.337 24.4416 157.383 24.5328 157.429C24.624 157.475 24.6696 157.475 24.7608 157.475C25.3536 157.52 25.7184 157.155 26.3112 157.063C27.0864 156.972 27.2232 157.337 27.9072 157.657C28.956 158.16 29.4576 157.84 29.64 157.155C29.6856 156.972 29.7312 156.743 29.7312 156.514C29.7312 156.194 29.868 155.92 30.096 155.691C30.6432 155.737 31.008 155.417 31.5096 155.326L31.8288 155.28C32.4216 155.28 32.604 155.646 33.1968 155.92C33.4704 156.057 33.7896 156.149 34.1088 156.149C34.2 156.469 33.8808 156.743 33.6072 156.972C33.1512 157.337 33.06 158.526 33.6528 158.846C33.8808 158.983 34.2912 159.075 34.3368 159.304C34.3824 159.532 34.1544 159.761 33.972 159.944C33.9264 159.989 33.8808 160.035 33.8808 160.081C33.5616 160.675 33.7896 161.407 34.3368 161.727C34.4736 161.818 34.656 161.864 34.7016 162.001C34.7472 162.093 34.7016 162.23 34.656 162.321C34.6104 162.55 34.5648 162.733 34.6104 162.961C34.6104 163.053 34.656 163.099 34.7016 163.144C34.7472 163.19 34.8384 163.19 34.884 163.19C35.7504 163.236 36.1608 162.916 36.708 163.693C36.7536 163.785 36.7992 163.83 36.8904 163.876C36.9816 163.922 37.0272 163.922 37.1184 163.922C37.7112 163.967 38.076 163.602 38.6688 163.51C39.444 163.419 39.5808 163.785 40.2648 164.105C41.3136 164.608 41.8152 164.288 41.9976 163.602C42.0432 163.419 42.0888 163.19 42.0888 162.961C42.18 161.681 43.4112 161.864 44.4144 161.727C44.5056 161.727 44.5512 161.681 44.5968 161.59H44.6424C45.2352 161.635 45.6 161.27 46.1928 161.178C46.968 161.087 47.1048 161.453 47.7888 161.773C48.8376 162.276 49.3392 161.956 49.5216 161.27C49.5672 161.087 49.6128 160.858 49.6128 160.63C49.704 159.624 50.4336 159.532 51.2544 159.441C51.3 159.852 51.528 160.172 51.8472 160.401C51.984 160.447 52.1664 160.538 52.212 160.675C52.212 160.767 52.212 160.904 52.1664 160.995C52.1208 161.224 52.0752 161.407 52.1208 161.635C52.1208 161.727 52.1664 161.773 52.212 161.818C52.2576 161.864 52.3488 161.864 52.3944 161.864C53.2608 161.91 53.6712 161.59 54.2184 162.367C54.264 162.459 54.3096 162.504 54.4008 162.55C54.492 162.596 54.5376 162.596 54.6288 162.596C55.2216 162.641 55.5864 162.276 56.1792 162.184C56.9544 162.093 57.0912 162.459 57.7752 162.779C58.824 163.282 59.3256 162.961 59.508 162.276C59.5536 162.093 59.5992 161.864 59.5992 161.635C59.6904 160.355 60.9216 160.538 61.9248 160.355C62.7456 160.218 60.5568 158.16 62.244 157.475C62.5632 157.383 62.8368 157.2 63.0192 156.926C62.8824 156.926 62.7456 156.514 62.3808 156.24Z" fill="#238D61"/>
<path d="M44.4144 151.53L45.2352 148.924L46.8312 146.867L46.5576 146.638L45.0528 148.284L44.7792 145.678H44.3232C44.3232 145.678 44.688 148.787 44.1864 149.93C44.1864 149.93 42.3168 154.731 41.1768 155.783C41.1312 155.829 41.04 155.92 40.9944 155.966C40.6296 155.097 40.2192 154.228 39.672 153.451C40.128 152.308 41.0856 149.747 41.4048 148.375C41.6784 147.324 41.8608 146.226 41.9976 145.175L41.6328 145.129C41.6328 145.129 40.584 150.159 38.8056 152.491C38.304 151.988 37.7112 151.622 37.0728 151.302C36.936 150.57 36.8904 149.336 37.3464 147.415L36.9816 147.324C36.9816 147.324 36.252 148.97 36.3432 150.89C36.0696 150.753 35.8416 150.616 35.568 150.433C33.8808 149.244 32.6952 147.049 32.6952 147.049L32.3304 147.37C32.3304 147.37 33.7896 150.57 35.796 151.622C37.8024 152.674 39.1248 155.28 39.216 155.966C39.2616 156.149 39.4896 157.703 39.1704 160.401C37.0272 159.486 32.7408 156.972 32.4672 156.697L31.9656 157.383L38.8512 162.321C38.9424 168.906 38.4408 174.164 38.4864 175.673H42.4992C42.408 173.615 41.5416 167.534 41.952 159.486C41.9976 159.304 41.9976 159.075 42.0432 158.801C42.3624 156.331 44.232 152.948 45.0984 151.988C46.056 150.982 47.1048 150.159 47.1048 150.159L46.8768 149.656L44.4144 151.53Z" fill="#9B4D0C"/>
<path d="M223.486 57.3383C223.212 54.8235 220.476 54.3205 219.154 54.9149C217.831 55.5551 216.919 56.9268 216.782 58.3442C215.506 57.7498 213.955 57.5669 212.587 58.1156C211.265 58.6643 210.17 59.8989 210.034 61.3163C209.851 62.7338 210.672 64.2884 211.994 64.7914C213.317 65.3401 215.05 64.6542 215.597 63.3282C216.053 64.8371 217.421 66.0717 218.971 66.2546C220.522 66.4375 222.209 65.523 222.756 64.0141C224.215 64.6542 225.72 65.2944 227.27 65.0657C228.821 64.8371 230.326 63.3739 229.961 61.8193C229.642 60.4476 228 59.7617 226.586 59.6245C227.316 58.8472 227.225 57.384 226.358 56.7439C225.492 56.1952 224.078 56.4238 223.486 57.3383Z" fill="#0A3F7F"/>
<path d="M314.549 58.4814C314.184 54.9149 310.262 54.1833 308.438 55.0978C306.569 56.0123 305.246 57.9327 305.064 59.9903C303.24 59.1216 301.051 58.9387 299.182 59.6703C297.312 60.4018 295.807 62.1851 295.534 64.197C295.306 66.2088 296.446 68.4036 298.315 69.1352C300.185 69.8668 302.647 68.9523 303.377 67.0776C304.015 69.2266 305.93 70.9642 308.119 71.2385C310.308 71.5129 312.679 70.1869 313.454 68.0835C315.506 68.998 317.65 69.9125 319.884 69.5924C322.073 69.2724 324.17 67.169 323.669 65.02C323.167 63.0539 320.933 62.0936 318.881 61.9565C319.93 60.8591 319.793 58.8015 318.562 57.887C317.376 56.7896 315.37 57.1554 314.549 58.4814Z" fill="#0A3F7F"/>
<path d="M288.238 205.165C288.238 206.72 234.612 207.954 168.492 207.954C102.372 207.954 48.7463 206.72 48.7463 205.165C48.7463 203.61 102.372 202.376 168.492 202.376C234.612 202.376 288.238 203.61 288.238 205.165Z" fill="#F5F5F5"/>
<path d="M289.606 40.969C289.241 37.4025 285.319 36.6709 283.495 37.5854C281.626 38.4999 280.303 40.4203 280.121 42.4779C278.297 41.6091 276.108 41.4262 274.238 42.1578C272.369 42.8894 270.864 44.6727 270.59 46.6845C270.362 48.6964 271.502 50.8912 273.372 51.6228C275.242 52.3544 277.704 51.4399 278.434 49.5652C279.072 51.7142 280.987 53.4517 283.176 53.7261C285.365 54.0004 287.736 52.6744 288.511 50.5711C290.563 51.4856 292.706 52.4001 294.941 52.08C297.13 51.7599 299.227 49.6566 298.726 47.5076C298.224 45.5414 295.99 44.5812 293.938 44.4441C294.986 43.3467 294.85 41.2891 293.618 40.3746C292.387 39.3229 290.381 39.6887 289.606 40.969Z" fill="#0A3F7F"/>
<g opacity="0.8">
<path d="M289.606 40.969C289.241 37.4025 285.319 36.6709 283.495 37.5854C281.626 38.4999 280.303 40.4203 280.121 42.4779C278.297 41.6091 276.108 41.4262 274.238 42.1578C272.369 42.8894 270.864 44.6727 270.59 46.6845C270.362 48.6964 271.502 50.8912 273.372 51.6228C275.242 52.3544 277.704 51.4399 278.434 49.5652C279.072 51.7142 280.987 53.4517 283.176 53.7261C285.365 54.0004 287.736 52.6744 288.511 50.5711C290.563 51.4856 292.706 52.4001 294.941 52.08C297.13 51.7599 299.227 49.6566 298.726 47.5076C298.224 45.5414 295.99 44.5812 293.938 44.4441C294.986 43.3467 294.85 41.2891 293.618 40.3746C292.387 39.3229 290.381 39.6887 289.606 40.969Z" fill="white"/>
</g>
<path d="M104.105 52.3544C104.105 52.3544 104.333 49.0622 104.971 48.5135C105.61 48.0106 109.349 46.7303 109.349 46.7303C109.349 46.7303 107.844 51.8514 106.932 52.4001C106.02 53.0402 104.105 52.3544 104.105 52.3544Z" fill="#FF9900"/>
<path opacity="0.6" d="M109.303 46.776C109.258 46.9132 107.799 51.8971 106.887 52.4458C106.294 52.7202 105.655 52.7659 105.017 52.583C104.698 52.5373 104.379 52.4458 104.059 52.3544C104.059 52.3544 104.287 49.0165 104.926 48.5135C105.564 48.0563 108.984 46.8674 109.303 46.776Z" fill="white"/>
<path d="M102.144 50.3882C103.01 50.3882 104.926 51.5771 105.61 51.6228C106.248 51.6685 109.44 48.925 110.124 48.4678C110.808 48.0106 116.827 47.0046 116.827 47.0046C116.827 47.0046 112.86 52.1715 110.124 52.3086C110.124 52.3086 112.13 52.9945 112.723 52.8116C114.593 52.3086 114.958 52.1257 116.827 52.1715L114.638 53.6804L117.876 54.1833C116.371 54.5034 114.821 54.5949 113.316 54.412C112.13 54.9607 110.945 55.3722 109.759 55.6465C108.072 56.1952 106.248 55.738 104.88 54.3662C103.694 53.1774 99.864 51.8057 99.864 51.8057L101.186 51.2113C101.369 50.7083 101.734 50.3882 102.144 50.3882Z" fill="#FF9900"/>
<path opacity="0.8" d="M102.144 50.3882C103.01 50.3882 104.926 51.5771 105.61 51.6228C106.248 51.6685 109.44 48.925 110.124 48.4678C110.808 48.0106 116.827 47.0046 116.827 47.0046C116.827 47.0046 112.86 52.1715 110.124 52.3086C110.124 52.3086 112.13 52.9945 112.723 52.8116C114.593 52.3086 114.958 52.1257 116.827 52.1715L114.638 53.6804L117.876 54.1833C116.371 54.5034 114.821 54.5949 113.316 54.412C112.13 54.9607 110.945 55.3722 109.759 55.6465C108.072 56.1952 106.248 55.738 104.88 54.3662C103.694 53.1774 99.864 51.8057 99.864 51.8057L101.186 51.2113C101.369 50.7083 101.734 50.3882 102.144 50.3882Z" fill="white"/>
<path d="M101.141 51.2113L101.506 51.5313L101.278 52.3544L99.864 51.7599L101.141 51.2113Z" fill="#263238"/>
<path d="M102.737 51.5771C102.737 51.8057 102.6 51.9886 102.418 51.9886C102.235 51.9886 102.098 51.8057 102.098 51.5771C102.098 51.3484 102.235 51.1655 102.418 51.1655C102.6 51.1655 102.737 51.3484 102.737 51.5771Z" fill="#263238"/>
<path d="M84.5424 66.8033C85.1808 66.3003 87.7344 69.9582 88.92 70.4612C88.0536 70.8727 87.1416 70.8727 86.2752 70.5069C84.9528 69.8211 83.904 67.3519 84.5424 66.8033Z" fill="#F55454"/>
<path opacity="0.6" d="M88.9655 70.4155C88.0991 70.827 87.1871 70.827 86.3207 70.4612C84.9983 69.8211 83.9495 67.3062 84.5879 66.7575C84.7247 66.6204 84.9983 66.7575 85.3175 66.9862C86.3207 67.8549 88.0535 70.0497 88.9655 70.4155Z" fill="white"/>
<path d="M82.5359 66.0717C83.1743 65.8888 84.7247 66.4832 85.2263 66.3917C85.7279 66.346 88.6007 66.0717 88.6007 66.0717C89.4215 65.9345 89.9687 65.9345 90.6071 65.7516C91.9295 65.02 93.2063 64.6999 94.6199 64.3799L92.0663 66.2546L94.4831 66.0717C93.3887 66.6204 92.2943 66.9862 91.1543 67.1233C90.3791 67.7635 89.5127 68.3122 88.6463 68.7694C87.4607 69.501 86.0927 69.501 84.9071 68.678C83.9039 67.9464 80.9399 67.6263 80.9399 67.6263L81.8519 66.9404C81.9431 66.4832 82.2167 66.1631 82.5359 66.0717Z" fill="#F55454"/>
<path opacity="0.8" d="M82.5359 66.0717C83.1743 65.8888 84.7247 66.4832 85.2263 66.3917C85.7279 66.346 88.6007 66.0717 88.6007 66.0717C89.4215 65.9345 89.9687 65.9345 90.6071 65.7516C91.9295 65.02 93.2063 64.6999 94.6199 64.3799L92.0663 66.2546L94.4831 66.0717C93.3887 66.6204 92.2943 66.9862 91.1543 67.1233C90.3791 67.7635 89.5127 68.3122 88.6463 68.7694C87.4607 69.501 86.0927 69.501 84.9071 68.678C83.9039 67.9464 80.9399 67.6263 80.9399 67.6263L81.8519 66.9404C81.9431 66.4832 82.2167 66.1631 82.5359 66.0717Z" fill="white"/>
<path d="M81.8519 66.8947L82.1711 67.1233L82.0799 67.8092L80.9399 67.6263L81.8519 66.8947Z" fill="#263238"/>
<path opacity="0.3" d="M91.0632 67.2148C90.4704 67.672 89.832 68.0835 89.1936 68.4493C89.0568 68.5408 88.8744 68.6322 88.692 68.7237C88.0992 69.0895 87.9624 69.2266 87.324 69.2266C86.868 68.9523 86.1384 68.2207 85.9104 67.6263C85.9104 67.6263 86.0928 66.9404 87.0048 66.4832C87.5976 66.2088 89.6952 66.7575 91.0632 67.2148Z" fill="black"/>
<path d="M85.9103 66.4375C87.0503 65.6144 93.5711 69.1352 96.2615 69.2724C94.4831 70.004 92.5679 70.324 90.6983 70.1411C87.6887 69.8668 84.7247 67.2605 85.9103 66.4375Z" fill="#F55454"/>
<path d="M82.9462 66.9862C82.9462 67.1691 82.855 67.3062 82.7182 67.3062C82.5814 67.3062 82.4902 67.1691 82.4902 66.9862C82.4902 66.8033 82.5814 66.6661 82.7182 66.6661C82.855 66.7118 82.9462 66.849 82.9462 66.9862Z" fill="#263238"/>
<path opacity="0.8" d="M85.9103 66.4375C87.0503 65.6144 93.5711 69.1352 96.2615 69.2724C94.4831 70.004 92.5679 70.324 90.6983 70.1411C87.6887 69.8668 84.7247 67.2605 85.9103 66.4375Z" fill="white"/>
<path d="M59.964 45.4957C59.964 46.7303 58.1856 47.6905 57.8664 48.8336C57.5472 49.9767 58.596 51.76 58.0032 52.7659C57.4104 53.7718 55.3584 53.7718 54.5376 54.5949C53.7168 55.4179 53.7168 57.4755 52.7136 58.0699C51.6648 58.6643 49.9776 57.6127 48.792 57.9327C47.6064 58.2528 46.6944 60.0361 45.4632 60.0361C44.232 60.0361 43.2744 58.2528 42.1344 57.9327C40.9944 57.6127 39.216 58.6643 38.2128 58.0699C37.2096 57.4755 37.2096 55.4179 36.3888 54.5949C35.568 53.7718 33.516 53.7718 32.9232 52.7659C32.3304 51.7142 33.3792 49.9767 33.06 48.8336C32.7408 47.6448 30.9624 46.7303 30.9624 45.4957C30.9624 44.2612 32.7408 43.3009 33.06 42.1578C33.3792 41.0147 32.3304 39.2315 32.9232 38.2255C33.516 37.2196 35.568 37.2196 36.3888 36.3966C37.2096 35.5735 37.2096 33.5159 38.2128 32.9215C39.2616 32.3271 40.9488 33.3788 42.1344 33.0587C43.32 32.7386 44.232 31.0011 45.4632 31.0011C46.6944 31.0011 47.652 32.7843 48.792 33.0587C49.932 33.3788 51.7104 32.3271 52.7136 32.9215C53.7168 33.5159 53.7168 35.5735 54.5376 36.3966C55.3584 37.2196 57.4104 37.2196 58.0032 38.2255C58.596 39.2772 57.5472 40.969 57.8664 42.1578C58.1856 43.3009 59.964 44.2612 59.964 45.4957Z" fill="#FF9900"/>
<g opacity="0.7">
<path d="M59.964 45.4957C59.964 46.7303 58.1856 47.6905 57.8664 48.8336C57.5472 49.9767 58.596 51.76 58.0032 52.7659C57.4104 53.7718 55.3584 53.7718 54.5376 54.5949C53.7168 55.4179 53.7168 57.4755 52.7136 58.0699C51.6648 58.6643 49.9776 57.6127 48.792 57.9327C47.6064 58.2528 46.6944 60.0361 45.4632 60.0361C44.232 60.0361 43.2744 58.2528 42.1344 57.9327C40.9944 57.6127 39.216 58.6643 38.2128 58.0699C37.2096 57.4755 37.2096 55.4179 36.3888 54.5949C35.568 53.7718 33.516 53.7718 32.9232 52.7659C32.3304 51.7142 33.3792 49.9767 33.06 48.8336C32.7408 47.6448 30.9624 46.7303 30.9624 45.4957C30.9624 44.2612 32.7408 43.3009 33.06 42.1578C33.3792 41.0147 32.3304 39.2315 32.9232 38.2255C33.516 37.2196 35.568 37.2196 36.3888 36.3966C37.2096 35.5735 37.2096 33.5159 38.2128 32.9215C39.2616 32.3271 40.9488 33.3788 42.1344 33.0587C43.32 32.7386 44.232 31.0011 45.4632 31.0011C46.6944 31.0011 47.652 32.7843 48.792 33.0587C49.932 33.3788 51.7104 32.3271 52.7136 32.9215C53.7168 33.5159 53.7168 35.5735 54.5376 36.3966C55.3584 37.2196 57.4104 37.2196 58.0032 38.2255C58.596 39.2772 57.5472 40.969 57.8664 42.1578C58.1856 43.3009 59.964 44.2612 59.964 45.4957Z" fill="white"/>
</g>
<path d="M55.1755 49.1311C57.1764 43.7615 54.4574 37.7822 49.1025 35.7759C43.7475 33.7695 37.7844 36.4959 35.7836 41.8655C33.7827 47.235 36.5017 53.2143 41.8566 55.2207C47.2115 57.227 53.1746 54.5006 55.1755 49.1311Z" fill="#FF9900"/>
<path opacity="0.5" d="M55.1755 49.1311C57.1764 43.7615 54.4574 37.7822 49.1025 35.7759C43.7475 33.7695 37.7844 36.4959 35.7836 41.8655C33.7827 47.235 36.5017 53.2143 41.8566 55.2207C47.2115 57.227 53.1746 54.5006 55.1755 49.1311Z" fill="white"/>
<path d="M292.843 77.0455C290.837 72.3816 284.225 70.2783 280.212 73.3418C278.297 68.2664 273.281 64.4713 267.854 64.1055C262.428 63.694 256.91 66.7118 254.266 71.4672C249.432 69.4553 243.641 69.0895 239.126 71.6958C234.566 74.2563 231.83 80.2462 233.928 85.093C231.146 85.9618 229.231 89.071 229.733 91.9059L234.019 92.7747C233.974 90.397 234.11 87.5621 236.071 86.1904C237.713 85.0473 239.947 85.4131 241.817 86.1447C243.686 86.8762 245.465 87.9279 247.426 88.0651C249.432 88.2023 251.712 86.922 251.758 84.9101C253.08 89.2996 257.047 92.8204 261.562 93.5977C266.076 94.375 270.955 92.3632 273.646 88.6595C277.704 91.6773 283.495 92.4546 287.918 90.0312C292.433 87.5621 294.85 81.7094 292.843 77.0455Z" fill="#0A3F7F"/>
<g opacity="0.6">
<path d="M292.843 77.0455C290.837 72.3816 284.225 70.2783 280.212 73.3418C278.297 68.2664 273.281 64.4713 267.854 64.1055C262.428 63.694 256.91 66.7118 254.266 71.4672C249.432 69.4553 243.641 69.0895 239.126 71.6958C234.566 74.2563 231.83 80.2462 233.928 85.093C231.146 85.9618 229.231 89.071 229.733 91.9059L234.019 92.7747C233.974 90.397 234.11 87.5621 236.071 86.1904C237.713 85.0473 239.947 85.4131 241.817 86.1447C243.686 86.8762 245.465 87.9279 247.426 88.0651C249.432 88.2023 251.712 86.922 251.758 84.9101C253.08 89.2996 257.047 92.8204 261.562 93.5977C266.076 94.375 270.955 92.3632 273.646 88.6595C277.704 91.6773 283.495 92.4546 287.918 90.0312C292.433 87.5621 294.85 81.7094 292.843 77.0455Z" fill="white"/>
</g>
<path d="M266.669 117.42V110.241L253.673 117.42V110.241L239.172 118.243V141.837H279.619V110.196L266.669 117.42ZM247.197 132.006H244.142V128.943H247.197V132.006ZM247.197 127.434H244.142V124.37H247.197V127.434ZM251.575 132.006H248.52V128.943H251.575V132.006ZM251.575 127.434H248.52V124.37H251.575V127.434ZM258.78 132.006H255.725V128.943H258.78V132.006ZM258.78 127.434H255.725V124.37H258.78V127.434ZM263.157 132.006H260.102V128.943H263.157V132.006ZM263.157 127.434H260.102V124.37H263.157V127.434ZM270.317 132.006H267.261V128.943H270.317V132.006ZM270.317 127.434H267.261V124.37H270.317V127.434ZM274.694 132.006H271.639V128.943H274.694V132.006ZM274.694 127.434H271.639V124.37H274.694V127.434Z" fill="#FF9900"/>
<path d="M235.433 141.883H226.495L227.726 90.1684H234.202L235.433 141.883Z" fill="#FF9900"/>
<path opacity="0.4" d="M227.589 95.6096L227.453 101.417L234.384 98.3988L234.247 92.6832L227.589 95.6096Z" fill="black"/>
<path opacity="0.4" d="M226.997 119.798L226.86 125.65L234.977 122.084L234.84 116.368L226.997 119.798Z" fill="black"/>
<path opacity="0.4" d="M235.114 128.257L226.723 131.915L226.586 137.767L235.25 133.972L235.114 128.257Z" fill="black"/>
<path opacity="0.4" d="M227.316 107.681L227.179 113.534L234.703 110.241L234.566 104.526L227.316 107.681Z" fill="black"/>
<path d="M213.043 141.425L246.058 37.7226L287.554 141.791" stroke="#0A3F7F" stroke-width="2" stroke-miterlimit="10" stroke-linecap="round" stroke-linejoin="round"/>
<path d="M212.998 141.517C212.998 156.88 230.098 169.317 251.165 169.317C272.232 169.317 289.332 156.88 289.332 141.517H212.998Z" fill="#0A3F7F"/>
<path d="M46.6943 141.425L79.8455 37.9055L121.296 141.928" stroke="#0A3F7F" stroke-width="2" stroke-miterlimit="10" stroke-linecap="round" stroke-linejoin="round"/>
<path d="M82.3992 113.991C81.9888 113.762 81.5328 113.625 81.0768 113.671C80.8032 113.305 81.0312 112.802 81.3048 112.436C81.5784 112.07 81.8976 111.705 81.8064 111.247C81.624 110.607 80.712 110.561 80.0736 110.699C79.8456 110.287 79.8456 109.83 79.7088 109.373C79.572 108.915 79.2072 108.458 78.7512 108.504C78.3408 108.55 78.0672 109.053 77.6112 109.144C77.1096 109.281 76.6992 108.824 76.2888 108.504C76.2432 108.458 76.1976 108.412 76.152 108.412C76.2432 107.041 77.52 107.269 78.6144 107.086C79.4808 106.949 77.2008 104.754 78.9336 104.069C79.2528 103.977 79.572 103.794 79.7544 103.474C79.9368 103.017 79.7544 102.514 79.3896 102.285C78.9792 102.057 78.5232 101.92 78.0672 101.965C77.7936 101.599 78.0216 101.097 78.2952 100.731C78.5688 100.365 78.888 99.9991 78.7968 99.5419C78.6144 98.9017 77.7024 98.856 77.064 98.9932C76.836 98.5817 76.836 98.1244 76.6992 97.6672C76.5624 97.21 76.1976 96.7527 75.7416 96.7984C75.3312 96.8442 75.0576 97.3471 74.6016 97.4386C74.1 97.5757 73.6896 97.1185 73.2792 96.7984C72.9144 96.4784 72.2304 96.2497 71.9568 96.707C71.82 96.9813 71.9112 97.3014 71.7288 97.5757C71.4552 97.9873 70.7712 97.7586 70.3608 97.4386C69.9504 97.1185 69.2664 96.8442 68.9928 97.2557C68.9016 97.3928 68.856 97.53 68.8104 97.7129C68.7648 97.8044 68.7192 97.9415 68.628 98.033C68.5368 97.7129 68.5368 97.3928 68.4456 97.1185C68.3088 96.6613 67.944 96.204 67.488 96.2497C67.0776 96.2955 66.804 96.7984 66.348 96.8899C65.8464 97.0271 65.436 96.5698 65.0256 96.2497C64.6608 95.9297 63.9768 95.701 63.7032 96.1583C63.5664 96.4326 63.6576 96.7527 63.4752 97.0271C63.4296 97.0728 63.384 97.1185 63.3384 97.1642C63.2016 97.1185 63.0648 97.1185 62.8824 97.1185C62.6088 96.7984 62.8368 96.2497 63.1104 95.9297C63.384 95.5639 63.7032 95.1981 63.612 94.7408C63.4296 94.1007 62.5176 94.055 61.8792 94.1921C61.6512 93.7806 61.6512 93.3234 61.5144 92.8661C61.3776 92.4089 61.0128 91.9516 60.5568 91.9974C60.1464 92.0431 59.8728 92.5461 59.4168 92.6375C58.9152 92.7747 58.5048 92.3174 58.0944 91.9974C57.7296 91.6773 57.0456 91.4487 56.772 91.9059C56.6352 92.1803 56.7264 92.5003 56.544 92.7747C56.2704 93.1862 55.5864 92.9576 55.176 92.6375C54.7656 92.3174 54.0816 92.0431 53.7624 92.4546C53.6712 92.5918 53.6256 92.729 53.58 92.9119C53.3976 93.5063 52.7592 93.7806 52.2576 94.1464C51.756 94.5122 51.3912 95.2438 51.8016 95.701C51.984 95.9297 52.3488 96.0211 52.44 96.2955C52.5768 96.6155 52.212 96.9813 51.8928 97.21C51.528 97.6215 51.3912 98.2159 51.6192 98.7646C51.4824 98.9018 51.3 98.9932 51.1176 99.0389C50.616 99.1761 50.2056 98.7189 49.7952 98.3988C49.4304 98.0787 48.7464 97.8501 48.4728 98.3073C48.336 98.5817 48.4272 98.9017 48.2448 99.1761C47.9712 99.5876 47.2872 99.359 46.8768 99.0389C46.4664 98.7189 45.7824 98.4445 45.4632 98.856C45.372 98.9932 45.3264 99.1304 45.2808 99.3133C45.0984 99.9077 44.46 100.182 43.9584 100.548C43.4568 100.914 43.092 101.645 43.5024 102.102C43.6848 102.331 44.0496 102.423 44.1408 102.697C43.8216 102.56 43.4112 102.605 43.2288 102.834C43.092 103.108 43.1832 103.428 43.0008 103.703C42.7272 104.114 42.0432 103.886 41.6328 103.566C41.2224 103.246 40.5384 102.971 40.2192 103.383C40.128 103.52 40.0824 103.657 40.0368 103.84C39.8544 104.434 39.216 104.709 38.7144 105.075C38.2128 105.44 37.848 106.172 38.2584 106.629C38.4408 106.858 38.8056 106.949 38.8968 107.224C39.0336 107.544 38.6688 107.909 38.3952 108.138C37.8936 108.55 37.848 109.738 38.4408 110.104C38.7144 110.241 39.0792 110.333 39.1704 110.561C39.216 110.836 38.9424 111.019 38.8056 111.247C38.76 111.293 38.7144 111.339 38.7144 111.43C38.3952 112.025 38.6232 112.802 39.216 113.122C39.3528 113.213 39.5352 113.259 39.6264 113.396C39.6264 113.534 39.6264 113.625 39.5808 113.762C39.5352 113.991 39.4896 114.219 39.5352 114.448C39.5352 114.539 39.5808 114.585 39.6264 114.677C39.672 114.722 39.7632 114.722 39.8088 114.722C40.7208 114.768 41.1768 114.448 41.724 115.225C41.7696 115.317 41.8152 115.363 41.9064 115.408C41.9976 115.454 42.0888 115.454 42.18 115.454C42.8184 115.5 43.2288 115.134 43.776 115.042C44.5968 114.951 44.7336 115.363 45.4632 115.683C46.5576 116.186 47.1048 115.865 47.2872 115.134C47.3328 114.905 47.3784 114.722 47.3784 114.494C47.3784 114.174 47.5152 113.854 47.7432 113.625C48.336 113.671 48.7464 113.351 49.248 113.213L49.5672 113.168C50.16 113.168 50.388 113.534 51.0264 113.808C51.3 113.945 51.6192 114.037 51.984 114.082C52.0752 114.402 51.756 114.722 51.4368 114.951C50.9808 115.363 50.8896 116.597 51.528 116.917C51.8016 117.054 52.1664 117.146 52.2576 117.374C52.3032 117.649 52.0296 117.832 51.8928 118.06C51.8472 118.106 51.8016 118.152 51.8016 118.243C51.4824 118.838 51.6648 119.615 52.3032 119.935C52.44 120.026 52.6224 120.072 52.7136 120.209C52.7592 120.346 52.7136 120.438 52.668 120.575C52.6224 120.804 52.5768 121.032 52.6224 121.261C52.6224 121.352 52.668 121.398 52.7136 121.49C52.7592 121.535 52.8504 121.535 52.896 121.535C53.808 121.581 54.264 121.261 54.8112 122.038C54.8568 122.13 54.9024 122.175 54.9936 122.221C55.0848 122.267 55.176 122.267 55.2672 122.267C55.9056 122.313 56.316 121.947 56.8632 121.855C57.6384 121.764 57.8208 122.175 58.5048 122.496C59.5992 122.998 60.1464 122.678 60.3288 121.947C60.3744 121.718 60.42 121.535 60.42 121.307C60.5112 119.935 61.788 120.164 62.8824 119.981C62.9736 119.981 63.0192 119.935 63.0648 119.844H63.156C63.7944 119.889 64.2048 119.523 64.752 119.432C65.5728 119.341 65.7096 119.752 66.4392 120.072C67.5336 120.575 68.0808 120.255 68.2632 119.523C68.3088 119.295 68.3544 119.112 68.3544 118.883C68.4456 117.832 69.2208 117.74 70.0872 117.649C70.1328 118.06 70.3608 118.426 70.7256 118.655C70.8624 118.746 71.0448 118.792 71.136 118.929C71.136 119.066 71.136 119.158 71.0904 119.295C71.0448 119.523 70.9992 119.752 71.0448 119.981C71.0448 120.072 71.0904 120.118 71.136 120.209C71.1816 120.255 71.2728 120.255 71.3184 120.255C72.2304 120.301 72.6864 119.981 73.2336 120.758C73.2792 120.849 73.3248 120.895 73.416 120.941C73.5072 120.987 73.5984 120.987 73.6896 120.987C74.328 121.032 74.7384 120.667 75.2856 120.575C76.1064 120.484 76.2432 120.895 76.9728 121.215C78.0672 121.718 78.6144 121.398 78.7968 120.667C78.8424 120.438 78.888 120.255 78.888 120.026C78.9792 118.655 80.256 118.883 81.3504 118.7C82.2168 118.563 79.9368 116.368 81.6696 115.683C81.9888 115.591 82.308 115.408 82.4904 115.088C82.9464 114.722 82.764 114.219 82.3992 113.991Z" fill="#30C46C"/>
<path d="M50.5704 122.038C50.2512 121.855 49.8408 121.764 49.476 121.764C49.248 121.49 49.4304 121.032 49.6584 120.758C49.8864 120.484 50.16 120.164 50.0688 119.752C49.932 119.203 49.2024 119.203 48.6552 119.295C48.4728 118.975 48.4728 118.563 48.336 118.197C48.2448 117.832 47.9256 117.42 47.5608 117.466C47.196 117.512 46.968 117.923 46.6488 118.015C46.2384 118.106 45.8736 117.74 45.5544 117.466C45.2352 117.191 44.688 117.009 44.46 117.374C44.3232 117.603 44.4144 117.877 44.2776 118.106C44.0496 118.472 43.4568 118.243 43.1376 117.969C42.7728 117.694 42.2256 117.466 41.9976 117.832C41.952 117.969 41.9064 118.06 41.8608 118.197C41.6784 118.7 41.1768 118.929 40.7664 119.249C40.356 119.569 40.0368 120.164 40.4016 120.529C40.584 120.712 40.8576 120.804 40.9488 121.032C41.04 121.352 40.7664 121.581 40.4928 121.81C40.0824 122.13 40.0368 123.181 40.5384 123.456C40.7664 123.593 41.0856 123.593 41.1312 123.867C41.1768 124.096 40.9488 124.279 40.812 124.416C40.4472 124.873 40.5384 125.513 40.9944 125.879C41.04 125.925 41.0856 125.925 41.1312 125.971C41.268 126.016 41.4048 126.062 41.4504 126.199C41.4504 126.291 41.4504 126.428 41.4048 126.519C41.3592 126.702 41.3592 126.885 41.3592 127.068C41.3592 127.114 41.3592 127.205 41.4048 127.251C41.4504 127.297 41.496 127.297 41.5872 127.297C42.3624 127.342 42.7272 127.068 43.1832 127.708C43.2288 127.754 43.2744 127.845 43.32 127.891C43.3656 127.937 43.4568 127.937 43.548 127.937C44.0496 127.982 44.4144 127.662 44.8704 127.617C45.5088 127.525 45.6912 127.891 46.2384 128.165C47.1504 128.577 47.6064 128.348 47.7432 127.708C47.7888 127.525 47.8344 127.342 47.8344 127.159C47.88 126.016 48.9744 126.199 49.8864 126.062C50.616 125.925 48.7008 124.142 50.16 123.547C50.4336 123.456 50.7072 123.319 50.844 123.044C51.0264 122.678 50.8896 122.267 50.5704 122.038Z" fill="#30C46C"/>
<path opacity="0.2" d="M82.3992 113.991C81.9888 113.762 81.5328 113.625 81.0768 113.671C80.8032 113.305 81.0312 112.802 81.3048 112.436C81.5784 112.07 81.8976 111.705 81.8064 111.247C81.624 110.607 80.712 110.561 80.0736 110.699C79.8456 110.287 79.8456 109.83 79.7088 109.373C79.572 108.915 79.2072 108.458 78.7512 108.504C78.3408 108.55 78.0672 109.053 77.6112 109.144C77.1096 109.281 76.6992 108.824 76.2888 108.504C76.2432 108.458 76.1976 108.412 76.152 108.412C76.2432 107.041 77.52 107.269 78.6144 107.086C79.4808 106.949 77.2008 104.754 78.9336 104.069C79.2528 103.977 79.572 103.794 79.7544 103.474C79.9368 103.017 79.7544 102.514 79.3896 102.285C78.9792 102.057 78.5232 101.92 78.0672 101.965C77.7936 101.599 78.0216 101.097 78.2952 100.731C78.5688 100.365 78.888 99.9991 78.7968 99.5419C78.6144 98.9017 77.7024 98.856 77.064 98.9932C76.836 98.5817 76.836 98.1244 76.6992 97.6672C76.5624 97.21 76.1976 96.7527 75.7416 96.7984C75.3312 96.8442 75.0576 97.3471 74.6016 97.4386C74.1 97.5757 73.6896 97.1185 73.2792 96.7984C72.9144 96.4784 72.2304 96.2497 71.9568 96.707C71.82 96.9813 71.9112 97.3014 71.7288 97.5757C71.4552 97.9873 70.7712 97.7586 70.3608 97.4386C69.9504 97.1185 69.2664 96.8442 68.9928 97.2557C68.9016 97.3928 68.856 97.53 68.8104 97.7129C68.7648 97.8044 68.7192 97.9415 68.628 98.033C68.5368 97.7129 68.5368 97.3928 68.4456 97.1185C68.3088 96.6613 67.944 96.204 67.488 96.2497C67.0776 96.2955 66.804 96.7984 66.348 96.8899C65.8464 97.0271 65.436 96.5698 65.0256 96.2497C64.6608 95.9297 63.9768 95.701 63.7032 96.1583C63.5664 96.4326 63.6576 96.7527 63.4752 97.0271C63.4296 97.0728 63.384 97.1185 63.3384 97.1642C63.2016 97.1185 63.0648 97.1185 62.8824 97.1185C62.6088 96.7984 62.8368 96.2497 63.1104 95.9297C63.384 95.5639 63.7032 95.1981 63.612 94.7408C63.4296 94.1007 62.5176 94.055 61.8792 94.1921C61.6512 93.7806 61.6512 93.3234 61.5144 92.8661C61.3776 92.4089 61.0128 91.9516 60.5568 91.9974C60.1464 92.0431 59.8728 92.5461 59.4168 92.6375C58.9152 92.7747 58.5048 92.3174 58.0944 91.9974C57.7296 91.6773 57.0456 91.4487 56.772 91.9059C56.6352 92.1803 56.7264 92.5003 56.544 92.7747C56.2704 93.1862 55.5864 92.9576 55.176 92.6375C54.7656 92.3174 54.0816 92.0431 53.7624 92.4546C53.6712 92.5918 53.6256 92.729 53.58 92.9119C53.3976 93.5063 52.7592 93.7806 52.2576 94.1464C51.756 94.5122 51.3912 95.2438 51.8016 95.701C51.984 95.9297 52.3488 96.0211 52.44 96.2955C52.5768 96.6155 52.212 96.9813 51.8928 97.21C51.528 97.6215 51.3912 98.2159 51.6192 98.7646C51.4824 98.9018 51.3 98.9932 51.1176 99.0389C50.616 99.1761 50.2056 98.7189 49.7952 98.3988C49.4304 98.0787 48.7464 97.8501 48.4728 98.3073C48.336 98.5817 48.4272 98.9017 48.2448 99.1761C47.9712 99.5876 47.2872 99.359 46.8768 99.0389C46.4664 98.7189 45.7824 98.4445 45.4632 98.856C45.372 98.9932 45.3264 99.1304 45.2808 99.3133C45.0984 99.9077 44.46 100.182 43.9584 100.548C43.4568 100.914 43.092 101.645 43.5024 102.102C43.6848 102.331 44.0496 102.423 44.1408 102.697C43.8216 102.56 43.4112 102.605 43.2288 102.834C43.092 103.108 43.1832 103.428 43.0008 103.703C42.7272 104.114 42.0432 103.886 41.6328 103.566C41.2224 103.246 40.5384 102.971 40.2192 103.383C40.128 103.52 40.0824 103.657 40.0368 103.84C39.8544 104.434 39.216 104.709 38.7144 105.075C38.2128 105.44 37.848 106.172 38.2584 106.629C38.4408 106.858 38.8056 106.949 38.8968 107.224C39.0336 107.544 38.6688 107.909 38.3952 108.138C37.8936 108.55 37.848 109.738 38.4408 110.104C38.7144 110.241 39.0792 110.333 39.1704 110.561C39.216 110.836 38.9424 111.019 38.8056 111.247C38.76 111.293 38.7144 111.339 38.7144 111.43C38.3952 112.025 38.6232 112.802 39.216 113.122C39.3528 113.213 39.5352 113.259 39.6264 113.396C39.6264 113.534 39.6264 113.625 39.5808 113.762C39.5352 113.991 39.4896 114.219 39.5352 114.448C39.5352 114.539 39.5808 114.585 39.6264 114.677C39.672 114.722 39.7632 114.722 39.8088 114.722C40.7208 114.768 41.1768 114.448 41.724 115.225C41.7696 115.317 41.8152 115.363 41.9064 115.408C41.9976 115.454 42.0888 115.454 42.18 115.454C42.8184 115.5 43.2288 115.134 43.776 115.042C44.5968 114.951 44.7336 115.363 45.4632 115.683C46.5576 116.186 47.1048 115.865 47.2872 115.134C47.3328 114.905 47.3784 114.722 47.3784 114.494C47.3784 114.174 47.5152 113.854 47.7432 113.625C48.336 113.671 48.7464 113.351 49.248 113.213L49.5672 113.168C50.16 113.168 50.388 113.534 51.0264 113.808C51.3 113.945 51.6192 114.037 51.984 114.082C52.0752 114.402 51.756 114.722 51.4368 114.951C50.9808 115.363 50.8896 116.597 51.528 116.917C51.8016 117.054 52.1664 117.146 52.2576 117.374C52.3032 117.649 52.0296 117.832 51.8928 118.06C51.8472 118.106 51.8016 118.152 51.8016 118.243C51.4824 118.838 51.6648 119.615 52.3032 119.935C52.44 120.026 52.6224 120.072 52.7136 120.209C52.7592 120.346 52.7136 120.438 52.668 120.575C52.6224 120.804 52.5768 121.032 52.6224 121.261C52.6224 121.352 52.668 121.398 52.7136 121.49C52.7592 121.535 52.8504 121.535 52.896 121.535C53.808 121.581 54.264 121.261 54.8112 122.038C54.8568 122.13 54.9024 122.175 54.9936 122.221C55.0848 122.267 55.176 122.267 55.2672 122.267C55.9056 122.313 56.316 121.947 56.8632 121.855C57.6384 121.764 57.8208 122.175 58.5048 122.496C59.5992 122.998 60.1464 122.678 60.3288 121.947C60.3744 121.718 60.42 121.535 60.42 121.307C60.5112 119.935 61.788 120.164 62.8824 119.981C62.9736 119.981 63.0192 119.935 63.0648 119.844H63.156C63.7944 119.889 64.2048 119.523 64.752 119.432C65.5728 119.341 65.7096 119.752 66.4392 120.072C67.5336 120.575 68.0808 120.255 68.2632 119.523C68.3088 119.295 68.3544 119.112 68.3544 118.883C68.4456 117.832 69.2208 117.74 70.0872 117.649C70.1328 118.06 70.3608 118.426 70.7256 118.655C70.8624 118.746 71.0448 118.792 71.136 118.929C71.136 119.066 71.136 119.158 71.0904 119.295C71.0448 119.523 70.9992 119.752 71.0448 119.981C71.0448 120.072 71.0904 120.118 71.136 120.209C71.1816 120.255 71.2728 120.255 71.3184 120.255C72.2304 120.301 72.6864 119.981 73.2336 120.758C73.2792 120.849 73.3248 120.895 73.416 120.941C73.5072 120.987 73.5984 120.987 73.6896 120.987C74.328 121.032 74.7384 120.667 75.2856 120.575C76.1064 120.484 76.2432 120.895 76.9728 121.215C78.0672 121.718 78.6144 121.398 78.7968 120.667C78.8424 120.438 78.888 120.255 78.888 120.026C78.9792 118.655 80.256 118.883 81.3504 118.7C82.2168 118.563 79.9368 116.368 81.6696 115.683C81.9888 115.591 82.308 115.408 82.4904 115.088C82.9464 114.722 82.764 114.219 82.3992 113.991Z" fill="black"/>
<g opacity="0.2">
<path d="M50.5704 122.038C50.2512 121.855 49.8408 121.764 49.476 121.764C49.248 121.49 49.4304 121.032 49.6584 120.758C49.8864 120.484 50.16 120.164 50.0688 119.752C49.932 119.203 49.2024 119.203 48.6552 119.295C48.4728 118.975 48.4728 118.563 48.336 118.197C48.2448 117.832 47.9256 117.42 47.5608 117.466C47.196 117.512 46.968 117.923 46.6488 118.015C46.2384 118.106 45.8736 117.74 45.5544 117.466C45.2352 117.191 44.688 117.009 44.46 117.374C44.3232 117.603 44.4144 117.877 44.2776 118.106C44.0496 118.472 43.4568 118.243 43.1376 117.969C42.7728 117.694 42.2256 117.466 41.9976 117.832C41.952 117.969 41.9064 118.06 41.8608 118.197C41.6784 118.7 41.1768 118.929 40.7664 119.249C40.356 119.569 40.0368 120.164 40.4016 120.529C40.584 120.712 40.8576 120.804 40.9488 121.032C41.04 121.352 40.7664 121.581 40.4928 121.81C40.0824 122.13 40.0368 123.181 40.5384 123.456C40.7664 123.593 41.0856 123.593 41.1312 123.867C41.1768 124.096 40.9488 124.279 40.812 124.416C40.4472 124.873 40.5384 125.513 40.9944 125.879C41.04 125.925 41.0856 125.925 41.1312 125.971C41.268 126.016 41.4048 126.062 41.4504 126.199C41.4504 126.291 41.4504 126.428 41.4048 126.519C41.3592 126.702 41.3592 126.885 41.3592 127.068C41.3592 127.114 41.3592 127.205 41.4048 127.251C41.4504 127.297 41.496 127.297 41.5872 127.297C42.3624 127.342 42.7272 127.068 43.1832 127.708C43.2288 127.754 43.2744 127.845 43.32 127.891C43.3656 127.937 43.4568 127.937 43.548 127.937C44.0496 127.982 44.4144 127.662 44.8704 127.617C45.5088 127.525 45.6912 127.891 46.2384 128.165C47.1504 128.577 47.6064 128.348 47.7432 127.708C47.7888 127.525 47.8344 127.342 47.8344 127.159C47.88 126.016 48.9744 126.199 49.8864 126.062C50.616 125.925 48.7008 124.142 50.16 123.547C50.4336 123.456 50.7072 123.319 50.844 123.044C51.0264 122.678 50.8896 122.267 50.5704 122.038Z" fill="black"/>
</g>
<path d="M64.5239 115.82L65.7095 112.07L67.9895 109.098L67.5791 108.778L65.4359 111.156L65.0711 107.406H64.4327C64.4327 107.406 64.9343 111.842 64.2047 113.488C64.2047 113.488 61.5143 120.346 59.8727 121.81C59.7815 121.901 59.6903 121.993 59.6447 122.084C59.1431 120.804 58.5047 119.615 57.7295 118.517C58.3679 116.871 59.7815 113.213 60.2375 111.293C60.6023 109.784 60.8759 108.23 61.0583 106.721L60.5111 106.675C60.5111 106.675 59.0063 113.854 56.4983 117.146C55.7687 116.46 54.9023 115.911 53.9903 115.454C53.8079 114.448 53.7167 112.665 54.3551 109.921L53.8079 109.784C53.8079 109.784 52.8047 112.116 52.8959 114.905C52.5311 114.722 52.1663 114.494 51.8015 114.265C49.3847 112.573 47.6975 109.464 47.6975 109.464L47.1959 109.967C47.1959 109.967 49.2479 114.494 52.1207 116.048C54.9935 117.557 56.8631 121.261 56.9999 122.221C57.0455 122.495 57.3647 124.69 56.9087 128.531C53.8535 127.205 47.7887 123.593 47.3783 123.273L46.6943 124.233L56.4983 131.275C56.6351 140.648 55.9511 148.193 55.9511 150.296H61.6511C61.5143 147.37 60.2831 138.682 60.8303 127.205C60.8759 126.931 60.9215 126.611 60.9671 126.245C61.4231 122.724 64.0679 117.923 65.3447 116.551C66.7127 115.088 68.2175 113.945 68.2175 113.945L67.8527 113.213L64.5239 115.82Z" fill="#9B4D0C"/>
<path d="M101.87 90.6256H100.32L98.7695 147.827C98.7695 148.421 99.2255 148.924 99.8183 148.924C99.8183 148.924 99.8183 148.924 99.8639 148.924H102.372C102.965 148.924 103.421 148.421 103.421 147.872C103.421 147.872 103.421 147.872 103.421 147.827L101.87 90.6256Z" fill="#FF9900"/>
<path d="M101.186 90.1684C100.73 90.1684 100.365 89.8026 100.365 89.3911V71.2842C100.365 70.1411 101.277 69.1809 102.463 69.1809C103.603 69.1809 104.561 70.0954 104.561 71.2842C104.561 71.3757 104.561 71.4671 104.561 71.6043L102.007 89.5282C101.916 89.8483 101.597 90.1684 101.186 90.1684Z" fill="#FF9900"/>
<path d="M101.688 90.9914C101.46 91.3572 101.551 91.8602 101.961 92.0888L117.329 101.599C118.286 102.194 119.609 101.92 120.201 100.914C120.794 99.9077 120.475 98.6274 119.517 98.033C119.426 97.9873 119.335 97.9415 119.244 97.8958L102.691 90.6714C102.326 90.5342 101.916 90.6714 101.688 90.9914Z" fill="#FF9900"/>
<path d="M100.548 90.9914C100.776 91.3572 100.685 91.8602 100.274 92.0888L84.9071 101.599C83.9495 102.194 82.6271 101.92 82.0343 100.914C81.4415 99.9534 81.7151 98.6274 82.7183 98.033C82.8095 97.9873 82.9007 97.9415 82.9919 97.8958L99.5447 90.6714C99.9095 90.5342 100.32 90.6714 100.548 90.9914Z" fill="#FF9900"/>
<g opacity="0.5">
<path d="M99.864 108.687V109.007C100.32 109.053 100.776 109.053 101.141 109.053C101.506 109.053 101.916 109.053 102.372 109.007V108.687C102.007 108.732 101.597 108.732 101.141 108.732C100.685 108.732 100.229 108.732 99.864 108.687Z" fill="black"/>
<path d="M102.463 111.933L102.418 109.876C102.053 109.921 101.642 109.921 101.141 109.921C100.639 109.921 100.183 109.876 99.8183 109.876L99.7727 111.933C100.229 111.979 100.685 111.979 101.141 111.979C101.597 111.979 102.007 111.979 102.463 111.933Z" fill="black"/>
</g>
<path d="M103.466 91.5859C103.466 92.9119 102.417 93.9635 101.095 93.9635C99.7727 93.9635 98.7239 92.9119 98.7239 91.5859C98.7239 90.2598 99.7727 89.2082 101.095 89.2082C102.417 89.2082 103.466 90.2598 103.466 91.5859Z" fill="#FF9900"/>
<path opacity="0.4" d="M103.466 91.5859C103.466 92.9119 102.417 93.9635 101.095 93.9635C99.7727 93.9635 98.7239 92.9119 98.7239 91.5859C98.7239 90.2598 99.7727 89.2082 101.095 89.2082C102.417 89.2082 103.466 90.2598 103.466 91.5859Z" fill="black"/>
<path d="M69.8592 73.4333H67.8528L65.8464 147.873C65.8464 148.65 66.4392 149.29 67.2144 149.29C67.2144 149.29 67.2144 149.29 67.26 149.29H70.4976C71.2728 149.29 71.9112 148.65 71.9112 147.873V147.827L69.8592 73.4333Z" fill="#FF9900"/>
<path d="M68.9472 72.7931C68.3544 72.7931 67.8984 72.3359 67.8984 71.7415V48.1477C67.8984 46.6388 69.1296 45.45 70.5888 45.45C72.0936 45.45 73.2792 46.6846 73.2792 48.1477C73.2792 48.2849 73.2792 48.4221 73.2336 48.5592L69.9048 71.8787C69.9048 72.4274 69.4488 72.7931 68.9472 72.7931Z" fill="#FF9900"/>
<path d="M69.6313 73.8905C69.3121 74.3935 69.4945 75.0337 69.9505 75.308L89.9689 87.6536C91.2457 88.4309 92.9329 88.0651 93.7081 86.7848C94.4833 85.5045 94.0729 83.8127 92.7961 83.0354C92.7049 82.9897 92.5681 82.8982 92.4769 82.8525L70.9081 73.479C70.4521 73.2961 69.9049 73.479 69.6313 73.8905Z" fill="#FF9900"/>
<path d="M68.0809 73.8905C68.4001 74.3935 68.2177 75.0337 67.7617 75.308L47.7433 87.6536C46.4665 88.4309 44.7793 88.0651 44.0041 86.7848C43.2289 85.5045 43.6393 83.8127 44.8705 83.0354C44.9617 82.9897 45.0985 82.8982 45.2353 82.8525L66.8041 73.479C67.2601 73.2961 67.8073 73.479 68.0809 73.8905Z" fill="#FF9900"/>
<g opacity="0.5">
<path d="M67.2144 96.8899V97.3471C67.8072 97.3928 68.4 97.4386 68.9016 97.4386C69.4032 97.4386 69.9504 97.4386 70.5432 97.3471V96.8899C70.0416 96.9356 69.54 96.9356 68.9472 96.9356C68.3088 96.9813 67.716 96.9356 67.2144 96.8899Z" fill="black"/>
<path d="M70.5888 101.142L70.4976 98.4445C70.0416 98.4902 69.4944 98.5359 68.856 98.5359C68.2176 98.5359 67.6248 98.4902 67.1232 98.4445L67.032 101.142C67.6248 101.188 68.2176 101.234 68.8104 101.234C69.4488 101.234 70.0416 101.188 70.5888 101.142Z" fill="black"/>
</g>
<path d="M71.9113 74.6678C71.9113 76.3597 70.5433 77.7771 68.8105 77.7771C67.1233 77.7771 65.7097 76.4054 65.7097 74.6678C65.7097 72.976 67.0777 71.5586 68.8105 71.5586C70.5433 71.5586 71.9113 72.9303 71.9113 74.6678Z" fill="#FF9900"/>
<path d="M67.6249 129.308C67.8073 129.537 68.0353 129.72 68.3545 129.811C69.8593 130.406 67.8985 132.281 68.6281 132.418C69.5857 132.555 70.6801 132.372 70.7713 133.561C70.7713 133.744 70.8169 133.927 70.8625 134.109C71.0449 134.75 71.5009 135.024 72.4585 134.567C73.0513 134.292 73.1881 133.927 73.8721 134.018C74.3737 134.064 74.6929 134.43 75.2401 134.384C75.3313 134.384 75.3769 134.384 75.4681 134.338C75.5137 134.292 75.6049 134.247 75.6505 134.155C76.1065 133.469 76.5169 133.744 77.2921 133.698C77.3377 133.698 77.4289 133.698 77.4745 133.652C77.5201 133.607 77.5657 133.515 77.5657 133.469C77.5657 133.286 77.5657 133.058 77.5201 132.875C77.4745 132.783 77.4745 132.692 77.4745 132.555C77.5201 132.418 77.7025 132.372 77.7937 132.326C78.1129 132.143 78.2953 131.823 78.3409 131.457C79.0705 131.549 79.7545 131.595 79.8457 132.509C79.8457 132.692 79.8913 132.875 79.9369 133.058C80.1193 133.698 80.5753 133.972 81.5329 133.515C82.1257 133.241 82.2625 132.875 82.9465 132.966C83.4481 133.012 83.7673 133.378 84.3145 133.332H84.3601C84.4057 133.378 84.4513 133.424 84.4969 133.424C85.4545 133.561 86.5489 133.378 86.6401 134.567C86.6401 134.75 86.6857 134.933 86.7313 135.115C86.9137 135.756 87.3697 136.03 88.3273 135.573C88.9201 135.298 89.0569 134.933 89.7409 135.024C90.2425 135.07 90.5617 135.435 91.1089 135.39C91.2001 135.39 91.2457 135.39 91.3369 135.344C91.3825 135.298 91.4737 135.253 91.5193 135.161C91.9753 134.475 92.3857 134.75 93.1609 134.704C93.2065 134.704 93.2977 134.704 93.3433 134.658C93.3889 134.612 93.4345 134.521 93.4345 134.475C93.4345 134.292 93.4345 134.064 93.3889 133.881C93.3433 133.789 93.3433 133.698 93.3433 133.561C93.3889 133.424 93.5713 133.378 93.6625 133.332C94.1641 133.058 94.3921 132.372 94.0729 131.869C94.0273 131.823 94.0273 131.778 93.9817 131.732C93.8449 131.549 93.6169 131.366 93.6625 131.137C93.7081 130.909 94.0729 130.863 94.3009 130.726C94.8481 130.452 94.7569 129.4 94.3465 129.034C94.1185 128.851 93.7993 128.577 93.8905 128.257C94.1641 128.257 94.4377 128.165 94.7113 128.028C95.2585 127.8 95.4409 127.479 95.9425 127.479L96.2161 127.525C96.6721 127.617 96.9913 127.891 97.4929 127.845C97.7209 128.028 97.8121 128.303 97.8121 128.577C97.8121 128.76 97.8577 128.943 97.9033 129.126C98.0857 129.766 98.5417 130.04 99.4993 129.583C100.092 129.308 100.229 128.943 100.913 129.034C101.414 129.08 101.734 129.446 102.281 129.4C102.372 129.4 102.418 129.4 102.509 129.354C102.554 129.308 102.646 129.263 102.691 129.171C103.147 128.485 103.558 128.76 104.333 128.714C104.378 128.714 104.47 128.714 104.515 128.668C104.561 128.623 104.606 128.577 104.606 128.485C104.606 128.302 104.606 128.074 104.561 127.891C104.515 127.8 104.515 127.708 104.515 127.571C104.561 127.434 104.743 127.388 104.834 127.342C105.336 127.068 105.564 126.382 105.245 125.879C105.199 125.833 105.199 125.788 105.154 125.742C105.017 125.559 104.789 125.376 104.834 125.148C104.88 124.919 105.245 124.873 105.473 124.736C106.02 124.462 105.929 123.41 105.518 123.044C105.29 122.816 104.971 122.541 105.062 122.267C105.154 122.038 105.473 121.947 105.61 121.764C105.974 121.398 105.61 120.758 105.199 120.438C104.789 120.118 104.242 119.889 104.059 119.386C104.014 119.249 103.968 119.112 103.922 118.975C103.694 118.609 103.102 118.838 102.737 119.112C102.372 119.386 101.779 119.615 101.551 119.249C101.414 119.02 101.506 118.7 101.369 118.517C101.232 118.289 100.913 118.289 100.594 118.38C100.685 118.152 100.958 118.06 101.141 117.877C101.506 117.466 101.141 116.871 100.73 116.551C100.32 116.231 99.7729 116.003 99.5905 115.5C99.5449 115.363 99.4993 115.225 99.4537 115.134C99.2257 114.768 98.6329 114.997 98.2681 115.271C97.9033 115.545 97.3105 115.774 97.0825 115.408C96.9457 115.18 97.0369 114.86 96.9001 114.677C96.6721 114.311 96.0793 114.494 95.7601 114.768C95.4409 115.042 95.0761 115.408 94.6201 115.317C94.4833 115.271 94.3009 115.18 94.2097 115.088C94.3921 114.631 94.3009 114.128 93.9817 113.762C93.7537 113.534 93.4345 113.259 93.5257 112.985C93.6169 112.756 93.9361 112.665 94.0729 112.482C94.4377 112.116 94.0729 111.476 93.6625 111.156C93.2521 110.836 92.7049 110.607 92.5225 110.104C92.4769 109.967 92.4313 109.83 92.3857 109.693C92.1577 109.327 91.5649 109.556 91.2001 109.83C90.8353 110.104 90.2425 110.333 90.0145 109.967C89.8777 109.738 89.9689 109.418 89.8321 109.235C89.6041 108.87 89.0113 109.053 88.6921 109.327C88.3729 109.601 88.0081 109.967 87.5521 109.876C87.1873 109.784 86.9593 109.373 86.5945 109.327C86.2297 109.281 85.9105 109.693 85.7737 110.058C85.6825 110.424 85.6825 110.882 85.4545 111.202C84.9073 111.11 84.0865 111.11 83.9497 111.659C83.8585 112.025 84.1321 112.39 84.4057 112.665C84.6337 112.985 84.8161 113.396 84.5881 113.716C84.4513 113.716 84.3601 113.716 84.2233 113.762C84.1777 113.716 84.1321 113.671 84.0865 113.625C83.9497 113.396 84.0409 113.076 83.9041 112.893C83.6761 112.528 83.0833 112.711 82.7641 112.985C82.4449 113.259 82.0801 113.625 81.6241 113.534C81.2593 113.442 81.0313 113.031 80.6665 112.985C80.3017 112.939 79.9825 113.351 79.8457 113.716C79.8001 113.991 79.7545 114.265 79.6633 114.539C79.6177 114.448 79.5721 114.357 79.5265 114.265C79.4809 114.128 79.4353 113.991 79.3897 113.899C79.1617 113.534 78.5689 113.762 78.2041 114.037C77.8393 114.311 77.2465 114.539 77.0185 114.174C76.8817 113.945 76.9729 113.625 76.8361 113.442C76.6081 113.076 76.0153 113.259 75.6961 113.534C75.3769 113.808 75.0121 114.174 74.5561 114.082C74.1913 113.991 73.9633 113.579 73.5985 113.534C73.2337 113.488 72.9145 113.899 72.7777 114.265C72.6865 114.677 72.6865 115.088 72.4585 115.408C71.9113 115.317 71.0905 115.317 70.9537 115.865C70.8625 116.231 71.1361 116.597 71.4097 116.871C71.6377 117.191 71.8201 117.603 71.5921 117.923C71.1817 117.923 70.8169 118.015 70.4521 118.197C70.0873 118.426 69.9505 118.838 70.1329 119.249C70.3153 119.478 70.5433 119.661 70.8625 119.752C72.3673 120.346 70.4065 122.221 71.1361 122.358C72.0937 122.496 73.1881 122.313 73.2337 123.501C73.1881 123.547 73.1425 123.547 73.0969 123.593C72.7777 123.867 72.4129 124.233 71.9569 124.142C71.5921 124.05 71.3641 123.639 70.9993 123.593C70.6345 123.547 70.3153 123.959 70.1785 124.324C70.0873 124.736 70.0873 125.148 69.8593 125.468C69.3121 125.376 68.4913 125.376 68.3545 125.925C68.2633 126.291 68.5369 126.656 68.8105 126.931C69.0385 127.251 69.2209 127.662 68.9929 127.982C68.5825 127.982 68.2177 128.074 67.8529 128.257C67.6249 128.531 67.4881 128.943 67.6249 129.308Z" fill="#238D61"/>
<path opacity="0.4" d="M67.6249 129.308C67.8073 129.537 68.0353 129.72 68.3545 129.811C69.8593 130.406 67.8985 132.281 68.6281 132.418C69.5857 132.555 70.6801 132.372 70.7713 133.561C70.7713 133.744 70.8169 133.927 70.8625 134.109C71.0449 134.75 71.5009 135.024 72.4585 134.567C73.0513 134.292 73.1881 133.927 73.8721 134.018C74.3737 134.064 74.6929 134.43 75.2401 134.384C75.3313 134.384 75.3769 134.384 75.4681 134.338C75.5137 134.292 75.6049 134.247 75.6505 134.155C76.1065 133.469 76.5169 133.744 77.2921 133.698C77.3377 133.698 77.4289 133.698 77.4745 133.652C77.5201 133.607 77.5657 133.515 77.5657 133.469C77.5657 133.286 77.5657 133.058 77.5201 132.875C77.4745 132.783 77.4745 132.692 77.4745 132.555C77.5201 132.418 77.7025 132.372 77.7937 132.326C78.1129 132.143 78.2953 131.823 78.3409 131.457C79.0705 131.549 79.7545 131.595 79.8457 132.509C79.8457 132.692 79.8913 132.875 79.9369 133.058C80.1193 133.698 80.5753 133.972 81.5329 133.515C82.1257 133.241 82.2625 132.875 82.9465 132.966C83.4481 133.012 83.7673 133.378 84.3145 133.332H84.3601C84.4057 133.378 84.4513 133.424 84.4969 133.424C85.4545 133.561 86.5489 133.378 86.6401 134.567C86.6401 134.75 86.6857 134.933 86.7313 135.115C86.9137 135.756 87.3697 136.03 88.3273 135.573C88.9201 135.298 89.0569 134.933 89.7409 135.024C90.2425 135.07 90.5617 135.435 91.1089 135.39C91.2001 135.39 91.2457 135.39 91.3369 135.344C91.3825 135.298 91.4737 135.253 91.5193 135.161C91.9753 134.475 92.3857 134.75 93.1609 134.704C93.2065 134.704 93.2977 134.704 93.3433 134.658C93.3889 134.612 93.4345 134.521 93.4345 134.475C93.4345 134.292 93.4345 134.064 93.3889 133.881C93.3433 133.789 93.3433 133.698 93.3433 133.561C93.3889 133.424 93.5713 133.378 93.6625 133.332C94.1641 133.058 94.3921 132.372 94.0729 131.869C94.0273 131.823 94.0273 131.778 93.9817 131.732C93.8449 131.549 93.6169 131.366 93.6625 131.137C93.7081 130.909 94.0729 130.863 94.3009 130.726C94.8481 130.452 94.7569 129.4 94.3465 129.034C94.1185 128.851 93.7993 128.577 93.8905 128.257C94.1641 128.257 94.4377 128.165 94.7113 128.028C95.2585 127.8 95.4409 127.479 95.9425 127.479L96.2161 127.525C96.6721 127.617 96.9913 127.891 97.4929 127.845C97.7209 128.028 97.8121 128.303 97.8121 128.577C97.8121 128.76 97.8577 128.943 97.9033 129.126C98.0857 129.766 98.5417 130.04 99.4993 129.583C100.092 129.308 100.229 128.943 100.913 129.034C101.414 129.08 101.734 129.446 102.281 129.4C102.372 129.4 102.418 129.4 102.509 129.354C102.554 129.308 102.646 129.263 102.691 129.171C103.147 128.485 103.558 128.76 104.333 128.714C104.378 128.714 104.47 128.714 104.515 128.668C104.561 128.623 104.606 128.577 104.606 128.485C104.606 128.302 104.606 128.074 104.561 127.891C104.515 127.8 104.515 127.708 104.515 127.571C104.561 127.434 104.743 127.388 104.834 127.342C105.336 127.068 105.564 126.382 105.245 125.879C105.199 125.833 105.199 125.788 105.154 125.742C105.017 125.559 104.789 125.376 104.834 125.148C104.88 124.919 105.245 124.873 105.473 124.736C106.02 124.462 105.929 123.41 105.518 123.044C105.29 122.816 104.971 122.541 105.062 122.267C105.154 122.038 105.473 121.947 105.61 121.764C105.974 121.398 105.61 120.758 105.199 120.438C104.789 120.118 104.242 119.889 104.059 119.386C104.014 119.249 103.968 119.112 103.922 118.975C103.694 118.609 103.102 118.838 102.737 119.112C102.372 119.386 101.779 119.615 101.551 119.249C101.414 119.02 101.506 118.7 101.369 118.517C101.232 118.289 100.913 118.289 100.594 118.38C100.685 118.152 100.958 118.06 101.141 117.877C101.506 117.466 101.141 116.871 100.73 116.551C100.32 116.231 99.7729 116.003 99.5905 115.5C99.5449 115.363 99.4993 115.225 99.4537 115.134C99.2257 114.768 98.6329 114.997 98.2681 115.271C97.9033 115.545 97.3105 115.774 97.0825 115.408C96.9457 115.18 97.0369 114.86 96.9001 114.677C96.6721 114.311 96.0793 114.494 95.7601 114.768C95.4409 115.042 95.0761 115.408 94.6201 115.317C94.4833 115.271 94.3009 115.18 94.2097 115.088C94.3921 114.631 94.3009 114.128 93.9817 113.762C93.7537 113.534 93.4345 113.259 93.5257 112.985C93.6169 112.756 93.9361 112.665 94.0729 112.482C94.4377 112.116 94.0729 111.476 93.6625 111.156C93.2521 110.836 92.7049 110.607 92.5225 110.104C92.4769 109.967 92.4313 109.83 92.3857 109.693C92.1577 109.327 91.5649 109.556 91.2001 109.83C90.8353 110.104 90.2425 110.333 90.0145 109.967C89.8777 109.738 89.9689 109.418 89.8321 109.235C89.6041 108.87 89.0113 109.053 88.6921 109.327C88.3729 109.601 88.0081 109.967 87.5521 109.876C87.1873 109.784 86.9593 109.373 86.5945 109.327C86.2297 109.281 85.9105 109.693 85.7737 110.058C85.6825 110.424 85.6825 110.882 85.4545 111.202C84.9073 111.11 84.0865 111.11 83.9497 111.659C83.8585 112.025 84.1321 112.39 84.4057 112.665C84.6337 112.985 84.8161 113.396 84.5881 113.716C84.4513 113.716 84.3601 113.716 84.2233 113.762C84.1777 113.716 84.1321 113.671 84.0865 113.625C83.9497 113.396 84.0409 113.076 83.9041 112.893C83.6761 112.528 83.0833 112.711 82.7641 112.985C82.4449 113.259 82.0801 113.625 81.6241 113.534C81.2593 113.442 81.0313 113.031 80.6665 112.985C80.3017 112.939 79.9825 113.351 79.8457 113.716C79.8001 113.991 79.7545 114.265 79.6633 114.539C79.6177 114.448 79.5721 114.357 79.5265 114.265C79.4809 114.128 79.4353 113.991 79.3897 113.899C79.1617 113.534 78.5689 113.762 78.2041 114.037C77.8393 114.311 77.2465 114.539 77.0185 114.174C76.8817 113.945 76.9729 113.625 76.8361 113.442C76.6081 113.076 76.0153 113.259 75.6961 113.534C75.3769 113.808 75.0121 114.174 74.5561 114.082C74.1913 113.991 73.9633 113.579 73.5985 113.534C73.2337 113.488 72.9145 113.899 72.7777 114.265C72.6865 114.677 72.6865 115.088 72.4585 115.408C71.9113 115.317 71.0905 115.317 70.9537 115.865C70.8625 116.231 71.1361 116.597 71.4097 116.871C71.6377 117.191 71.8201 117.603 71.5921 117.923C71.1817 117.923 70.8169 118.015 70.4521 118.197C70.0873 118.426 69.9505 118.838 70.1329 119.249C70.3153 119.478 70.5433 119.661 70.8625 119.752C72.3673 120.346 70.4065 122.221 71.1361 122.358C72.0937 122.496 73.1881 122.313 73.2337 123.501C73.1881 123.547 73.1425 123.547 73.0969 123.593C72.7777 123.867 72.4129 124.233 71.9569 124.142C71.5921 124.05 71.3641 123.639 70.9993 123.593C70.6345 123.547 70.3153 123.959 70.1785 124.324C70.0873 124.736 70.0873 125.148 69.8593 125.468C69.3121 125.376 68.4913 125.376 68.3545 125.925C68.2633 126.291 68.5369 126.656 68.8105 126.931C69.0385 127.251 69.2209 127.662 68.9929 127.982C68.5825 127.982 68.2177 128.074 67.8529 128.257C67.6249 128.531 67.4881 128.943 67.6249 129.308Z" fill="black"/>
<path d="M81.2136 124.736L80.4384 122.313L78.9336 120.392L79.2072 120.164L80.6208 121.672L80.8488 119.249H81.2592C81.2592 119.249 80.94 122.13 81.396 123.181C81.396 123.181 83.1288 127.617 84.1776 128.577C84.2232 128.623 84.2688 128.714 84.3144 128.76C84.6336 127.937 85.044 127.159 85.5456 126.428C85.1352 125.376 84.2232 122.998 83.904 121.718C83.676 120.758 83.4936 119.752 83.3568 118.746L83.7216 118.7C83.7216 118.7 84.7248 123.364 86.3208 125.468C86.8224 125.01 87.3696 124.645 87.9624 124.37C88.0992 123.73 88.1448 122.587 87.7344 120.804L88.0992 120.712C88.0992 120.712 88.7376 122.221 88.692 124.004C88.92 123.867 89.1936 123.73 89.376 123.593C90.9264 122.496 92.0664 120.484 92.0664 120.484L92.3856 120.804C92.3856 120.804 91.0632 123.73 89.1936 124.736C87.324 125.742 86.1384 128.12 86.0016 128.76C85.956 128.943 85.7736 130.36 86.0472 132.875C88.0536 132.006 91.9752 129.674 92.2488 129.491L92.7048 130.131L86.3208 134.704C86.2296 140.785 86.6856 145.678 86.64 147.049H82.992C83.0832 145.175 83.8584 139.505 83.5392 132.098C83.4936 131.915 83.4936 131.686 83.448 131.457C83.1744 129.171 81.4416 126.062 80.6208 125.193C79.7544 124.233 78.7512 123.501 78.7512 123.501L78.9792 122.998L81.2136 124.736Z" fill="#9B4D0C"/>
<path opacity="0.4" d="M71.9111 74.6678C71.9111 76.3597 70.5431 77.7771 68.8103 77.7771C67.1231 77.7771 65.7095 76.4054 65.7095 74.6678C65.7095 72.976 67.0775 71.5586 68.8103 71.5586C70.5431 71.5586 71.9111 72.9303 71.9111 74.6678Z" fill="black"/>
<path d="M45.4631 141.425C45.4631 156.789 62.5631 169.226 83.6303 169.226C104.698 169.226 121.798 156.789 121.798 141.425H45.4631Z" fill="#0A3F7F"/>
<path d="M176.062 188.064H160.922L166.486 6.72148H172.231L176.062 188.064Z" fill="#0A3F7F"/>
<path d="M211.356 204.205H126.312C126.312 195.289 133.517 188.064 142.409 188.064H195.259C204.151 188.064 211.356 195.289 211.356 204.205Z" fill="#0A3F7F"/>
<path d="M260.193 37.7226H76.7903C76.7903 33.836 79.9367 30.6353 83.8583 30.6353H253.171C257.047 30.6353 260.193 33.836 260.193 37.7226Z" fill="#263238"/>
<path opacity="0.3" d="M165.528 37.7226L165.437 42.0664H172.961V37.7226H165.528Z" fill="black"/>
<g opacity="0.3">
<path d="M166.349 10.5166C166.668 11.9341 168.127 13.0314 169.586 12.94C171.045 12.8485 172.368 11.614 172.505 10.1508L166.349 10.5166Z" fill="black"/>
</g>
<path d="M173.537 9.86987C175.821 7.6975 175.917 4.07993 173.75 1.78981C171.584 -0.500308 167.976 -0.595756 165.692 1.57662C163.408 3.749 163.313 7.36656 165.479 9.65668C167.646 11.9468 171.254 12.0422 173.537 9.86987Z" fill="#263238"/>
<path opacity="0.7" d="M173.537 9.86987C175.821 7.6975 175.917 4.07993 173.75 1.78981C171.584 -0.500308 167.976 -0.595756 165.692 1.57662C163.408 3.749 163.313 7.36656 165.479 9.65668C167.646 11.9468 171.254 12.0422 173.537 9.86987Z" fill="white"/>
<path opacity="0.3" d="M160.922 188.064H176.062L175.97 183.766H160.922V188.064Z" fill="black"/>
<g opacity="0.7">
<path d="M260.193 37.7226H76.7903C76.7903 33.836 79.9367 30.6353 83.8583 30.6353H253.171C257.047 30.6353 260.193 33.836 260.193 37.7226Z" fill="#0A3F7F"/>
</g>
<path d="M156.18 191.768L152.714 201.187L149.522 200.181L150.617 190.213L156.18 191.768Z" fill="#E9B376"/>
<path d="M153.034 205.165H150.161C150.161 205.165 149.568 204.845 149.249 204.891C148.93 204.936 147.744 205.165 147.744 205.165L140.129 205.119C140.175 204.799 140.266 204.525 140.357 204.251C140.448 203.931 140.585 203.702 140.722 203.473C141.178 202.696 141.862 202.422 142.546 202.376C143.595 202.33 146.969 200.09 146.969 200.09C146.969 200.09 148.2 199.678 148.246 198.352C148.291 197.849 148.975 197.255 149.34 197.209C150.024 197.118 150.435 197.575 150.526 198.261L150.617 199.084L152.213 198.855C152.213 198.855 153.855 198.032 153.763 198.855C153.718 199.312 153.444 201.37 153.262 202.97C153.216 203.336 153.171 203.702 153.125 204.022C153.125 204.708 153.034 205.165 153.034 205.165Z" fill="black"/>
<g opacity="0.2">
<path d="M140.129 205.074L147.744 205.119C147.744 205.119 148.93 204.891 149.249 204.845C149.568 204.799 150.161 205.119 150.161 205.119H153.034C153.034 205.119 153.079 204.662 153.171 203.931L140.357 204.159C140.266 204.479 140.175 204.754 140.129 205.074Z" fill="white"/>
</g>
<path d="M145.327 200.913C145.373 200.867 145.419 200.867 145.464 200.913C145.647 201.05 145.829 201.233 145.92 201.461C145.966 201.599 145.783 201.69 145.738 201.553C145.647 201.37 145.51 201.187 145.327 201.096C145.282 201.05 145.236 200.958 145.327 200.913Z" fill="#9B4D0C"/>
<path d="M145.92 200.547C145.966 200.501 146.011 200.501 146.057 200.547C146.239 200.684 146.422 200.867 146.513 201.096C146.559 201.233 146.376 201.324 146.331 201.187C146.239 201.004 146.103 200.821 145.92 200.73C145.875 200.684 145.875 200.593 145.92 200.547Z" fill="#9B4D0C"/>
<path d="M146.559 200.227C146.604 200.181 146.65 200.181 146.695 200.227C146.878 200.364 147.06 200.547 147.151 200.776C147.197 200.913 147.015 201.004 146.969 200.867C146.878 200.684 146.741 200.501 146.559 200.41C146.513 200.364 146.513 200.273 146.559 200.227Z" fill="#9B4D0C"/>
<path d="M178.979 190.076L180.347 200.364L183.676 200.547L184.77 190.625L178.979 190.076Z" fill="#E9B376"/>
<path d="M186.55 205.119H179.071C179.071 205.119 178.889 204.799 179.117 203.976C179.162 203.839 179.162 203.702 179.208 203.565C179.208 203.565 179.208 203.565 179.208 203.519C179.299 203.29 179.345 203.016 179.436 202.696C179.801 201.461 180.166 199.815 180.166 199.815C180.166 199.815 181.397 197.163 182.856 197.803C184.133 198.398 183.814 200.044 183.814 200.044C183.814 200.044 183.95 201.004 184.908 201.873C185.501 202.422 186.094 202.833 186.367 203.473C186.413 203.61 186.458 203.748 186.504 203.885V203.931C186.641 204.296 186.641 204.662 186.55 205.119Z" fill="black"/>
<g opacity="0.2">
<path d="M179.071 203.976C178.889 204.799 179.026 205.119 179.026 205.119H186.504C186.595 204.662 186.595 204.296 186.55 203.976H179.071Z" fill="white"/>
</g>
<path d="M183.54 200.501C183.13 200.181 182.582 200.227 182.172 200.593C182.081 200.684 181.898 200.547 182.035 200.455C182.491 199.998 183.175 199.953 183.677 200.364C183.814 200.41 183.677 200.593 183.54 200.501Z" fill="#9B4D0C"/>
<path d="M183.768 201.187C183.357 200.867 182.81 200.913 182.4 201.279C182.309 201.37 182.126 201.233 182.263 201.141C182.719 200.684 183.403 200.638 183.905 201.05C184.041 201.096 183.905 201.279 183.768 201.187Z" fill="#9B4D0C"/>
<path d="M183.996 201.827C183.585 201.507 183.038 201.553 182.628 201.919C182.537 202.01 182.354 201.873 182.491 201.781C182.947 201.324 183.631 201.279 184.133 201.69C184.269 201.736 184.087 201.919 183.996 201.827Z" fill="#9B4D0C"/>
<path d="M186.185 124.919L170.544 125.056L160.74 124.736C160.74 124.736 153.854 154.548 153.262 160.127C152.669 165.751 147.653 195.289 147.653 195.289L155.268 196.98C155.268 196.98 163.932 165.385 164.57 162.367C165.118 159.715 171.137 142.751 172.687 138.453C172.824 139.322 173.006 140.237 173.143 141.105C173.554 145.083 174.785 157.749 175.332 162.459C175.332 162.459 176.518 189.39 177.886 197.255H185.045C186.002 186.144 186.595 147.141 186.595 147.141C187.188 138.636 186.185 124.919 186.185 124.919Z" fill="black"/>
<g opacity="0.5">
<path d="M164.753 129.217C163.841 132.235 161.424 134.658 158.414 135.527C158.232 135.573 158.323 135.847 158.506 135.801C161.606 134.887 164.114 132.418 165.026 129.308C165.072 129.126 164.798 129.034 164.753 129.217Z" fill="black"/>
<path d="M172.961 129.217C172.778 131.869 172.596 134.475 172.414 137.127C172.414 137.31 172.14 137.31 172.14 137.127C172.231 135.801 172.322 134.43 172.414 133.058C171.775 133.561 171 132.966 170.818 132.281C170.453 131.183 170.59 129.903 170.863 128.805C170.909 128.623 171.137 128.714 171.137 128.851C170.954 129.628 170.863 130.406 170.909 131.183C170.954 131.595 170.954 132.052 171.137 132.418C171.365 132.829 171.866 133.149 172.277 132.783C172.322 132.738 172.368 132.738 172.414 132.783C172.505 131.595 172.596 130.406 172.642 129.217C172.687 129.034 172.961 129.034 172.961 129.217Z" fill="black"/>
<path d="M180.667 129.674C180.621 133.149 183.312 136.076 186.777 136.35C186.96 136.35 186.96 136.121 186.777 136.076C183.449 135.801 180.895 133.012 180.941 129.674C180.941 129.491 180.667 129.491 180.667 129.674Z" fill="black"/>
<path d="M182.354 163.647C183.449 164.059 184.589 164.059 185.683 163.647C185.82 163.602 185.774 163.327 185.592 163.419C184.543 163.785 183.449 163.785 182.4 163.419C182.263 163.373 182.218 163.602 182.354 163.647Z" fill="black"/>
</g>
<path d="M149.203 120.987C149.34 121.124 153.398 112.893 153.398 112.893L153.672 97.3471C153.672 97.3471 161.105 100.136 160.968 100.319C160.831 100.456 160.968 110.104 159.19 115.134C157.685 119.341 156.18 120.392 150.617 126.062L149.203 120.987Z" fill="#E9B376"/>
<path d="M156.134 86.419C159.554 86.4647 161.333 92.1803 161.47 107.132L151.939 106.172C151.939 106.172 151.757 99.5876 151.711 95.0609C152.304 87.242 156.134 86.419 156.134 86.419Z" fill="#9B4D0C"/>
<path d="M157.548 85.8246C159.645 85.2302 168.081 82.5324 177.201 82.441L184.315 113.945C184.315 113.945 185.774 120.118 186.504 124.965C178.068 130.452 166.075 131.915 159.463 129.491C159.554 129.628 159.144 125.879 158.597 120.346C157.593 110.653 156.089 95.4724 155.861 86.6019C155.815 86.4647 157.365 85.8703 157.548 85.8246Z" fill="#9B4D0C"/>
<path opacity="0.2" d="M157.092 105.12L156.226 94.1464L155.405 106.492L157.274 106.675L157.092 105.12Z" fill="black"/>
<path opacity="0.2" d="M180.257 101.554L179.755 101.737L176.244 93.552L179.071 102.971L180.621 102.88L180.257 101.554Z" fill="black"/>
<path d="M169.495 83.264C169.495 83.264 168.583 80.7492 169.13 75.9024L168.857 75.811C168.948 75.1251 169.039 74.4849 169.13 73.9363L163.476 78.8745C163.886 80.3377 163.795 83.264 163.704 84.4986C163.704 84.4986 163.293 86.8305 166.166 86.419C168.355 86.1904 169.495 83.264 169.495 83.264Z" fill="#E9B376"/>
<path opacity="0.2" d="M163.75 81.0235L167.215 79.6061C167.078 80.7949 166.303 82.3038 163.795 82.8068C163.841 82.8068 163.886 81.4808 163.75 81.0235Z" fill="black"/>
<path d="M168.72 70.8727C168.948 74.9422 169.176 77.2284 167.397 79.5604C164.707 83.0354 159.6 81.8008 158.186 77.8686C156.864 74.3478 156.727 68.2664 160.466 66.2089C164.114 64.197 168.492 66.8033 168.72 70.8727Z" fill="#E9B376"/>
<path d="M167.534 65.1115C165.802 62.7795 162.199 64.4713 160.786 65.7973C160.558 65.9802 164.069 67.2605 163.841 67.2148L164.89 68.2207C165.026 68.175 165.254 69.5924 165.437 70.7813C165.574 71.8787 166.03 72.976 166.759 73.8448C167.352 74.5764 168.173 75.4909 169.085 76.2225C170.407 75.3537 170.179 72.8846 170.453 71.3757C170.909 69.0895 171.137 64.8371 167.534 65.1115Z" fill="black"/>
<path d="M170.726 74.0734C170.544 75.1708 169.86 76.0396 169.085 76.5425C167.945 77.2741 167.352 76.0396 167.306 74.7593C167.261 73.6162 167.443 72.153 168.72 71.9244C170.042 71.6958 170.954 72.8389 170.726 74.0734Z" fill="#E9B376"/>
<path d="M163.065 72.7474C163.111 73.159 162.929 73.5247 162.655 73.5705C162.381 73.6162 162.108 73.2961 162.062 72.8846C162.017 72.4731 162.199 72.1073 162.473 72.0616C162.792 72.0158 163.02 72.3359 163.065 72.7474Z" fill="black"/>
<path d="M159.053 73.3418C159.098 73.7534 158.916 74.1192 158.642 74.1649C158.369 74.2106 158.095 73.8905 158.049 73.479C158.004 73.0675 158.186 72.7017 158.46 72.656C158.733 72.6103 159.007 72.9303 159.053 73.3418Z" fill="black"/>
<path d="M160.329 72.9303C160.329 72.9303 159.281 75.1251 158.961 76.0396C159.6 76.4968 160.557 76.131 160.557 76.131L160.329 72.9303Z" fill="#D58745"/>
<path d="M163.841 70.6898C163.795 70.7356 163.704 70.7356 163.658 70.6898C162.929 70.2326 162.245 70.5527 162.245 70.5527C162.153 70.5984 162.017 70.5527 161.971 70.4612C161.925 70.3698 161.971 70.2326 162.062 70.1869C162.108 70.1869 162.929 69.7753 163.841 70.3698C163.932 70.4155 163.977 70.5527 163.886 70.6441C163.932 70.6441 163.886 70.6898 163.841 70.6898Z" fill="black"/>
<path d="M162.062 77.2741C162.746 77.1827 163.202 76.8169 163.658 76.2225" stroke="black" stroke-width="0.75" stroke-miterlimit="10" stroke-linecap="round" stroke-linejoin="round"/>
<path opacity="0.2" d="M169.632 73.0675C169.45 72.8389 169.085 72.7931 168.811 72.8846C168.538 72.976 168.31 73.2047 168.173 73.479C167.99 73.7991 167.899 74.1192 167.899 74.4849" stroke="black" stroke-width="0.5" stroke-miterlimit="10" stroke-linecap="round" stroke-linejoin="round"/>
<path d="M157.046 71.7872C157.001 71.7872 156.955 71.7872 156.955 71.7415C156.864 71.6958 156.864 71.5586 156.91 71.4672C157.594 70.6441 158.46 70.7356 158.506 70.7356C158.597 70.7356 158.688 70.827 158.688 70.9642C158.688 71.0556 158.597 71.1471 158.46 71.1471C158.414 71.1471 157.73 71.1014 157.183 71.7415C157.183 71.7872 157.138 71.8329 157.046 71.7872Z" fill="black"/>
<path d="M167.534 65.1115C167.534 65.1115 165.254 61.865 160.922 62.5966C157.411 63.191 155.45 65.5687 155.222 67.9921C155.131 69.0438 155.314 69.8211 155.542 70.3698C155.724 70.7813 156.317 70.7813 156.454 70.324C156.499 70.1869 156.545 70.0954 156.636 69.9582C156.636 70.004 156.682 70.004 156.682 70.0497C156.91 70.5069 157.594 70.3698 157.639 69.9125C157.639 69.7753 157.685 69.5924 157.73 69.4553C157.913 69.8211 158.506 69.7753 158.642 69.3638C159.19 67.5348 161.561 66.2546 163.567 67.2605L164.981 68.2664C166.759 67.352 167.534 65.1115 167.534 65.1115Z" fill="black"/>
<path d="M161.515 85.093L163.704 83.3097L165.346 85.4131L169.176 81.6637L171.091 83.0354L167.945 88.4309L163.978 88.0651L161.515 85.093Z" fill="#9B4D0C"/>
<path d="M166.987 99.6333C166.622 99.4962 166.258 99.4962 165.893 99.5876C165.619 99.359 165.71 98.9017 165.847 98.5817C165.984 98.2616 166.212 97.8958 166.03 97.5757C165.802 97.0728 165.072 97.2099 164.57 97.4386C164.297 97.1642 164.251 96.7984 164.069 96.4326C163.886 96.1126 163.522 95.7925 163.202 95.8839C162.883 96.0211 162.746 96.4326 162.427 96.5698C162.062 96.7527 161.652 96.4784 161.287 96.2955C161.242 96.2497 161.196 96.2497 161.15 96.2497C160.968 95.1523 162.062 95.1066 162.883 94.7866C163.522 94.5122 161.378 93.1862 162.61 92.3632C162.838 92.226 163.066 92.0431 163.157 91.7687C163.248 91.403 163.02 91.0372 162.655 90.9C162.29 90.7628 161.926 90.7628 161.561 90.8543C161.287 90.6256 161.378 90.1684 161.515 89.8483C161.652 89.5283 161.88 89.1625 161.698 88.8424C161.47 88.3394 160.74 88.4766 160.238 88.7052C159.965 88.4309 159.919 88.0651 159.737 87.6993C159.554 87.3792 159.19 87.0591 158.87 87.1506C158.551 87.2878 158.414 87.6993 158.095 87.8365C157.73 88.0194 157.32 87.745 156.955 87.5621C156.59 87.3792 156.043 87.3335 155.906 87.6993C155.815 87.9279 155.952 88.2022 155.861 88.4309C155.724 88.8424 155.131 88.7052 154.721 88.568C154.356 88.3851 153.763 88.2937 153.581 88.6595C153.535 88.7967 153.535 88.9338 153.535 89.0253C153.535 89.1167 153.49 89.2082 153.444 89.2996C153.307 89.071 153.262 88.8424 153.125 88.6138C152.942 88.2937 152.578 87.9736 152.258 88.0651C151.939 88.2023 151.802 88.6138 151.483 88.7509C151.118 88.9338 150.708 88.6595 150.343 88.4766C149.978 88.2937 149.431 88.248 149.294 88.6138C149.203 88.8424 149.34 89.1167 149.249 89.3454C149.249 89.3911 149.203 89.4368 149.158 89.4825C149.021 89.4825 148.93 89.5283 148.793 89.5283C148.519 89.2996 148.61 88.8424 148.747 88.5223C148.884 88.2023 149.112 87.8365 148.93 87.5164C148.702 87.0134 147.972 87.1506 147.47 87.3792C147.197 87.1049 147.151 86.7391 146.969 86.3733C146.786 86.0532 146.422 85.7331 146.102 85.8246C145.783 85.9618 145.646 86.3733 145.327 86.5104C144.962 86.6933 144.552 86.419 144.187 86.2361C143.822 86.0532 143.275 86.0075 143.138 86.3733C143.047 86.6019 143.184 86.8762 143.093 87.1049C142.956 87.5164 142.363 87.3792 141.953 87.242C141.542 87.0591 140.995 86.9677 140.813 87.3335C140.767 87.4707 140.767 87.6078 140.767 87.6993C140.722 88.2023 140.266 88.5223 139.946 88.8881C139.627 89.2539 139.445 89.8941 139.855 90.2141C140.038 90.3513 140.357 90.3513 140.494 90.5799C140.63 90.8085 140.402 91.1743 140.22 91.403C139.992 91.8145 139.992 92.2717 140.266 92.6832C140.174 92.8204 140.038 92.9119 139.901 93.0033C139.536 93.1862 139.126 92.9119 138.761 92.729C138.396 92.5461 137.849 92.5003 137.712 92.8661C137.621 93.0948 137.758 93.3691 137.666 93.5977C137.53 94.0092 136.937 93.8721 136.526 93.7349C136.116 93.552 135.569 93.4605 135.386 93.8263C135.341 93.9635 135.341 94.1007 135.341 94.1921C135.295 94.6951 134.839 95.0152 134.52 95.381C134.201 95.7468 134.018 96.3869 134.429 96.707C134.611 96.8441 134.885 96.8899 135.022 97.0728C134.748 97.027 134.429 97.1185 134.338 97.3471C134.246 97.5757 134.383 97.8501 134.292 98.0787C134.155 98.4902 133.562 98.3531 133.152 98.2159C132.742 98.033 132.194 97.9415 132.012 98.3073C131.966 98.4445 131.966 98.5817 131.966 98.6731C131.921 99.1761 131.465 99.4962 131.146 99.862C130.826 100.228 130.644 100.868 131.054 101.188C131.237 101.325 131.556 101.325 131.693 101.554C131.83 101.782 131.602 102.148 131.419 102.377C131.1 102.788 131.237 103.749 131.784 103.931C132.012 103.977 132.331 103.977 132.422 104.206C132.514 104.389 132.331 104.617 132.24 104.8C132.194 104.846 132.194 104.892 132.194 104.937C132.012 105.486 132.331 106.035 132.878 106.218C133.015 106.263 133.152 106.263 133.243 106.401C133.289 106.492 133.289 106.583 133.289 106.675C133.289 106.858 133.289 107.041 133.334 107.224C133.334 107.269 133.38 107.361 133.426 107.361C133.471 107.406 133.517 107.406 133.608 107.361C134.338 107.224 134.611 106.904 135.204 107.452C135.25 107.498 135.341 107.544 135.386 107.589C135.478 107.589 135.523 107.589 135.614 107.589C136.116 107.544 136.39 107.132 136.8 106.995C137.438 106.766 137.621 107.086 138.214 107.224C139.171 107.452 139.536 107.086 139.582 106.492C139.582 106.309 139.582 106.126 139.536 105.943C139.49 105.669 139.536 105.395 139.673 105.212C140.129 105.166 140.402 104.8 140.813 104.663L141.086 104.572C141.588 104.48 141.77 104.709 142.318 104.846C142.591 104.937 142.865 104.937 143.093 104.892C143.23 105.166 143.002 105.44 142.819 105.669C142.5 106.08 142.637 107.041 143.184 107.224C143.412 107.269 143.731 107.269 143.822 107.498C143.914 107.681 143.731 107.909 143.64 108.092C143.594 108.138 143.594 108.184 143.594 108.23C143.412 108.778 143.731 109.327 144.278 109.51C144.415 109.556 144.552 109.556 144.643 109.693C144.689 109.784 144.689 109.876 144.689 109.967C144.689 110.15 144.689 110.333 144.734 110.516C144.734 110.561 144.78 110.653 144.826 110.653C144.871 110.653 144.917 110.699 145.008 110.653C145.738 110.516 146.011 110.196 146.604 110.744C146.65 110.79 146.741 110.836 146.786 110.882C146.878 110.882 146.923 110.882 147.014 110.882C147.516 110.836 147.79 110.424 148.2 110.287C148.793 110.058 149.021 110.379 149.614 110.516C150.571 110.744 150.936 110.379 150.982 109.784C150.982 109.601 150.982 109.418 150.936 109.235C150.754 108.138 151.848 108.092 152.669 107.772C152.714 107.772 152.76 107.727 152.806 107.635H152.851C153.353 107.589 153.626 107.178 154.037 107.041C154.675 106.812 154.858 107.132 155.45 107.269C156.408 107.498 156.773 107.132 156.818 106.538C156.818 106.355 156.818 106.172 156.773 105.989C156.636 105.12 157.274 104.937 157.958 104.709C158.05 105.029 158.323 105.303 158.642 105.395C158.779 105.44 158.916 105.44 159.007 105.577C159.053 105.669 159.053 105.76 159.053 105.852C159.053 106.035 159.053 106.218 159.098 106.401C159.098 106.446 159.144 106.538 159.19 106.538C159.235 106.538 159.281 106.583 159.372 106.538C160.102 106.401 160.375 106.08 160.968 106.629C161.014 106.675 161.105 106.721 161.15 106.766C161.242 106.766 161.287 106.766 161.378 106.766C161.88 106.721 162.154 106.309 162.564 106.172C163.202 105.943 163.385 106.263 163.978 106.401C164.935 106.629 165.3 106.263 165.346 105.669C165.346 105.486 165.346 105.303 165.3 105.12C165.118 104.023 166.212 103.977 167.033 103.657C167.671 103.383 165.528 102.057 166.759 101.234C166.987 101.097 167.215 100.914 167.306 100.639C167.489 100.136 167.306 99.7705 166.987 99.6333Z" fill="#30C46C"/>
<path opacity="0.4" d="M166.987 99.6333C166.622 99.4962 166.258 99.4962 165.893 99.5876C165.619 99.359 165.71 98.9017 165.847 98.5817C165.984 98.2616 166.212 97.8958 166.03 97.5757C165.802 97.0728 165.072 97.2099 164.57 97.4386C164.297 97.1642 164.251 96.7984 164.069 96.4326C163.886 96.1126 163.522 95.7925 163.202 95.8839C162.883 96.0211 162.746 96.4326 162.427 96.5698C162.062 96.7527 161.652 96.4784 161.287 96.2955C161.242 96.2497 161.196 96.2497 161.15 96.2497C160.968 95.1523 162.062 95.1066 162.883 94.7866C163.522 94.5122 161.378 93.1862 162.61 92.3632C162.838 92.226 163.066 92.0431 163.157 91.7687C163.248 91.403 163.02 91.0372 162.655 90.9C162.29 90.7628 161.926 90.7628 161.561 90.8543C161.287 90.6256 161.378 90.1684 161.515 89.8483C161.652 89.5283 161.88 89.1625 161.698 88.8424C161.47 88.3394 160.74 88.4766 160.238 88.7052C159.965 88.4309 159.919 88.0651 159.737 87.6993C159.554 87.3792 159.19 87.0591 158.87 87.1506C158.551 87.2878 158.414 87.6993 158.095 87.8365C157.73 88.0194 157.32 87.745 156.955 87.5621C156.59 87.3792 156.043 87.3335 155.906 87.6993C155.815 87.9279 155.952 88.2022 155.861 88.4309C155.724 88.8424 155.131 88.7052 154.721 88.568C154.356 88.3851 153.763 88.2937 153.581 88.6595C153.535 88.7967 153.535 88.9338 153.535 89.0253C153.535 89.1167 153.49 89.2082 153.444 89.2996C153.307 89.071 153.262 88.8424 153.125 88.6138C152.942 88.2937 152.578 87.9736 152.258 88.0651C151.939 88.2023 151.802 88.6138 151.483 88.7509C151.118 88.9338 150.708 88.6595 150.343 88.4766C149.978 88.2937 149.431 88.248 149.294 88.6138C149.203 88.8424 149.34 89.1167 149.249 89.3454C149.249 89.3911 149.203 89.4368 149.158 89.4825C149.021 89.4825 148.93 89.5283 148.793 89.5283C148.519 89.2996 148.61 88.8424 148.747 88.5223C148.884 88.2023 149.112 87.8365 148.93 87.5164C148.702 87.0134 147.972 87.1506 147.47 87.3792C147.197 87.1049 147.151 86.7391 146.969 86.3733C146.786 86.0532 146.422 85.7331 146.102 85.8246C145.783 85.9618 145.646 86.3733 145.327 86.5104C144.962 86.6933 144.552 86.419 144.187 86.2361C143.822 86.0532 143.275 86.0075 143.138 86.3733C143.047 86.6019 143.184 86.8762 143.093 87.1049C142.956 87.5164 142.363 87.3792 141.953 87.242C141.542 87.0591 140.995 86.9677 140.813 87.3335C140.767 87.4707 140.767 87.6078 140.767 87.6993C140.722 88.2023 140.266 88.5223 139.946 88.8881C139.627 89.2539 139.445 89.8941 139.855 90.2141C140.038 90.3513 140.357 90.3513 140.494 90.5799C140.63 90.8085 140.402 91.1743 140.22 91.403C139.992 91.8145 139.992 92.2717 140.266 92.6832C140.174 92.8204 140.038 92.9119 139.901 93.0033C139.536 93.1862 139.126 92.9119 138.761 92.729C138.396 92.5461 137.849 92.5003 137.712 92.8661C137.621 93.0948 137.758 93.3691 137.666 93.5977C137.53 94.0092 136.937 93.8721 136.526 93.7349C136.116 93.552 135.569 93.4605 135.386 93.8263C135.341 93.9635 135.341 94.1007 135.341 94.1921C135.295 94.6951 134.839 95.0152 134.52 95.381C134.201 95.7468 134.018 96.3869 134.429 96.707C134.611 96.8441 134.885 96.8899 135.022 97.0728C134.748 97.027 134.429 97.1185 134.338 97.3471C134.246 97.5757 134.383 97.8501 134.292 98.0787C134.155 98.4902 133.562 98.3531 133.152 98.2159C132.742 98.033 132.194 97.9415 132.012 98.3073C131.966 98.4445 131.966 98.5817 131.966 98.6731C131.921 99.1761 131.465 99.4962 131.146 99.862C130.826 100.228 130.644 100.868 131.054 101.188C131.237 101.325 131.556 101.325 131.693 101.554C131.83 101.782 131.602 102.148 131.419 102.377C131.1 102.788 131.237 103.749 131.784 103.931C132.012 103.977 132.331 103.977 132.422 104.206C132.514 104.389 132.331 104.617 132.24 104.8C132.194 104.846 132.194 104.892 132.194 104.937C132.012 105.486 132.331 106.035 132.878 106.218C133.015 106.263 133.152 106.263 133.243 106.401C133.289 106.492 133.289 106.583 133.289 106.675C133.289 106.858 133.289 107.041 133.334 107.224C133.334 107.269 133.38 107.361 133.426 107.361C133.471 107.406 133.517 107.406 133.608 107.361C134.338 107.224 134.611 106.904 135.204 107.452C135.25 107.498 135.341 107.544 135.386 107.589C135.478 107.589 135.523 107.589 135.614 107.589C136.116 107.544 136.39 107.132 136.8 106.995C137.438 106.766 137.621 107.086 138.214 107.224C139.171 107.452 139.536 107.086 139.582 106.492C139.582 106.309 139.582 106.126 139.536 105.943C139.49 105.669 139.536 105.395 139.673 105.212C140.129 105.166 140.402 104.8 140.813 104.663L141.086 104.572C141.588 104.48 141.77 104.709 142.318 104.846C142.591 104.937 142.865 104.937 143.093 104.892C143.23 105.166 143.002 105.44 142.819 105.669C142.5 106.08 142.637 107.041 143.184 107.224C143.412 107.269 143.731 107.269 143.822 107.498C143.914 107.681 143.731 107.909 143.64 108.092C143.594 108.138 143.594 108.184 143.594 108.23C143.412 108.778 143.731 109.327 144.278 109.51C144.415 109.556 144.552 109.556 144.643 109.693C144.689 109.784 144.689 109.876 144.689 109.967C144.689 110.15 144.689 110.333 144.734 110.516C144.734 110.561 144.78 110.653 144.826 110.653C144.871 110.653 144.917 110.699 145.008 110.653C145.738 110.516 146.011 110.196 146.604 110.744C146.65 110.79 146.741 110.836 146.786 110.882C146.878 110.882 146.923 110.882 147.014 110.882C147.516 110.836 147.79 110.424 148.2 110.287C148.793 110.058 149.021 110.379 149.614 110.516C150.571 110.744 150.936 110.379 150.982 109.784C150.982 109.601 150.982 109.418 150.936 109.235C150.754 108.138 151.848 108.092 152.669 107.772C152.714 107.772 152.76 107.727 152.806 107.635H152.851C153.353 107.589 153.626 107.178 154.037 107.041C154.675 106.812 154.858 107.132 155.45 107.269C156.408 107.498 156.773 107.132 156.818 106.538C156.818 106.355 156.818 106.172 156.773 105.989C156.636 105.12 157.274 104.937 157.958 104.709C158.05 105.029 158.323 105.303 158.642 105.395C158.779 105.44 158.916 105.44 159.007 105.577C159.053 105.669 159.053 105.76 159.053 105.852C159.053 106.035 159.053 106.218 159.098 106.401C159.098 106.446 159.144 106.538 159.19 106.538C159.235 106.538 159.281 106.583 159.372 106.538C160.102 106.401 160.375 106.08 160.968 106.629C161.014 106.675 161.105 106.721 161.15 106.766C161.242 106.766 161.287 106.766 161.378 106.766C161.88 106.721 162.154 106.309 162.564 106.172C163.202 105.943 163.385 106.263 163.978 106.401C164.935 106.629 165.3 106.263 165.346 105.669C165.346 105.486 165.346 105.303 165.3 105.12C165.118 104.023 166.212 103.977 167.033 103.657C167.671 103.383 165.528 102.057 166.759 101.234C166.987 101.097 167.215 100.914 167.306 100.639C167.489 100.136 167.306 99.7705 166.987 99.6333Z" fill="black"/>
<path d="M144.689 101.828L143.321 99.359L141.269 97.6215L141.497 97.3471L143.366 98.6731L143.093 95.9754L143.549 95.8839C143.549 95.8839 143.868 99.0846 144.598 100.136C144.598 100.136 147.516 104.526 148.884 105.349C148.975 105.395 149.021 105.44 149.112 105.532C149.249 104.572 149.522 103.657 149.933 102.743C149.249 101.691 147.698 99.3133 147.106 98.033C146.604 97.027 146.194 95.9754 145.829 94.9237L146.194 94.7866C146.194 94.7866 148.337 99.6333 150.571 101.554C150.982 100.959 151.483 100.456 152.076 99.9991C152.076 99.2675 151.848 97.9873 150.982 96.1583L151.346 95.9754C151.346 95.9754 152.395 97.4386 152.76 99.4504C152.988 99.2675 153.216 99.0389 153.444 98.8103C154.903 97.2557 155.633 94.8323 155.633 94.8323L156.043 95.1066C156.043 95.1066 155.268 98.6274 153.49 100.091C151.711 101.599 150.936 104.48 150.982 105.166C150.982 105.349 151.073 106.949 151.985 109.601C153.946 108.23 157.685 104.8 157.913 104.48L158.551 105.029L152.714 111.43C153.991 118.06 155.633 123.227 155.906 124.69L151.894 125.559C151.574 123.501 151.118 117.191 149.021 109.235C148.93 109.053 148.884 108.824 148.793 108.55C147.972 106.126 145.373 103.154 144.278 102.423C143.093 101.599 141.862 101.005 141.862 101.005L141.998 100.411L144.689 101.828Z" fill="#9B4D0C"/>
<path d="M161.469 128.805L149.978 131.046L145.418 118.7L160.968 115.637L161.469 128.805Z" fill="#30C46C"/>
<path d="M161.826 115.466L144.6 118.866L145.12 121.513L162.346 118.113L161.826 115.466Z" fill="#30C46C"/>
<g opacity="0.2">
<path d="M161.469 128.805L149.978 131.046L145.418 118.7L160.968 115.637L161.469 128.805Z" fill="black"/>
<path d="M161.826 115.466L144.6 118.866L145.12 121.513L162.346 118.113L161.826 115.466Z" fill="black"/>
</g>
<path d="M147.06 123.181C147.06 123.181 151.757 122.587 152.487 123.273C153.216 123.959 151.848 124.416 151.848 124.416C151.848 124.416 153.353 124.004 153.627 124.599C153.946 125.33 152.532 125.833 152.532 125.833C152.532 125.833 153.763 125.559 153.991 126.108C154.174 126.702 152.623 127.342 152.623 127.342C152.623 127.342 153.535 127.297 153.444 127.754C153.353 128.211 150.115 129.674 148.884 129.446C147.653 129.217 145.966 124.965 145.783 123.959C145.601 122.953 145.647 122.221 146.604 121.627L147.06 123.181Z" fill="#E9B376"/>
<path opacity="0.2" d="M151.894 124.507L149.203 125.102C149.158 125.102 149.112 125.102 149.112 125.056C149.112 125.01 149.112 124.965 149.158 124.965L151.802 124.37C151.848 124.37 151.894 124.37 151.894 124.416C151.939 124.416 151.894 124.462 151.894 124.507Z" fill="black"/>
<path opacity="0.2" d="M152.486 125.925L149.978 126.702C149.933 126.702 149.887 126.702 149.887 126.656C149.887 126.611 149.887 126.565 149.933 126.565L152.441 125.788C152.486 125.788 152.532 125.788 152.532 125.833C152.532 125.879 152.532 125.925 152.486 125.925Z" fill="black"/>
<path opacity="0.2" d="M152.578 127.434L150.708 128.074C150.663 128.074 150.617 128.074 150.617 128.028C150.617 127.982 150.617 127.937 150.663 127.937L152.532 127.297C152.578 127.297 152.623 127.297 152.623 127.342C152.623 127.388 152.623 127.434 152.578 127.434Z" fill="black"/>
<path opacity="0.3" d="M146.376 121.261C146.604 121.215 161.059 118.38 161.059 118.38V118.929L146.695 121.993L146.376 121.261Z" fill="black"/>
<path d="M179.573 99.3133L181.67 106.355L167.58 114.402L170.179 119.341C170.179 119.341 187.462 112.802 189.559 110.973C191.611 109.144 186.458 96.6155 186.458 96.6155L179.573 99.3133Z" fill="#E9B376"/>
<path d="M177.019 82.4867C177.019 82.4867 180.804 82.3953 182.583 86.5562C184.179 90.397 188.191 98.8103 188.191 98.8103L179.801 101.782L175.879 91.7687L177.019 82.4867Z" fill="#9B4D0C"/>
<path d="M169.678 114.402C169.678 114.402 168.31 113.259 166.85 113.442C165.391 113.579 164.16 113.351 163.111 113.534C162.017 113.716 163.294 114.494 164.069 114.768C164.844 115.042 165.665 115.363 165.391 115.865C165.118 116.414 160.603 119.158 160.284 119.981C159.965 120.758 160.831 120.575 160.831 120.575C160.831 120.575 159.782 121.261 159.919 121.764C159.965 121.901 160.284 122.13 160.786 121.901C161.971 121.352 164.479 120.072 164.479 120.072C164.342 120.164 161.378 121.947 160.968 122.267C160.421 122.678 160.421 123.181 160.649 123.456C161.014 123.867 164.753 121.764 164.981 121.81C164.981 121.81 162.792 122.953 162.792 123.684C162.792 124.416 164.206 123.776 165.346 122.953C166.394 122.221 168.629 121.032 169.632 120.209C170.863 119.158 171.456 118.197 171 116.734C170.544 115.225 169.678 114.402 169.678 114.402Z" fill="#E9B376"/>
<path opacity="0.3" d="M160.922 120.392C161.789 119.843 162.701 119.341 163.613 118.883" stroke="black" stroke-width="0.25" stroke-miterlimit="10" stroke-linecap="round" stroke-linejoin="round"/>
</g>
<defs>
<clipPath id="clip0_0_6775">
<rect width="342" height="208" fill="white"/>
</clipPath>
</defs>
</svg>
