<svg width="280" height="237" viewBox="0 0 280 237" fill="none" xmlns="http://www.w3.org/2000/svg">
<g clip-path="url(#clip0_0_7398)">
<path d="M139.747 213.674C140.127 213.674 140.443 213.674 140.824 213.674C169.14 213.674 194.67 201.448 212.281 181.937H139.747V213.674Z" fill="#AAABB0"/>
<path d="M139.747 213.674V182H69.3666C86.724 201.195 111.81 213.357 139.747 213.674Z" fill="#83B7BE"/>
<path d="M140 182.697H212.09C221.846 171.928 229.195 158.941 233.312 144.561H140V182.697Z" fill="#C8C7C7"/>
<path d="M69.1132 182.697H140V144.561H47.8915C52.0091 158.878 59.3575 171.928 69.1132 182.697Z" fill="#C5E2F2"/>
<path d="M34.3982 98.3801H34.0814C34.1448 95.7195 31.991 93.5023 29.267 93.4389C28.8869 93.4389 28.5701 93.4389 28.2534 93.5656C27.5566 91.2851 25.4027 89.638 22.9321 89.5747C20.1448 89.5113 17.8009 91.5385 17.2941 94.1991C17.1041 94.1991 16.914 94.1358 16.724 94.1358C14.3167 94.0724 12.3529 95.9729 12.2262 98.3801C9.43892 99.1403 7.15837 101.294 6.39819 104.145L41.0498 104.652C40.1629 101.041 38.1991 98.3801 34.3982 98.3801Z" fill="#B8E3FF"/>
<path d="M23.0588 89.448C20.2715 89.3846 17.9276 91.3484 17.3574 94.0091C19.3846 94.3258 20.9683 96.0362 21.095 98.0634L28.38 93.5023C27.6832 91.2217 25.5927 89.5113 23.0588 89.448Z" fill="#B8E3FF"/>
<path d="M12.2262 98.1901L17.3574 94.0091C17.1674 94.0091 16.9773 93.9457 16.7873 93.9457C14.38 93.8824 12.3529 95.7828 12.2262 98.1901Z" fill="#B8E3FF"/>
<path d="M17.3574 94.009L21.095 98.0634C20.9683 96.0362 19.3846 94.3258 17.3574 94.009Z" fill="#B8E3FF"/>
<path d="M29.3936 93.3756C29.0136 93.3756 28.6968 93.3756 28.3801 93.4389L27.7466 98.19L34.2081 98.3167C34.2081 95.6561 32.0543 93.4389 29.3936 93.3756Z" fill="#B8E3FF"/>
<path d="M34.4615 98.3801H34.1448L12.2262 98.3167C12.2262 98.2534 12.2262 98.2534 12.2262 98.19C9.43892 98.8869 7.15837 101.104 6.39819 103.891L41.3032 104.652C40.4796 101.104 38.2624 98.4434 34.4615 98.3801Z" fill="#B8E3FF"/>
<path d="M20.6516 100.344C20.905 99.7738 21.0951 99.1403 21.0951 98.5068C21.0951 98.3801 21.0951 98.2534 21.0951 98.0634L20.6516 100.344Z" fill="#B8E3FF"/>
<path d="M20.6516 100.344C20.905 99.7738 21.0951 99.1403 21.0951 98.5068C21.0951 98.3801 21.0951 98.2534 21.0951 98.0634L20.6516 100.344Z" fill="#B8E3FF"/>
<path d="M17.3574 94.1991C17.3574 94.1991 20.3981 95.2127 20.2081 98C20.0181 101.104 17.3574 101.801 17.3574 101.801C19.4479 101.801 21.1583 100.09 21.1583 98C21.1583 95.9095 19.4479 94.1991 17.3574 94.1991Z" fill="#C6E9FF"/>
<path d="M35.4752 98.6335C32.3711 98.5701 29.8372 101.041 29.7738 104.145C29.7738 104.145 31.2942 99.3937 35.4752 99.7104C40.0996 100.027 41.0498 104.335 41.0498 104.335C41.1132 101.231 38.5792 98.6968 35.4752 98.6335Z" fill="#C6E9FF"/>
<path d="M108.072 62.7783C107.946 59.7376 105.412 57.3937 102.371 57.3937C102.118 57.3937 101.864 57.3937 101.611 57.457C100.977 54.0996 98.0001 51.629 94.4525 51.629C91.2851 51.6923 88.6245 53.7828 87.7376 56.6335C87.2942 56.5701 86.9141 56.5068 86.4706 56.5068C83.1132 56.5701 80.3892 59.3575 80.4525 62.7149H80.0724C75.3213 62.7783 72.7874 66.1358 71.7738 70.5701L115.421 69.8733C114.407 66.4525 111.557 63.6652 108.072 62.7783Z" fill="#B8E3FF"/>
<path d="M101.548 57.5204C98.8869 57.5204 96.733 59.6742 96.733 62.3348C96.733 64.9955 98.8869 67.1493 101.548 67.1493C101.548 67.1493 98.1267 66.2625 97.9367 62.3348C97.7466 58.7873 101.548 57.5204 101.548 57.5204Z" fill="#C6E9FF"/>
<path d="M78.6788 63.1584C74.7511 63.2217 71.6471 66.4525 71.7104 70.3801C71.7104 70.3801 72.914 64.9955 78.7421 64.552C84 64.172 85.9005 70.1267 85.9005 70.1267C85.7738 66.1991 82.543 63.095 78.6788 63.1584Z" fill="#C6E9FF"/>
<path d="M135.692 162.299C134.805 163.249 133.032 164.833 130.751 164.833C128.977 164.833 127.14 163.882 125.873 162.235V162.172L125.81 162.235C124.986 163.186 123.213 164.833 120.932 164.833C119.158 164.833 117.385 163.882 116.118 162.235V162.172L116.054 162.235C114.851 163.629 113.52 164.453 112.063 164.769V164.833C113.457 164.579 114.787 163.756 116.054 162.362C117.321 163.946 119.158 164.959 120.932 164.959C123.213 164.959 124.986 163.376 125.81 162.362C127.14 163.946 128.914 164.896 130.688 164.896C132.398 164.896 134.109 164.009 135.566 162.362C136.896 163.756 138.29 164.579 139.683 164.833V164.769C138.353 164.579 137.023 163.756 135.692 162.299Z" fill="#0076CE" stroke="#0065C4" stroke-width="0.2835" stroke-miterlimit="10"/>
<path d="M135.692 163.629C134.805 164.579 133.032 166.163 130.751 166.163C128.977 166.163 127.14 165.213 125.873 163.566V163.502L125.81 163.566C124.986 164.516 123.213 166.163 120.932 166.163C119.158 166.163 117.385 165.213 116.118 163.566V163.502L116.054 163.566C114.851 164.959 113.52 165.783 112.063 166.1V166.163C113.457 165.91 114.787 165.086 116.054 163.692C117.321 165.276 119.158 166.29 120.932 166.29C123.213 166.29 124.986 164.706 125.81 163.692C127.14 165.276 128.914 166.226 130.688 166.226C132.398 166.226 134.109 165.339 135.566 163.692C136.896 165.086 138.29 165.91 139.683 166.163V166.1C138.353 165.91 137.023 165.023 135.692 163.629Z" fill="#0076CE" stroke="#0065C4" stroke-width="0.2835" stroke-miterlimit="10"/>
<path d="M135.692 164.959C134.805 165.91 133.032 167.493 130.751 167.493C128.977 167.493 127.14 166.543 125.873 164.896V164.833L125.81 164.896C124.986 165.846 123.213 167.493 120.932 167.493C119.158 167.493 117.385 166.543 116.118 164.896V164.833L116.054 164.896C114.851 166.29 113.52 167.113 112.063 167.43V167.493C113.457 167.24 114.787 166.416 116.054 165.023C117.321 166.606 119.158 167.62 120.932 167.62C123.213 167.62 124.986 166.036 125.81 165.023C127.14 166.606 128.914 167.557 130.688 167.557C132.398 167.557 134.109 166.67 135.566 165.023C136.959 166.48 138.416 167.367 139.937 167.557V167.493C138.543 167.303 137.086 166.416 135.692 164.959Z" fill="#0076CE" stroke="#0065C4" stroke-width="0.2835" stroke-miterlimit="10"/>
<path d="M163.629 162.299C162.742 163.249 160.968 164.833 158.688 164.833C156.914 164.833 155.077 163.882 153.81 162.235V162.172L153.747 162.235C152.923 163.186 151.149 164.833 148.869 164.833C147.095 164.833 145.321 163.882 144.054 162.235V162.172L143.991 162.235C142.787 163.629 141.457 164.453 140 164.769V164.833C141.394 164.579 142.724 163.756 143.991 162.362C145.258 163.946 147.095 164.959 148.869 164.959C151.149 164.959 152.923 163.376 153.747 162.362C155.077 163.946 156.851 164.896 158.624 164.896C160.335 164.896 162.045 164.009 163.502 162.362C164.833 163.756 166.226 164.579 167.62 164.833V164.769C166.353 164.579 164.959 163.756 163.629 162.299Z" fill="#424445" stroke="#424445" stroke-width="0.2835" stroke-miterlimit="10"/>
<path d="M163.629 163.629C162.742 164.579 160.968 166.163 158.688 166.163C156.914 166.163 155.077 165.213 153.81 163.566V163.502L153.747 163.566C152.923 164.516 151.149 166.163 148.869 166.163C147.095 166.163 145.321 165.213 144.054 163.566V163.502L143.991 163.566C142.787 164.959 141.457 165.783 140 166.1V166.163C141.394 165.91 142.724 165.086 143.991 163.692C145.258 165.276 147.095 166.29 148.869 166.29C151.149 166.29 152.923 164.706 153.747 163.692C155.077 165.276 156.851 166.226 158.624 166.226C160.335 166.226 162.045 165.339 163.502 163.692C164.833 165.086 166.226 165.91 167.62 166.163V166.1C166.353 165.91 164.959 165.023 163.629 163.629Z" fill="#424445" stroke="#424445" stroke-width="0.2835" stroke-miterlimit="10"/>
<path d="M163.629 164.959C162.742 165.91 160.968 167.493 158.688 167.493C156.914 167.493 155.077 166.543 153.81 164.896V164.833L153.747 164.896C152.923 165.846 151.149 167.493 148.869 167.493C147.095 167.493 145.321 166.543 144.054 164.896V164.833L143.991 164.896C142.787 166.29 141.457 167.113 140 167.43V167.493C141.394 167.24 142.724 166.416 143.991 165.023C145.258 166.606 147.095 167.62 148.869 167.62C151.149 167.62 152.923 166.036 153.747 165.023C155.077 166.606 156.851 167.557 158.624 167.557C160.335 167.557 162.045 166.67 163.502 165.023C164.896 166.48 166.353 167.367 167.873 167.557V167.493C166.48 167.303 165.023 166.416 163.629 164.959Z" fill="#424445" stroke="#424445" stroke-width="0.2835" stroke-miterlimit="10"/>
<path d="M209.05 176.425C207.53 176.425 205.946 175.602 204.869 174.208V174.145C204.109 174.968 202.652 176.362 200.688 176.362C199.168 176.362 197.647 175.538 196.57 174.145C195.493 175.348 194.353 176.045 193.149 176.299V176.362C194.353 176.109 195.493 175.412 196.57 174.208C197.647 175.602 199.231 176.425 200.751 176.425C202.715 176.425 204.172 175.032 204.932 174.208C206.072 175.602 207.593 176.425 209.113 176.425C209.24 176.425 209.43 176.425 209.557 176.362V176.299C209.367 176.425 209.24 176.425 209.05 176.425Z" fill="#424445"/>
<path d="M196.57 174.145C197.647 175.538 199.168 176.362 200.688 176.362C202.652 176.362 204.109 174.968 204.869 174.145V174.208C205.946 175.602 207.53 176.425 209.05 176.425C209.24 176.425 209.367 176.425 209.557 176.299V176.362C209.43 176.425 209.24 176.425 209.113 176.425C207.593 176.425 206.072 175.602 204.932 174.208C204.172 175.032 202.715 176.425 200.751 176.425C199.231 176.425 197.647 175.602 196.57 174.208C195.493 175.412 194.353 176.109 193.149 176.362V176.299C194.353 176.045 195.493 175.348 196.57 174.145ZM196.57 174.145V174.081" stroke="#424445" stroke-width="0.2835" stroke-miterlimit="10"/>
<path d="M209.05 177.502C207.53 177.502 205.946 176.679 204.869 175.285V175.222C204.109 176.045 202.652 177.439 200.688 177.439C199.168 177.439 197.647 176.615 196.57 175.222C195.493 176.425 194.353 177.122 193.149 177.376V177.439C194.353 177.186 195.493 176.489 196.57 175.285C197.647 176.679 199.231 177.502 200.751 177.502C202.715 177.502 204.172 176.109 204.932 175.285C206.072 176.679 207.593 177.502 209.113 177.502C209.303 177.502 209.43 177.502 209.62 177.439V177.376C209.43 177.502 209.24 177.502 209.05 177.502Z" fill="#424445"/>
<path d="M196.57 175.222C197.647 176.615 199.168 177.439 200.688 177.439C202.652 177.439 204.109 176.045 204.869 175.222V175.285C205.946 176.679 207.53 177.502 209.05 177.502C209.24 177.502 209.43 177.502 209.62 177.376V177.439C209.43 177.502 209.303 177.502 209.113 177.502C207.593 177.502 206.072 176.679 204.932 175.285C204.172 176.109 202.715 177.502 200.751 177.502C199.231 177.502 197.647 176.679 196.57 175.285C195.493 176.489 194.353 177.186 193.149 177.439V177.376C194.353 177.122 195.493 176.425 196.57 175.222ZM196.57 175.222V175.158" stroke="#424445" stroke-width="0.2835" stroke-miterlimit="10"/>
<path d="M209.05 178.643C207.53 178.643 206.009 177.819 204.869 176.425V176.362C204.109 177.186 202.652 178.579 200.688 178.579C199.168 178.579 197.647 177.756 196.57 176.362C195.493 177.566 194.353 178.262 193.149 178.516V178.579C194.353 178.326 195.493 177.629 196.57 176.425C197.647 177.819 199.231 178.643 200.751 178.643C202.715 178.643 204.172 177.249 204.932 176.425C206.072 177.819 207.593 178.643 209.113 178.643C209.303 178.643 209.43 178.643 209.62 178.579V178.516C209.43 178.643 209.24 178.643 209.05 178.643Z" fill="#424445"/>
<path d="M196.57 176.362C197.647 177.756 199.168 178.579 200.688 178.579C202.652 178.579 204.109 177.186 204.869 176.362V176.425C206.009 177.819 207.53 178.643 209.05 178.643C209.24 178.643 209.43 178.643 209.62 178.516V178.579C209.43 178.643 209.303 178.643 209.113 178.643C207.593 178.643 206.072 177.819 204.932 176.425C204.172 177.249 202.715 178.643 200.751 178.643C199.231 178.643 197.647 177.819 196.57 176.425C195.493 177.629 194.353 178.326 193.149 178.579V178.516C194.353 178.262 195.493 177.566 196.57 176.362ZM196.57 176.362V176.299" stroke="#424445" stroke-width="0.2835" stroke-miterlimit="10"/>
<path d="M86.1539 34.1448C85.4571 34.1448 84.8236 34.3348 84.2534 34.7149C83.8733 32.4344 81.9729 30.724 79.5657 30.724C78.7421 30.724 77.9819 30.914 77.3485 31.2941C75.7647 27.9367 72.4073 25.6561 68.4797 25.6561C64.362 25.6561 60.8779 28.19 59.4209 31.7376C59.1675 31.6742 58.9141 31.6742 58.6607 31.6742C55.3032 31.6742 52.6426 34.3982 52.6426 37.6923C52.6426 38.1358 52.7059 38.6425 52.8326 39.086H82.6697C82.7331 39.0226 82.7964 38.9593 82.8598 38.8959C82.8598 38.9593 82.9231 39.0226 82.9231 39.086H89.448C89.6381 38.6425 89.7014 38.1991 89.7014 37.6923C89.7014 35.7285 88.1177 34.1448 86.1539 34.1448Z" fill="#C6E9FF"/>
<path d="M68.4797 25.6561C64.3621 25.6561 60.8779 28.19 59.4209 31.7376C62.3983 32.1177 64.7422 34.6516 64.7422 37.7557L77.3485 31.2941C75.7648 27.9367 72.4073 25.6561 68.4797 25.6561Z" fill="#C6E9FF"/>
<path d="M52.6426 37.6923L59.4209 31.6742C59.1675 31.6742 58.9141 31.6742 58.6607 31.6742C55.3666 31.6742 52.6426 34.3348 52.6426 37.6923Z" fill="#C6E9FF"/>
<path d="M59.4209 31.7376L64.7422 37.7557C64.7422 34.5882 62.3983 32.0543 59.4209 31.7376Z" fill="#C6E9FF"/>
<path d="M79.6291 30.724C78.8055 30.724 78.0453 30.914 77.4119 31.2941L84.3168 34.7149C83.9368 32.4344 81.973 30.724 79.6291 30.724Z" fill="#C6E9FF"/>
<path d="M113.964 3.99095C113.837 3.99095 113.71 3.99095 113.584 3.99095C112.76 2.02715 110.796 0.633484 108.516 0.633484C106.362 0.633484 104.462 1.90045 103.575 3.73756C103.195 3.54751 102.751 3.42081 102.308 3.42081C100.977 3.42081 99.9005 4.37104 99.7104 5.63801C99.3937 5.44796 99.0769 5.32127 98.6968 5.32127C97.6199 5.32127 96.733 6.20814 96.733 7.28507C96.733 7.53846 96.7964 7.79185 96.8597 8.04525H100.471C100.471 7.9819 100.471 7.9819 100.534 7.91855C100.597 7.9819 100.597 7.9819 100.661 8.04525H117.195C117.258 7.79185 117.258 7.53846 117.258 7.28507C117.321 5.44796 115.801 3.99095 113.964 3.99095Z" fill="white"/>
<path d="M108.516 0.633484C106.362 0.633484 104.462 1.90045 103.575 3.73756L110.606 7.28507C110.606 5.57466 111.873 4.181 113.52 3.99095C112.76 2.02715 110.796 0.633484 108.516 0.633484Z" fill="white"/>
<path d="M113.964 3.9276C113.837 3.9276 113.71 3.9276 113.584 3.9276L117.321 7.22171C117.321 5.44796 115.801 3.9276 113.964 3.9276Z" fill="white"/>
<path d="M110.606 7.28507L113.52 3.99095C111.873 4.181 110.606 5.57466 110.606 7.28507Z" fill="white"/>
<path d="M99.7738 5.638L103.575 3.73755C103.195 3.5475 102.751 3.42081 102.308 3.42081C101.041 3.42081 99.9638 4.37103 99.7738 5.638Z" fill="white"/>
<path d="M42.1268 59.9276C41.62 59.9276 41.1766 59.991 40.7331 60.181C40.4797 55.7466 36.8689 52.2625 32.3711 52.2625C27.9367 52.2625 24.3259 55.7466 24.0091 60.1177C22.4888 60.4344 21.3485 61.7647 21.3485 63.4118C21.3485 63.8552 21.4119 64.2353 21.5386 64.552H46.4345C46.4345 64.4253 46.4345 64.362 46.4345 64.2353C46.3711 61.8281 44.4707 59.9276 42.1268 59.9276Z" fill="white"/>
<path d="M237.81 80.7059C237.43 80.7059 237.113 80.7692 236.796 80.8959C236.606 77.6652 234.009 75.1312 230.715 75.1312C227.484 75.1312 224.887 77.6018 224.634 80.7692C223.557 81.0226 222.733 81.9729 222.733 83.1765C222.733 83.4932 222.796 83.7466 222.86 84H240.851C240.851 83.9367 240.851 83.8733 240.851 83.81C240.914 82.0996 239.52 80.7059 237.81 80.7059Z" fill="#C8C7C7"/>
<path d="M63.2217 32.9412C62.8416 27.0498 57.9004 22.362 51.8823 22.362C45.8009 22.362 40.8597 27.1131 40.543 33.1312C39.9095 32.9412 39.276 32.8145 38.6425 32.8145C35.4117 32.8145 32.8145 35.4118 32.8145 38.6425C32.8145 38.7692 32.8145 38.8959 32.8145 39.0226H66.5158C66.7059 38.5158 66.8326 38.0091 66.8326 37.4389C66.8326 35.2217 65.3122 33.3846 63.2217 32.9412Z" fill="#B8E3FF"/>
<path d="M53.4027 98.5068C52.3891 98.5068 51.5022 97.6833 51.5022 96.6063V90.3982C51.5022 89.3846 50.6787 88.5611 49.6018 88.5611C48.9683 88.5611 48.3982 88.8778 48.0814 89.3846C47.8914 89.7014 47.7647 90.0181 47.7647 90.3982V92.4253C47.7647 93.3756 47.0045 94.1358 46.0543 94.1358H45.8642C44.9774 94.1358 44.2805 93.5023 44.1538 92.6154L22.9321 122.896C21.4751 124.986 22.6787 128.09 25.086 128.281C25.1493 128.281 25.276 128.281 25.3393 128.281H91.095C91.1584 128.281 91.285 128.281 91.3484 128.281C93.7556 128.09 94.9593 124.986 93.5023 122.896L70.19 90.1448V94.3258C70.19 95.276 69.4298 96.0362 68.4796 96.0362H68.2896C67.3394 96.0362 66.5792 95.276 66.5792 94.3258V89.448V89.3213C66.5792 88.3077 65.7556 87.4842 64.6787 87.4842C63.6651 87.4842 62.8416 88.3077 62.8416 89.3213V95.9729C62.8416 96.9864 62.0181 97.8733 60.9412 97.8733C59.9909 97.8733 59.1674 97.1131 59.1041 96.1629V92.8054C59.1041 91.7919 58.2805 90.905 57.2036 90.905C56.1267 90.905 55.3032 91.7285 55.3032 92.8054V96.733C55.3032 97.6833 54.4796 98.5068 53.4027 98.5068Z" fill="white"/>
<path d="M51.5656 96.6063C51.5656 97.6199 52.3892 98.5068 53.4661 98.5068C54.543 98.5068 55.3032 97.6833 55.3032 96.6063V92.6787C55.3032 91.6652 56.1267 90.7783 57.2036 90.7783C58.2806 90.7783 59.1041 91.6018 59.1041 92.6787V96.0362C59.1674 96.9864 59.991 97.7466 60.9412 97.7466C61.9548 97.7466 62.8416 96.9231 62.8416 95.8462V89.1946C62.8416 88.181 63.6652 87.3575 64.6787 87.3575C65.6923 87.3575 66.5792 88.181 66.5792 89.1946V89.3213V94.1991C66.5792 95.1493 67.3394 95.9095 68.2896 95.9095H68.4796C69.4299 95.9095 70.1901 95.1493 70.1901 94.1991V90.0181L64.172 81.5294C62.7149 79.5023 60.4977 78.362 58.2172 78.362C55.81 78.362 53.5294 79.5656 52.0724 81.6561L47.1946 88.6244L48.2715 89.3846C48.5882 88.8778 49.1584 88.5611 49.7919 88.5611C50.8054 88.5611 51.6923 89.3846 51.6923 90.3982V96.6063H51.5656Z" fill="white"/>
<path d="M86.3439 112.95H29.9638L22.9321 122.896C21.4751 124.986 22.6787 128.091 25.086 128.281C25.1493 128.281 25.276 128.281 25.3393 128.281H91.0316C91.095 128.281 91.2217 128.281 91.285 128.281C93.6923 128.091 94.8959 124.986 93.4389 122.896L86.3439 112.95Z" fill="#007980"/>
<path d="M121.566 76.7783C121.566 75.2579 120.299 73.991 118.778 73.991C118.018 73.991 117.321 74.3077 116.815 74.8145C116.308 75.3213 115.991 76.0181 115.991 76.7783V82.6063C115.991 83.3665 115.674 84.0634 115.167 84.5701C114.661 85.0769 113.964 85.3937 113.204 85.3937C111.683 85.3937 110.416 84.1267 110.416 82.6063V71.3937C110.416 69.8733 109.149 68.6063 107.629 68.6063C106.869 68.6063 106.172 68.9231 105.665 69.4299C105.158 69.9367 104.842 70.6335 104.842 71.3937V72.5339V86.5339V87.6742C104.842 88.4344 104.525 89.1312 104.018 89.638C103.511 90.1448 102.815 90.4615 102.054 90.4615C100.534 90.4615 99.267 89.1946 99.267 87.6742V72.5339V72.4706L64.9955 121.059C62.9684 123.973 64.6154 128.281 67.9729 128.471C68.0996 128.471 68.163 128.471 68.2896 128.471H159.195C159.321 128.471 159.385 128.471 159.511 128.471C162.869 128.217 164.516 123.91 162.489 121.059L127.014 71.2036V85.9638C127.014 86.724 126.697 87.4208 126.19 87.9276C125.683 88.4344 124.986 88.7511 124.226 88.7511C122.706 88.7511 121.439 87.4842 121.439 85.9638V76.7783H121.566Z" fill="white"/>
<path d="M116.878 74.8778C117.385 74.371 118.081 74.0543 118.842 74.0543C120.362 74.0543 121.629 75.3213 121.629 76.8416V86.0272C121.629 87.5475 122.896 88.8145 124.416 88.8145C125.176 88.8145 125.873 88.4977 126.38 87.991C126.887 87.4842 127.204 86.7873 127.204 86.0272V71.267L122.136 64.1086C120.172 61.3213 117.131 59.6742 113.837 59.6742C110.48 59.6742 107.376 61.3846 105.348 64.2353L99.457 72.5339V72.5973V87.7376C99.457 89.2579 100.724 90.5249 102.244 90.5249C103.005 90.5249 103.701 90.2082 104.208 89.7014C104.715 89.1946 105.032 88.4977 105.032 87.7376V86.5973V72.5973V71.457C105.032 70.6968 105.348 70 105.855 69.4932C106.362 68.9864 107.059 68.6697 107.819 68.6697C109.339 68.6697 110.606 69.9367 110.606 71.457V82.6697C110.606 84.1901 111.873 85.457 113.394 85.457C114.154 85.457 114.851 85.1403 115.357 84.6335C115.864 84.1267 116.181 83.4299 116.181 82.6697V76.8416C116.054 76.0181 116.371 75.3213 116.878 74.8778Z" fill="#83B7BE"/>
<path d="M152.86 107.376H74.8145L65.1222 121.122C63.0951 124.036 64.7421 128.344 68.0996 128.534C68.2263 128.534 68.2897 128.534 68.4164 128.534H159.321C159.448 128.534 159.511 128.534 159.638 128.534C162.996 128.281 164.643 123.973 162.615 121.059L152.86 107.376Z" fill="#62898F"/>
<path d="M187.891 87.6109H153.937V128.787H187.891V87.6109Z" fill="#615654"/>
<path d="M187.891 102.434H153.937V104.525H187.891V102.434Z" fill="#D9CBCA"/>
<path d="M187.891 110.163H153.937V117.321H187.891V110.163Z" fill="#D9CBCA"/>
<path d="M178.262 117.511H182.443V109.846H178.262V117.511ZM178.706 110.226H182.063V117.068H178.706V110.226Z" fill="#615654"/>
<path d="M170.724 117.511H174.905V109.846H170.724V117.511ZM171.104 110.226H174.462V117.068H171.104V110.226Z" fill="#615654"/>
<path d="M185.864 117.511H188.145V109.846H185.864V117.511ZM186.244 110.226H187.701V117.068H186.244V110.226Z" fill="#615654"/>
<path d="M182.063 117.511H186.244V109.846H182.063V117.511ZM182.507 110.226H185.864V117.068H182.507V110.226Z" fill="#615654"/>
<path d="M174.525 117.511H178.706V109.846H174.525V117.511ZM174.905 110.226H178.262V117.068H174.905V110.226Z" fill="#615654"/>
<path d="M153.747 117.511H156.027V109.846H153.747V117.511ZM154.127 110.226H155.584V117.068H154.127V110.226Z" fill="#615654"/>
<path d="M155.584 117.511H159.765V109.846H155.584V117.511ZM155.964 110.226H159.321V117.068H155.964V110.226Z" fill="#615654"/>
<path d="M159.385 117.511H163.566V109.846H159.385V117.511ZM159.765 110.226H163.122V117.068H159.765V110.226Z" fill="#615654"/>
<path d="M166.923 117.511H171.104V109.846H166.923V117.511ZM167.367 110.226H170.724V117.068H167.367V110.226Z" fill="#615654"/>
<path d="M163.186 117.511H167.367V109.846H163.186V117.511ZM163.566 110.226H166.923V117.068H163.566V110.226Z" fill="#615654"/>
<path d="M166.86 64.362L163.946 128.661L174.652 128.787L173.258 64.4253L166.86 64.362Z" fill="#A3A1A1"/>
<path d="M163.946 128.724L169.267 128.787L170.027 64.4253H166.86L163.946 128.724Z" fill="#757474"/>
<path d="M169.837 79.8824H166.163L166.036 83.6199H169.837L173.638 83.6833L173.575 79.9457L169.837 79.8824Z" fill="#EDECEC"/>
<path d="M169.774 88.6244L165.783 88.5611L165.53 94.0724H169.711L173.892 94.1358L173.765 88.6878L169.774 88.6244Z" fill="#EDECEC"/>
<path d="M128.534 26.733C128.281 26.6697 127.964 26.6697 127.647 26.6697C123.72 26.6697 120.552 29.8371 120.552 33.7647C120.552 34.3348 120.615 34.8416 120.742 35.3484H140.253V30.914V19.638C139.873 19.5747 139.493 19.5747 139.113 19.5747C134.362 19.5747 130.244 22.552 128.534 26.733Z" fill="#B8E3FF"/>
<path d="M159.828 29.5837C159.005 29.5837 158.244 29.8371 157.611 30.2172C157.167 27.5566 154.887 25.4661 152.1 25.4661C151.149 25.4661 150.262 25.7195 149.439 26.1629C147.729 22.552 144.244 19.9548 140.063 19.5747V30.914V35.4118H155.647C155.71 35.3484 155.837 35.2851 155.9 35.2217C155.9 35.2851 155.964 35.3484 155.964 35.4118H163.692C163.882 34.905 164.009 34.3348 164.009 33.7647C164.009 31.4842 162.172 29.5837 159.828 29.5837Z" fill="#95969C"/>
<path d="M252.253 93.1222H213.864V128.724H252.253V93.1222Z" fill="#747176"/>
<path d="M252.317 93.1855H242.751V128.787H252.317V93.1855Z" fill="#A3A1A1"/>
<path d="M253.014 92.362H213.041C212.597 92.362 212.281 92.6787 212.281 93.1222C212.281 93.5656 212.597 93.8824 213.041 93.8824H253.014C253.457 93.8824 253.774 93.5656 253.774 93.1222C253.774 92.6787 253.457 92.362 253.014 92.362Z" fill="#525151"/>
<path d="M249.656 100.027H247.249V103.575H249.656V100.027Z" fill="#EDECEC"/>
<path d="M245.222 100.027H242.814V103.575H245.222V100.027Z" fill="#EDECEC"/>
<path d="M240.851 100.027H238.443V103.575H240.851V100.027Z" fill="#EDECEC"/>
<path d="M236.48 100.027H234.072V103.575H236.48V100.027Z" fill="#EDECEC"/>
<path d="M232.109 100.027H229.701V103.575H232.109V100.027Z" fill="#EDECEC"/>
<path d="M227.738 100.027H225.33V103.575H227.738V100.027Z" fill="#EDECEC"/>
<path d="M223.367 100.027H220.959V103.575H223.367V100.027Z" fill="#EDECEC"/>
<path d="M218.932 100.027H216.525V103.575H218.932V100.027Z" fill="#EDECEC"/>
<path d="M249.656 106.869H247.249V110.416H249.656V106.869Z" fill="#EDECEC"/>
<path d="M245.222 106.869H242.814V110.416H245.222V106.869Z" fill="#EDECEC"/>
<path d="M240.851 106.869H238.443V110.416H240.851V106.869Z" fill="#EDECEC"/>
<path d="M236.48 106.869H234.072V110.416H236.48V106.869Z" fill="#EDECEC"/>
<path d="M232.109 106.869H229.701V110.416H232.109V106.869Z" fill="#EDECEC"/>
<path d="M227.738 106.869H225.33V110.416H227.738V106.869Z" fill="#EDECEC"/>
<path d="M223.367 106.869H220.959V110.416H223.367V106.869Z" fill="#EDECEC"/>
<path d="M218.932 106.869H216.525V110.416H218.932V106.869Z" fill="#EDECEC"/>
<path d="M249.656 113.71H247.249V117.258H249.656V113.71Z" fill="#EDECEC"/>
<path d="M245.222 113.71H242.814V117.258H245.222V113.71Z" fill="#EDECEC"/>
<path d="M240.851 113.71H238.443V117.258H240.851V113.71Z" fill="#EDECEC"/>
<path d="M236.48 113.71H234.072V117.258H236.48V113.71Z" fill="#EDECEC"/>
<path d="M232.109 113.71H229.701V117.258H232.109V113.71Z" fill="#EDECEC"/>
<path d="M227.738 113.71H225.33V117.258H227.738V113.71Z" fill="#EDECEC"/>
<path d="M223.367 113.71H220.959V117.258H223.367V113.71Z" fill="#EDECEC"/>
<path d="M218.932 113.71H216.525V117.258H218.932V113.71Z" fill="#EDECEC"/>
<path d="M252.253 126.127H213.864V128.407H252.253V126.127Z" fill="#525151"/>
<path d="M193.91 82.1629C193.91 82.1629 191.946 123.593 187.575 128.787H219.439C219.439 128.787 212.914 114.661 211.837 82.1629H193.91Z" fill="#85420A"/>
<path d="M203.475 82.1629V128.787H219.376C219.376 128.787 212.851 114.661 211.774 82.1629H203.475Z" fill="#9B4D0C"/>
<path d="M193.086 95.086L192.896 97.4299H212.787L212.597 95.086H193.086Z" fill="#623109"/>
<path d="M192.326 104.271L192.073 106.679H213.928L213.611 104.271H192.326Z" fill="#623109"/>
<path d="M194.1 82.1629L193.973 84.7602L211.9 84.8235L211.837 82.1629H194.1Z" fill="#623109"/>
<path d="M150.516 74.8145C145.765 69.4932 140 60.7511 140 60.7511L139.937 128.787H157.991C157.991 128.787 157.738 90.2081 157.294 87.6109C156.787 85.0136 155.267 80.1357 150.516 74.8145Z" fill="#9B4D0C"/>
<path d="M150.516 74.8145C145.765 69.4932 140 60.7511 140 60.7511L146.462 75.3213C146.715 75.9548 151.466 85.457 151.529 95.5294L151.846 128.787H157.991C157.991 128.787 157.738 90.2081 157.294 87.6109C156.787 85.0136 155.267 80.1357 150.516 74.8145Z" fill="#763C0C"/>
<path d="M157.484 88.8778H140V92.1086H157.484V88.8778Z" fill="#BFA8A6"/>
<path d="M157.674 98H139.937V98.7602H157.674V98Z" fill="#BFA8A6"/>
<path d="M157.674 99.7738H139.937V100.534H157.674V99.7738Z" fill="#BFA8A6"/>
<path d="M157.674 101.548H139.937V102.308H157.674V101.548Z" fill="#BFA8A6"/>
<path d="M157.674 103.321H139.937V104.081H157.674V103.321Z" fill="#BFA8A6"/>
<path d="M157.674 105.095H139.937V105.855H157.674V105.095Z" fill="#BFA8A6"/>
<path d="M82.2263 119.158C71.5205 119.158 62.4616 123.086 59.4843 128.471H104.968C101.991 123.086 92.9322 119.158 82.2263 119.158Z" fill="#30C46C"/>
<path d="M117.638 115.991C107.122 115.991 98.2534 121.312 95.3394 128.661H139.937C137.023 121.312 128.154 115.991 117.638 115.991Z" fill="#789C00"/>
<path d="M107.249 119.158C105.158 119.792 103.891 121.312 104.335 122.262C104.778 123.213 106.489 123.339 108.326 122.769C110.1 122.262 111.557 121.186 111.367 120.172C111.24 119.158 109.403 118.588 107.249 119.158Z" fill="#30C46C"/>
<path d="M114.724 119.538C113.584 119.538 112.76 120.109 112.823 120.679C112.887 121.249 113.71 121.629 114.787 121.629C115.801 121.629 116.688 121.249 116.751 120.679C116.814 120.109 115.801 119.538 114.724 119.538Z" fill="#30C46C"/>
<path d="M60.181 114.977C60.181 113.077 58.5973 111.493 56.6968 111.493C54.7964 111.493 53.2127 113.077 53.2127 114.977C53.2127 115.167 53.2127 115.294 53.276 115.484C52.6425 116.244 52.3258 117.195 52.3258 118.271C52.3258 120.742 54.2896 122.706 56.7602 122.706C59.2308 122.706 61.1946 120.742 61.1946 118.271C61.1946 117.195 60.8145 116.244 60.2444 115.484C60.181 115.357 60.181 115.167 60.181 114.977Z" fill="#A0E96E"/>
<path d="M56.8868 116.688L56.6968 128.154C56.6968 128.217 56.7601 128.344 56.8868 128.344C56.9502 128.344 57.0769 128.281 57.0769 128.154C57.0769 128.154 57.0135 116.688 56.8868 116.688Z" fill="#624800"/>
<path d="M55.6833 120.489C55.1131 120.109 54.6697 119.475 54.6697 119.475C55.8099 121.376 56.8869 121.312 56.8869 121.312V121.059C56.8869 120.995 56.6335 121.186 55.6833 120.489Z" fill="#624800"/>
<path d="M57.9004 119.792C57.0769 120.362 56.8868 120.235 56.8868 120.235V120.489C56.8868 120.489 57.7737 120.552 58.7873 118.968C58.7873 118.968 58.4072 119.475 57.9004 119.792Z" fill="#624800"/>
<path d="M56.0633 118.525C55.6832 118.272 55.3665 117.828 55.3665 117.828C56.19 119.095 56.8868 119.095 56.8868 119.095V118.905C56.8868 118.905 56.6968 119.032 56.0633 118.525Z" fill="#624800"/>
<path d="M133.158 92.7421C132.145 92.1086 130.878 92.1086 129.864 92.7421C126.253 94.9593 115.738 123.846 131.511 123.846C148.172 123.846 136.706 94.9593 133.158 92.7421Z" fill="#1B8747"/>
<path d="M127.33 112.19C127.077 100.851 130.434 92.362 129.864 92.7421C126.253 94.9593 115.738 123.846 131.511 123.846C131.511 123.846 127.584 123.466 127.33 112.19Z" fill="#1E8648"/>
<path d="M132.145 106.742L131.005 128.471C131.258 128.471 133.032 128.471 133.285 128.471C133.222 119.158 132.398 106.742 132.145 106.742C132.208 106.742 132.145 106.489 132.145 106.742Z" fill="#624800"/>
<path d="M128.787 117.131C127.204 115.991 125.937 114.344 125.937 114.344C129.104 119.475 132.018 119.348 132.018 119.348L132.082 118.652C132.145 118.588 131.511 119.095 128.787 117.131Z" fill="#624800"/>
<path d="M134.996 115.357C132.652 117.005 132.145 116.561 132.145 116.561L132.208 117.195C132.208 117.195 134.679 117.321 137.403 112.95C137.403 112.95 136.389 114.407 134.996 115.357Z" fill="#624800"/>
<path d="M129.864 111.81C128.787 111.05 127.901 109.91 127.901 109.91C130.054 113.394 132.082 113.33 132.082 113.33L132.145 112.824C132.145 112.824 131.765 113.14 129.864 111.81Z" fill="#624800"/>
<path d="M96.0996 103.701C95.4027 103.258 94.5159 103.258 93.819 103.701C91.3484 105.285 84 125.367 94.9593 125.367C106.552 125.367 98.5702 105.222 96.0996 103.701Z" fill="#30C46C"/>
<path d="M91.9819 117.258C91.7919 109.339 94.1358 103.448 93.7557 103.701C91.2851 105.285 83.9367 125.367 94.8959 125.367C94.9593 125.367 92.172 125.113 91.9819 117.258Z" fill="#1E7541"/>
<path d="M95.4028 113.394L94.6426 128.534C94.8326 128.534 96.0362 128.534 96.2263 128.534C96.0996 122.072 95.5295 113.394 95.4028 113.394Z" fill="#624800"/>
<path d="M93.0589 120.679C91.982 119.919 91.0951 118.715 91.0951 118.715C93.3123 122.262 95.3394 122.199 95.3394 122.199L95.4028 121.692C95.4028 121.692 94.9593 122.009 93.0589 120.679Z" fill="#624800"/>
<path d="M97.3666 119.412C95.7829 120.552 95.4028 120.299 95.4028 120.299L95.4662 120.742C95.4662 120.742 97.1766 120.805 99.077 117.828C99.077 117.765 98.3169 118.778 97.3666 119.412Z" fill="#624800"/>
<path d="M93.8191 117.005C93.0589 116.498 92.4888 115.674 92.4888 115.674C94.0091 118.145 95.4028 118.081 95.4028 118.081V117.765C95.4028 117.701 95.0861 117.891 93.8191 117.005Z" fill="#624800"/>
<path d="M122.769 100.407C122.009 99.9638 121.059 99.9638 120.299 100.407C117.575 102.118 108.896 123.973 121.566 123.973C133.475 123.91 125.493 102.054 122.769 100.407Z" fill="#52E38D"/>
<path d="M117.701 115.294C117.511 106.995 119.982 100.787 119.602 101.041C117.005 102.688 109.276 123.783 120.806 123.783C120.806 123.783 117.892 123.529 117.701 115.294Z" fill="#0E6933"/>
<path d="M121.186 112.507L120.362 128.661C120.552 128.661 121.882 128.661 122.072 128.661C122.009 121.756 121.376 112.507 121.186 112.507C121.249 112.507 121.186 112.317 121.186 112.507Z" fill="#624800"/>
<path d="M118.715 120.235C117.511 119.412 116.625 118.145 116.625 118.145C118.968 121.946 121.186 121.819 121.186 121.819L121.249 121.312C121.249 121.312 120.742 121.692 118.715 120.235Z" fill="#624800"/>
<path d="M123.339 118.905C121.629 120.109 121.249 119.792 121.249 119.792L121.312 120.235C121.312 120.235 123.149 120.299 125.177 117.068C125.113 117.131 124.353 118.208 123.339 118.905Z" fill="#624800"/>
<path d="M119.539 116.308C118.715 115.738 118.082 114.851 118.082 114.851C119.729 117.448 121.186 117.385 121.186 117.385V117.005C121.249 117.068 120.932 117.321 119.539 116.308Z" fill="#624800"/>
<path d="M78.2986 100.281C77.5385 99.8371 76.5882 99.8371 75.828 100.281C73.1041 101.991 64.4253 123.846 77.095 123.846C88.9412 123.846 80.9593 101.991 78.2986 100.281Z" fill="#30C46C"/>
<path d="M73.2307 115.231C73.0407 106.932 75.5113 100.724 75.1312 100.977C72.5339 102.624 64.8054 123.719 76.3348 123.719C76.2715 123.719 73.4208 123.466 73.2307 115.231Z" fill="#1E7541"/>
<path d="M76.7149 112.443L75.8914 128.597C76.0814 128.597 77.4117 128.597 77.6018 128.597C77.5384 121.629 76.9049 112.443 76.7149 112.443C76.7782 112.443 76.7149 112.253 76.7149 112.443Z" fill="#624800"/>
<path d="M74.2443 120.172C73.0407 119.348 72.1538 118.081 72.1538 118.081C74.4977 121.882 76.7149 121.756 76.7149 121.756L76.7782 121.249C76.7149 121.249 76.2715 121.566 74.2443 120.172Z" fill="#624800"/>
<path d="M78.8687 118.842C77.1583 120.045 76.7782 119.729 76.7782 119.729L76.8416 120.172C76.8416 120.172 78.6787 120.235 80.7058 117.005C80.6425 117.068 79.8823 118.081 78.8687 118.842Z" fill="#624800"/>
<path d="M75.0045 116.244C74.181 115.674 73.5475 114.787 73.5475 114.787C75.1945 117.385 76.6516 117.321 76.6516 117.321V116.941C76.7149 116.941 76.3982 117.195 75.0045 116.244Z" fill="#624800"/>
<path d="M87.4209 95.9095C86.534 95.3394 85.3937 95.3394 84.5069 95.9095C81.3394 97.9367 71.1404 123.593 85.9639 123.593C99.9639 123.593 90.5883 97.9367 87.4209 95.9095Z" fill="#52E38D"/>
<path d="M81.7195 113.647C81.5295 103.765 84.4435 96.4163 83.9367 96.733C80.8327 98.6968 71.7105 123.719 85.3304 123.719C85.3304 123.719 81.9096 123.403 81.7195 113.647Z" fill="#0E6933"/>
<path d="M85.7105 110.606L84.7603 128.534C84.9503 128.534 86.4073 128.534 86.6607 128.534C86.5974 120.869 85.9005 110.606 85.7105 110.606C85.7738 110.606 85.7105 110.416 85.7105 110.606Z" fill="#624800"/>
<path d="M82.9865 119.222C81.6562 118.272 80.6426 116.878 80.6426 116.878C83.3032 121.122 85.7105 120.995 85.7105 120.995L85.7738 120.425C85.7738 120.425 85.267 120.805 82.9865 119.222Z" fill="#624800"/>
<path d="M88.1177 117.701C86.2173 119.032 85.7738 118.715 85.7738 118.715L85.8372 119.222C85.8372 119.222 87.8643 119.348 90.1449 115.738C90.0815 115.738 89.258 116.941 88.1177 117.701Z" fill="#624800"/>
<path d="M83.8734 114.851C82.9865 114.217 82.2897 113.267 82.2897 113.267C84.0634 116.181 85.7738 116.054 85.7738 116.054L85.8372 115.674C85.7738 115.674 85.3937 115.928 83.8734 114.851Z" fill="#624800"/>
<path d="M72.6606 108.896C72.6606 106.045 70.3167 103.701 67.466 103.701C64.6154 103.701 62.2715 106.045 62.2715 108.896C62.2715 109.149 62.2715 109.403 62.3348 109.656C61.4479 110.796 60.8778 112.19 60.8778 113.774C60.8778 117.385 63.8552 120.362 67.466 120.362C71.0769 120.362 74.0543 117.385 74.0543 113.774C74.0543 112.19 73.4841 110.796 72.5973 109.656C72.6606 109.403 72.6606 109.149 72.6606 108.896Z" fill="#7EDA3E"/>
<path d="M67.7195 108.896L67.4661 128.281C67.4661 128.407 67.5928 128.534 67.7195 128.534H67.7828C67.9095 128.534 68.0362 128.407 68.0362 128.281C68.0362 128.281 67.9095 108.896 67.7195 108.896C67.7828 108.896 67.7195 108.706 67.7195 108.896Z" fill="#624800"/>
<path d="M65.6923 115.294C64.7421 114.597 63.9819 113.584 63.9819 113.584C65.8824 116.751 67.6561 116.624 67.6561 116.624L67.7195 116.181C67.7828 116.181 67.4027 116.498 65.6923 115.294Z" fill="#624800"/>
<path d="M69.4932 114.217C68.0996 115.231 67.7828 114.977 67.7828 114.977L67.8462 115.357C67.8462 115.357 69.3665 115.421 71.0136 112.76C70.9503 112.697 70.3168 113.584 69.4932 114.217Z" fill="#624800"/>
<path d="M66.3892 112.063C65.7557 111.62 65.1855 110.86 65.1855 110.86C66.5159 113.014 67.7195 112.95 67.7195 112.95V112.633C67.7828 112.633 67.4661 112.824 66.3892 112.063Z" fill="#624800"/>
<path d="M45.2308 114.217C45.2308 112.19 43.5837 110.48 41.4932 110.48C39.4661 110.48 37.7556 112.127 37.7556 114.217C37.7556 114.407 37.7556 114.597 37.819 114.724C37.1855 115.548 36.8054 116.561 36.8054 117.701C36.8054 120.299 38.8959 122.389 41.4932 122.389C44.0905 122.389 46.181 120.299 46.181 117.701C46.181 116.561 45.8009 115.548 45.1674 114.724C45.1674 114.534 45.2308 114.407 45.2308 114.217Z" fill="#7EDA3E"/>
<path d="M41.6832 114.217L41.4932 128.154C41.4932 128.281 41.5565 128.344 41.6832 128.344C41.8099 128.344 41.8733 128.281 41.8733 128.154C41.9366 128.091 41.8099 114.217 41.6832 114.217Z" fill="#624800"/>
<path d="M40.2262 118.842C39.5294 118.335 39.0226 117.575 39.0226 117.575C40.4162 119.855 41.6832 119.792 41.6832 119.792V119.475C41.6832 119.475 41.4298 119.665 40.2262 118.842Z" fill="#624800"/>
<path d="M42.9502 118.018C41.9366 118.715 41.6832 118.588 41.6832 118.588V118.842C41.6832 118.842 42.7601 118.905 43.9638 116.941C43.9638 116.941 43.5203 117.575 42.9502 118.018Z" fill="#624800"/>
<path d="M40.6696 116.434C40.2262 116.118 39.8461 115.611 39.8461 115.611C40.7963 117.195 41.6832 117.131 41.6832 117.131V116.941C41.6832 116.878 41.4931 117.068 40.6696 116.434Z" fill="#624800"/>
<path d="M36.4254 125.557C36.0453 125.557 35.7285 125.683 35.4751 125.873C35.4751 125.81 35.4751 125.747 35.4751 125.683C35.4751 124.163 34.2715 122.959 32.7511 122.959C31.9276 122.959 31.1041 123.339 30.5973 123.973C30.4073 123.91 30.2172 123.91 30.0272 123.91C29.7738 123.91 29.457 123.973 29.2036 124.1C28.9502 122.262 27.3665 120.869 25.4027 120.869C23.3122 120.869 21.6018 122.579 21.6018 124.67V124.733C21.4751 124.67 21.2851 124.67 21.1584 124.67C20.0815 124.67 19.2579 125.557 19.2579 126.57C19.2579 127.647 20.1448 128.471 21.1584 128.471V128.534H36.5521V128.471C37.2489 128.344 37.819 127.774 37.819 127.077C37.819 126.19 37.1855 125.557 36.4254 125.557Z" fill="#30C46C"/>
<path d="M25.086 120.869C23.1855 120.869 21.6018 122.453 21.6018 124.353C21.6018 126.253 23.1855 127.837 25.086 127.837C25.086 127.837 23.0588 127.204 22.9321 124.353C22.7421 121.756 25.086 120.869 25.086 120.869Z" fill="#238249"/>
<path d="M30.0905 123.846C29.077 123.846 28.2534 124.67 28.3168 125.683C28.3168 125.683 28.6335 124.606 30.1539 124.543C31.4842 124.48 31.991 125.62 31.991 125.62C31.9276 124.67 31.1041 123.846 30.0905 123.846Z" fill="#238249"/>
<path d="M81.9095 91.8552C81.5294 92.1719 81.2127 92.4887 81.086 92.8054C80.7693 92.6154 80.3892 92.4253 79.8824 92.362C78.8688 92.2353 78.0453 92.552 77.9819 93.2489C77.9819 93.2489 78.2987 92.6787 79.819 92.8688C80.3258 92.9321 80.7059 93.0588 80.9593 93.2489V94.0724L81.3394 94.009L81.7828 93.8824L81.4027 93.1855C81.5928 92.9321 81.8462 92.6154 82.2263 92.2986C83.3032 91.4118 84.0634 91.7919 84.0634 91.7919C83.6199 91.1584 82.7331 91.2217 81.9095 91.8552Z" fill="#84888A"/>
<path d="M45.6742 74.6244C45.3575 74.8778 45.1041 75.1946 44.9774 75.5113C44.724 75.3213 44.3439 75.1312 43.9638 75.0679C43.077 74.8778 42.4435 75.1946 42.3801 75.8281C42.3801 75.8281 42.6335 75.2579 43.9638 75.5113C44.4073 75.5747 44.724 75.7014 44.9141 75.8914V76.6516L45.2308 76.5882L45.6109 76.5249L45.2308 75.8281C45.3575 75.5747 45.5475 75.3213 45.9276 75.0045C46.8779 74.181 47.448 74.5611 47.448 74.5611C47.0679 73.9909 46.3711 73.991 45.6742 74.6244Z" fill="#84888A"/>
<path d="M44.534 83.5566C44.344 83.6833 44.2173 83.8733 44.0906 84.0634C43.9639 83.9367 43.7105 83.8733 43.5204 83.8733C43.0136 83.81 42.5702 84 42.5702 84.3168C42.5702 84.3168 42.6969 84 43.5204 84.1267C43.7738 84.1267 43.9639 84.1901 44.0906 84.3168V84.6968L44.2806 84.6335L44.534 84.5701L44.3439 84.2534C44.4073 84.1267 44.534 84 44.7874 83.81C45.3575 83.3665 45.7376 83.5566 45.7376 83.5566C45.3575 83.2398 44.9141 83.2398 44.534 83.5566Z" fill="#84888A"/>
<path d="M27.6833 79.4389C27.4299 79.629 27.2399 79.8824 27.1132 80.0724C26.9232 79.9457 26.6064 79.819 26.2897 79.7557C25.5928 79.629 25.0227 79.8824 24.9594 80.3258C24.9594 80.3258 25.1494 79.9457 26.2263 80.0724C26.5431 80.1358 26.7965 80.1991 26.9865 80.3258V80.8959L27.2399 80.8326L27.5566 80.7692L27.3032 80.3258C27.4299 80.1358 27.62 79.9457 27.8734 79.7557C28.6336 79.1855 29.1403 79.3756 29.1403 79.3756C28.8236 78.9955 28.2535 78.9955 27.6833 79.4389Z" fill="#84888A"/>
<path d="M82.6064 87.1041C82.4797 87.2308 82.353 87.3575 82.2897 87.4842C82.163 87.4208 82.0363 87.3575 81.8462 87.2941C81.4662 87.2308 81.1494 87.3575 81.1494 87.6109C81.1494 87.6109 81.2761 87.4208 81.8462 87.4842C82.0363 87.4842 82.163 87.5475 82.2897 87.6109V87.9276L82.4164 87.8643L82.6064 87.8009L82.4797 87.5475C82.5431 87.4842 82.6064 87.3575 82.7965 87.2308C83.1766 86.914 83.4933 87.0407 83.4933 87.0407C83.2399 86.8507 82.9232 86.8507 82.6064 87.1041Z" fill="#84888A"/>
<path d="M135.629 126.887C135.376 126.887 135.186 126.95 135.059 127.077C135.059 127.014 135.059 127.014 135.059 126.95C135.059 126 134.299 125.176 133.285 125.176C132.715 125.176 132.271 125.43 131.891 125.81C131.765 125.747 131.638 125.747 131.511 125.747C131.321 125.747 131.131 125.81 131.005 125.873C130.814 124.67 129.801 123.783 128.597 123.783C127.267 123.783 126.127 124.86 126.127 126.253C126.127 126.253 126.127 126.253 126.127 126.317C126.063 126.317 125.937 126.253 125.81 126.253C125.113 126.253 124.606 126.824 124.606 127.457C124.606 128.091 125.176 128.661 125.81 128.661V128.724H135.692V128.661C136.136 128.597 136.516 128.217 136.516 127.774C136.579 127.267 136.199 126.887 135.629 126.887Z" fill="#30C46C"/>
<path d="M128.407 123.91C127.14 123.91 126.19 124.923 126.19 126.127C126.19 127.394 127.204 128.344 128.407 128.344C128.407 128.344 127.14 127.964 127.014 126.127C126.887 124.48 128.407 123.91 128.407 123.91Z" fill="#238249"/>
<path d="M131.575 125.81C130.941 125.81 130.434 126.38 130.434 127.014C130.434 127.014 130.624 126.317 131.575 126.253C132.462 126.19 132.778 126.95 132.778 126.95C132.778 126.317 132.272 125.81 131.575 125.81Z" fill="#238249"/>
<path d="M61.3847 125.873C61.258 125.873 61.1946 125.873 61.0679 125.937C61.0679 125.937 61.0679 125.937 61.0679 125.873C61.0679 124.48 59.9277 123.339 58.534 123.339C57.267 123.339 56.1901 124.29 56.0634 125.493C55.8734 125.43 55.7467 125.367 55.5566 125.367C55.4299 125.367 55.3032 125.367 55.1765 125.43C54.8598 125.05 54.353 124.796 53.7829 124.796C52.7693 124.796 51.9458 125.62 51.9458 126.633C51.9458 126.697 51.9458 126.697 51.9458 126.76C51.7557 126.633 51.5657 126.507 51.3123 126.507C50.8055 126.507 50.3621 126.95 50.3621 127.457C50.3621 127.964 50.7422 128.344 51.1856 128.407V128.471H61.3847V128.407C62.0815 128.407 62.6517 127.837 62.6517 127.14C62.6517 126.443 62.0815 125.873 61.3847 125.873Z" fill="#789C00"/>
<path d="M58.7874 123.466C58.7874 123.466 60.3077 124.036 60.2444 125.81C60.1177 127.71 58.7874 128.154 58.7874 128.154C60.0543 128.154 61.1312 127.14 61.1312 125.81C61.1312 124.48 60.0543 123.466 58.7874 123.466Z" fill="#00744C"/>
<path d="M55.4933 125.43C54.7965 125.43 54.2897 125.937 54.2897 126.633C54.2897 126.633 54.6064 125.873 55.4933 125.937C56.5069 126 56.6969 126.697 56.6969 126.697C56.6969 126 56.1268 125.43 55.4933 125.43Z" fill="#00744C"/>
<path d="M52.4526 110.226C52.4526 107.566 50.2987 105.475 47.7014 105.475C45.0408 105.475 42.9503 107.629 42.9503 110.226C42.9503 110.48 42.9503 110.67 43.0137 110.923C42.1901 111.937 41.6833 113.267 41.6833 114.724C41.6833 118.081 44.4073 120.805 47.7648 120.805C51.1223 120.805 53.8462 118.081 53.8462 114.724C53.8462 113.267 53.3395 112 52.5159 110.923C52.4526 110.67 52.4526 110.48 52.4526 110.226Z" fill="#52E38D"/>
<path d="M47.8916 110.226L47.6382 128.091C47.6382 128.217 47.7649 128.344 47.8916 128.344H47.9549C48.0816 128.344 48.2083 128.217 48.2083 128.091C48.2083 128.027 48.0816 110.226 47.8916 110.226C47.9549 110.226 47.8916 110.036 47.8916 110.226Z" fill="#624800"/>
<path d="M46.0544 116.118C45.1675 115.484 44.4707 114.534 44.4707 114.534C46.2445 117.448 47.8915 117.385 47.8915 117.385L47.9549 117.005C47.9549 116.941 47.5748 117.195 46.0544 116.118Z" fill="#624800"/>
<path d="M49.5385 115.104C48.2716 116.054 47.9548 115.801 47.9548 115.801V116.118C47.9548 116.118 49.3485 116.181 50.8689 113.71C50.8689 113.774 50.2987 114.534 49.5385 115.104Z" fill="#624800"/>
<path d="M46.6245 113.14C45.991 112.697 45.5476 112.063 45.5476 112.063C46.7512 114.09 47.8915 114.027 47.8915 114.027V113.774C47.9548 113.647 47.7015 113.837 46.6245 113.14Z" fill="#624800"/>
<path d="M198.281 57.5837C196.317 57.5837 194.733 59.1674 194.733 61.1312C194.733 63.095 196.317 64.6787 198.281 64.6787C200.244 64.6787 201.828 63.095 201.828 61.1312C201.828 59.1674 200.244 57.5837 198.281 57.5837Z" fill="#AAABB0"/>
<path d="M167.747 57.267C166.48 57.267 165.466 58.2805 165.466 59.5475C165.466 60.8145 166.48 61.8281 167.747 61.8281C169.014 61.8281 170.027 60.8145 170.027 59.5475C170.027 58.2805 169.014 57.267 167.747 57.267Z" fill="#AAABB0"/>
<path d="M173.005 48.6516C170.597 48.6516 168.634 50.6154 168.634 53.0226C168.634 55.4299 170.597 57.3937 173.005 57.3937C175.412 57.3937 177.376 55.4299 177.376 53.0226C177.376 50.6154 175.412 48.6516 173.005 48.6516Z" fill="#C8C7C7"/>
<path d="M192.896 65.1855C192.072 65.1855 191.376 65.8824 191.376 66.7059C191.376 67.5294 192.072 68.2262 192.896 68.2262C193.719 68.2262 194.416 67.5294 194.416 66.7059C194.416 65.819 193.719 65.1855 192.896 65.1855Z" fill="#AAABB0"/>
<path d="M245.285 52.1358H244.968C244.905 49.5385 242.751 47.448 240.154 47.5113C239.837 47.5113 239.457 47.5747 239.14 47.638C238.38 45.4842 236.29 43.9005 233.819 43.9638C231.095 44.0272 228.878 45.991 228.498 48.5882C228.308 48.5882 228.118 48.5249 227.928 48.5882C225.584 48.6516 223.747 50.552 223.747 52.8326C221.086 53.6561 218.996 55.81 218.299 58.5973L251.81 57.9638C250.986 54.6063 248.959 52.0724 245.285 52.1358Z" fill="#95969C"/>
<path d="M245.348 52.1991H245.032C245.032 49.6018 242.878 47.5113 240.281 47.5747C239.964 47.5747 239.584 47.638 239.267 47.7014C238.507 45.4842 236.416 43.9638 234.009 43.9638C231.285 44.0272 229.068 45.991 228.624 48.5882C228.434 48.5882 228.244 48.5249 228.054 48.5249C225.71 48.5249 223.873 50.4253 223.81 52.7692C221.086 53.5294 218.996 55.7466 218.362 58.4706L252.19 58.0905C251.24 54.6697 249.023 52.1358 245.348 52.1991Z" fill="#95969C"/>
<path d="M228.118 48.4615C228.118 48.4615 231.032 49.4118 230.905 52.1358C230.715 55.1765 228.118 55.81 228.118 55.81C230.145 55.81 231.792 54.1629 231.792 52.1358C231.792 50.1086 230.145 48.4615 228.118 48.4615Z" fill="#A3A1A1"/>
<path d="M246.299 52.1358C243.321 52.0724 240.851 54.4797 240.787 57.5204C240.787 57.5204 242.244 52.9593 246.299 53.2127C250.733 53.5294 251.683 57.6471 251.683 57.6471C251.747 54.6697 249.339 52.1991 246.299 52.1358Z" fill="#A3A1A1"/>
<path d="M58.2173 28.19C56.6969 28.19 55.4933 29.3937 55.4933 30.914C55.4933 32.4344 56.6969 33.638 58.2173 33.638C59.7376 33.638 60.9412 32.4344 60.9412 30.914C60.9412 29.3937 59.7376 28.19 58.2173 28.19Z" fill="#DCEEF7"/>
<path d="M43.5204 35.6018C42.9503 35.6018 42.5068 36.0452 42.5068 36.6154C42.5068 37.1855 42.9503 37.629 43.5204 37.629C44.0905 37.629 44.534 37.1855 44.534 36.6154C44.4706 36.0452 44.0272 35.6018 43.5204 35.6018Z" fill="white"/>
<path d="M95.9095 65.8824C95.2127 65.8824 94.6426 66.4525 94.6426 67.1493C94.6426 67.8462 95.2127 68.4163 95.9095 68.4163C96.6064 68.4163 97.1765 67.8462 97.1765 67.1493C97.1765 66.4525 96.6064 65.8824 95.9095 65.8824Z" fill="white"/>
<path d="M81.843 84.884C84.3663 82.3607 84.3663 78.2695 81.843 75.7461C79.3196 73.2228 75.2284 73.2228 72.7051 75.7461C70.1817 78.2695 70.1817 82.3607 72.7051 84.884C75.2284 87.4074 79.3196 87.4074 81.843 84.884Z" fill="#FFB648"/>
<path d="M77.4752 73.8643C73.8644 73.8643 71.0137 76.7783 71.0137 80.3258C71.0137 83.9367 73.9277 86.7873 77.4752 86.7873C77.4752 86.7873 73.9277 83.5566 73.9277 80.3258C73.991 77.095 77.4752 73.8643 77.4752 73.8643Z" fill="#FF9900"/>
<path d="M185.041 38.3258H177.566C175.285 38.3258 173.448 40.1629 173.448 42.4434C173.448 44.724 175.285 46.5611 177.566 46.5611H185.041C187.321 46.5611 189.158 44.724 189.158 42.4434C189.222 40.1629 187.321 38.3258 185.041 38.3258Z" fill="#AAABB0"/>
<path d="M179.719 0C176.742 0 175.222 0 172.244 0C169.964 0 168.127 1.8371 168.127 4.11765C168.127 6.39819 169.964 8.23529 172.244 8.23529C175.222 8.23529 176.742 8.23529 179.719 8.23529C182 8.23529 183.837 6.39819 183.837 4.11765C183.837 1.8371 182 0 179.719 0Z" fill="#C8C7C7"/>
<path d="M144.054 48.905H140.443V57.2036H144.054C146.335 57.2036 148.172 55.3665 148.172 53.086C148.172 50.8054 146.335 48.905 144.054 48.905Z" fill="#AAABB0"/>
<path d="M204.299 24.3258H192.326C188.652 24.3258 185.674 27.3032 185.674 30.9774C185.674 34.6516 188.652 37.629 192.326 37.629H204.299C207.973 37.629 210.95 34.6516 210.95 30.9774C210.95 27.3032 207.91 24.3258 204.299 24.3258Z" fill="#C8C7C7"/>
<path d="M221.466 33.0045C214.371 33.0045 207.339 33.0045 200.244 33.0045C197.9 33.0045 196 34.905 196 37.2489C196 39.5928 197.9 41.4932 200.244 41.4932C207.339 41.4932 214.371 41.4932 221.466 41.4932C223.81 41.4932 225.71 39.5928 225.71 37.2489C225.71 34.905 223.81 33.0045 221.466 33.0045Z" fill="#C8C7C7"/>
<path d="M108.769 175.412C105.285 175.412 101.864 175.412 98.3802 175.412C97.2399 175.412 96.2897 176.362 96.2897 177.502C96.2897 178.643 97.2399 179.593 98.3802 179.593C101.864 179.593 105.285 179.593 108.769 179.593C109.91 179.593 110.86 178.643 110.86 177.502C110.796 176.362 109.846 175.412 108.769 175.412Z" fill="#A1D1E0"/>
<path d="M101.041 163.629C90.3982 163.629 79.6923 163.629 69.0498 163.629C65.5656 163.629 63.9186 165.023 63.9186 166.67C63.9186 168.317 65.5023 169.71 69.0498 169.71C79.6923 169.71 90.3982 169.71 101.041 169.71C104.525 169.71 106.172 168.317 106.172 166.67C106.172 165.023 104.588 163.629 101.041 163.629Z" fill="#A1D1E0"/>
<path d="M205.629 156.471C201.511 156.471 197.457 156.471 193.339 156.471C192.009 156.471 190.869 157.548 190.869 158.941C190.869 160.271 191.946 161.412 193.339 161.412C197.457 161.412 201.511 161.412 205.629 161.412C206.959 161.412 208.1 160.335 208.1 158.941C208.036 157.548 206.959 156.471 205.629 156.471Z" fill="#AAABB0"/>
<path d="M197.964 159.511C191.249 159.511 184.597 159.511 177.882 159.511C175.665 159.511 173.891 161.285 173.891 163.502C173.891 165.719 175.665 167.493 177.882 167.493C184.597 167.493 191.249 167.493 197.964 167.493C200.181 167.493 201.955 165.719 201.955 163.502C201.955 161.285 200.181 159.511 197.964 159.511Z" fill="#AAABB0"/>
<path d="M85.9005 156.344C85.7104 156.344 85.5837 156.344 85.457 156.344C84.0634 156.344 82.6063 155.584 81.5294 154.317L81.4661 154.19L81.3394 154.317C80.6425 155.077 79.2489 156.407 77.4751 156.407C76.0815 156.407 74.6244 155.647 73.6109 154.317L73.5475 154.19L73.4208 154.317C72.4073 155.457 71.3937 156.091 70.2534 156.344H70.1901L70.2534 156.597H70.3168C71.457 156.407 72.534 155.71 73.5475 154.634C74.6244 155.9 76.0815 156.661 77.4751 156.661C79.3122 156.661 80.7059 155.394 81.4661 154.634C82.543 155.9 84 156.661 85.457 156.661C85.5837 156.661 85.7738 156.661 85.9638 156.597H86.0905L86.0272 156.344H85.9005Z" fill="#0065C4"/>
<path d="M85.9638 157.357C85.7738 157.357 85.6471 157.421 85.5204 157.421C84.1267 157.421 82.6697 156.661 81.5928 155.394L81.5294 155.267L81.4027 155.394C80.7059 156.154 79.3122 157.484 77.5385 157.484C76.1448 157.484 74.6878 156.724 73.6742 155.394L73.6109 155.267L73.4842 155.394C72.4706 156.534 71.457 157.167 70.3168 157.421H70.2534L70.3168 157.674H70.3801C71.5204 157.484 72.5973 156.787 73.6109 155.71C74.6878 156.977 76.1448 157.738 77.5385 157.738C79.3756 157.738 80.7693 156.471 81.5294 155.71C82.6064 156.977 84.0634 157.738 85.5204 157.738C85.7104 157.738 85.8371 157.738 86.0272 157.674H86.0905V157.421L85.9638 157.357Z" fill="#0065C4"/>
<path d="M85.5204 158.498C84.1267 158.498 82.6697 157.738 81.5928 156.471L81.5294 156.344L81.4027 156.471C80.7059 157.231 79.3122 158.561 77.5385 158.561C76.1448 158.561 74.6878 157.801 73.6742 156.471L73.6109 156.344L73.4842 156.471C72.4706 157.611 71.457 158.244 70.3168 158.498H70.2534L70.3168 158.751H70.3801C71.5204 158.561 72.5973 157.864 73.6109 156.787C74.6878 158.054 76.1448 158.814 77.5385 158.814C79.3756 158.814 80.7693 157.548 81.5294 156.787C82.6064 158.054 84.0634 158.814 85.5204 158.814C85.7104 158.814 85.8371 158.814 86.0272 158.751H86.0905V158.498H85.9638C85.7738 158.434 85.6471 158.434 85.5204 158.498Z" fill="#0065C4"/>
<path d="M264.163 128.217C181.747 128.217 99.3303 128.217 16.914 128.217C8.67872 128.217 9.37555 136.326 16.914 136.326C99.3303 136.326 181.747 136.326 264.163 136.326C271.004 136.326 270.308 128.217 264.163 128.217Z" fill="#52E38D"/>
<path d="M246.552 144.434C246.299 144.371 246.045 144.371 245.855 144.371H35.982C29.3938 144.434 28.9503 151.213 35.982 151.213C106.045 151.213 176.172 151.213 246.235 151.213C250.1 151.213 249.973 145.005 246.552 144.434Z" fill="#2D2F43"/>
<path d="M276.516 136.389C276.262 136.326 275.946 136.326 275.692 136.326H6.08149C-1.96376 136.326 -2.15381 144.434 6.08149 144.434C96.0996 144.434 186.054 144.434 276.072 144.434C281.077 144.434 281.33 137.149 276.516 136.389Z" fill="#1E7541"/>
<path d="M264.163 128.217C222.796 128.217 181.43 128.217 140 128.217V136.326C181.367 136.326 222.733 136.326 264.163 136.326C271.005 136.326 270.308 128.217 264.163 128.217Z" fill="#BF6010"/>
<path d="M246.615 144.434C211.077 144.434 175.538 144.434 140 144.434V151.213C175.412 151.213 210.824 151.213 246.235 151.213C250.1 151.213 249.973 145.005 246.615 144.434Z" fill="#2D2F43"/>
<path d="M276.516 136.389C276.262 136.326 275.946 136.326 275.692 136.326H264.163C222.796 136.326 181.43 136.326 140 136.326V144.371H245.855C246.109 144.371 246.362 144.371 246.552 144.434C246.552 144.434 246.552 144.434 246.615 144.434C256.434 144.434 266.253 144.434 276.072 144.434C281.077 144.434 281.33 137.149 276.516 136.389Z" fill="#763C0C"/>
<path d="M245.855 144.371H140V144.434C175.538 144.434 211.077 144.434 246.615 144.434C246.615 144.434 246.615 144.434 246.552 144.434C246.299 144.434 246.109 144.371 245.855 144.371Z" fill="#763C0C"/>
<path d="M185.611 72.3439L183.077 128.661L192.452 128.787L191.249 72.4073L185.611 72.3439Z" fill="#A3A1A1"/>
<path d="M183.077 128.661L187.765 128.724L188.462 72.3439H185.611L183.077 128.661Z" fill="#757474"/>
<path d="M188.272 85.9638L185.041 85.9005L184.914 89.1946L188.208 89.2579H191.566L191.502 86.0272L188.272 85.9638Z" fill="#EDECEC"/>
<path d="M188.208 93.629L184.724 93.5656L184.471 98.3801H188.145L191.756 98.4434L191.692 93.629H188.208Z" fill="#EDECEC"/>
</g>
<defs>
<clipPath id="clip0_0_7398">
<rect width="280" height="236.163" fill="white"/>
</clipPath>
</defs>
</svg>
