<svg width="10" height="18" viewBox="0 0 10 18" fill="none" xmlns="http://www.w3.org/2000/svg">
<path d="M0.499952 9C0.499851 8.9015 0.519213 8.80395 0.556925 8.71295C0.594636 8.62196 0.649954 8.53931 0.719703 8.46975L8.2197 0.969753C8.51277 0.676691 8.98733 0.676691 9.2802 0.969753C9.57308 1.26282 9.57327 1.73738 9.2802 2.03025L2.31045 9L9.2802 15.9698C9.57327 16.2628 9.57327 16.7374 9.2802 17.0303C8.98714 17.3231 8.51258 17.3233 8.2197 17.0303L0.719703 9.53025C0.649954 9.4607 0.594636 9.37805 0.556925 9.28705C0.519213 9.19606 0.499851 9.0985 0.499952 9Z" fill="#2D2F43"/>
</svg>
