<svg width="652" height="194" viewBox="0 0 652 194" fill="none" xmlns="http://www.w3.org/2000/svg">
<g clip-path="url(#clip0_0_7721)">
<path d="M208.9 111.4C213.8 111 218.8 109.7 218.8 105.5V70.3C218.8 65 215.1 62.8 210.6 62.5V59.5C217.1 59.8 225.6 59.8 232.6 59.5L246.4 92.5L258.1 59.5C265.4 59.8 271.8 59.8 279 59.5V62.5C274.4 62.8 272.7 65 272.7 70.3V105.5C272.7 109.5 274.4 111.2 278.9 111.4V114.4C270.2 114.1 260.8 114.1 251.6 114.4V111.4C256.5 111.1 258.2 109.5 258.2 105.5V70.6L242.7 114.4H241.6L222.6 70.6V105.5C222.6 109.7 227.7 111.1 233.3 111.4V114.4C225.1 114.1 216.5 114.1 208.8 114.4V111.4H208.9Z" fill="#0A3F7F"/>
<path d="M311.8 70.0999H330.5V73.0999C325.2 73.2999 324.3 74.5999 321.8 81.0999L301.7 132H296.6L304.1 116L288.7 80.6999C286 74.2999 285.2 73.2999 280.7 73.0999V70.0999H307.9V73.0999C302.7 73.2999 298.8 74.2999 301.5 80.9999L310.1 101.5L318.3 80.9999C320.9 74.5999 318.4 73.2999 311.8 73.0999V70.0999Z" fill="#0A3F7F"/>
<path d="M351.7 86.2999C351.7 68.9999 362.5 58.0999 377.7 58.0999C384.8 58.0999 387.9 60.3999 393.1 60.3999C394.1 60.3999 395.9 60.2999 397.6 59.5999C397.6 64.7999 398.4 69.9999 400.3 75.8999H396.8C393.2 67.5999 387.7 62.0999 380.6 62.0999C372.1 62.0999 366.7 70.2999 366.7 84.2999C366.7 98.5999 372.3 111.6 383.4 111.6C388.4 111.6 394.3 108.9 397.6 99.3999H401.9C399.7 107.5 393.7 115.8 379.6 115.8C362.7 115.8 351.7 103.7 351.7 86.2999Z" fill="#0A3F7F"/>
<path d="M445.2 104.4C445.2 107.8 446.4 110.8 450.3 110.3V113.2C448.4 114.4 445.9 115.3 442.8 115.3C437.7 115.3 433 113.4 433 107.3V107H432.1C431.7 108.9 427.1 115.2 418 115.2C412.3 115.2 405.9 112.5 405.9 104.3C405.9 96.3 412.2 91.6 431.3 88.3V83.7C431.3 74.2 429.2 72 425.8 72C417 72 424.9 86.2 414.7 86.2C410.4 86.2 408.6 83.5 408.6 80.5C408.6 74.1 417 69 429.5 69C437.1 69 445.1 70.7 445.1 82.2V104.4H445.2ZM431.3 101.2V91.4C421.2 93 419.2 98.7 419.2 102.6C419.2 106.6 421.1 109.8 424.3 109.8C428.6 109.8 431.3 105.6 431.3 101.2Z" fill="#0A3F7F"/>
<path d="M453.3 111.4C456.6 111 459 110 459 106V82.9C459 79 456.9 77.4 453.6 78.1V75.1C459.7 73.8 464.5 72.3 470 69.2C471.1 69.7 472 70.6 472.6 71.8L470.8 82H471.5C474.2 74.4 477.4 69.5 484.1 69.5C488.9 69.5 492.3 72.1 492.3 76.7C492.3 80.7 489.6 83.1 486.5 83.1C481.9 83.1 481 77.9 477.8 77.9C474.4 77.9 472.8 83.7 472.8 90.2V106C472.8 110 475.3 111 479.2 111.4V114.4C470.5 114.1 461.9 114.1 453.3 114.4V111.4Z" fill="#0A3F7F"/>
<path d="M545.3 92.9C545.3 109.6 534.2 115.3 526.2 115.3C518.2 115.3 515.7 109.7 510.4 109.7C507.2 109.7 505.1 111.6 504.8 114.3H503.7C501.5 114.3 500.3 113.1 500.3 110.9V68C500.3 61.6 498.4 61.0999 494.9 61.0999V58.0999C500.6 57.6999 507 55.2 512.1 52.2C513.2 52.7 514.2 53.5999 514.7 54.7999C514.2 58.9999 514.2 62.4 514.2 68V73.8C516.1 71.9 520.6 69.3 526 69.3C535.2 69.4 545.3 77 545.3 92.9ZM530.5 94.8C530.5 82.4 526.9 73.5 520.8 73.5C517.7 73.5 515 75.9 514.3 79.4V99.6999C514.3 107.1 519.5 111.4 523.4 111.4C528.6 111.5 530.5 104.3 530.5 94.8Z" fill="#0A3F7F"/>
<path d="M551.1 91.9999C551.1 76.1999 562.3 69.3999 572.5 69.3999C583 69.3999 594.6 76.6999 594.6 92.7999C594.6 108.6 583.4 115.4 573.2 115.4C562.7 115.4 551.1 108 551.1 91.9999ZM580.1 95.7999C580.1 83.0999 576.9 73.1999 571.7 73.1999C567.6 73.1999 565.6 79.2999 565.6 88.9999C565.6 101.7 568.7 111.6 574 111.6C578 111.6 580.1 105.5 580.1 95.7999Z" fill="#0A3F7F"/>
<path d="M598.4 111.4C601.7 111 604.1 110 604.1 106V82.9C604.1 79 602 77.4 598.7 78.1V75.1C604.8 73.8 609.6 72.4 615.1 69.2C616.2 69.7 617.2 70.6 617.7 71.8L616.3 79.3H616.8C618.5 75.5 622.7 69.4 632 69.4C638.4 69.4 646 72.3 646 84.9V106C646 110 648.4 111 651.7 111.4V114.4C643.2 114.1 634.9 114.1 626.3 114.4V111.4C629.7 111.5 632 110 632 106V85C632 78.4 628.6 76 624.9 76C620 76 617.7 80.2 617.7 85V106C617.7 110 620.1 111.5 623.4 111.4V114.4C614.9 114.1 606.6 114.1 598.1 114.4V111.4H598.4Z" fill="#0A3F7F"/>
<path d="M312.5 149.6C312.5 136.3 320.9 126.7 332.9 126.7C344.9 126.7 353.5 136.2 353.5 149.8C353.5 163.1 345.2 172.7 333.1 172.7C321.1 172.7 312.5 163.2 312.5 149.6ZM344.6 152.1C344.6 138.9 339.3 129 331.8 129C326.3 129 321.3 134.3 321.3 147.2C321.3 160.4 326.6 170.2 334.2 170.2C339.6 170.3 344.6 165 344.6 152.1Z" fill="#30C46C"/>
<path d="M382.5 128.5C382.5 130.1 381.7 131.8 379.3 131.8C374.3 131.8 376.8 124.4 372.9 124.4C370.1 124.4 369.6 128.1 369.6 133V137.9H377.7V140.4H369.6V165.5C369.6 168.7 371.5 169.5 374.9 169.8V171.6C368.4 171.3 362.7 171.3 357.2 171.6V169.8C359.5 169.5 361.5 168.7 361.5 165.5V140.4H357.4V138.6C358.8 138.6 360.7 138.2 361.5 137.9V135.3C361.5 126.5 366.1 122.3 373.3 122.3C379.2 122.3 382.5 125.1 382.5 128.5Z" fill="#30C46C"/>
<path d="M406.7 128.5C406.7 130.1 405.9 131.8 403.5 131.8C398.5 131.8 401 124.4 397.1 124.4C394.3 124.4 393.8 128.1 393.8 133V137.9H401.9V140.4H393.8V165.5C393.8 168.7 395.7 169.5 399.1 169.8V171.6C392.6 171.3 386.9 171.3 381.4 171.6V169.8C383.7 169.5 385.7 168.7 385.7 165.5V140.4H381.6V138.6C383 138.6 384.9 138.2 385.7 137.9V135.3C385.7 126.5 390.3 122.3 397.5 122.3C403.4 122.3 406.7 125.1 406.7 128.5Z" fill="#30C46C"/>
<path d="M410.7 169.7C409.3 169.7 408.5 170.8 408.5 171.7H406.7L406.1 161.9H407.8C409.3 166.8 414.9 170.3 419 170.3C422.1 170.3 424.4 168.3 424.4 165.3C424.4 161.8 421 159.7 416.3 157C411.6 154.3 406.3 151.3 406.3 145.2C406.3 139.8 410.5 135.7 416.5 135.7C420.9 135.7 422.9 137.7 424.8 137.7C425.9 137.7 426.5 137.2 426.7 136.3H428.4L429 145.8H427.2C425.2 140.7 421.6 137.8 417.9 137.8C414.9 137.8 412.7 139.8 412.7 142.7C412.7 145.8 415.1 147.6 419.1 150C423.2 152.3 431 156 431 163.1C431 168.8 426.1 172.6 420.3 172.6C415.4 172.6 412.9 169.7 410.7 169.7Z" fill="#30C46C"/>
<path d="M462.6 164.8H464.8C462.7 169.8 457.3 172.5 451.5 172.5C442.3 172.5 435.1 166.1 435.1 154.2C435.1 142.7 441.7 135.7 451.1 135.7C458.7 135.7 465 140.2 465 148.2C465 151.2 464.1 153.5 461.3 153.5H443.7C444.1 163.1 447.6 169.9 454.6 169.9C457.6 169.9 460.9 168.6 462.6 164.8ZM443.6 151.4H457.1C457.7 143.3 455.3 137.7 450.4 137.7C445.6 137.7 443.6 143.1 443.6 151.4Z" fill="#30C46C"/>
<path d="M472.5 163.1V140.1H468.1V138.3C473.3 137 476.4 132.7 477.8 127.8H480.5V137.3H488.6V140.1H480.5V164.1C480.5 166.6 481.8 168.8 484.8 168.8C486.6 168.8 487.9 168 488.7 167.2V169.4C487.4 171.2 484.7 172.2 481.6 172.2C476.6 172.2 472.5 169.5 472.5 163.1Z" fill="#30C46C"/>
<path d="M551.3 129.7C547.5 130.1 546.1 130.8 546.1 133.9V165.8C546.1 168.8 547.4 169.6 551.3 170V171.8C545.2 171.6 538.7 171.6 532.6 171.8V170C536.4 169.6 537.8 168.9 537.8 165.8V151H521V165.8C521 168.8 522.3 169.6 526.2 170V171.8C520.1 171.6 513.6 171.6 507.5 171.8V170C511.3 169.6 512.7 168.9 512.7 165.8V133.9C512.7 130.9 511.4 130.1 507.5 129.7V127.9C513.6 128.1 520.1 128.1 526.2 127.9V129.7C522.4 130.1 521 130.8 521 133.9V148.8H537.8V133.9C537.8 130.9 536.5 130.1 532.6 129.7V127.9C538.7 128.1 545.2 128.1 551.3 127.9V129.7Z" fill="#30C46C"/>
<path d="M581.6 164.8H583.8C581.7 169.8 576.3 172.5 570.5 172.5C561.3 172.5 554.1 166.1 554.1 154.2C554.1 142.7 560.7 135.7 570.1 135.7C577.7 135.7 584 140.2 584 148.2C584 151.2 583.1 153.5 580.3 153.5H562.7C563.1 163.1 566.6 169.9 573.6 169.9C576.6 169.9 579.8 168.6 581.6 164.8ZM562.6 151.4H576.1C576.7 143.3 574.3 137.7 569.4 137.7C564.6 137.7 562.6 143.1 562.6 151.4Z" fill="#30C46C"/>
<path d="M587.9 169.9C590.2 169.6 592.1 168.8 592.1 165.6V144.5C592.1 141.8 590.5 141 587.8 141.4V139.6C592.1 138.8 595.6 137.5 598.6 135.6C599.3 135.9 599.9 136.4 600.2 137.2L598.6 145.2H599.1C601 139.1 603.8 135.7 608.6 135.7C612.3 135.7 614.8 137.8 614.8 140.8C614.8 143.1 613.2 144.8 611.1 144.8C607.8 144.8 607.3 140.9 604.6 140.9C601.6 140.9 600.1 145.8 600.1 150V165.6C600.1 168.8 602.4 169.6 605 169.9V171.7C599.1 171.5 593.3 171.5 587.8 171.7V169.9H587.9Z" fill="#30C46C"/>
<path d="M616.9 153.9C616.9 141.5 625 135.7 633.2 135.7C641.6 135.7 650 141.9 650 154.3C650 166.7 641.8 172.5 633.7 172.5C625.1 172.5 616.9 166.2 616.9 153.9ZM641.3 156.2C641.3 145.7 637.8 137.8 632.3 137.8C628.1 137.8 625.3 142.7 625.3 151.9C625.3 162.4 628.9 170.3 634.3 170.3C638.6 170.3 641.3 165.4 641.3 156.2Z" fill="#30C46C"/>
<path d="M192 114L191.9 115.3V115.9C191.9 116.1 191.9 116.3 191.9 116.5L191.8 117.8C191.8 118.2 191.7 118.6 191.7 119.1C191.6 119.9 191.5 120.8 191.4 121.6C191.4 121.8 191.4 122 191.3 122.2L191.2 122.8L191.1 123.4V123.7L191 124C190.5 127.3 189.7 130.6 188.8 133.8C186.9 140.2 184.1 146.4 180.7 152.1L180 153.2C179.8 153.6 179.5 153.9 179.3 154.2L179 154.7C178.9 154.9 178.8 155.1 178.6 155.2L177.9 156.2L176.8 157.7L176.4 158.2L175.6 159.2L174.8 160.2C174.7 160.4 174.5 160.5 174.4 160.7L174 161.2C173.7 161.5 173.5 161.8 173.2 162.2C172.7 162.8 172.1 163.5 171.6 164.1C170.5 165.3 169.3 166.5 168.1 167.7L167.2 168.5C166.9 168.8 166.6 169.1 166.3 169.3C166 169.6 165.7 169.9 165.4 170.1L164.5 170.9L163.5 171.7L163 172.1L162.5 172.5L161.5 173.3L160.5 174C160.3 174.1 160.2 174.2 160 174.4L159.5 174.8C159.2 175 158.8 175.3 158.5 175.5C157.8 176 157.1 176.4 156.4 176.9C155 177.8 153.6 178.6 152.1 179.5L151 180.1C150.8 180.2 150.6 180.3 150.4 180.4L149.8 180.7C149.1 181.1 148.3 181.4 147.6 181.8C146.1 182.5 144.6 183.2 143 183.8C139.9 185 136.8 186 133.6 186.8C127.2 188.4 120.6 189.1 114 189H112.8L111.6 188.9H111H110.4L109.2 188.8C107.6 188.7 105.9 188.5 104.3 188.2C101 187.7 97.8 187 94.7 186.1C93.1 185.6 91.6 185.2 90 184.6C89.2 184.3 88.5 184 87.7 183.7C87.3 183.6 86.9 183.4 86.6 183.2C86.2 183 85.8 182.9 85.5 182.7L84.4 182.2C84 182 83.7 181.9 83.3 181.7C82.6 181.4 81.8 181 81.1 180.6C80.9 180.5 80.6 180.3 80.4 180.2C80.1 180 79.8 179.9 79.5 179.7C79.3 179.6 79.1 179.5 79 179.4L77.9 178.8L76.8 178.2C65.5 171.5 56 161.8 49.5 150.3C49.1 149.7 48.8 149 48.4 148.3C48.4 148.2 48.4 148.2 48.3 148.1C48.1 147.7 47.9 147.4 47.7 147L47.4 146.4C47.3 146.2 47.2 146 47.1 145.8L46.6 144.7L46.1 143.6L45.9 143L45.7 142.4L45.2 141.3L44.8 140.2L44.6 139.6L44.4 139L44 137.8L43.6 136.6C43.5 136.4 43.5 136.2 43.4 136L43.2 135.4L42.8 134.2L42.5 133C42.5 132.8 42.4 132.6 42.3 132.4L42.1 131.8L41.8 130.6L41.5 129.4L41.4 128.8L41.3 128.2L41.1 127L40.9 125.8L40.8 125.2L40.7 124.6L40.5 123.4L40.3 122.2L40.2 121.6C40.2 121.4 40.2 121.2 40.1 121L40 119.8C40 119.4 39.9 119 39.9 118.6C39.9 118.2 39.8 117.8 39.8 117.4L39.7 116.2C39.7 116 39.7 115.8 39.7 115.6V115V114.4C39.7 114.2 39.7 114 39.7 113.8V112.6C39.7 109.3 40 106 40.4 102.7C40.8 99.4 41.5 96.2 42.4 93C43.3 89.8 44.4 86.7 45.7 83.6C46.4 81.9 47.2 80.1 48.1 78.5C49.3 76.5 51.1 74 53.5 72.5C55.4 71.3 58 70.7 61 70.2C61.4 70.1 61.8 70.1 62.3 70C63.4 69.8 64.6 69.7 65.7 69.6C69 69.2 72.4 68.8 75.7 67.8C76.7 67.5 77.6 67.2 78.6 66.8C80.5 66 82.4 64.9 84 63.5C86.6 61.3 88.7 58.6 90.4 55.7C91.3 54.3 92 52.7 92.6 51.2C94 47.6 94.9 43.8 95.3 39.9C95.5 37.5 95.6 35 95.4 32.6C94.6 21 90.2 10.2 85.2 0C83.6 6.2 79.1 11.4 74 15.3C70.8 17.8 67.3 19.9 63.8 22C61.7 23.2 59.7 24.5 57.7 25.8C52.3 29.4 47.2 33.7 44.2 39.4C43.4 41 42.7 42.7 42.3 44.4C41.3 47.9 41 51.6 41.1 55.2C41.3 60.6 43.4 66.4 45.7 71.7C45.7 71.7 49.8 64.2 55.4 59.6C70.8 47 77.3 37.6 80.1 32C81.5 29.2 81.9 27.3 82.1 26.4C81.8 28.6 81.4 30.6 80.8 32.5C78 41.6 71.9 47.8 66.6 53C65.4 54.1 64.3 55.2 63.3 56.3C61.1 58 59 60 57.1 62C53.8 65.5 50.8 69.3 48.2 73.4C46.4 76.3 44.7 79.3 43.3 82.4C42.6 83.8 42 85.3 41.5 86.8C41.3 82.1 39.8 78.6 37.2 75.4C34 71.4 29.4 68.7 25 66.3C24.3 65.8 23.5 65.3 22.7 64.9C22.6 64.8 22.5 64.7 22.3 64.7C18.7 62.4 14.6 59.8 11.5 55.5C10.7 54.4 9.90002 53.2 9.30002 51.8C9.00002 51.1 8.60002 50.3 8.40002 49.5C8.60002 50 9.10002 51 10 52.3C10.3 52.8 10.7 53.3 11.2 53.8C13.4 56.3 17 59.6 23.2 63.3C25.3 64.6 27.7 65.9 30.4 67.3C34.7 69.5 38.5 73.9 38.5 73.9C39.3 70.1 39.9 66 39.2 62.4C38.5 58.8 37.2 55.3 34.9 52.5C32.6 49.7 29.3 47.7 25.9 46.2C25.3 45.9 24.7 45.7 24.1 45.4C20.1 43.8 15.8 42.7 11.9 40.8C8.00002 38.9 4.30002 36.2 2.30002 32.3C1.50002 36.2 0.700018 40.1 0.300018 44C-0.0999816 47.7 -0.0999816 51.5 0.400018 55.2C1.50002 62.3 5.10002 69.4 11.2 73.2C11.6 73.4 11.9 73.7 12.3 73.9C14.5 75.1 16.9 75.5 19.2 75.6C24.2 75.7 29.1 74.2 32.3 75.8C37.5 78.2 40.1 88.4 38.9 94.5C38.2 97.1 37.6 99.7 37.2 102.3C36.6 105.7 36.3 109.2 36.2 112.6C35.7 126.4 39 140.4 45.8 152.6C48.8 158.1 52.6 163.3 56.9 168C60.9 172.4 65.5 176.3 70.4 179.7C71.7 180.6 73.1 181.5 74.5 182.3C80.5 185.9 86.9 188.6 93.6 190.5C96.9 191.4 100.4 192.1 103.8 192.6C105.5 192.8 107.3 193 109 193.1L110.3 193.2H110.9H111.5H112.8H114.1C117.6 193.2 121.1 193 124.5 192.6C124.9 192.6 125.4 192.5 125.8 192.4C126.2 192.3 126.7 192.3 127.1 192.2L128.4 192C128.6 192 128.8 191.9 129 191.9L129.6 191.8C130 191.7 130.4 191.6 130.9 191.5L132.2 191.2C132.4 191.2 132.6 191.1 132.8 191.1L133.4 190.9L134.7 190.6L135.9 190.2C136.1 190.1 136.3 190.1 136.5 190L137.1 189.8L138.3 189.4L139.5 189C139.7 188.9 139.9 188.9 140.1 188.8L140.7 188.6C141.1 188.4 141.5 188.3 141.9 188.2C142.7 187.9 143.5 187.6 144.3 187.2C145.9 186.5 147.5 185.8 149 185C149.8 184.6 150.5 184.2 151.3 183.8L151.9 183.5C152.1 183.4 152.3 183.3 152.5 183.2L153.6 182.6C155.1 181.7 156.6 180.8 158 179.8C158.7 179.3 159.4 178.8 160.1 178.3C160.5 178 160.8 177.8 161.1 177.5L161.6 177.1C161.8 177 161.9 176.8 162.1 176.7L163.1 175.9L164.1 175.1L164.6 174.7L165.1 174.3L166.1 173.5C166.7 172.9 167.4 172.3 168 171.7C168.3 171.4 168.6 171.1 168.9 170.8L169.8 169.9C174.6 165 178.8 159.4 182.1 153.4C182.3 153 182.5 152.6 182.7 152.3C182.9 152 183.1 151.5 183.3 151.2C183.7 150.4 184.1 149.7 184.4 148.9C185.1 147.3 185.8 145.8 186.4 144.2L186.9 143C187.1 142.6 187.2 142.2 187.3 141.8C187.6 141 187.9 140.2 188.1 139.4C188.6 137.8 189.1 136.1 189.5 134.5C190.3 131.2 190.9 127.8 191.2 124.4V124.1V123.8V123.2L191.3 122.6C191.3 122.4 191.3 122.2 191.3 122C191.3 121.2 191.4 120.3 191.4 119.5C192 117.4 192 115.7 192 114Z" fill="#30C46C"/>
<path d="M6.10002 50.1001C5.90002 49.7001 5.90002 49.4001 5.90002 49.4001L10.4 48.1001L10.5 48.4001L6.10002 50.1001Z" fill="#30C46C"/>
<path d="M8.20004 49.2999C8.10004 49.0999 8.10004 48.8999 8.10004 48.8999C8.20004 48.9999 8.20004 49.1999 8.20004 49.2999Z" fill="#30C46C"/>
<path d="M114.9 44.7999C122.4 44.5999 129.9 45.5999 137.1 47.7999C144.3 49.9999 151.2 53.4999 157.3 57.9999C158.8 59.0999 160.3 60.2999 161.8 61.4999C163.2 62.6999 164.6 63.9999 166 65.3999C167.3 66.7999 168.6 68.1999 169.8 69.5999L170.3 70.1999C170.5 70.3999 170.6 70.5999 170.8 70.7999L171.7 71.8999L172.6 72.9999C172.9 73.3999 173.2 73.7999 173.4 74.1999C174.5 75.7999 175.5 77.3999 176.5 78.9999C177.5 80.5999 178.4 82.2999 179.2 84.0999C180 85.7999 180.8 87.5999 181.5 89.3999C182.2 91.1999 182.8 92.9999 183.4 94.7999C184.5 98.4999 185.3 102.2 185.7 106.1C185.9 108 186.1 109.9 186.2 111.8C186.2 112 186.2 112.3 186.2 112.5V113.2C186.2 113.7 186.2 114.2 186.2 114.6V116V117.4C185.9 125.1 184.3 132.7 181.6 139.9C180.9 141.7 180.2 143.5 179.3 145.2C178.5 146.9 177.6 148.6 176.6 150.3C174.7 153.6 172.4 156.8 170 159.8C168.8 161.3 167.5 162.7 166.1 164.1C164.8 165.5 163.4 166.8 161.9 168.1C160.4 169.4 158.9 170.6 157.4 171.7C157 172 156.6 172.3 156.2 172.5L155 173.3L153.8 174.1C153.6 174.2 153.4 174.4 153.2 174.5L152.6 174.9C146 179 138.8 181.9 131.3 183.7C123.8 185.4 116 185.9 108.3 185.2C106.4 185 104.5 184.8 102.6 184.4C100.7 184.1 98.8 183.6 97 183.1L95.6 182.7C95.1 182.6 94.7 182.4 94.2 182.3C93.7 182.2 93.3001 182 92.8001 181.9L92.1 181.7L91.4001 181.5C89.6001 180.9 87.8 180.1 86.1 179.3C79.1 176.1 72.6 171.8 67 166.6C61.4 161.4 56.7 155.2 53.1 148.5C52.2 146.8 51.4 145.1 50.6 143.4C49.8 141.7 49.1 139.9 48.5 138.1C47.9 136.3 47.3001 134.5 46.9001 132.6L46.7001 131.9C46.6001 131.7 46.6 131.4 46.5 131.2L46.3 130.5C46.2 130.3 46.2001 130 46.2001 129.8L45.9001 128.4L45.7001 127C45.4001 125.1 45.2 123.2 45 121.4C44.9 119.5 44.8 117.6 44.8 115.7V114.3V112.9V112.2V111.5L45 110L45.1 108.6L45.2001 107.9L45.3 107.2C45.4 106.7 45.4 106.3 45.5 105.8L45.7001 104.4C46.9001 96.9999 49.4001 89.6999 52.9001 83.1999C49.8001 89.9999 47.7001 97.1999 46.9001 104.6L46.7001 106C46.7001 106.5 46.6 106.9 46.6 107.4L46.5 108.1V108.8L46.4001 110.2V111.6V112.3V113V114.4V115.8C46.5001 117.6 46.6 119.5 46.8 121.3C47 123.1 47.3001 125 47.7001 126.8C48.1001 128.6 48.5 130.4 49 132.2C49.5 134 50.1001 135.7 50.7001 137.4C51.4001 139.1 52.1 140.8 52.8 142.5C53.6 144.2 54.4 145.8 55.3 147.4C57.1 150.6 59.2 153.6 61.5 156.4C62.6 157.8 63.9 159.2 65.1 160.5C66.4 161.8 67.7001 163.1 69 164.3C71.7001 166.7 74.6 169 77.7 170.9C79.2 171.9 80.8001 172.8 82.4001 173.7C84 174.6 85.6001 175.3 87.3001 176.1C89.0001 176.8 90.7001 177.5 92.4001 178.1C94.1001 178.7 95.9 179.2 97.6 179.7C99.4 180.1 101.1 180.5 102.9 180.8C104.7 181.1 106.5 181.3 108.3 181.5C115.5 182.1 122.9 181.6 129.9 180C131.7 179.6 133.4 179.1 135.1 178.5L135.7 178.3C135.9 178.2 136.1 178.2 136.3 178.1L137.6 177.6L138.9 177.1C139.1 177 139.3 176.9 139.5 176.8L140.1 176.5C141.8 175.8 143.4 175 145 174.2C146.6 173.4 148.2 172.5 149.7 171.5L150.3 171.1C150.5 171 150.7 170.9 150.9 170.7L152 170L153.1 169.2C153.5 168.9 153.8 168.7 154.2 168.4C155.7 167.3 157.1 166.2 158.4 165C159.8 163.8 161.1 162.6 162.4 161.3C163.7 160 164.9 158.7 166.1 157.3C167.3 155.9 168.4 154.5 169.4 153L170.2 151.9L171 150.8C171.3 150.4 171.5 150 171.7 149.7C171.9 149.3 172.2 148.9 172.4 148.5C173.3 146.9 174.2 145.4 175 143.7C175.8 142.1 176.5 140.4 177.2 138.7C179.9 132 181.4 124.8 181.8 117.5L181.9 116.1V114.7C181.9 114.2 181.9 113.8 181.9 113.3V112.6C181.9 112.4 181.9 112.1 181.9 111.9C181.9 111.4 181.9 111 181.9 110.5L181.8 109.1C181.8 108.6 181.7 108.2 181.7 107.7C181.7 107.2 181.6 106.8 181.6 106.3C181.2 102.7 180.5 99.0999 179.6 95.5999C178.6 92.0999 177.4 88.5999 175.9 85.2999C175.1 83.5999 174.3 81.9999 173.4 80.3999C172.5 78.7999 171.6 77.1999 170.5 75.6999C170.2 75.2999 170 74.8999 169.7 74.5999L168.9 73.4999L168.1 72.3999C168 72.1999 167.8 71.9999 167.7 71.8999L167.3 71.3999C166.2 69.9999 165 68.5999 163.7 67.1999C162.5 65.8999 161.2 64.5999 159.8 63.2999C158.5 62.0999 157 60.8999 155.6 59.6999C154.2 58.5999 152.7 57.4999 151.1 56.4999C149.6 55.4999 148 54.4999 146.4 53.5999C143.2 51.7999 139.8 50.2999 136.3 48.9999C129.8 46.4999 122.4 45.0999 114.9 44.7999Z" fill="#30C46C"/>
<path d="M184.2 97.3C185.2 96 188.5 95.5 189.7 93.3C190.9 91.2 190.8 88.5 189.8 86.2C188.8 83.9 187.2 82.1 185.4 80.3C185.5 81.7 185 83.1 184.2 84.2C183.4 85.4 182.5 86.4 181.6 87.5C180.8 88.6 180 89.8 179.8 91.2C179.6 92.4 179.9 93.5 180.3 94.6C180.7 95.7 181.6 96.7 182.4 97.6C182.4 97.6 182.7 95.8 183.5 94.4C186.8 88.9 186.6 86.3 186.5 85.8C187.1 88.5 186.1 90.6 185.2 92.3C185 92.6 184.9 92.9 184.8 93.2C184 94.6 183.4 96.1 183 97.8C183 97.9 183 98 183 98.1L183.9 97.3C184.1 97.3 184.1 97.3 184.2 97.3Z" fill="#30C46C"/>
<path d="M108 179.1C142.849 179.1 171.1 150.849 171.1 116C171.1 81.1507 142.849 52.8999 108 52.8999C73.1509 52.8999 44.9 81.1507 44.9 116C44.9 150.849 73.1509 179.1 108 179.1Z" fill="white"/>
<path d="M170.2 82.4C166.9 76.8 163 72 158.7 67.8C147.7 57.1 133.6 50.7999 116.5 49.0999C114.1 48.8999 111.7 48.7 109.3 48.7C104.4 48.7 99.7 49.2 95.1 50.2C94.2 50.4 93.2001 50.6 92.3 50.9C85.3 52.8 78.6 55.9 72.4 60.2C68.4 63 64.8 65.8999 61.5 69.0999C61.2 69.3999 60.9 69.6 60.7 69.9C59.7 70.8 58.8 71.8 57.9 72.8C55.3 75.7 53 78.7999 50.9 82.0999C49.7 84 48.6 86 47.6 88V88.0999V88.1999C44.9 93.6999 43.1 99.7 42.1 105.9C40.9 113.2 40.8 120.9 41.8 129.2C43.2 136.1 45.2 142.4 47.9 148.1C47.9 148.2 48 148.2 48 148.3C54.4 161.7 64.6 172.2 78.5 179.5C78.7 179.6 78.9 179.7 79 179.8C79.3 180 79.6 180.1 79.9 180.3C81.3 181 82.6 181.6 84.1 182.3C91 185.3 98.4 187.1 106.2 187.4C106.2 187.4 106.3 187.4 106.4 187.4C107.5 187.5 108.5 187.5 109.6 187.5C113.7 187.5 117.9 187.1 122.2 186.4C123.1 186.2 124 186.1 124.9 185.9C130.5 184.8 135.8 183.1 140.6 180.8H140.7C147 177.8 152.7 173.9 157.7 169C163.9 163 168.8 156.1 172.4 148.5C176 140.8 178.2 132.5 178.9 123.6C179 122.2 179.1 120.7 179.1 119.2C179.4 104.4 176.5 92.7 170.2 82.4ZM170.1 102.2C170.1 102.3 170.2 102.4 170.2 102.5C172.4 111.1 172.8 119.8 171.3 128.6C169.7 137.7 166.2 146.2 160.8 153.9C160.6 153.2 160.3 152.6 160 152C159.8 151.5 159.5 151 159.2 150.5L158.7 149.6L158.1 148.4C157.6 147.4 157.1 146.5 156.6 145.5V145.4C156.6 145.4 156.6 145.4 156.7 145.3C157.7 144.4 158.6 143.5 159.6 142.4C161 140.9 161.1 139.1 160 137.4C159 136 158.6 134.3 158.8 132.1C158.9 130.3 158.2 129 156.7 128.2C154.2 126.9 151.9 126.2 149.7 126.2C147.6 126.2 145.6 126.8 143.6 127.9C142.6 128.5 141.4 128.7 140 128.7C137.3 128.7 134 127.4 133 123.7C132 120.3 132 116.9 132.1 114.1C132.1 114 132.3 113.7 132.9 113.1C133.7 112.3 134.7 111 134.5 108.9C134.4 107.5 134.4 106.1 134.5 104.9C134.6 103.5 135.2 102.9 136.7 102.9C136.7 102.9 137 102.9 137.2 102.9C139.3 102.9 141.3 102.4 143.5 101.3C144.4 100.9 145.5 100.6 146.8 100.4C147.4 100.3 148 100.3 148.7 100.3C149.3 100.3 150 100.3 150.6 100.4C151 100.5 151.7 100.8 152.4 101.2C153.2 101.7 154.1 102.2 154.9 102.7C155.9 103.3 157 104 158 104.6C158.3 104.8 158.7 104.9 159.1 104.9C159.8 104.9 160.8 104.6 161.4 103.9C162.5 102.5 164.1 101.8 165.9 101L166.7 100.6C166.8 100.6 167 100.6 167.2 100.7C168.1 101 168.9 101.4 169.7 101.9C169.7 102 169.9 102.1 170.1 102.2ZM66.2 75.5999C67.7 73.9999 69.4 72.5 71.1 71C72.5 69.7999 74 68.6999 75.5 67.5999C76.3 67.0999 77 66.5 77.8 66C78 66.2 78.2001 66.3999 78.3 66.5999C78.3 66.5999 78.3 66.5999 78.4 66.6999L78.7 67C79.3 67.6 79.9 68.1 80.5 68.3C80.8 68.4 81 68.5 81.3 68.5C80.4 68.7999 79.5 69.1 78.5 69.4L77.2 69.9C74.5 70.8 74.5 73 74.7 73.8C74.7 73.9 74.7 73.9999 74.7 74.1999C74.7 74.3999 74.7 74.4999 74.7 74.5999C74.5 77.6999 75.8 78.3999 78.2 78.6999C78.4 78.7999 78.9 79.2 79.1 79.5C79.7 80.1 80.4 80.5999 81.3 80.5999C82.9 80.5999 83.4 79.1 83.7 78.4C84.4 76.6 84.8 76.1 87.2 76H87.8C88.3 76 88.7 76 89.2 76C89.7 76 90.2 76 90.7 76C91.8 76 92.6 76 93.4 75.9C95 75.7 96.5 75 97.8 74.4C98.2001 74.2 98.4 74.0999 98.4 74.0999C98.4 74.0999 98.5 74.2 98.7 74.4C99.5 75.6 100.2 76.9 101 78.4C101.3 79 101.7 79.7 102.4 80.4C101.8 81 101.2 81.5999 100.6 82.1999C98.8 81.6999 97.1 81.0999 95.5 80.5C95.1 80.4 94.7001 80.3 94.3 80.3C93.7001 80.3 93.1 80.5 92.7 81C92 81.7 92 82.5999 92 83.1999C92 83.8999 92 84.5999 92 85.0999H91.9C91.4 85.0999 90.9 85.0999 90.2 85C89.9 85 89.5 85 89.2 85C85.3 85 82.6 87 80.2 91.5999C80.1 91.6999 80.1 91.8 80 91.9C79.2 93.5 78.8 95.2 78.5 96.8L78.3 97.5999C77.7001 100.1 76.3 102.3 74 104.2C71.4 102.7 68.8 101.9 66.1 101.9C65.3 101.9 64.4 102 63.6 102.1C62.6 102.3 61.7 102.7 60.9 103.2C60.6 103.3 60.4 103.5 60.1 103.6C59.4 103.9 58.9 104.5 58.7 105.1L58.6 105.3C58.4 105.9 58.1 106.8 58.5 107.8C59 108.8 59.6 109.7 60.1 110.6L61.7 113.2L63.7 111.9C64 111.7 64.3 111.5 64.6 111.3C64.8 111.2 65 111.1 65.2 110.9C65.3 110.9 65.3 110.8 65.4 110.7C65.5 111.6 66 112.5 66.9 113.5C67.7 114.3 67.8 114.6 67.8 115C67.8 115.1 67.8 115.1 67.8 115.2C67.8 115.6 67.9 116.2 68.4 116.8C67.6 116.6 66.9 116.2 66.3 115.5C65.6 114.7 64.4 114.4 63.5 114.4C63.4 114.4 63.2 114.4 63.1 114.4C62.9 114.4 62.6 114.4 62.4 114.4C61 114.4 59.8 113.9 58.7 112.8C56.6 110.8 54.2 109.7 51.4 109.5C50.8 109.5 50.4 109.3 50.4 109.2C50.3 109.1 50.2 108.7 50.4 108.1C52 99.2 55.2 91.3 59.8 84.3C61.4 81 63.6 78.1999 66.2 75.5999ZM94 64.8C94.6 65.6 95.1 66.6 95.6 67.5C95.2 67.5 94.8 67.5999 94.4 67.6999C92.3 68.1999 90.1 68.7999 87.4 69.6999C87.1 69.7999 86.8 69.9 86.6 69.9C86.6 69.9 86.5 69.7999 86.4 69.6999C85.7 68.5999 84.6 68 83.4 68C83.6 67.9 83.8 67.7999 84 67.6999L89.1 64.1999C89.2 64.0999 89.3 64 89.4 63.9C89.5 63.9 89.8 63.7 90.6 63.7C92.1 63.7 93.6 64.3 94 64.8ZM152.4 78.5C154.1 78.5 155.5 78.0999 156.6 77.1999C158.2 78.9999 159.7 80.9 161 82.8C160.5 83 160 83.3 159.5 83.8C159.4 83.9 159.3 84 159.3 84C157.3 85.9 158.2 87.5 158.9 88.3C159.6 89.1 160.4 89.9 161.4 90.8C160.8 91.1 160.3 91.3999 159.8 91.5999C159.7 91.5999 159.7 91.5999 159.6 91.5999C159 91.0999 158.7 90.3999 158.5 89.1999C158.2 87.6999 157.6 86.3999 157 85.0999C156.8 84.5999 156.6 84.0999 156.4 83.5999L155.6 81.5999L153.8 82.8C152.9 83.4 152 84 151.1 84.5999C150.4 85 149.7 85.5 149 86V82.6999C149 82.2999 149 81.9 149 81.4C149 81.1 149 80.8999 149 80.5999C149 78.9999 149.4 78.6 151.1 78.5C151.2 78.5 151.4 78.5 151.6 78.5H151.7C151.9 78.5 152.1 78.5 152.4 78.5ZM72.8 117.4C74.1 117.2 75.5 116.8 76.9 115.6C77.3 115.2 78.6 115.2 79.6 115.1C79.9 115.1 80.1 115.1 80.4 115.1C80.4 115.1 80.4 115.1 80.5 115.2C80.9 115.8 81.2 116.4 81.5 117L81.9 117.7C82.6 119.1 83.6 119.3 84.2 119.3C84.9 119.3 85.5 119 86.1 118.4C86.9 117.6 87.7001 117.2 88.8 117.2C89.4 117.2 90.1 117.3 90.9 117.6C92.2 118 93.5 118.5 94.5 119.2C94.9 119.5 95.4 120.2 95.9 121.2C96.5 122.5 97.5 124.8 100.3 124.8C100.4 124.8 100.5 124.8 100.6 124.8C100.6 124.8 100.7 124.8 100.7 124.9C101.2 125.3 101.7 125.6 102.2 126C103.2 126.7 104.2 127.5 105.3 128.2C106.9 129.2 107.8 130.1 108.3 131.3C108.9 132.7 108.8 134.8 108 136.6C107.2 138.3 106 139.6 104.6 140.1C102.5 140.9 101.5 142.3 101.8 144.6C102 146.2 101.8 146.6 100 147.2C97.4 148.1 96.6 149.4 96.9 152.2L97 152.9C97.1 153.4 97.1 153.9 97.1 154.3C97 155.9 96.3 156.8 94.9 157.2C93 157.8 91.9 159 91.6 160.9C91.6 161 91.5 161.2 91.3 161.5C89.4 165.2 89.7001 169 92.3 172.5C91.5 172.2 90.7 171.5 90.1 169.9C89.4 168 88.6 166.2 87.9 164.3C87.3 162.8 86.7 161.2 86.1 159.7C85.9 159.2 85.8 158.5 85.8 158C86 155.8 85.5 153.6 84.4 151.4C84 150.7 83.7001 150 83.3 149.3C82.8 148.4 82.3 147.5 81.9 146.6C80.9 144.7 80.6 143.2 80.9 141.7C81.1 140.5 80.7 139.7 80.4 139.3C79.9 138.7 79.1 138.4 78.3 138.4C78.2001 138.4 78 138.4 77.9 138.4C77.6 138.4 77.4 138.4 77.2 138.4C75.3 138.4 73.7 137.5 72.3 135.4C72.2 135.3 72.2 135.2 72.1 135.1C68.5 130.7 68.4 128.8 71.3 123.9C71.4 123.7 71.6 123.5 71.8 123.3C72.1 123 72.4 122.7 72.6 122.3C73.1 121.6 73.6 120.8 73.8 119.8C73.5 118.9 73.3 118.1 72.8 117.4ZM139.9 85.1999C140.1 84.7999 140.3 84.3999 140.5 84.0999C140.7 83.7999 140.9 83.3999 141 83.1999C141.4 83.1999 142.3 83.4 143.2 83.5C143.6 83.5999 144.1 83.7999 144.6 84.0999C144.8 84.1999 144.9 84.3 145.1 84.4C145.5 84.6 146 84.8999 146.5 85.0999L148.8 86.1999C147.5 87.0999 146.3 87.9 145 88.9C144.2 89.5 143.4 89.5999 142.4 89.5999C142.1 89.5999 141.8 89.5999 141.5 89.5999C141.2 89.5999 141 89.5999 140.7 89.5999C140.2 89.0999 139.9 88.0999 139.7 87.1999C139.7 86.2999 139.7 85.5999 139.9 85.1999Z" fill="#1EA5F7"/>
</g>
<defs>
<clipPath id="clip0_0_7721">
<rect width="651.8" height="193.1" fill="white"/>
</clipPath>
</defs>
</svg>
