<svg width="24" height="24" viewBox="0 0 24 24" fill="none" xmlns="http://www.w3.org/2000/svg">
<path d="M19.1777 2.97309C17.2605 1.05586 14.7114 0 12 0C9.28868 0 6.73952 1.05586 4.82234 2.97309C2.9051 4.89037 1.84924 7.43944 1.84924 10.1507C1.84924 15.6357 7.0354 20.1978 9.8216 22.6487C10.2088 22.9893 10.5431 23.2834 10.8095 23.5322C11.1433 23.844 11.5717 23.9999 12 23.9999C12.4284 23.9999 12.8567 23.844 13.1905 23.5322C13.4569 23.2834 13.7912 22.9893 14.1784 22.6487C16.9646 20.1977 22.1508 15.6357 22.1508 10.1507C22.1507 7.43944 21.0949 4.89037 19.1777 2.97309ZM13.2498 21.5932C12.8541 21.9412 12.5125 22.2418 12.2307 22.5049C12.1013 22.6257 11.8986 22.6258 11.7692 22.5049C11.4875 22.2417 11.1458 21.9412 10.7501 21.5931C8.13073 19.289 3.25502 15 3.25502 10.1508C3.25502 5.32884 7.17795 1.40592 11.9999 1.40592C16.8219 1.40592 20.7448 5.32884 20.7448 10.1508C20.7448 15 15.8692 19.289 13.2498 21.5932Z" fill="#2D2F43"/>
<path d="M12.0001 5.29395C9.53345 5.29395 7.52673 7.30062 7.52673 9.76723C7.52673 12.2338 9.53345 14.2405 12.0001 14.2405C14.4667 14.2405 16.4733 12.2338 16.4733 9.76723C16.4733 7.30062 14.4667 5.29395 12.0001 5.29395ZM12.0001 12.8346C10.3087 12.8346 8.93261 11.4585 8.93261 9.76718C8.93261 8.07584 10.3087 6.69977 12.0001 6.69977C13.6915 6.69977 15.0675 8.07584 15.0675 9.76718C15.0675 11.4585 13.6915 12.8346 12.0001 12.8346Z" fill="#2D2F43"/>
</svg>
