<svg width="24" height="24" viewBox="0 0 24 24" fill="none" xmlns="http://www.w3.org/2000/svg">
<path d="M22.4132 19.9698L19.4378 14.0184C20.4117 12.582 20.9814 10.8502 20.9814 8.98758C20.9814 4.03181 16.9496 0 11.9938 0C7.03809 0 3.00627 4.03181 3.00627 8.98753C3.00627 10.8501 3.5759 12.5821 4.55001 14.0187L1.5742 19.9698C1.52062 20.077 1.49533 20.1961 1.50071 20.3159C1.50609 20.4356 1.54197 20.552 1.60495 20.6539C1.66797 20.7559 1.75601 20.8401 1.86071 20.8984C1.96541 20.9568 2.08329 20.9875 2.20316 20.9875H5.61716L7.6656 23.7188C7.79919 23.8967 8.00798 24 8.2281 24C8.51976 24 8.74954 23.8261 8.85702 23.6113L11.6783 17.9689C11.7831 17.9725 11.8881 17.9751 11.9938 17.9751C12.0995 17.9751 12.2046 17.9725 12.3093 17.9689L15.1306 23.6113C15.2377 23.8257 15.4677 24 15.7596 24C15.8687 24 15.9763 23.9745 16.0739 23.9257C16.1715 23.8769 16.2564 23.806 16.3219 23.7188L18.3704 20.9875H21.7844C22.0282 20.9875 22.2545 20.8612 22.3825 20.6539C22.4455 20.552 22.4815 20.4356 22.4868 20.3159C22.4922 20.1961 22.4669 20.077 22.4132 19.9698ZM8.10815 21.9648L6.53123 19.8625C6.46574 19.7752 6.38082 19.7043 6.28318 19.6555C6.18555 19.6067 6.07789 19.5813 5.96873 19.5813H3.34082L5.52266 15.2179C6.76157 16.504 8.37876 17.4234 10.1935 17.7938L8.10815 21.9648ZM4.41252 8.98753C4.41252 4.80722 7.81349 1.40625 11.9938 1.40625C16.1741 1.40625 19.5751 4.80727 19.5751 8.98753C19.5751 13.1678 16.1741 16.5689 11.9938 16.5689C7.81349 16.5689 4.41252 13.1678 4.41252 8.98753ZM18.0187 19.5813C17.9095 19.5813 17.8019 19.6067 17.7043 19.6555C17.6066 19.7044 17.5217 19.7752 17.4562 19.8625L15.8795 21.9648L13.7939 17.7938C15.6088 17.4232 17.2262 16.504 18.4651 15.2175L20.6466 19.5811H18.0187V19.5813Z" fill="#8D8E97"/>
<path d="M15.583 10.1538L17.5466 7.81001C17.6231 7.71866 17.6752 7.60937 17.6979 7.49239C17.7206 7.37541 17.7132 7.25458 17.6764 7.14125C17.6396 7.02791 17.5746 6.9258 17.4874 6.84448C17.4003 6.76316 17.294 6.70532 17.1784 6.67638L14.2122 5.93449L12.5898 3.34263C12.5265 3.24158 12.4387 3.15827 12.3344 3.10051C12.2302 3.04275 12.1129 3.01245 11.9937 3.01245C11.8746 3.01245 11.7573 3.04275 11.6531 3.10051C11.5488 3.15827 11.4609 3.24158 11.3977 3.34263L9.77562 5.93449L6.80965 6.67643C6.69403 6.70532 6.58766 6.76313 6.50051 6.84442C6.41337 6.92571 6.34831 7.02781 6.31146 7.14115C6.27467 7.25451 6.26728 7.37537 6.28999 7.49237C6.3127 7.60937 6.36477 7.71869 6.44131 7.81005L8.4049 10.1538L8.19359 13.2038C8.18537 13.3227 8.20748 13.4417 8.25786 13.5497C8.30823 13.6577 8.38522 13.7511 8.48159 13.8212C8.77915 14.0374 9.08182 13.9351 9.15781 13.9045L11.9937 12.7616L14.8297 13.9047C14.9402 13.9492 15.0603 13.9649 15.1785 13.9503C15.2968 13.9357 15.4094 13.8913 15.5058 13.8212C15.6022 13.7512 15.6792 13.6578 15.7296 13.5498C15.78 13.4418 15.8021 13.3228 15.7939 13.2039L15.583 10.1538ZM14.323 9.46783C14.2062 9.60723 14.148 9.78648 14.1606 9.9679L14.3135 12.1804L12.2567 11.3513C12.0287 11.2594 11.8287 11.3117 11.731 11.3513L9.67414 12.1804L9.82742 9.96808C9.83989 9.78659 9.78163 9.60732 9.66485 9.46783L8.2406 7.76815L10.3919 7.23002C10.5683 7.18592 10.7208 7.07512 10.8173 6.92093L11.9939 5.04096L13.1707 6.92093C13.2672 7.07509 13.4196 7.18587 13.5961 7.22997L15.7474 7.7681L14.323 9.46783Z" fill="#8D8E97"/>
</svg>
