<svg width="24" height="24" viewBox="0 0 24 24" fill="none" xmlns="http://www.w3.org/2000/svg">
<circle cx="12" cy="9" r="8" fill="#30C46C"/>
<path d="M22.4132 19.9698L19.4378 14.0184C20.4117 12.582 20.9814 10.8502 20.9814 8.98758C20.9814 4.03181 16.9496 0 11.9938 0C7.03809 0 3.00627 4.03181 3.00627 8.98753C3.00627 10.8501 3.5759 12.5821 4.55001 14.0187L1.5742 19.9698C1.52062 20.077 1.49533 20.1961 1.50071 20.3159C1.50609 20.4356 1.54197 20.552 1.60495 20.6539C1.66797 20.7559 1.75601 20.8401 1.86071 20.8984C1.96541 20.9568 2.08329 20.9875 2.20316 20.9875H5.61716L7.6656 23.7188C7.79919 23.8967 8.00798 24 8.2281 24C8.51976 24 8.74954 23.8261 8.85702 23.6113L11.6783 17.9689C11.7831 17.9725 11.8881 17.9751 11.9938 17.9751C12.0995 17.9751 12.2046 17.9725 12.3093 17.9689L15.1306 23.6113C15.2377 23.8257 15.4677 24 15.7596 24C15.8687 24 15.9763 23.9745 16.0739 23.9257C16.1715 23.8769 16.2564 23.806 16.3219 23.7188L18.3704 20.9875H21.7844C22.0282 20.9875 22.2545 20.8612 22.3825 20.6539C22.4455 20.552 22.4815 20.4356 22.4868 20.3159C22.4922 20.1961 22.4669 20.077 22.4132 19.9698ZM8.10815 21.9648L6.53123 19.8625C6.46574 19.7752 6.38082 19.7043 6.28318 19.6555C6.18555 19.6067 6.07789 19.5813 5.96873 19.5813H3.34082L5.52266 15.2179C6.76157 16.504 8.37876 17.4234 10.1935 17.7938L8.10815 21.9648ZM4.41252 8.98753C4.41252 4.80722 7.81349 1.40625 11.9938 1.40625C16.1741 1.40625 19.5751 4.80727 19.5751 8.98753C19.5751 13.1678 16.1741 16.5689 11.9938 16.5689C7.81349 16.5689 4.41252 13.1678 4.41252 8.98753ZM18.0187 19.5813C17.9095 19.5813 17.8019 19.6067 17.7043 19.6555C17.6066 19.7044 17.5217 19.7752 17.4562 19.8625L15.8795 21.9648L13.7939 17.7938C15.6088 17.4232 17.2262 16.504 18.4651 15.2175L20.6466 19.5811H18.0187V19.5813Z" fill="#30C46C"/>
<path d="M15.5833 10.1537L17.5468 7.80998C17.6234 7.71863 17.6754 7.60934 17.6981 7.49236C17.7208 7.37538 17.7134 7.25455 17.6766 7.14122C17.6398 7.02788 17.5748 6.92576 17.4877 6.84445C17.4006 6.76313 17.2942 6.70529 17.1786 6.67635L14.2125 5.93446L12.59 3.3426C12.5268 3.24155 12.4389 3.15824 12.3347 3.10048C12.2304 3.04272 12.1132 3.01242 11.994 3.01242C11.8748 3.01242 11.7576 3.04272 11.6533 3.10048C11.549 3.15824 11.4612 3.24155 11.398 3.3426L9.77586 5.93446L6.8099 6.6764C6.69428 6.70529 6.5879 6.7631 6.50076 6.84439C6.41361 6.92568 6.34856 7.02778 6.31171 7.14112C6.27491 7.25448 6.26752 7.37534 6.29023 7.49234C6.31295 7.60934 6.36501 7.71866 6.44155 7.81002L8.40514 10.1538L8.19383 13.2037C8.18561 13.3226 8.20773 13.4417 8.2581 13.5496C8.30848 13.6576 8.38546 13.7511 8.48183 13.8212C8.77939 14.0374 9.08207 13.9351 9.15805 13.9045L11.994 12.7615L14.8299 13.9047C14.9405 13.9492 15.0605 13.9649 15.1788 13.9503C15.297 13.9357 15.4096 13.8912 15.506 13.8212C15.6024 13.7511 15.6794 13.6577 15.7298 13.5498C15.7802 13.4418 15.8024 13.3228 15.7941 13.2039L15.5833 10.1537ZM14.3233 9.4678C14.2065 9.6072 14.1483 9.78645 14.1609 9.96786L14.3137 12.1804L12.257 11.3512C12.029 11.2594 11.829 11.3117 11.7313 11.3512L9.67438 12.1804L9.82766 9.96805C9.84013 9.78656 9.78187 9.60729 9.6651 9.4678L8.24085 7.76812L10.3921 7.22999C10.5686 7.18589 10.7211 7.07509 10.8175 6.9209L11.9941 5.04093L13.171 6.9209C13.2674 7.07506 13.4199 7.18584 13.5963 7.22994L15.7476 7.76807L14.3233 9.4678Z" fill="white"/>
</svg>
