<svg width="234" height="258" viewBox="0 0 234 258" fill="none" xmlns="http://www.w3.org/2000/svg">
<path d="M133.229 244.124L133.245 244.115L133.26 244.106L208.057 200.82C208.058 200.82 208.059 200.819 208.06 200.819C213.063 197.932 217.214 193.774 220.099 188.769C222.984 183.763 224.5 178.085 224.499 172.307C224.499 172.306 224.499 172.305 224.499 172.304L224.499 85.7539C224.535 80.0263 223.077 74.3867 220.27 69.3946C217.456 64.3914 213.382 60.2114 208.451 57.2752L208.4 57.245L208.349 57.2154L133.547 13.9269C133.546 13.9261 133.544 13.9252 133.543 13.9244C133.542 13.9239 133.541 13.9234 133.541 13.9229C128.542 11.0264 122.87 9.5 117.093 9.5C111.317 9.5 105.645 11.0264 100.646 13.9229C100.646 13.9233 100.645 13.9237 100.644 13.9241C100.643 13.925 100.641 13.926 100.639 13.9269L25.8375 57.2154L25.815 57.2283L25.7927 57.2414C20.8272 60.1512 16.713 64.3145 13.8562 69.312C11.0001 74.3085 9.49937 79.9664 9.50065 85.7222C9.50065 85.7232 9.50065 85.7242 9.50065 85.7252L9.50065 172.275C9.46523 177.98 10.9063 183.599 13.6855 188.582C16.4712 193.576 20.5065 197.76 25.3981 200.719L25.4771 200.767L25.557 200.813L100.366 244.106L100.381 244.115L100.397 244.124C105.394 246.991 111.052 248.5 116.813 248.5C122.573 248.5 128.232 246.991 133.229 244.124Z" stroke="url(#paint0_linear_52_9)" stroke-width="19"/>
<defs>
<linearGradient id="paint0_linear_52_9" x1="224.5" y1="232" x2="1.00001" y2="26" gradientUnits="userSpaceOnUse">
<stop stop-color="#F55454"/>
<stop offset="1" stop-color="#FF9900"/>
</linearGradient>
</defs>
</svg>
