<svg width="24" height="24" viewBox="0 0 24 24" fill="none" xmlns="http://www.w3.org/2000/svg">
<path d="M4.34412 15.4308L2.07434 19.9697C2.0207 20.0769 1.99535 20.1961 2.0007 20.3159C2.00605 20.4357 2.04192 20.5521 2.1049 20.6541C2.16795 20.756 2.25598 20.8401 2.36064 20.8984C2.4653 20.9567 2.58312 20.9874 2.70293 20.9874H6.1173L8.16588 23.7188C8.29901 23.8969 8.50793 24 8.72782 24C9.01985 24 9.25005 23.8257 9.35698 23.6114L11.4959 19.3336C8.60407 19.057 6.05449 17.5908 4.34412 15.4308ZM22.9132 19.9697L20.6434 15.4308C18.933 17.5908 16.3834 19.0571 13.4917 19.3336L15.6307 23.6115C15.7375 23.8257 15.9677 24 16.2597 24C16.4796 24 16.6887 23.8969 16.8218 23.7188L18.8703 20.9873H22.2846C22.5283 20.9873 22.7543 20.8613 22.8826 20.6541C23.0106 20.4468 23.0223 20.1877 22.9132 19.9697ZM13.6706 6.92086L12.4938 5.04089L11.3173 6.92086C11.2208 7.075 11.0684 7.18577 10.8919 7.22991L8.74066 7.76803L10.1649 9.468C10.2817 9.60739 10.3399 9.78664 10.3272 9.96807L10.174 12.1804L12.2308 11.3513C12.3286 11.3119 12.5285 11.2594 12.7565 11.3513L14.8135 12.1804L14.6605 9.96807C14.648 9.78662 14.7063 9.6074 14.8231 9.468L16.2472 7.76808L14.0959 7.22996C13.9195 7.18579 13.7671 7.07501 13.6706 6.92086Z" fill="#FF9900"/>
<path d="M21.4813 8.98753C21.4813 4.03181 17.4495 0 12.4938 0C7.53804 0 3.50623 4.03181 3.50623 8.98753C3.50623 13.9432 7.53804 17.9751 12.4938 17.9751C17.4495 17.9751 21.4813 13.9433 21.4813 8.98753ZM18.0466 7.81003L16.083 10.1538L16.294 13.2039C16.3022 13.3228 16.28 13.4418 16.2297 13.5498C16.1793 13.6578 16.1023 13.7512 16.0059 13.8213C15.9095 13.8913 15.7968 13.9357 15.6786 13.9503C15.5603 13.9648 15.4402 13.9492 15.3297 13.9047L12.4938 12.7615L9.65782 13.9047C9.58188 13.9352 9.27916 14.0374 8.9816 13.8213C8.88524 13.7512 8.80826 13.6578 8.75788 13.5498C8.70751 13.4418 8.68539 13.3228 8.6936 13.2039L8.90491 10.1538L6.94132 7.81017C6.86476 7.71882 6.81268 7.60951 6.78997 7.4925C6.76726 7.37549 6.77467 7.25463 6.8115 7.14128C6.84832 7.02792 6.91336 6.92578 7.00051 6.84447C7.08765 6.76315 7.19403 6.70532 7.30966 6.67641L10.2756 5.93447L11.8977 3.34261C11.961 3.24162 12.0489 3.15835 12.1531 3.10064C12.2574 3.04292 12.3746 3.01264 12.4938 3.01264C12.6129 3.01264 12.7301 3.04292 12.8344 3.10064C12.9386 3.15835 13.0265 3.24162 13.0898 3.34261L14.7123 5.93447L17.6782 6.67641C17.7939 6.70533 17.9002 6.76318 17.9874 6.8445C18.0746 6.92582 18.1396 7.02795 18.1765 7.14131C18.2133 7.25464 18.2207 7.37546 18.198 7.49243C18.1753 7.6094 18.1232 7.71873 18.0466 7.81003Z" fill="#FF9900"/>
</svg>
