<svg width="24" height="24" viewBox="0 0 24 24" fill="none" xmlns="http://www.w3.org/2000/svg">
<g clip-path="url(#clip0_0_5423)">
<circle cx="12" cy="6" r="5" fill="#30C46C"/>
<path d="M11.9999 13.5182C4.78877 13.5182 0.817383 16.9296 0.817383 23.1241C0.817383 23.6079 1.20949 24 1.69329 24H22.3064C22.7902 24 23.1823 23.6079 23.1823 23.1241C23.1824 16.9299 19.211 13.5182 11.9999 13.5182ZM2.60107 22.2482C2.9456 17.6167 6.10324 15.2701 11.9999 15.2701C17.8965 15.2701 21.0542 17.6167 21.399 22.2482H2.60107ZM11.9999 0C8.68746 0 6.18968 2.54803 6.18968 5.92673C6.18968 9.40439 8.79612 12.2333 11.9999 12.2333C15.2036 12.2333 17.8101 9.40439 17.8101 5.92702C17.8101 2.54803 15.3123 0 11.9999 0ZM11.9999 10.4818C9.76193 10.4818 7.94149 8.43853 7.94149 5.92702C7.94149 3.50775 9.64835 1.75181 11.9999 1.75181C14.3138 1.75181 16.0583 3.54656 16.0583 5.92702C16.0583 8.43853 14.2378 10.4818 11.9999 10.4818Z" fill="#30C46C"/>
</g>
<defs>
<clipPath id="clip0_0_5423">
<rect width="24" height="24" fill="white"/>
</clipPath>
</defs>
</svg>
