<svg width="24" height="24" viewBox="0 0 24 24" fill="none" xmlns="http://www.w3.org/2000/svg">
<path d="M10.9379 1.93139C8.55344 1.93539 6.26777 2.88439 4.5817 4.57046C2.89562 6.25654 1.94662 8.5422 1.94263 10.9267C1.94462 13.3131 2.89249 15.6015 4.57857 17.2904C6.26465 18.9793 8.55143 19.9311 10.9379 19.9371C13.0544 19.9371 15.0047 19.1925 16.5467 17.9604L20.2922 21.7059C20.482 21.8823 20.7327 21.9783 20.9918 21.9738C21.2508 21.9693 21.4981 21.8645 21.6815 21.6815C21.865 21.4986 21.9704 21.2516 21.9756 20.9926C21.9808 20.7336 21.8855 20.4826 21.7096 20.2923L17.964 16.543C19.2433 14.9521 19.9407 12.9719 19.9407 10.9304C19.9407 5.97171 15.8966 1.93139 10.9379 1.93139ZM10.9379 3.93454C14.8157 3.93454 17.9376 7.05265 17.9376 10.9267C17.9376 14.8007 14.8157 17.9377 10.9379 17.9377C7.06011 17.9377 3.942 14.812 3.942 10.9342C3.942 7.05643 7.06011 3.93454 10.9379 3.93454Z" fill="black"/>
</svg>
