<svg width="24" height="24" viewBox="0 0 24 24" fill="none" xmlns="http://www.w3.org/2000/svg">
<path d="M4.77307 14.7225C4.77367 15.26 4.98745 15.7753 5.3675 16.1553C5.74755 16.5354 6.26285 16.7491 6.80032 16.7497C7.21478 16.7505 7.61939 16.6234 7.95907 16.386C7.97592 16.3752 7.99441 16.3672 8.01382 16.3624V14.5811C8.01382 13.2472 7.08757 12.5374 6.69157 12.234C6.69157 12.234 6.52582 12.1027 6.6552 11.943C6.75532 11.8192 6.91995 11.9355 6.91995 11.9355C7.18807 12.1414 7.67407 12.516 8.01382 13.1197V11.4277C8.01382 11.378 8.0336 11.3302 8.0688 11.295C8.104 11.2598 8.15173 11.2401 8.20151 11.2401C8.25129 11.2401 8.29903 11.2598 8.33423 11.295C8.36942 11.3302 8.3892 11.378 8.3892 11.4277V20.1495C8.63854 20.0086 8.91357 19.9191 9.19807 19.8862V16.2135C9.19743 16.2046 9.19743 16.1957 9.19807 16.1869V11.4277C9.19807 11.378 9.21785 11.3302 9.25305 11.295C9.28825 11.2598 9.33598 11.2401 9.38576 11.2401C9.43554 11.2401 9.48328 11.2598 9.51848 11.295C9.55368 11.3302 9.57345 11.378 9.57345 11.4277V14.3246C9.90307 13.767 10.3763 13.3354 10.6887 13.1621C10.7323 13.1383 10.7835 13.1326 10.8313 13.1462C10.879 13.1598 10.9196 13.1917 10.9441 13.2349C10.9683 13.2784 10.9742 13.3298 10.9606 13.3778C10.9469 13.4257 10.9148 13.4663 10.8713 13.4906C10.4326 13.7344 9.57382 14.6212 9.57382 15.5681V16.122C9.99187 16.5256 10.5505 16.7507 11.1316 16.7497C11.4956 16.7493 11.854 16.661 12.1766 16.4923C12.4991 16.3235 12.7761 16.0794 12.984 15.7807C13.1919 15.4819 13.3246 15.1374 13.3708 14.7763C13.4169 14.4153 13.3752 14.0485 13.2492 13.707C13.2381 13.6774 13.2346 13.6455 13.2391 13.6142C13.2437 13.5829 13.2561 13.5532 13.2752 13.528C13.2943 13.5028 13.3195 13.4829 13.3484 13.47C13.3773 13.4572 13.4089 13.4519 13.4404 13.4546C13.6699 13.4733 13.9007 13.4442 14.1184 13.3692C14.3361 13.2942 14.5359 13.175 14.7052 13.019C14.8745 12.863 15.0096 12.6736 15.1022 12.4628C15.1947 12.252 15.2425 12.0243 15.2427 11.7941C15.2427 11.1952 14.9183 10.6391 14.3956 10.3436C14.3657 10.3264 14.3411 10.3014 14.3244 10.2712C14.3078 10.2411 14.2997 10.2069 14.3011 10.1725C14.3025 10.138 14.3133 10.1046 14.3323 10.0759C14.3514 10.0472 14.3779 10.0242 14.4091 10.0095C14.7524 9.84989 15.0431 9.59565 15.247 9.27662C15.451 8.95759 15.5596 8.587 15.5603 8.20837C15.5592 7.77758 15.4183 7.3588 15.159 7.01484C14.8996 6.67089 14.5357 6.42032 14.1218 6.30074C14.0933 6.29258 14.067 6.27777 14.0453 6.25751C14.0236 6.23725 14.007 6.21213 13.9968 6.1842C13.9867 6.15628 13.9833 6.12635 13.987 6.09687C13.9907 6.06739 14.0013 6.0392 14.0179 6.01462C14.2664 5.64952 14.3989 5.21797 14.3982 4.77637C14.3977 4.40123 14.3014 4.03243 14.1186 3.70487C13.9357 3.3773 13.6723 3.1018 13.3533 2.90443C13.0343 2.70705 12.6702 2.59433 12.2955 2.57694C11.9207 2.55954 11.5478 2.63803 11.2118 2.80499C11.1892 2.81626 11.1645 2.82284 11.1392 2.82434C11.1139 2.82584 11.0886 2.82223 11.0648 2.81372C11.0409 2.80521 11.019 2.79199 11.0004 2.77483C10.9818 2.75767 10.9669 2.73694 10.9564 2.71387C10.7172 2.17941 10.3285 1.72552 9.83721 1.40683C9.34594 1.08815 8.77303 0.918256 8.18745 0.917618C6.51645 0.917618 5.1567 2.27699 5.1567 3.94837C5.1567 4.05449 5.16232 4.15987 5.17282 4.26337C5.17555 4.28953 5.17276 4.31598 5.16462 4.341C5.15648 4.36601 5.14318 4.38904 5.12557 4.40859C5.10797 4.42814 5.08645 4.44377 5.06242 4.45448C5.03839 4.46519 5.01238 4.47073 4.98607 4.47074C3.48232 4.47074 2.27295 5.68012 2.27295 7.16699C2.27295 7.95487 2.61607 8.70074 3.21457 9.21449C3.23638 9.23313 3.25362 9.25653 3.26497 9.28288C3.27631 9.30924 3.28146 9.33784 3.28001 9.36649C3.27856 9.39515 3.27056 9.42309 3.25661 9.44816C3.24267 9.47323 3.22315 9.49477 3.19957 9.51112C2.91357 9.71131 2.68003 9.97749 2.51873 10.2871C2.35743 10.5967 2.27312 10.9406 2.27295 11.2897C2.27326 11.6093 2.34407 11.9248 2.48032 12.2139C2.61657 12.5029 2.81491 12.7584 3.0612 12.962C3.30749 13.1656 3.59566 13.3123 3.90518 13.3918C4.21469 13.4712 4.53792 13.4814 4.85182 13.4216C4.8873 13.4146 4.92405 13.4181 4.95756 13.4317C4.99107 13.4453 5.01988 13.4684 5.04045 13.4981C5.08282 13.5581 5.08582 13.6376 5.04907 13.7014C4.86813 14.0111 4.77287 14.3638 4.77307 14.7225ZM17.7889 21.6345C17.3828 21.6345 16.9932 21.7845 16.6921 22.0564C16.6723 22.074 16.649 22.0873 16.6237 22.0954C16.5984 22.1034 16.5717 22.106 16.5453 22.1031C16.519 22.1001 16.4935 22.0916 16.4707 22.0781C16.4478 22.0646 16.4281 22.0465 16.4127 22.0249C16.2435 21.7835 16.0187 21.5864 15.7573 21.4503C15.4959 21.3141 15.2056 21.2429 14.9108 21.2426C14.6678 21.2419 14.4272 21.2899 14.203 21.3837C13.9789 21.4776 13.7758 21.6154 13.6058 21.789C13.5865 21.8087 13.563 21.8239 13.5371 21.8335C13.5112 21.843 13.4835 21.8468 13.456 21.8444C13.4285 21.8421 13.4018 21.8336 13.3779 21.8198C13.3541 21.8059 13.3335 21.787 13.3178 21.7642C13.2156 21.6183 13.0844 21.4951 12.9324 21.4022C12.7803 21.3094 12.6107 21.249 12.4342 21.2247C12.2577 21.2005 12.0781 21.213 11.9067 21.2615C11.7353 21.3099 11.5757 21.3932 11.4379 21.5062C11.4147 21.5255 11.3871 21.5388 11.3575 21.545C11.328 21.5513 11.2974 21.5504 11.2683 21.5423C11.2392 21.5342 11.2125 21.5191 11.1905 21.4985C11.1684 21.4779 11.1517 21.4522 11.1417 21.4237C11.0189 21.0772 10.7918 20.7771 10.4916 20.5648C10.1913 20.3525 9.83277 20.2383 9.46507 20.238C9.00684 20.2369 8.56597 20.4132 8.23483 20.7299C7.90369 21.0467 7.70798 21.4793 7.6887 21.9371C7.68743 21.9705 7.67724 22.003 7.65919 22.0312C7.64114 22.0593 7.61588 22.0822 7.58604 22.0973C7.5562 22.1124 7.52286 22.1192 7.48948 22.1171C7.4561 22.115 7.42389 22.104 7.3962 22.0852C7.16994 21.9346 6.90414 21.8544 6.63232 21.8546C5.93707 21.8546 5.36595 22.3729 5.2707 23.0426H19.4022C19.2897 22.2487 18.6132 21.6345 17.7889 21.6345Z" fill="#30C46C"/>
<path d="M20.9888 12.1384C20.9645 12.1221 20.9445 12.1004 20.9301 12.0749C20.9158 12.0495 20.9076 12.0211 20.9062 11.992C20.9049 11.9628 20.9103 11.9337 20.9222 11.9071C20.934 11.8804 20.9519 11.8569 20.9745 11.8384C21.453 11.442 21.7271 10.8667 21.7271 10.2604C21.7271 9.11287 20.7574 8.17912 19.5649 8.17912C19.5375 8.17916 19.5103 8.17367 19.485 8.16297C19.4598 8.15228 19.4369 8.1366 19.4179 8.11687C19.3993 8.0976 19.3849 8.07469 19.3756 8.04959C19.3663 8.02448 19.3623 7.99772 19.3639 7.971C19.3725 7.89112 19.377 7.8105 19.377 7.728C19.377 6.43612 18.2846 5.38425 16.9418 5.38425C16.1666 5.38425 15.4534 5.73675 14.994 6.32925C15.5708 6.7665 15.936 7.45575 15.936 8.20837C15.9353 8.60442 15.8352 8.99397 15.645 9.34137C15.4549 9.68878 15.1806 9.98295 14.8474 10.197C15.0874 10.3884 15.2813 10.6314 15.4147 10.9079C15.5481 11.1845 15.6176 11.4875 15.618 11.7945C15.6174 12.3175 15.4163 12.8203 15.0561 13.1995C14.696 13.5788 14.2042 13.8055 13.6819 13.833C13.8069 14.3157 13.7919 14.8241 13.6388 15.2987C13.4857 15.7732 13.2007 16.1945 12.8171 16.5131C13.0414 17.2391 13.7453 17.7577 14.5421 17.7577C15.0075 17.7577 15.4414 17.5852 15.7774 17.28V16.8682C15.7774 16.1749 15.1125 15.4702 14.7405 15.2704C14.7188 15.2587 14.6995 15.2429 14.6839 15.2238C14.6683 15.2047 14.6566 15.1827 14.6495 15.159C14.6424 15.1354 14.64 15.1106 14.6424 15.0861C14.6449 15.0615 14.6522 15.0377 14.6638 15.0159C14.6755 14.9942 14.6913 14.975 14.7104 14.9593C14.7295 14.9437 14.7515 14.932 14.7752 14.9249C14.7988 14.9178 14.8236 14.9154 14.8481 14.9178C14.8727 14.9203 14.8965 14.9276 14.9183 14.9392C15.1575 15.0679 15.5093 15.3769 15.777 15.7766V13.6117C15.777 13.5619 15.7968 13.514 15.8321 13.4788C15.8674 13.4435 15.9152 13.4237 15.9651 13.4237C16.015 13.4237 16.0628 13.4435 16.0981 13.4788C16.1333 13.514 16.1531 13.5619 16.1531 13.6117V21.2539C16.3163 21.3652 16.467 21.4961 16.5968 21.6495C16.6433 21.6157 16.6939 21.5891 16.7426 21.5595V13.6114C16.7426 13.5615 16.7624 13.5138 16.7977 13.4785C16.8329 13.4433 16.8807 13.4235 16.9305 13.4235C16.9803 13.4235 17.0281 13.4433 17.0634 13.4785C17.0986 13.5138 17.1184 13.5615 17.1184 13.6114V14.8245C17.3933 14.4011 17.7514 14.1285 17.9565 13.977C17.9968 13.947 18.0473 13.934 18.0971 13.9408C18.1468 13.9476 18.192 13.9737 18.2228 14.0134C18.2377 14.0327 18.2486 14.0548 18.2549 14.0784C18.2613 14.102 18.2628 14.1267 18.2595 14.1509C18.2563 14.1751 18.2482 14.1984 18.2358 14.2195C18.2235 14.2405 18.207 14.2589 18.1875 14.2736L18.18 14.2785C17.8624 14.514 17.1184 15.0641 17.1184 16.0916V17.4652C17.127 17.469 17.1368 17.4709 17.145 17.4765C17.4176 17.6602 17.7383 17.7574 18.0724 17.7574C18.9645 17.7574 19.6898 17.0599 19.6898 16.2026C19.6898 15.9281 19.614 15.6581 19.4715 15.4219C19.4527 15.3909 19.4432 15.3551 19.4443 15.3189C19.4454 15.2827 19.457 15.2476 19.4776 15.2178C19.4982 15.188 19.527 15.1648 19.5606 15.151C19.5941 15.1373 19.6309 15.1335 19.6665 15.1402C19.7723 15.1594 19.8821 15.1695 19.9939 15.1695C20.9494 15.1695 21.7271 14.4217 21.7271 13.5026C21.7271 12.9604 21.4515 12.4504 20.9888 12.1376V12.1384Z" fill="#30C46C"/>
</svg>
