<svg width="24" height="24" viewBox="0 0 24 24" fill="none" xmlns="http://www.w3.org/2000/svg">
<path fill-rule="evenodd" clip-rule="evenodd" d="M11.25 2C11.25 1.58579 11.5858 1.25 12 1.25C15.1756 1.25 17.75 3.82436 17.75 7C17.75 10.1756 15.1756 12.75 12 12.75C8.82436 12.75 6.25 10.1756 6.25 7C6.25 6.58579 6.58579 6.25 7 6.25C7.41421 6.25 7.75 6.58579 7.75 7C7.75 9.34721 9.65279 11.25 12 11.25C14.3472 11.25 16.25 9.34721 16.25 7C16.25 4.65279 14.3472 2.75 12 2.75C11.5858 2.75 11.25 2.41421 11.25 2Z" fill="#5E94FF"/>
<path fill-rule="evenodd" clip-rule="evenodd" d="M12 1.25C11.5858 1.25 11.25 1.58579 11.25 2C11.25 2.41421 11.5858 2.75 12 2.75V1.25ZM12 11.25V12.75C8.82436 12.75 6.25 10.1756 6.25 7C6.25 6.58579 6.58579 6.25 7 6.25C7.41421 6.25 7.75 6.58579 7.75 7C7.75 9.34721 9.65279 11.25 12 11.25Z" fill="#5485E5"/>
<path fill-rule="evenodd" clip-rule="evenodd" d="M12 3.25C12.4142 3.25 12.75 3.58579 12.75 4V6.25H15C15.4142 6.25 15.75 6.58579 15.75 7C15.75 7.41421 15.4142 7.75 15 7.75H12C11.5858 7.75 11.25 7.41421 11.25 7V4C11.25 3.58579 11.5858 3.25 12 3.25Z" fill="#8B98A6"/>
<path fill-rule="evenodd" clip-rule="evenodd" d="M12 3.25C11.5858 3.25 11.25 3.58579 11.25 4V7C11.25 7.41421 11.5858 7.75 12 7.75V3.25Z" fill="#7D8995"/>
<path fill-rule="evenodd" clip-rule="evenodd" d="M6.46967 6.46967C6.68182 6.25752 6.99998 6.19221 7.27854 6.30364L9.77854 7.30364C10.1631 7.45747 10.3502 7.89395 10.1964 8.27854C10.0425 8.66313 9.60604 8.85019 9.22146 8.69635L7.18063 7.88002L5.53033 9.53033C5.23744 9.82322 4.76256 9.82322 4.46967 9.53033C4.17678 9.23743 4.17678 8.76256 4.46967 8.46967L6.46967 6.46967Z" fill="#5485E5"/>
<path d="M2 14.25C1.58579 14.25 1.25 14.5858 1.25 15V22C1.25 22.4142 1.58579 22.75 2 22.75H20.5C21.7426 22.75 22.75 21.7426 22.75 20.5V19.7209C22.75 19.0374 22.4393 18.391 21.9056 17.964L18.0163 14.8526C17.5287 14.4625 16.9229 14.25 16.2984 14.25H2Z" fill="#5E94FF"/>
<path fill-rule="evenodd" clip-rule="evenodd" d="M12 14.25V22.75H2C1.58579 22.75 1.25 22.4142 1.25 22V15C1.25 14.5858 1.58579 14.25 2 14.25H12Z" fill="#5485E5"/>
<path fill-rule="evenodd" clip-rule="evenodd" d="M22.5296 18.75C22.3852 18.4481 22.1735 18.1784 21.9055 17.964L18.0163 14.8526C17.5287 14.4625 16.9228 14.25 16.2984 14.25H9.43945L10.4143 15.4685L10.4238 15.4801L12.9238 18.4801C13.0663 18.6511 13.2773 18.75 13.4999 18.75H22.5296Z" fill="#ECEFF1"/>
<path fill-rule="evenodd" clip-rule="evenodd" d="M12 14.25V17.3716L10.4238 15.4801L10.4143 15.4685L9.43945 14.25H12ZM8.40139 14.25H2C1.58579 14.25 1.25 14.5858 1.25 15V18.75H10C10.2766 18.75 10.5307 18.5978 10.6613 18.3539C10.7918 18.11 10.7775 17.8141 10.624 17.584L8.40139 14.25Z" fill="#CFD8DC"/>
</svg>
