<svg width="240" height="249" viewBox="0 0 240 249" fill="none" xmlns="http://www.w3.org/2000/svg">
<g clip-path="url(#clip0_0_1136)">
<path d="M240 246.503C240 246.559 186.293 246.671 119.972 246.671C53.7071 246.671 0 246.615 0 246.503C0 246.391 53.7071 246.335 120.028 246.335C186.293 246.391 240 246.447 240 246.503Z" fill="#263238"/>
<path d="M190.498 110.049H90.3154C88.2971 110.049 86.6153 108.423 86.6153 106.349V14.2393C86.6153 12.2211 88.2411 10.5393 90.3154 10.5393H190.442C192.46 10.5393 194.142 12.1651 194.142 14.2393V106.349C194.142 108.423 192.516 110.049 190.498 110.049Z" fill="white"/>
<path d="M190.498 110.049C190.498 110.049 190.61 110.049 190.778 110.049C190.946 110.049 191.226 109.993 191.563 109.881C191.899 109.768 192.292 109.6 192.684 109.32C193.076 109.04 193.525 108.591 193.805 107.974C194.142 107.358 194.198 106.629 194.142 105.788C194.142 104.947 194.142 104.05 194.142 103.041C194.142 101.079 194.142 98.7804 194.142 96.2015C194.142 85.8862 194.142 70.9738 194.085 52.5295C194.085 43.3354 194.085 33.1882 194.085 22.3683C194.085 19.6774 194.085 16.9303 194.085 14.1273C194.029 12.7818 193.076 11.4924 191.787 11.0439C191.17 10.7636 190.441 10.8196 189.713 10.8196C188.984 10.8196 188.255 10.8196 187.582 10.8196C181.808 10.8196 175.865 10.8196 169.755 10.8196C145.368 10.8196 118.57 10.8196 90.4275 10.8196C89.5866 10.8196 88.7456 11.156 88.129 11.6605C87.5123 12.2212 87.0638 13.006 86.9517 13.8469C86.8956 14.2394 86.8956 14.6879 86.8956 15.1364V16.4258C86.8956 17.3228 86.8956 18.1637 86.8956 19.0607C86.8956 22.5365 86.8956 26.0123 86.8956 29.4321C86.8956 36.2716 86.8956 43.0551 86.8956 49.6703C86.8956 62.957 86.8956 75.739 86.8956 87.9605C86.8956 94.0712 86.8956 100.014 86.8956 105.788C86.8956 106.124 86.8956 106.517 86.8956 106.853C86.9517 107.19 87.0077 107.526 87.1198 107.862C87.4002 108.479 87.8487 109.04 88.4093 109.432C88.9699 109.825 89.6426 110.049 90.3154 110.049C91.0442 110.049 91.7169 110.049 92.4457 110.049C95.2488 110.049 97.9958 110.049 100.743 110.049C111.563 110.049 121.71 110.049 130.904 110.049C149.348 110.049 164.261 110.105 174.576 110.105C179.734 110.105 183.714 110.105 186.461 110.105C187.807 110.105 188.872 110.105 189.544 110.105C190.105 110.049 190.498 110.049 190.498 110.049C190.498 110.049 190.161 110.049 189.432 110.049C188.76 110.049 187.694 110.049 186.349 110.049C183.658 110.049 179.622 110.049 174.464 110.049C164.149 110.049 149.236 110.049 130.792 110.105C121.598 110.105 111.451 110.105 100.631 110.105C97.9397 110.105 95.1367 110.105 92.3336 110.105C91.6048 110.105 90.932 110.105 90.2032 110.105C89.4744 110.105 88.7456 109.825 88.129 109.432C87.5123 109.04 87.0638 108.423 86.7835 107.75C86.6153 107.414 86.5592 107.021 86.5032 106.685C86.5032 106.293 86.5032 105.956 86.5032 105.62C86.5032 99.8455 86.5032 93.903 86.5032 87.7923C86.5032 75.5708 86.5032 62.7888 86.5032 49.5022C86.5032 42.8869 86.5032 36.1034 86.5032 29.2639C86.5032 25.8441 86.5032 22.3683 86.5032 18.8925C86.5032 18.0516 86.5032 17.1546 86.5032 16.2576V14.9682C86.5032 14.5197 86.5032 14.0712 86.5592 13.6227C86.6714 12.7257 87.1198 11.8848 87.8487 11.2681C88.5214 10.6514 89.4184 10.3151 90.3714 10.3151C118.514 10.3151 145.312 10.3151 169.699 10.3151C175.809 10.3151 181.752 10.3151 187.526 10.3151C188.255 10.3151 188.984 10.3151 189.657 10.3151C190.385 10.3151 191.114 10.259 191.787 10.5393C193.189 11.0439 194.198 12.3893 194.254 13.8469C194.254 16.65 194.254 19.3971 194.254 22.1441C194.254 32.964 194.254 43.1111 194.254 52.3052C194.254 70.7495 194.198 85.6619 194.198 95.9773C194.198 98.5561 194.198 100.855 194.198 102.817C194.198 103.826 194.198 104.723 194.198 105.564C194.198 106.405 194.142 107.19 193.805 107.806C193.525 108.423 193.076 108.871 192.684 109.208C192.292 109.544 191.843 109.656 191.507 109.768C191.17 109.881 190.89 109.881 190.722 109.881C190.554 110.049 190.498 110.049 190.498 110.049Z" fill="#263238"/>
<path d="M94.8003 17.4348C94.8003 18.4439 93.9594 19.2848 92.9503 19.2848C91.9411 19.2848 91.1002 18.4439 91.1002 17.4348C91.1002 16.4257 91.9411 15.5848 92.9503 15.5848C93.9594 15.5848 94.8003 16.4257 94.8003 17.4348Z" fill="#263238"/>
<path d="M98.3321 19.2848C99.3539 19.2848 100.182 18.4566 100.182 17.4348C100.182 16.4131 99.3539 15.5848 98.3321 15.5848C97.3104 15.5848 96.4821 16.4131 96.4821 17.4348C96.4821 18.4566 97.3104 19.2848 98.3321 19.2848Z" fill="#263238"/>
<path d="M103.77 19.2848C104.792 19.2848 105.62 18.4566 105.62 17.4348C105.62 16.4131 104.792 15.5848 103.77 15.5848C102.748 15.5848 101.92 16.4131 101.92 17.4348C101.92 18.4566 102.748 19.2848 103.77 19.2848Z" fill="#263238"/>
<path d="M194.142 22.7046C194.142 22.7606 170.091 22.8728 140.378 22.8728C110.666 22.8728 86.6153 22.8167 86.6153 22.7046C86.6153 22.6485 110.666 22.5364 140.378 22.5364C170.091 22.5925 194.142 22.6485 194.142 22.7046Z" fill="#263238"/>
<path d="M155.571 60.2097C155.571 60.2097 155.627 60.1536 155.683 60.0415C155.683 59.9854 155.739 59.9854 155.739 59.9293C155.739 59.8733 155.795 59.8733 155.795 59.8172C155.851 59.7051 155.908 59.649 155.964 59.4809C155.964 59.4248 156.02 59.3687 156.02 59.2566C156.02 59.2005 156.076 59.0884 156.076 59.0324C156.076 58.9763 156.132 58.8642 156.132 58.7521C156.132 58.6399 156.188 58.5839 156.188 58.4717C156.244 58.0793 156.188 57.5748 156.132 57.0702C155.964 56.005 155.515 54.7717 154.842 53.4823C154.17 52.1368 153.217 50.6792 152.095 49.2216C150.974 47.7079 149.573 46.1942 148.003 44.6245C146.433 43.0548 144.639 41.4851 142.621 40.0274C141.612 39.2986 140.547 38.5698 139.425 37.8971C138.304 37.2244 137.127 36.6077 135.894 36.0471C134.66 35.4865 133.315 35.038 131.969 34.8137C131.296 34.7016 130.568 34.6455 129.895 34.7577C129.559 34.8137 129.222 34.9258 128.886 35.038C128.549 35.2061 128.269 35.3743 128.045 35.6546C127.821 35.9349 127.652 36.2153 127.54 36.5516C127.428 36.888 127.372 37.2244 127.372 37.6168C127.372 38.3456 127.484 39.0183 127.652 39.6911C128.045 41.0366 128.662 42.2699 129.334 43.4472C130.007 44.6245 130.792 45.6897 131.577 46.7549C132.362 47.764 133.203 48.7731 134.043 49.6701C135.725 51.5201 137.519 53.0898 139.201 54.4914C140.939 55.8929 142.621 57.0702 144.247 58.0232C145.872 58.9763 147.386 59.7612 148.788 60.2657C150.189 60.7703 151.479 61.1066 152.544 61.1066C153.048 61.1066 153.553 61.1066 153.945 60.9945C154.057 60.9945 154.114 60.9385 154.226 60.9385C154.338 60.9385 154.394 60.8824 154.506 60.8824C154.562 60.8263 154.674 60.8263 154.73 60.7703C154.786 60.7142 154.842 60.7142 154.898 60.6581C155.011 60.6021 155.123 60.546 155.179 60.4339C155.235 60.3778 155.235 60.3778 155.291 60.3218C155.347 60.2657 155.347 60.2657 155.403 60.2657C155.515 60.2657 155.571 60.2097 155.571 60.2097C155.571 60.2097 155.515 60.2657 155.403 60.3778C155.403 60.3778 155.347 60.4339 155.291 60.49C155.235 60.546 155.235 60.546 155.179 60.6021C155.067 60.6581 155.011 60.7703 154.898 60.8263C154.842 60.8824 154.786 60.8824 154.73 60.9385C154.674 60.9945 154.562 60.9945 154.506 61.0506C154.45 61.1066 154.338 61.1066 154.226 61.1627C154.114 61.1627 154.057 61.2188 153.945 61.2188C153.553 61.3309 153.048 61.3309 152.544 61.3309C151.479 61.2748 150.189 60.9945 148.788 60.49C147.386 59.9854 145.816 59.2005 144.191 58.2475C142.565 57.2944 140.883 56.1171 139.145 54.7156C137.407 53.3141 135.669 51.7443 133.931 49.8943C133.09 48.9973 132.25 47.9882 131.465 46.9791C130.68 45.97 129.895 44.8488 129.222 43.6715C128.549 42.4942 127.933 41.2608 127.54 39.8593C127.372 39.1865 127.204 38.4577 127.26 37.7289C127.26 37.3926 127.316 37.0001 127.428 36.6637C127.54 36.3274 127.709 35.991 127.989 35.7107C128.213 35.4304 128.549 35.2061 128.886 35.094C129.222 34.9258 129.559 34.8698 129.895 34.8137C130.624 34.7016 131.296 34.7577 132.025 34.8698C133.427 35.094 134.716 35.5425 136.006 36.1031C137.239 36.6637 138.416 37.2804 139.538 37.9532C140.659 38.6259 141.724 39.3547 142.733 40.0835C144.751 41.5411 146.545 43.1108 148.115 44.6806C149.685 46.2503 151.086 47.82 152.207 49.2776C153.329 50.7913 154.282 52.2489 154.954 53.5944C155.627 54.9399 156.076 56.1732 156.244 57.2384C156.3 57.7429 156.356 58.2475 156.3 58.6399C156.3 58.752 156.244 58.8642 156.244 58.9202C156.244 59.0324 156.188 59.0884 156.188 59.2005C156.188 59.2566 156.132 59.3687 156.132 59.4248C156.132 59.4809 156.076 59.593 156.076 59.649C156.02 59.7612 155.964 59.8733 155.908 59.9854C155.908 60.0415 155.851 60.0975 155.851 60.0975C155.851 60.1536 155.795 60.1536 155.795 60.2097C155.627 60.1536 155.571 60.2097 155.571 60.2097Z" fill="#F55454"/>
<path d="M160.673 47.932C160.673 47.932 160.673 47.8759 160.673 47.7077C160.673 47.6517 160.673 47.6517 160.673 47.5956C160.673 47.5396 160.673 47.4835 160.617 47.4274C160.617 47.3153 160.561 47.2032 160.505 47.0911C160.505 47.035 160.449 46.9789 160.449 46.8668C160.392 46.8108 160.392 46.6986 160.336 46.6426C160.28 46.5865 160.28 46.4744 160.224 46.4183C160.168 46.3623 160.112 46.2501 160.056 46.1941C159.832 45.8577 159.495 45.5213 159.103 45.185C158.262 44.5122 157.141 43.8956 155.739 43.3349C154.338 42.7743 152.712 42.3258 150.862 41.9895C149.012 41.6531 146.938 41.3728 144.751 41.2607C142.509 41.1485 140.154 41.2046 137.688 41.4288C136.454 41.541 135.165 41.7091 133.875 41.9334C132.586 42.1576 131.296 42.494 130.007 42.8864C128.718 43.3349 127.428 43.8395 126.251 44.5683C125.69 44.9607 125.13 45.4092 124.625 45.9138C124.401 46.1941 124.233 46.4744 124.065 46.8108C123.952 47.1471 123.84 47.4835 123.84 47.8199C123.84 48.1562 123.952 48.5487 124.065 48.829C124.233 49.1653 124.401 49.4456 124.625 49.726C125.074 50.2866 125.634 50.679 126.251 51.0714C127.428 51.8002 128.718 52.3609 130.007 52.7533C131.296 53.1457 132.586 53.4821 133.875 53.7063C135.165 53.9306 136.454 54.0988 137.688 54.2109C140.154 54.4351 142.565 54.4912 144.751 54.3791C146.994 54.2669 149.012 54.0427 150.862 53.6503C152.712 53.3139 154.394 52.8654 155.739 52.3048C157.141 51.7442 158.262 51.1275 159.103 50.4548C159.495 50.1184 159.832 49.782 160.056 49.4456C160.112 49.3896 160.168 49.2775 160.224 49.2214C160.28 49.1653 160.336 49.0532 160.336 48.9972C160.392 48.9411 160.392 48.829 160.449 48.7729C160.505 48.7168 160.505 48.6047 160.505 48.5487C160.561 48.4365 160.561 48.3244 160.617 48.2123C160.617 48.1562 160.617 48.1002 160.673 48.0441C160.673 47.988 160.673 47.988 160.673 47.932C160.673 47.988 160.673 47.932 160.673 47.932C160.673 47.932 160.673 47.988 160.673 48.1562C160.673 48.2123 160.673 48.2123 160.673 48.2684C160.673 48.3244 160.673 48.3805 160.673 48.4365C160.673 48.5487 160.617 48.6608 160.561 48.7729C160.561 48.829 160.505 48.885 160.505 48.9972C160.449 49.0532 160.449 49.1653 160.392 49.2214C160.336 49.2775 160.336 49.3896 160.28 49.4456C160.224 49.5017 160.168 49.6138 160.112 49.6699C159.888 50.0063 159.552 50.3426 159.159 50.679C158.318 51.3517 157.197 51.9684 155.795 52.529C154.394 53.0897 152.768 53.5381 150.918 53.9306C149.068 54.2669 146.994 54.5473 144.807 54.6594C142.565 54.7715 140.21 54.7715 137.744 54.4912C136.51 54.3791 135.221 54.2109 133.931 53.9866C132.642 53.7624 131.353 53.426 130.063 53.0336C128.774 52.5851 127.484 52.0805 126.307 51.3517C125.69 50.9593 125.13 50.5108 124.681 49.9502C124.457 49.6699 124.233 49.3896 124.121 49.0532C124.008 48.7168 123.896 48.3805 123.896 47.988C123.896 47.5956 124.008 47.2592 124.121 46.9229C124.289 46.5865 124.457 46.3062 124.681 46.0259C125.13 45.4653 125.69 45.0168 126.307 44.6243C127.484 43.8395 128.774 43.3349 130.063 42.9425C131.353 42.5501 132.642 42.2137 133.931 41.9895C135.221 41.7652 136.51 41.597 137.744 41.4849C140.21 41.2607 142.621 41.2046 144.807 41.3167C147.05 41.4288 149.068 41.6531 150.918 42.0455C152.768 42.3819 154.45 42.8864 155.851 43.4471C157.253 44.0077 158.374 44.6244 159.215 45.2971C159.608 45.6335 159.944 45.9698 160.168 46.3062C160.224 46.3623 160.28 46.4744 160.336 46.5304C160.392 46.5865 160.449 46.6986 160.449 46.7547C160.505 46.8108 160.505 46.9229 160.561 46.9789C160.617 47.035 160.617 47.1471 160.617 47.2032C160.673 47.3153 160.673 47.4274 160.729 47.5396C160.729 47.5956 160.729 47.6517 160.729 47.7077C160.729 47.7638 160.729 47.8199 160.729 47.8199C160.673 47.8759 160.673 47.932 160.673 47.932Z" fill="#F55454"/>
<path d="M153.945 32.6273C153.945 32.6273 153.889 32.5713 153.777 32.5152C153.721 32.5152 153.721 32.4592 153.665 32.4592C153.609 32.4592 153.609 32.4031 153.553 32.4031C153.441 32.347 153.329 32.291 153.217 32.2349C153.161 32.2349 153.104 32.1789 152.992 32.1789C152.936 32.1789 152.824 32.1228 152.768 32.1228C152.712 32.1228 152.6 32.0667 152.488 32.0667C152.376 32.0667 152.32 32.0667 152.207 32.0667C151.815 32.0667 151.31 32.1228 150.806 32.2349C149.797 32.4592 148.563 33.0198 147.274 33.7486C145.985 34.5334 144.639 35.5426 143.182 36.7759C141.78 38.0093 140.322 39.5229 138.865 41.2048C137.407 42.8866 136.006 44.7927 134.66 46.867C133.987 47.9322 133.371 49.0534 132.754 50.1747C132.137 51.3519 131.633 52.5292 131.128 53.8187C130.68 55.1081 130.287 56.4536 130.175 57.8551C130.119 58.5278 130.119 59.2566 130.287 59.9294C130.343 60.2658 130.456 60.6021 130.624 60.9385C130.792 61.2188 131.016 61.4991 131.296 61.7234C131.577 61.9476 131.913 62.0597 132.25 62.1719C132.586 62.2279 132.922 62.284 133.315 62.284C134.044 62.284 134.716 62.0597 135.389 61.8355C136.734 61.387 137.912 60.6582 139.033 59.9294C140.154 59.1445 141.219 58.3036 142.172 57.4627C143.125 56.6217 144.079 55.7248 144.919 54.7717C146.601 52.9777 148.115 51.0716 149.404 49.2777C150.694 47.4837 151.759 45.6897 152.6 44.0079C153.441 42.326 154.114 40.7563 154.506 39.2987C154.955 37.8411 155.123 36.5517 155.123 35.5426C155.123 35.038 155.067 34.5334 154.954 34.141C154.954 34.0289 154.898 33.9728 154.842 33.8607C154.786 33.7486 154.786 33.6925 154.73 33.6365C154.674 33.5804 154.674 33.4683 154.618 33.4122C154.562 33.3561 154.562 33.3001 154.506 33.244C154.45 33.1319 154.338 33.0198 154.282 32.9637C154.226 32.9077 154.226 32.9077 154.17 32.8516C154.114 32.7955 154.114 32.7955 154.058 32.7955C154.001 32.6834 153.945 32.6273 153.945 32.6273C153.945 32.6273 154.001 32.6834 154.114 32.7955C154.114 32.7955 154.17 32.8516 154.226 32.8516C154.282 32.9077 154.282 32.9077 154.338 32.9637C154.394 33.0198 154.506 33.1319 154.562 33.244C154.618 33.3001 154.618 33.3561 154.674 33.4122C154.73 33.4683 154.73 33.5804 154.786 33.6365C154.842 33.6925 154.842 33.8046 154.898 33.8607C154.954 33.9728 154.955 34.0289 155.011 34.141C155.123 34.5334 155.179 34.9819 155.235 35.5426C155.291 36.6077 155.067 37.8971 154.618 39.3547C154.226 40.8123 153.553 42.3821 152.712 44.0639C151.871 45.7458 150.806 47.5398 149.517 49.3337C148.227 51.1277 146.77 53.0338 145.032 54.8278C144.191 55.7248 143.238 56.6217 142.285 57.5187C141.332 58.4157 140.266 59.2006 139.145 59.9854C138.024 60.7703 136.791 61.443 135.501 61.9476C134.828 62.1719 134.156 62.34 133.427 62.3961C133.09 62.3961 132.698 62.3961 132.362 62.284C132.025 62.1719 131.689 62.0037 131.409 61.8355C131.128 61.6112 130.904 61.3309 130.736 60.9946C130.568 60.6582 130.456 60.3218 130.343 59.9854C130.175 59.2566 130.175 58.5839 130.231 57.8551C130.343 56.4536 130.736 55.1081 131.184 53.8187C131.633 52.5292 132.193 51.2959 132.81 50.1747C133.427 48.9974 134.044 47.8761 134.716 46.867C136.062 44.7367 137.519 42.8866 138.921 41.1487C140.378 39.4669 141.836 38.0093 143.238 36.7198C144.639 35.4865 146.041 34.4774 147.33 33.6925C148.62 32.9077 149.797 32.4031 150.862 32.1789C151.367 32.0667 151.871 32.0107 152.264 32.0107C152.376 32.0107 152.488 32.0107 152.544 32.0107C152.656 32.0107 152.712 32.0107 152.824 32.0667C152.936 32.0667 152.992 32.1228 153.048 32.1228C153.104 32.1228 153.217 32.1789 153.273 32.1789C153.385 32.2349 153.497 32.291 153.609 32.347C153.665 32.347 153.721 32.4031 153.721 32.4031C153.777 32.4031 153.777 32.4592 153.833 32.4592C153.889 32.5713 153.945 32.6273 153.945 32.6273Z" fill="#F55454"/>
<path d="M123.56 55.5565C123.84 55.8368 123.84 56.2853 123.56 56.5095C123.28 56.7899 122.831 56.7899 122.607 56.5095C122.327 56.2292 122.327 55.7807 122.607 55.5565C122.887 55.2762 123.28 55.2762 123.56 55.5565Z" fill="#F55454"/>
<path d="M162.242 34.309C162.242 34.7014 161.962 34.9818 161.57 34.9818C161.177 34.9818 160.897 34.7014 160.897 34.309C160.897 33.9166 161.177 33.6363 161.57 33.6363C161.962 33.6363 162.242 33.9166 162.242 34.309Z" fill="#F55454"/>
<path d="M127.877 57.7993C127.877 57.9114 127.821 57.9675 127.708 57.9675C127.596 57.9675 127.54 57.9114 127.54 57.7993C127.54 57.6872 127.596 57.6311 127.708 57.6311C127.821 57.6311 127.877 57.6872 127.877 57.7993Z" fill="#F55454"/>
<path d="M131.633 38.5697C131.633 38.6818 131.577 38.7379 131.465 38.7379C131.353 38.7379 131.297 38.6818 131.297 38.5697C131.297 38.4576 131.353 38.4015 131.465 38.4015C131.521 38.4015 131.633 38.5137 131.633 38.5697Z" fill="#F55454"/>
<path d="M158.823 47.9323C158.823 48.0444 158.767 48.1005 158.655 48.1005C158.542 48.1005 158.486 48.0444 158.486 47.9323C158.486 47.8202 158.542 47.7641 158.655 47.7641C158.711 47.7641 158.823 47.8202 158.823 47.9323Z" fill="#F55454"/>
<path d="M161.233 39.8034C161.233 39.9155 161.177 39.9716 161.065 39.9716C160.953 39.9716 160.897 39.9155 160.897 39.8034C160.897 39.6913 160.953 39.6352 161.065 39.6352C161.121 39.6352 161.233 39.6913 161.233 39.8034Z" fill="#F55454"/>
<path d="M149.46 51.7444H147.33V40.0276C147.33 37.2805 145.088 35.0381 142.341 35.0381C139.594 35.0381 137.351 37.2805 137.351 40.0276V51.7444H135.221V40.0276C135.221 36.1032 138.416 32.8517 142.397 32.8517C146.377 32.8517 149.573 36.0472 149.573 40.0276V51.7444H149.46Z" fill="#F55454"/>
<g opacity="0.3">
<g opacity="0.3">
<g opacity="0.3">
<path opacity="0.3" d="M149.46 51.7444H147.33V40.0276C147.33 37.2805 145.088 35.0381 142.341 35.0381C139.594 35.0381 137.351 37.2805 137.351 40.0276V51.7444H135.221V40.0276C135.221 36.1032 138.416 32.8517 142.397 32.8517C146.377 32.8517 149.573 36.0472 149.573 40.0276V51.7444H149.46Z" fill="black"/>
</g>
</g>
</g>
<path d="M150.694 58.9202H133.931C133.259 58.9202 132.642 58.3596 132.642 57.6308V47.82C132.642 47.1473 133.203 46.5306 133.931 46.5306H150.694C151.367 46.5306 151.983 47.0912 151.983 47.82V57.6869C151.983 58.3596 151.423 58.9202 150.694 58.9202Z" fill="#F55454"/>
<g opacity="0.3">
<g opacity="0.3">
<path opacity="0.3" d="M143.91 51.128C143.91 50.231 143.182 49.5022 142.285 49.5022C141.388 49.5022 140.659 50.231 140.659 51.128C140.659 51.8568 141.163 52.4735 141.836 52.6977V55.1084H142.733V52.6977C143.462 52.4735 143.91 51.8568 143.91 51.128Z" fill="black"/>
</g>
</g>
<path d="M133.707 57.743C133.651 57.743 133.651 55.6687 133.651 53.146C133.651 50.6232 133.707 48.5489 133.707 48.5489C133.763 48.5489 133.763 50.6232 133.763 53.146C133.763 55.6687 133.763 57.743 133.707 57.743Z" fill="#FAFAFA"/>
<path d="M141.051 53.2018C141.051 53.2018 140.995 53.2018 140.883 53.0897C140.771 53.0336 140.603 52.8655 140.491 52.6412C140.21 52.2488 139.93 51.52 140.098 50.7351C140.266 49.9503 140.827 49.4457 141.275 49.2215C141.5 49.1093 141.724 49.0533 141.836 49.0533C141.948 49.0533 142.06 49.0533 142.06 49.0533C142.06 49.1093 141.78 49.1093 141.331 49.3336C140.939 49.5578 140.378 50.0624 140.21 50.7912C140.042 51.52 140.266 52.1927 140.547 52.5852C140.827 52.9776 141.107 53.1458 141.051 53.2018Z" fill="#FAFAFA"/>
<path d="M170.988 80.6161H111.563C108.704 80.6161 106.349 78.2615 106.349 75.4024V74.7857C106.349 71.9266 108.704 69.572 111.563 69.572H170.988C173.847 69.572 176.202 71.9266 176.202 74.7857V75.4024C176.202 78.2615 173.847 80.6161 170.988 80.6161Z" fill="#F5F5F5"/>
<path d="M171.493 95.809H112.067C109.208 95.809 106.854 93.4544 106.854 90.5953V89.9786C106.854 87.1194 109.208 84.7648 112.067 84.7648H171.493C174.352 84.7648 176.706 87.1194 176.706 89.9786V90.5953C176.706 93.5105 174.352 95.809 171.493 95.809Z" fill="#F5F5F5"/>
<path d="M117.393 75.0104V73.3846H118.066V74.9543C118.066 75.5149 118.29 75.7392 118.683 75.7392C119.075 75.7392 119.299 75.5149 119.299 74.9543V73.3846H119.972V75.0104C119.972 75.8513 119.467 76.2998 118.683 76.2998C117.842 76.2998 117.393 75.8513 117.393 75.0104Z" fill="#263238"/>
<path d="M120.364 76.0195L120.589 75.571C120.813 75.6831 121.093 75.7952 121.373 75.7952C121.654 75.7952 121.766 75.7392 121.766 75.571C121.766 75.2346 120.42 75.571 120.42 74.674C120.42 74.2816 120.813 73.9452 121.43 73.9452C121.71 73.9452 122.046 74.0013 122.27 74.1134L122.046 74.5619C121.822 74.4497 121.598 74.3937 121.43 74.3937C121.149 74.3937 121.037 74.5058 121.037 74.6179C121.037 75.0104 122.383 74.6179 122.383 75.5149C122.383 75.9073 121.99 76.1876 121.317 76.1876C120.981 76.2998 120.589 76.1876 120.364 76.0195Z" fill="#263238"/>
<path d="M124.905 75.3463H123.224C123.28 75.6266 123.504 75.7948 123.84 75.7948C124.064 75.7948 124.233 75.7387 124.401 75.5705L124.737 75.963C124.513 76.1872 124.233 76.2993 123.84 76.2993C123.055 76.2993 122.607 75.7948 122.607 75.1781C122.607 74.5054 123.111 74.0569 123.784 74.0569C124.457 74.0569 124.905 74.5054 124.905 75.1781C124.905 75.1781 124.905 75.2902 124.905 75.3463ZM123.224 74.9539H124.289C124.233 74.6736 124.008 74.5054 123.728 74.5054C123.504 74.5054 123.28 74.6736 123.224 74.9539Z" fill="#263238"/>
<path d="M126.699 74.0014V74.6181C126.643 74.6181 126.587 74.6181 126.531 74.6181C126.195 74.6181 125.971 74.7863 125.971 75.2348V76.2999H125.354V74.1135H125.971V74.3938C126.139 74.1135 126.363 74.0014 126.699 74.0014Z" fill="#263238"/>
<path d="M129.334 75.0106V76.3H128.718V75.1227C128.718 74.7863 128.549 74.6181 128.269 74.6181C127.989 74.6181 127.765 74.7863 127.765 75.2348V76.3H127.148V74.1136H127.765V74.3939C127.933 74.2257 128.213 74.1136 128.493 74.1136C128.942 74.0015 129.334 74.3378 129.334 75.0106Z" fill="#263238"/>
<path d="M131.857 75.0104V76.2437H131.24V75.9634C131.128 76.1877 130.904 76.2437 130.568 76.2437C130.063 76.2437 129.727 75.9634 129.727 75.571C129.727 75.1786 130.007 74.8982 130.68 74.8982H131.184C131.184 74.6179 131.016 74.4498 130.68 74.4498C130.455 74.4498 130.231 74.5058 130.063 74.674L129.839 74.2255C130.063 74.0573 130.455 73.9452 130.792 73.9452C131.465 74.0013 131.857 74.3376 131.857 75.0104ZM131.24 75.571V75.3467H130.792C130.512 75.3467 130.399 75.4589 130.399 75.627C130.399 75.7952 130.512 75.9073 130.736 75.9073C130.96 75.8513 131.184 75.7392 131.24 75.571Z" fill="#263238"/>
<path d="M136.174 75.0106V76.3H135.557V75.1227C135.557 74.7863 135.389 74.6181 135.165 74.6181C134.884 74.6181 134.66 74.7863 134.66 75.1788V76.3H133.987V75.1227C133.987 74.7863 133.819 74.6181 133.595 74.6181C133.315 74.6181 133.09 74.7863 133.09 75.1788V76.3H132.474V74.1136H133.09V74.3939C133.259 74.2257 133.483 74.1136 133.763 74.1136C134.043 74.1136 134.324 74.2257 134.492 74.45C134.66 74.2257 134.94 74.1136 135.277 74.1136C135.781 74.0015 136.174 74.3378 136.174 75.0106Z" fill="#263238"/>
<path d="M138.921 75.3463H137.239C137.295 75.6266 137.519 75.7948 137.856 75.7948C138.08 75.7948 138.248 75.7387 138.416 75.5705L138.753 75.963C138.528 76.1872 138.248 76.2993 137.856 76.2993C137.071 76.2993 136.622 75.7948 136.622 75.1781C136.622 74.5054 137.127 74.0569 137.8 74.0569C138.472 74.0569 138.921 74.5054 138.921 75.1781C138.921 75.1781 138.921 75.2902 138.921 75.3463ZM137.239 74.9539H138.304C138.248 74.6736 138.024 74.5054 137.743 74.5054C137.519 74.5054 137.295 74.6736 137.239 74.9539Z" fill="#263238"/>
<path d="M143.125 75.1222C143.125 75.851 142.789 76.2995 142.285 76.2995C142.004 76.2995 141.836 76.1873 141.724 75.9631C141.556 76.1873 141.332 76.2995 141.051 76.2995C140.547 76.2995 140.098 75.907 140.098 75.2904C140.098 74.6737 140.491 74.2812 141.051 74.2812C141.332 74.2812 141.556 74.3934 141.668 74.5616V74.3373H142.228V75.6828C142.228 75.907 142.341 75.9631 142.453 75.9631C142.621 75.9631 142.733 75.7389 142.733 75.2904C142.733 74.4494 142.116 73.8888 141.219 73.8888C140.322 73.8888 139.706 74.5055 139.706 75.3464C139.706 76.2434 140.322 76.8601 141.219 76.8601C141.5 76.8601 141.78 76.804 142.004 76.6919L142.116 77.0843C141.892 77.1965 141.5 77.3086 141.163 77.3086C139.986 77.3086 139.201 76.5237 139.201 75.4025C139.201 74.3373 139.986 73.5524 141.163 73.5524C142.341 73.3282 143.125 74.1131 143.125 75.1222ZM141.668 75.2343C141.668 74.8979 141.444 74.6737 141.163 74.6737C140.883 74.6737 140.659 74.8979 140.659 75.2343C140.659 75.5707 140.883 75.7949 141.163 75.7949C141.444 75.7949 141.668 75.6267 141.668 75.2343Z" fill="#263238"/>
<path d="M147.33 75.0106V76.3H146.713V75.1227C146.713 74.7863 146.545 74.6181 146.321 74.6181C146.041 74.6181 145.816 74.7863 145.816 75.1788V76.3H145.2V75.1227C145.2 74.7863 145.032 74.6181 144.807 74.6181C144.527 74.6181 144.303 74.7863 144.303 75.1788V76.3H143.686V74.1136H144.303V74.3939C144.471 74.2257 144.695 74.1136 144.976 74.1136C145.256 74.1136 145.536 74.2257 145.704 74.45C145.873 74.2257 146.153 74.1136 146.489 74.1136C146.938 74.0015 147.33 74.3378 147.33 75.0106Z" fill="#263238"/>
<path d="M149.853 75.0104V76.2437H149.236V75.9634C149.124 76.1877 148.9 76.2437 148.563 76.2437C148.059 76.2437 147.722 75.9634 147.722 75.571C147.722 75.1786 148.003 74.8982 148.676 74.8982H149.18C149.18 74.6179 149.012 74.4498 148.676 74.4498C148.451 74.4498 148.227 74.5058 148.059 74.674L147.835 74.2255C148.059 74.0573 148.451 73.9452 148.788 73.9452C149.46 74.0013 149.853 74.3376 149.853 75.0104ZM149.236 75.571V75.3467H148.788C148.507 75.3467 148.395 75.4589 148.395 75.627C148.395 75.7952 148.507 75.9073 148.732 75.9073C148.956 75.8513 149.124 75.7392 149.236 75.571Z" fill="#263238"/>
<path d="M150.357 73.3845C150.357 73.1602 150.526 73.0481 150.75 73.0481C150.974 73.0481 151.142 73.2163 151.142 73.3845C151.142 73.6087 150.974 73.7769 150.75 73.7769C150.526 73.7769 150.357 73.6087 150.357 73.3845ZM150.413 74.0572H151.03V76.2436H150.413V74.0572Z" fill="#263238"/>
<path d="M151.647 73.216H152.263V76.2434H151.647V73.216Z" fill="#263238"/>
<path d="M152.768 75.9071C152.768 75.6829 152.936 75.5147 153.16 75.5147C153.385 75.5147 153.553 75.6829 153.553 75.9071C153.553 76.1314 153.385 76.2996 153.16 76.2996C152.936 76.2996 152.768 76.1314 152.768 75.9071Z" fill="#263238"/>
<path d="M153.777 75.1227C153.777 74.4499 154.282 74.0014 155.011 74.0014C155.459 74.0014 155.851 74.2257 156.02 74.562L155.515 74.8423C155.403 74.6181 155.235 74.562 155.011 74.562C154.674 74.562 154.45 74.7863 154.45 75.1787C154.45 75.5712 154.73 75.7954 155.011 75.7954C155.235 75.7954 155.403 75.6833 155.515 75.5151L156.02 75.7954C155.851 76.1318 155.515 76.356 155.011 76.356C154.282 76.2999 153.777 75.7954 153.777 75.1227Z" fill="#263238"/>
<path d="M156.188 75.1227C156.188 74.4499 156.692 74.0014 157.421 74.0014C158.15 74.0014 158.655 74.4499 158.655 75.1227C158.655 75.7954 158.15 76.2439 157.421 76.2439C156.692 76.2439 156.188 75.7954 156.188 75.1227ZM157.926 75.1227C157.926 74.7302 157.701 74.506 157.365 74.506C157.029 74.506 156.804 74.7302 156.804 75.1227C156.804 75.5151 157.029 75.7393 157.365 75.7393C157.701 75.7393 157.926 75.5151 157.926 75.1227Z" fill="#263238"/>
<path d="M162.747 75.0106V76.3H162.13V75.1227C162.13 74.7863 161.962 74.6181 161.738 74.6181C161.458 74.6181 161.233 74.7863 161.233 75.1788V76.3H160.617V75.1227C160.617 74.7863 160.449 74.6181 160.224 74.6181C159.944 74.6181 159.72 74.7863 159.72 75.1788V76.3H159.103V74.1136H159.72V74.3939C159.888 74.2257 160.112 74.1136 160.392 74.1136C160.673 74.1136 160.953 74.2257 161.121 74.45C161.289 74.2257 161.57 74.1136 161.906 74.1136C162.355 74.0015 162.747 74.3378 162.747 75.0106Z" fill="#263238"/>
<path d="M125.915 90.3148L126.98 90.8755L126.531 91.6603L125.466 91.0436V92.2209H124.569V91.0436L123.504 91.6603L123.055 90.8755L124.121 90.3148L123.055 89.7542L123.504 88.9694L124.569 89.586V88.4087H125.466V89.586L126.531 88.9694L126.98 89.7542L125.915 90.3148Z" fill="#263238"/>
<path d="M130.231 90.3148L131.297 90.8755L130.848 91.6603L129.783 91.0436V92.2209H128.886V91.0436L127.821 91.6603L127.372 90.8755L128.437 90.3148L127.372 89.7542L127.821 88.9694L128.886 89.586V88.4087H129.783V89.586L130.848 88.9694L131.297 89.7542L130.231 90.3148Z" fill="#263238"/>
<path d="M134.604 90.3148L135.669 90.8755L135.221 91.6603L134.156 91.0436V92.2209H133.259V91.0436L132.193 91.6603L131.745 90.8755L132.81 90.3148L131.745 89.7542L132.193 88.9694L133.259 89.586V88.4087H134.156V89.586L135.221 88.9694L135.669 89.7542L134.604 90.3148Z" fill="#263238"/>
<path d="M138.921 90.3148L139.986 90.8755L139.538 91.6603L138.472 91.0436V92.2209H137.575V91.0436L136.51 91.6603L136.062 90.8755L137.127 90.3148L136.062 89.7542L136.51 88.9694L137.575 89.586V88.4087H138.472V89.586L139.538 88.9694L139.986 89.7542L138.921 90.3148Z" fill="#263238"/>
<path d="M143.238 90.3148L144.303 90.8755L143.854 91.6603L142.789 91.0436V92.2209H141.892V91.0436L140.827 91.6603L140.379 90.8755L141.444 90.3148L140.379 89.7542L140.827 88.9694L141.892 89.586V88.4087H142.789V89.586L143.854 88.9694L144.303 89.7542L143.238 90.3148Z" fill="#263238"/>
<path d="M147.554 90.3148L148.619 90.8755L148.171 91.6603L147.106 91.0436V92.2209H146.209V91.0436L145.144 91.6603L144.695 90.8755L145.76 90.3148L144.695 89.7542L145.144 88.9694L146.209 89.586V88.4087H147.106V89.586L148.171 88.9694L148.619 89.7542L147.554 90.3148Z" fill="#263238"/>
<path d="M151.871 90.3148L152.936 90.8755L152.488 91.6603L151.423 91.0436V92.2209H150.526V91.0436L149.46 91.6603L149.012 90.8755L150.077 90.3148L149.012 89.7542L149.46 88.9694L150.526 89.586V88.4087H151.423V89.586L152.488 88.9694L152.936 89.7542L151.871 90.3148Z" fill="#263238"/>
<path d="M156.188 90.3148L157.253 90.8755L156.805 91.6603L155.739 91.0436V92.2209H154.842V91.0436L153.777 91.6603L153.329 90.8755L154.394 90.3148L153.329 89.7542L153.777 88.9694L154.842 89.586V88.4087H155.739V89.586L156.805 88.9694L157.253 89.7542L156.188 90.3148Z" fill="#263238"/>
<path d="M203.448 171.661H119.916C117.954 171.661 116.328 170.035 116.328 168.073V124.849C116.328 122.887 117.954 121.261 119.916 121.261H203.448C205.41 121.261 207.036 122.887 207.036 124.849V168.073C206.98 170.035 205.41 171.661 203.448 171.661Z" fill="white"/>
<path d="M203.448 171.661C203.448 171.661 203.672 171.661 204.177 171.549C204.625 171.437 205.298 171.212 205.971 170.596C206.307 170.259 206.587 169.867 206.755 169.306C206.868 169.026 206.924 168.746 206.98 168.465C206.98 168.185 206.98 167.849 206.98 167.512C206.98 166.167 206.98 164.597 206.98 162.859C206.98 155.851 206.98 145.76 206.924 133.259C206.924 131.689 206.924 130.119 206.924 128.437C206.924 127.596 206.924 126.812 206.924 125.971C206.924 125.13 207.036 124.289 206.643 123.504C206.307 122.719 205.746 122.102 204.961 121.71C204.569 121.542 204.177 121.374 203.728 121.374C203.336 121.318 202.831 121.374 202.439 121.374C200.645 121.374 198.851 121.374 197.001 121.374C189.657 121.374 181.808 121.374 173.567 121.374C157.029 121.374 138.921 121.374 119.86 121.374C119.299 121.374 118.739 121.542 118.234 121.766C117.729 122.046 117.281 122.439 117.001 122.887C116.72 123.392 116.496 123.896 116.44 124.457C116.44 125.018 116.44 125.634 116.44 126.195C116.44 128.549 116.44 130.904 116.44 133.203C116.44 137.856 116.44 142.397 116.44 146.882C116.44 151.367 116.44 155.795 116.44 160.112C116.44 162.299 116.44 164.429 116.44 166.503C116.44 167.008 116.44 167.568 116.44 168.073C116.44 168.577 116.608 169.082 116.832 169.531C117.281 170.428 118.178 171.1 119.131 171.268C119.636 171.381 120.14 171.325 120.645 171.325C121.149 171.325 121.654 171.325 122.158 171.325C123.167 171.325 124.177 171.325 125.186 171.325C127.204 171.325 129.166 171.325 131.128 171.325C135.053 171.325 138.865 171.325 142.509 171.325C149.853 171.325 156.692 171.325 162.915 171.325C175.417 171.325 185.508 171.381 192.516 171.381C195.992 171.381 198.739 171.381 200.533 171.381C201.43 171.381 202.158 171.381 202.607 171.381C203.167 171.661 203.448 171.661 203.448 171.661C203.448 171.661 203.224 171.661 202.719 171.661C202.214 171.661 201.542 171.661 200.645 171.661C198.795 171.661 196.104 171.661 192.628 171.661C185.62 171.661 175.529 171.661 163.027 171.717C156.804 171.717 149.965 171.717 142.621 171.717C138.977 171.717 135.165 171.717 131.24 171.717C129.278 171.717 127.316 171.717 125.298 171.717C124.289 171.717 123.28 171.717 122.27 171.717C121.766 171.717 121.261 171.717 120.757 171.717C120.252 171.717 119.748 171.773 119.187 171.661C118.122 171.437 117.169 170.764 116.664 169.755C116.384 169.25 116.272 168.746 116.216 168.185C116.216 167.624 116.216 167.12 116.216 166.615C116.216 164.485 116.216 162.355 116.216 160.224C116.216 155.908 116.216 151.479 116.216 146.994C116.216 142.509 116.216 137.912 116.216 133.315C116.216 131.016 116.216 128.662 116.216 126.307C116.216 125.69 116.216 125.13 116.216 124.513C116.272 123.896 116.496 123.28 116.776 122.775C117.113 122.271 117.561 121.822 118.122 121.542C118.683 121.261 119.299 121.093 119.916 121.093C138.977 121.093 157.141 121.093 173.623 121.093C181.864 121.093 189.713 121.093 197.057 121.093C198.907 121.093 200.701 121.093 202.495 121.093C202.943 121.093 203.392 121.093 203.84 121.093C204.289 121.149 204.737 121.261 205.13 121.486C205.914 121.878 206.587 122.607 206.868 123.392C207.036 123.784 207.148 124.233 207.148 124.681C207.148 125.13 207.148 125.522 207.148 125.971C207.148 126.812 207.148 127.652 207.148 128.437C207.148 130.063 207.148 131.689 207.148 133.259C207.148 145.76 207.092 155.851 207.092 162.859C207.092 164.597 207.092 166.167 207.092 167.512C207.092 167.849 207.092 168.185 207.092 168.465C207.036 168.802 206.98 169.082 206.868 169.362C206.643 169.923 206.363 170.315 206.027 170.652C205.354 171.324 204.625 171.549 204.177 171.605C203.952 171.661 203.784 171.661 203.672 171.661C203.504 171.661 203.448 171.661 203.448 171.661Z" fill="#263238"/>
<path d="M147.891 139.033V139.65H145.256V136.286H147.835V136.903H146.041V137.632H147.61V138.248H146.041V139.033H147.891Z" fill="#263238"/>
<path d="M151.647 136.286V139.65H151.03L149.348 137.576V139.65H148.563V136.286H149.236L150.918 138.36V136.286H151.647Z" fill="#263238"/>
<path d="M153.16 136.959H152.095V136.342H155.067V136.959H154.001V139.706H153.217V136.959H153.16Z" fill="#263238"/>
<path d="M158.038 139.033V139.65H155.403V136.286H157.982V136.903H156.188V137.632H157.757V138.248H156.188V139.033H158.038Z" fill="#263238"/>
<path d="M160.841 139.706L160.168 138.753H160.112H159.439V139.706H158.655V136.342H160.112C161.009 136.342 161.57 136.791 161.57 137.576C161.57 138.08 161.289 138.473 160.897 138.641L161.682 139.706H160.841ZM160.112 136.959H159.495V138.136H160.112C160.617 138.136 160.841 137.912 160.841 137.52C160.841 137.183 160.617 136.959 160.112 136.959Z" fill="#263238"/>
<path d="M163.42 137.968C163.42 136.959 164.205 136.23 165.27 136.23C165.83 136.23 166.335 136.454 166.671 136.847L166.167 137.295C165.943 137.015 165.662 136.903 165.326 136.903C164.709 136.903 164.261 137.351 164.261 137.968C164.261 138.584 164.709 139.033 165.326 139.033C165.662 139.033 165.943 138.921 166.167 138.641L166.671 139.089C166.335 139.481 165.886 139.706 165.27 139.706C164.205 139.762 163.42 139.033 163.42 137.968Z" fill="#263238"/>
<path d="M166.896 137.968C166.896 136.959 167.68 136.23 168.746 136.23C169.811 136.23 170.596 136.959 170.596 137.968C170.596 138.977 169.811 139.706 168.746 139.706C167.68 139.762 166.896 138.977 166.896 137.968ZM169.811 137.968C169.811 137.351 169.362 136.903 168.746 136.903C168.129 136.903 167.68 137.351 167.68 137.968C167.68 138.584 168.129 139.033 168.746 139.033C169.362 139.089 169.811 138.641 169.811 137.968Z" fill="#263238"/>
<path d="M171.156 136.286H172.67C173.791 136.286 174.52 136.959 174.52 137.968C174.52 138.977 173.735 139.65 172.67 139.65H171.156V136.286ZM172.67 139.033C173.343 139.033 173.791 138.641 173.791 137.968C173.791 137.295 173.343 136.903 172.67 136.903H171.941V138.977H172.67V139.033Z" fill="#263238"/>
<path d="M177.828 139.033V139.65H175.193V136.286H177.772V136.903H175.978V137.632H177.547V138.248H175.978V139.033H177.828Z" fill="#263238"/>
<path d="M142.053 162.356H133.812C132.578 162.356 131.569 161.347 131.569 160.113V147.275C131.569 146.042 132.578 145.033 133.812 145.033H142.053C143.286 145.033 144.295 146.042 144.295 147.275V160.113C144.239 161.347 143.286 162.356 142.053 162.356Z" fill="#EBEBEB"/>
<path d="M157.862 162.356H149.621C148.388 162.356 147.378 161.347 147.378 160.113V147.275C147.378 146.042 148.388 145.033 149.621 145.033H157.862C159.095 145.033 160.104 146.042 160.104 147.275V160.113C160.048 161.347 159.095 162.356 157.862 162.356Z" fill="#EBEBEB"/>
<path d="M173.671 162.356H165.43C164.197 162.356 163.188 161.347 163.188 160.113V147.275C163.188 146.042 164.197 145.033 165.43 145.033H173.671C174.905 145.033 175.914 146.042 175.914 147.275V160.113C175.914 161.347 174.905 162.356 173.671 162.356Z" fill="#EBEBEB"/>
<path d="M189.481 162.356H181.24C180.006 162.356 178.997 161.347 178.997 160.113V147.275C178.997 146.042 180.006 145.033 181.24 145.033H189.481C190.714 145.033 191.723 146.042 191.723 147.275V160.113C191.723 161.347 190.714 162.356 189.481 162.356Z" fill="#EBEBEB"/>
<path d="M140.707 155.067C140.707 156.3 139.754 157.085 138.465 157.085C136.671 157.085 135.774 155.796 135.774 153.721C135.774 151.423 137.007 150.246 138.745 150.246C139.306 150.246 139.866 150.358 140.259 150.582L140.034 150.974C139.698 150.75 139.193 150.694 138.689 150.694C137.175 150.694 136.166 151.703 136.166 153.665C136.166 153.89 136.166 154.17 136.222 154.45C136.502 153.553 137.343 153.049 138.353 153.049C139.81 153.049 140.707 153.834 140.707 155.067ZM140.203 155.067C140.203 154.114 139.53 153.497 138.353 153.497C137.231 153.497 136.502 154.226 136.502 155.123C136.502 155.908 137.175 156.693 138.409 156.693C139.474 156.693 140.203 156.02 140.203 155.067Z" fill="#FF725E"/>
<path d="M156.348 155.18H154.947V157.03H154.442V155.18H150.63V154.843L154.274 150.302H154.835L151.247 154.731H154.498V153.105H154.947V154.731H156.348V155.18Z" fill="#FF725E"/>
<path d="M172.662 157.982C172.662 158.038 171.373 158.15 169.747 158.15C168.121 158.15 166.832 158.094 166.832 157.982C166.832 157.926 168.121 157.814 169.747 157.814C171.317 157.87 172.662 157.926 172.662 157.982Z" fill="#FF725E"/>
<path d="M122.046 127.653C122.789 127.653 123.392 127.05 123.392 126.307C123.392 125.564 122.789 124.962 122.046 124.962C121.303 124.962 120.701 125.564 120.701 126.307C120.701 127.05 121.303 127.653 122.046 127.653Z" fill="#263238"/>
<path d="M127.372 126.307C127.372 127.092 126.755 127.652 126.027 127.652C125.242 127.652 124.681 127.036 124.681 126.307C124.681 125.522 125.298 124.961 126.027 124.961C126.755 124.905 127.372 125.522 127.372 126.307Z" fill="#263238"/>
<path d="M129.895 127.652C130.638 127.652 131.24 127.05 131.24 126.307C131.24 125.564 130.638 124.961 129.895 124.961C129.152 124.961 128.549 125.564 128.549 126.307C128.549 127.05 129.152 127.652 129.895 127.652Z" fill="#263238"/>
<path d="M207.148 130.175C207.148 130.231 186.854 130.343 161.794 130.343C136.734 130.343 116.44 130.287 116.44 130.175C116.44 130.119 136.734 130.007 161.794 130.007C186.854 130.007 207.148 130.063 207.148 130.175Z" fill="#263238"/>
<path d="M105.284 59.3692H61.6117C60.3783 59.3692 59.3132 60.3783 59.3132 61.6677V81.5696C59.3132 82.8029 60.3223 83.8681 61.6117 83.8681H79.9439L83.8121 88.8576L87.0637 83.8681H105.284C106.517 83.8681 107.582 82.859 107.582 81.5696V61.6677C107.526 60.3783 106.517 59.3692 105.284 59.3692Z" fill="white"/>
<path d="M105.284 59.3693C105.284 59.3693 105.34 59.3693 105.508 59.3693C105.676 59.3693 105.844 59.4253 106.125 59.4814C106.405 59.5935 106.685 59.7617 106.966 60.042C107.246 60.3223 107.47 60.7708 107.582 61.3314C107.638 63.5178 107.638 66.6573 107.638 70.6377C107.638 72.6559 107.638 74.8423 107.638 77.2529C107.638 78.4302 107.638 79.6636 107.638 80.953C107.638 81.2894 107.638 81.6257 107.582 81.9621C107.526 82.2985 107.358 82.6349 107.19 82.9152C106.797 83.4758 106.125 83.8682 105.396 83.8682C99.9018 83.8682 93.735 83.8682 87.0637 83.8682L87.1758 83.8122C86.1667 85.3819 85.0455 87.0637 83.9242 88.8016L83.8121 88.9698L83.7 88.8016C82.4666 87.2319 81.1772 85.5501 79.8317 83.8122L79.9439 83.8682C74.8983 83.8682 69.6285 83.8682 64.1905 83.8682C63.5739 83.8682 62.9011 83.8682 62.2844 83.8682C61.9481 83.8682 61.6678 83.8682 61.3314 83.8682C60.995 83.8122 60.6587 83.7 60.3783 83.5318C59.8177 83.1955 59.3692 82.6349 59.2571 81.9621C59.201 81.6257 59.201 81.2894 59.201 81.0091V80.056C59.201 77.5893 59.201 75.1787 59.201 72.768C59.201 70.3574 59.201 68.0588 59.201 65.7603C59.201 64.6391 59.201 63.4618 59.201 62.3405V61.4996C59.201 61.2193 59.2571 60.8829 59.3692 60.6587C59.5935 60.0981 59.9859 59.6496 60.4905 59.3693C60.7708 59.2571 61.0511 59.145 61.3314 59.145C61.6117 59.145 61.892 59.145 62.1723 59.145C62.7329 59.145 63.2375 59.145 63.7981 59.145C64.8633 59.145 65.9285 59.145 66.9376 59.145C69.0118 59.145 71.0301 59.145 72.9922 59.145C76.9165 59.145 80.5045 59.145 83.8121 59.145C90.4274 59.145 95.8093 59.2011 99.5094 59.2011C101.359 59.2011 102.817 59.2011 103.77 59.2011C104.275 59.2011 104.611 59.2011 104.891 59.2011C105.116 59.3693 105.284 59.3693 105.284 59.3693C105.284 59.3693 105.172 59.3693 104.891 59.3693C104.611 59.3693 104.275 59.3693 103.77 59.3693C102.761 59.3693 101.359 59.3693 99.5094 59.3693C95.8093 59.3693 90.4274 59.3693 83.8121 59.4253C80.5045 59.4253 76.8605 59.4253 72.9922 59.4253C71.0301 59.4253 69.0118 59.4253 66.9376 59.4253C65.8724 59.4253 64.8633 59.4253 63.7981 59.4253C63.2375 59.4253 62.7329 59.4253 62.1723 59.4253C61.892 59.4253 61.6117 59.4253 61.3875 59.4253C61.1071 59.4253 60.8829 59.5375 60.6587 59.6496C60.2102 59.8738 59.8177 60.3223 59.6495 60.7708C59.5374 60.9951 59.4814 61.2754 59.4814 61.5557V62.3966C59.4814 63.5178 59.4814 64.6391 59.4814 65.8164C59.4814 68.1149 59.4814 70.4695 59.4814 72.8241C59.4814 75.2347 59.4814 77.6454 59.4814 80.1121V81.0651C59.4814 81.4015 59.4814 81.6818 59.5374 81.9621C59.6495 82.5227 60.042 83.0273 60.5465 83.3076C60.7708 83.4758 61.1071 83.5318 61.3875 83.5879C61.6678 83.5879 62.0041 83.5879 62.2844 83.5879C62.9011 83.5879 63.5178 83.5879 64.1905 83.5879C69.6285 83.5879 74.8983 83.5879 79.9439 83.5879H79.9999L80.056 83.644C81.4015 85.3819 82.6909 87.0637 83.9242 88.6335H83.7C84.8212 86.8955 85.9425 85.2137 86.9516 83.644L87.0076 83.5879H87.0637C93.735 83.5879 99.9018 83.5879 105.396 83.5879C106.069 83.5879 106.685 83.2515 107.022 82.6909C107.19 82.4106 107.358 82.1303 107.414 81.85C107.47 81.5697 107.47 81.2333 107.47 80.8969C107.47 79.6075 107.47 78.3742 107.47 77.1969C107.47 74.7862 107.47 72.5998 107.47 70.5816C107.47 66.6012 107.47 63.4618 107.47 61.2754C107.414 60.7708 107.19 60.3223 106.91 59.9859C106.629 59.7056 106.349 59.4814 106.069 59.4253C105.564 59.3693 105.284 59.4253 105.284 59.3693Z" fill="#263238"/>
<path d="M75.2347 64.9754V65.7042H74.7301V64.9754L73.9453 63.6299H74.4498L75.0104 64.5269L75.5711 63.6299H76.0195L75.2347 64.9754Z" fill="#263238"/>
<path d="M76.0196 64.6951C76.0196 64.0784 76.5241 63.6299 77.1408 63.6299C77.8136 63.6299 78.262 64.0784 78.262 64.6951C78.262 65.3118 77.7575 65.7602 77.1408 65.7602C76.5241 65.7602 76.0196 65.3118 76.0196 64.6951ZM77.8136 64.6951C77.8136 64.3026 77.5332 64.0223 77.1408 64.0223C76.7484 64.0223 76.4681 64.3026 76.4681 64.6951C76.4681 65.0875 76.7484 65.3678 77.1408 65.3678C77.5332 65.3678 77.8136 65.0875 77.8136 64.6951Z" fill="#263238"/>
<path d="M78.6545 64.8072V63.6299H79.159V64.7511C79.159 65.1436 79.3272 65.3118 79.6075 65.3118C79.8878 65.3118 80.056 65.1436 80.056 64.7511V63.6299H80.5045V64.8072C80.5045 65.4239 80.1681 65.7602 79.5515 65.7602C78.9908 65.7602 78.6545 65.4239 78.6545 64.8072Z" fill="#263238"/>
<path d="M82.3545 65.7042L81.9621 65.1436H81.5697V65.7042H81.0651V63.6299H81.9621C82.5227 63.6299 82.8591 63.9102 82.8591 64.3587C82.8591 64.6951 82.6909 64.9193 82.4106 65.0314L82.8591 65.7042H82.3545ZM81.906 64.0223H81.5136V64.7511H81.906C82.1864 64.7511 82.3545 64.639 82.3545 64.4148C82.3545 64.1905 82.1864 64.0223 81.906 64.0223Z" fill="#263238"/>
<path d="M83.9242 64.6951C83.9242 64.0784 84.4287 63.6299 85.0454 63.6299C85.3818 63.6299 85.7182 63.742 85.8864 64.0223L85.55 64.3026C85.4379 64.1345 85.2136 64.0784 85.0454 64.0784C84.653 64.0784 84.3727 64.3587 84.3727 64.7511C84.3727 65.1436 84.653 65.4239 85.0454 65.4239C85.2697 65.4239 85.4379 65.3678 85.55 65.1996L85.8864 65.4799C85.7182 65.7042 85.3818 65.8724 85.0454 65.8724C84.3727 65.7602 83.9242 65.3118 83.9242 64.6951Z" fill="#263238"/>
<path d="M86.0546 64.6951C86.0546 64.0784 86.5591 63.6299 87.1758 63.6299C87.8485 63.6299 88.297 64.0784 88.297 64.6951C88.297 65.3118 87.7925 65.7602 87.1758 65.7602C86.5591 65.7602 86.0546 65.3118 86.0546 64.6951ZM87.8485 64.6951C87.8485 64.3026 87.5682 64.0223 87.1758 64.0223C86.7834 64.0223 86.5031 64.3026 86.5031 64.6951C86.5031 65.0875 86.7834 65.3678 87.1758 65.3678C87.5682 65.3678 87.8485 65.0875 87.8485 64.6951Z" fill="#263238"/>
<path d="M88.6895 63.6299H89.6425C90.3152 63.6299 90.7637 64.0223 90.7637 64.6951C90.7637 65.3118 90.3152 65.7602 89.6425 65.7602H88.6895V63.6299ZM89.5864 65.3118C89.9789 65.3118 90.2592 65.0875 90.2592 64.6951C90.2592 64.3026 89.9789 64.0784 89.5864 64.0784H89.1379V65.3678H89.5864V65.3118Z" fill="#263238"/>
<path d="M92.7259 65.3117V65.7042H91.1001V63.6299H92.6698V64.0223H91.6046V64.4708H92.5577V64.8632H91.6046V65.3678H92.7259V65.3117Z" fill="#263238"/>
<path d="M101.023 79.3269H65.8724C64.7512 79.3269 63.9103 78.4299 63.9103 77.3648V69.9646C63.9103 68.8434 64.8073 68.0025 65.8724 68.0025H101.023C102.144 68.0025 102.985 68.8995 102.985 69.9646V77.3648C102.985 78.4299 102.088 79.3269 101.023 79.3269Z" fill="#F5F5F5"/>
<path d="M74.815 74.2828C74.815 75.2919 74.0302 75.9647 72.965 75.9647C71.5074 75.9647 70.7225 74.8995 70.7225 73.2176C70.7225 71.3676 71.7316 70.4146 73.1892 70.4146C73.6377 70.4146 74.0862 70.4706 74.4226 70.6949L74.2544 71.0312C73.9741 70.863 73.5817 70.7509 73.1892 70.7509C71.9559 70.7509 71.115 71.5358 71.115 73.1616C71.115 73.3298 71.115 73.554 71.171 73.8343C71.3953 73.1055 72.068 72.7131 72.9089 72.7131C74.0862 72.657 74.815 73.3298 74.815 74.2828ZM74.4226 74.3389C74.4226 73.554 73.862 73.0495 72.9089 73.0495C72.012 73.0495 71.3953 73.6101 71.3953 74.3389C71.3953 75.0116 71.9559 75.6283 72.965 75.6283C73.8059 75.6283 74.4226 75.1237 74.4226 74.3389Z" fill="#FF725E"/>
<path d="M82.1591 74.3949H80.9818V75.9086H80.5894V74.3949H77.45V74.1146L80.4212 70.4146H80.8697L77.9545 74.0586H80.5894V72.7131H80.9818V74.0586H82.1591V74.3949Z" fill="#FF725E"/>
<path d="M88.2699 74.3951C88.2699 75.2921 87.5971 75.9648 86.3638 75.9648C85.5789 75.9648 84.794 75.6845 84.4016 75.236L84.6259 74.9557C84.9622 75.3481 85.635 75.6284 86.3638 75.6284C87.3729 75.6284 87.8774 75.18 87.8774 74.3951C87.8774 73.6663 87.3729 73.1617 86.2516 73.1617H85.9153V72.8814L87.5411 70.8072H84.6259V70.4708H88.1017V70.7511L86.4198 72.8814C87.6532 72.8254 88.2699 73.4981 88.2699 74.3951Z" fill="#FF725E"/>
<path d="M94.9412 70.4146V70.6949L92.5866 75.9086H92.1381L94.4927 70.7509H91.4093V71.8161H91.0168V70.4146H94.9412Z" fill="#FF725E"/>
<path d="M214.996 217.576C222.341 214.436 230.806 208.325 234.618 200.813C226.713 204.009 219.706 209.951 214.996 217.576Z" fill="#218A4C"/>
<path d="M216.566 205.914C223.91 202.775 232.376 196.664 236.188 189.152C228.227 192.347 221.275 198.29 216.566 205.914Z" fill="#218A4C"/>
<path d="M218.641 194.534C225.985 191.395 234.45 185.284 238.262 177.772C230.357 180.967 223.406 186.966 218.641 194.534Z" fill="#218A4C"/>
<path d="M221.332 182.705C228.283 178.612 235.964 171.324 238.823 163.364C231.367 167.624 225.144 174.464 221.332 182.705Z" fill="#218A4C"/>
<path d="M224.191 173.567C229.236 166.952 233.945 157.141 233.889 148.62C228.339 155.627 224.863 164.485 224.191 173.567Z" fill="#218A4C"/>
<path d="M222.789 177.94C221.78 169.026 218.304 157.814 212.418 151.086C213.315 160.617 217.015 170.203 222.789 177.94Z" fill="#218A4C"/>
<path d="M220.378 187.695C218.584 178.5 214.043 167.12 207.372 160.673C209.11 170.54 213.763 180.126 220.378 187.695Z" fill="#218A4C"/>
<path d="M217.687 199.58C215.893 190.386 211.352 179.005 204.681 172.558C206.419 182.425 211.016 192.012 217.687 199.58Z" fill="#218A4C"/>
<path d="M215.501 214.211C213.707 205.017 209.166 193.637 202.495 187.19C204.233 197.057 208.83 206.643 215.501 214.211Z" fill="#218A4C"/>
<path d="M224.527 171.829C224.527 171.829 224.527 171.885 224.471 171.941C224.415 172.053 224.415 172.165 224.359 172.334C224.247 172.726 224.078 173.231 223.854 173.903C223.406 175.305 222.789 177.323 222.116 179.79C221.388 182.313 220.659 185.284 219.818 188.592C219.033 191.955 218.248 195.599 217.519 199.524C216.79 203.392 216.174 207.148 215.725 210.568C215.277 213.987 214.884 217.015 214.66 219.594C214.38 222.173 214.212 224.247 214.156 225.704C214.1 226.433 214.1 226.994 214.043 227.386C214.043 227.554 214.043 227.723 214.043 227.835C214.043 227.947 214.043 228.003 214.043 228.003C214.043 228.003 214.043 227.947 214.043 227.835C214.043 227.723 214.1 227.554 214.1 227.386C214.156 226.994 214.212 226.433 214.268 225.704C214.38 224.247 214.604 222.173 214.884 219.594C215.165 217.015 215.557 213.931 216.006 210.568C216.51 207.148 217.127 203.448 217.856 199.58C218.584 195.711 219.369 192.011 220.154 188.648C220.939 185.284 221.668 182.313 222.341 179.79C223.013 177.267 223.574 175.249 223.966 173.847C224.135 173.175 224.303 172.614 224.415 172.222C224.471 172.053 224.471 171.885 224.527 171.829C224.527 171.885 224.527 171.829 224.527 171.829Z" fill="#218A4C"/>
<path d="M211.409 222.397C214.548 215.894 216.79 206.699 215.277 199.58C211.801 206.475 210.456 214.604 211.409 222.397Z" fill="#30C46C"/>
<path d="M206.251 213.987C209.39 207.484 211.633 198.29 210.119 191.17C206.643 198.066 205.242 206.195 206.251 213.987Z" fill="#30C46C"/>
<path d="M201.598 205.41C204.737 198.907 206.98 189.713 205.466 182.593C201.99 189.489 200.589 197.618 201.598 205.41Z" fill="#30C46C"/>
<path d="M197.001 196.16C199.299 189.264 200.477 179.846 198.122 172.95C195.543 180.294 195.095 188.535 197.001 196.16Z" fill="#30C46C"/>
<path d="M194.029 188.536C193.805 181.191 191.619 171.997 187.078 166.559C187.19 174.464 189.657 182.313 194.029 188.536Z" fill="#30C46C"/>
<path d="M195.431 192.179C190.049 187.078 181.808 182.032 174.464 181.359C180.126 186.966 187.582 190.778 195.431 192.179Z" fill="#30C46C"/>
<path d="M199.075 199.916C193.02 195.095 184.051 190.61 176.258 190.61C182.649 195.879 190.722 199.187 199.075 199.916Z" fill="#30C46C"/>
<path d="M203.616 209.222C197.561 204.401 188.591 199.916 180.799 199.916C187.19 205.186 195.263 208.493 203.616 209.222Z" fill="#30C46C"/>
<path d="M209.951 219.93C203.896 215.109 194.926 210.624 187.134 210.624C193.525 215.894 201.654 219.201 209.951 219.93Z" fill="#30C46C"/>
<path d="M193.301 187.246C193.301 187.246 193.301 187.302 193.357 187.358C193.413 187.47 193.413 187.582 193.469 187.694C193.581 188.031 193.749 188.479 193.973 189.04C194.422 190.161 195.095 191.843 195.936 193.861C197.673 197.898 200.196 203.392 203.392 209.278C204.961 212.249 206.587 214.996 208.101 217.463C209.615 219.93 211.016 222.172 212.25 223.966C213.483 225.816 214.492 227.274 215.165 228.227C215.501 228.732 215.781 229.068 216.006 229.348C216.118 229.46 216.174 229.573 216.23 229.629C216.286 229.685 216.286 229.741 216.286 229.741C216.286 229.741 216.286 229.685 216.23 229.629C216.174 229.573 216.118 229.46 216.006 229.292C215.837 229.012 215.557 228.619 215.221 228.115C214.548 227.106 213.539 225.648 212.362 223.798C211.184 221.948 209.783 219.762 208.269 217.239C206.812 214.772 205.186 211.969 203.616 209.054C200.421 203.167 197.842 197.673 196.104 193.693C195.207 191.675 194.534 190.049 194.029 188.928C193.805 188.367 193.637 187.919 193.469 187.638C193.413 187.526 193.357 187.414 193.301 187.302C193.357 187.246 193.357 187.246 193.301 187.246Z" fill="#218A4C"/>
<path d="M196.608 223.182H227.498V229.18H224.303L221.668 246.167H202.551L199.804 229.18H196.608V223.182Z" fill="#0A3F7F"/>
<path d="M196.608 229.068C196.608 229.012 203.504 228.9 211.969 228.9C220.434 228.9 227.33 228.956 227.33 229.068C227.33 229.124 220.434 229.237 211.969 229.237C203.448 229.181 196.608 229.124 196.608 229.068Z" fill="#218A4C"/>
<path d="M19.4534 246.167H14.4079L12.5579 223.574H18.5004L19.4534 246.167Z" fill="#263238"/>
<path d="M62.9573 246.167H67.9468L69.7968 223.574H63.9104L62.9573 246.167Z" fill="#263238"/>
<path d="M73.2726 226.433L8.68959 227.947L6.72743 186.237C6.55925 182.144 9.81082 178.724 13.9033 178.724H68.9559C73.1044 178.724 76.4121 182.256 76.1318 186.405L73.2726 226.433Z" fill="#F55454"/>
<path d="M76.5803 186.069C76.5803 186.069 76.5242 186.069 76.4121 186.069C76.2999 186.069 76.0757 186.069 75.9075 186.069C75.403 186.069 74.7302 186.069 73.8893 186.125C72.0953 186.125 69.5725 186.125 66.377 186.125C60.0421 186.125 51.2964 186.069 41.6538 186.293C32.0112 186.629 23.2656 186.573 16.9306 186.461C13.7912 186.405 11.2123 186.349 9.41838 186.293C8.57745 186.237 7.84865 186.237 7.40016 186.237C7.17591 186.237 7.00773 186.237 6.8956 186.237C6.78348 186.237 6.72742 186.237 6.72742 186.237C6.72742 186.237 6.78348 186.237 6.8956 186.237C7.00773 186.237 7.23197 186.237 7.40016 186.237C7.90471 186.237 8.57745 186.237 9.41838 186.237C11.2123 186.237 13.7351 186.293 16.9306 186.293C23.2656 186.349 32.0112 186.349 41.6538 186.013C51.2964 185.788 60.0421 185.901 66.377 185.957C69.5165 185.957 72.0953 186.013 73.8893 186.013C74.7863 186.013 75.459 186.013 75.9075 186.013C76.1318 186.013 76.2999 186.013 76.4121 186.013C76.5242 186.069 76.5803 186.069 76.5803 186.069Z" fill="#263238"/>
<path d="M30.2733 179.397C30.2733 179.509 28.2551 179.509 26.0687 180.63C23.8823 181.752 22.649 183.377 22.5929 183.265C22.5929 183.265 22.8171 182.817 23.3778 182.2C23.9384 181.584 24.8354 180.911 25.9005 180.294C27.0218 179.733 28.0869 179.453 28.9279 179.341C29.7688 179.285 30.2733 179.341 30.2733 179.397Z" fill="#263238"/>
<path d="M56.8465 103.489L64.7512 117.897L76.2999 111.45L81.906 113.3C81.906 113.3 67.7224 128.717 65.4239 129.446C63.1254 130.231 58.7526 130.399 56.2858 127.259C54.0434 124.4 47.4281 109.488 47.4281 109.488L56.8465 103.489Z" fill="#FFBE9D"/>
<path d="M89.3622 94.0712C89.138 93.7909 88.8577 93.6787 88.5213 93.7348L83.0273 94.4636C82.5227 94.5197 82.1303 94.8 81.85 95.2485L70.4134 112.796L71.3104 113.3L77.4211 113.132L89.5865 94.2954L89.3622 94.0712Z" fill="#263238"/>
<path d="M85.4379 96.3696C85.5501 96.4817 85.7743 96.4257 85.8864 96.2575C85.9986 96.0893 86.0546 95.8651 85.9425 95.809C85.8304 95.6969 85.6061 95.7529 85.494 95.9211C85.3819 96.0333 85.3258 96.2575 85.4379 96.3696Z" fill="white"/>
<path d="M89.5304 94.2952C89.5304 94.2952 89.138 94.4073 88.4653 94.5195C87.7365 94.6316 86.7274 94.7998 85.5501 94.9679C84.9334 95.0801 84.2606 95.1361 83.5318 95.2483C83.1955 95.3043 82.8591 95.4725 82.6909 95.7528C82.4667 96.0892 82.2424 96.4256 82.0182 96.7619C81.1212 98.1635 80.1121 99.6771 79.103 101.247C77.0287 104.442 75.1226 107.302 73.721 109.376C73.0483 110.385 72.4877 111.17 72.0392 111.843C71.6468 112.403 71.4225 112.74 71.3665 112.74C71.3665 112.74 71.5346 112.403 71.9271 111.786C72.3195 111.17 72.8801 110.329 73.4968 109.264C74.8423 107.133 76.6923 104.274 78.7666 101.079C79.8318 99.5089 80.7848 97.9953 81.6818 96.5937C81.906 96.2574 82.1303 95.921 82.3545 95.5846C82.5788 95.2483 83.0273 95.024 83.4197 94.9679C84.1485 94.8558 84.8213 94.7998 85.4379 94.6876C86.6152 94.5195 87.6243 94.4073 88.3531 94.3513C89.138 94.2952 89.5304 94.2952 89.5304 94.2952Z" fill="#455A64"/>
<path d="M83.4197 100.574C83.4197 100.574 82.9151 100.462 82.6348 101.808C82.3545 103.153 81.5136 107.021 81.5136 107.021L78.9348 105.676L75.7393 106.068C75.7393 106.068 75.0104 106.741 75.5711 107.077C76.0756 107.414 78.0938 107.806 78.0938 107.806L79.6075 109.936L75.2908 107.862C75.2908 107.862 73.8332 108.255 74.2816 109.096C74.6741 109.993 77.5893 112.683 77.5893 112.683L75.4589 112.515L72.8801 111.002C72.8801 111.002 72.0952 111.058 72.3756 111.73C72.6559 112.403 75.3468 114.814 75.3468 114.814L78.5984 116.384C78.5984 116.384 80.3363 116.271 80.5045 115.711C80.6727 115.206 80.7287 114.477 80.7287 114.477C80.7287 114.477 81.6818 114.253 81.85 113.749C82.0182 113.3 81.906 112.571 81.906 112.571C81.906 112.571 83.3636 112.852 83.5318 112.011C83.7 111.17 83.5879 109.6 83.4197 108.927C83.2515 108.311 84.0364 102.424 83.9803 102.256C83.9243 102.144 84.3167 100.182 83.4197 100.574Z" fill="#FFBE9D"/>
<path d="M80.6166 115.711C80.6166 115.767 80.3363 115.879 79.7757 115.991C79.2151 116.103 78.4863 116.103 77.6453 115.879C76.8044 115.711 76.1317 115.318 75.6832 114.982C75.2347 114.646 75.0104 114.421 75.0665 114.365C75.1226 114.309 76.1317 115.15 77.7014 115.543C79.3272 115.991 80.6166 115.655 80.6166 115.711Z" fill="#EB996E"/>
<path d="M79.8878 114.59C79.8318 114.646 79.2711 114.365 78.6545 113.861C78.0378 113.356 77.6454 112.852 77.7014 112.796C77.7575 112.74 78.262 113.132 78.8787 113.58C79.4393 114.085 79.9439 114.477 79.8878 114.59Z" fill="#EB996E"/>
<path d="M81.5697 111.787C81.5136 111.843 80.953 111.563 80.3924 111.058C79.8318 110.553 79.4954 109.993 79.5515 109.937C79.6075 109.881 80.056 110.329 80.6167 110.834C81.1773 111.282 81.6258 111.731 81.5697 111.787Z" fill="#EB996E"/>
<path d="M83.3636 109.544C83.2515 109.6 82.9712 108.983 82.4667 108.311C81.9621 107.638 81.4576 107.189 81.5136 107.077C81.5697 107.021 82.1864 107.358 82.747 108.086C83.2515 108.815 83.4197 109.488 83.3636 109.544Z" fill="#EB996E"/>
<path d="M85.5502 213.539C85.5502 213.539 85.6062 213.371 85.5502 213.034C85.4941 212.698 85.382 212.194 84.9895 211.689C84.8774 211.577 84.8214 211.409 84.6532 211.297C84.541 211.184 84.2607 211.072 84.0365 211.184C83.9244 211.24 83.8122 211.297 83.7562 211.465C83.7001 211.577 83.7562 211.745 83.7562 211.801C83.8122 212.025 83.9244 212.194 84.0365 212.362C84.2607 212.698 84.4289 213.034 84.7092 213.483C84.8214 213.707 85.1577 213.875 85.438 213.819C85.7183 213.763 85.9426 213.651 86.1108 213.539C86.5032 213.259 86.8396 212.922 87.1199 212.586C87.2881 212.418 87.4002 212.25 87.5123 212.081C87.6244 211.913 87.7366 211.745 87.7926 211.465C87.8487 211.24 87.7366 210.904 87.5123 210.792C87.232 210.68 87.0078 210.848 86.8956 210.96C86.6153 211.24 86.3911 211.465 86.2229 211.745C85.8865 212.25 85.6623 212.698 85.5502 213.034C85.438 213.371 85.438 213.539 85.438 213.539C85.4941 213.539 85.6623 212.81 86.3911 211.857C86.5593 211.633 86.7835 211.353 87.0638 211.184C87.1759 211.072 87.3441 211.016 87.4562 211.072C87.5684 211.128 87.6244 211.24 87.5684 211.409C87.5123 211.577 87.4002 211.745 87.2881 211.913C87.1759 212.081 87.0638 212.25 86.8956 212.418C86.6153 212.754 86.279 213.034 85.9426 213.315C85.7744 213.427 85.6062 213.539 85.382 213.539C85.2138 213.539 85.0456 213.483 84.9335 213.315C84.7092 212.978 84.485 212.586 84.3168 212.25C84.2047 212.081 84.0925 211.913 84.0365 211.745C83.9804 211.577 84.0365 211.521 84.0926 211.465C84.3168 211.353 84.5971 211.633 84.7092 211.857C85.4941 212.754 85.4941 213.539 85.5502 213.539Z" fill="#252539"/>
<path d="M71.7589 213.987L64.9194 228.787L53.8752 223.686L60.939 205.354L71.7589 213.987Z" fill="#FFBE9D"/>
<path d="M66.2089 227.835L62.2285 235.459C62.2285 235.459 72.4317 246.055 71.4787 248.409L47.4282 236.861L54.0435 221.556L66.2089 227.835Z" fill="#455A64"/>
<path d="M55.2769 230.862C54.7724 230.75 54.1557 231.142 54.0436 231.647C53.9314 232.151 54.3239 232.768 54.8284 232.88C55.333 232.992 56.0618 232.544 56.1178 232.039C56.1739 231.535 55.7254 230.862 55.1648 230.862" fill="#E0E0E0"/>
<g opacity="0.6">
<g opacity="0.6">
<g opacity="0.6">
<g opacity="0.6">
<g opacity="0.6">
<g opacity="0.6">
<g opacity="0.6">
<g opacity="0.6">
<g opacity="0.6">
<g opacity="0.6">
<g opacity="0.6">
<g opacity="0.6">
<path opacity="0.6" d="M47.4282 236.861L48.4373 234.955L71.1423 246.727C71.1423 246.727 71.9832 247.681 71.5347 248.409L47.4282 236.861Z" fill="white"/>
</g>
</g>
</g>
</g>
</g>
</g>
</g>
</g>
</g>
</g>
</g>
</g>
<path d="M62.677 235.515C62.6209 235.627 62.0042 235.403 61.2194 235.515C60.4345 235.571 59.93 235.964 59.8178 235.852C59.7057 235.796 60.2103 235.179 61.1633 235.067C62.1164 234.955 62.733 235.403 62.677 235.515Z" fill="#252539"/>
<path d="M64.6952 237.758C64.6952 237.87 64.0785 237.814 63.4058 238.15C62.733 238.431 62.3967 238.935 62.2845 238.879C62.1724 238.823 62.3967 238.094 63.2376 237.758C64.0225 237.365 64.7513 237.646 64.6952 237.758Z" fill="#252539"/>
<path d="M64.6952 241.458C64.5831 241.458 64.6952 240.785 65.3119 240.281C65.9286 239.776 66.6013 239.776 66.6013 239.888C66.6013 240 66.0967 240.169 65.5922 240.617C65.0876 241.01 64.8073 241.514 64.6952 241.458Z" fill="#252539"/>
<path d="M63.7982 232.6C63.6861 232.656 63.2376 232.264 62.5649 231.984C61.8921 231.703 61.2755 231.647 61.2755 231.535C61.2755 231.423 61.9482 231.199 62.7891 231.535C63.5179 231.871 63.9103 232.488 63.7982 232.6Z" fill="#252539"/>
<path d="M68.4513 225.872L86.5031 180.743C86.5031 180.743 86.1107 173.062 84.6531 170.596C83.2516 168.185 40.2523 154.001 40.2523 154.001C40.2523 154.001 29.3202 151.366 22.0322 154.001C14.7442 156.636 9.25015 165.774 10.2593 170.82C11.2684 175.865 15.5291 179.621 15.5291 179.621L47.0918 180.575L64.3027 186.853L52.698 220.098L68.4513 225.872Z" fill="#252539"/>
<path d="M84.4849 194.983L84.9334 211.353L72.7681 211.633L71.0302 192.067L84.4849 194.983Z" fill="#FFBE9D"/>
<path d="M85.6622 209.895L85.4379 218.472C85.4379 218.472 99.2852 223.462 99.4533 225.984L72.768 226.265L71.9271 209.614L85.6622 209.895Z" fill="#455A64"/>
<path d="M77.1408 217.407C76.6362 217.575 76.2999 218.136 76.412 218.641C76.5241 219.145 77.1408 219.538 77.6453 219.369C78.1499 219.257 78.5984 218.529 78.4302 218.024C78.262 217.519 77.5332 217.127 77.0847 217.407" fill="#E0E0E0"/>
<g opacity="0.6">
<g opacity="0.6">
<g opacity="0.6">
<g opacity="0.6">
<g opacity="0.6">
<g opacity="0.6">
<g opacity="0.6">
<g opacity="0.6">
<g opacity="0.6">
<g opacity="0.6">
<g opacity="0.6">
<g opacity="0.6">
<path opacity="0.6" d="M72.768 226.265L72.8241 224.078L98.3882 224.639C98.3882 224.639 99.5655 225.143 99.4533 225.984L72.768 226.265Z" fill="white"/>
</g>
</g>
</g>
</g>
</g>
</g>
</g>
</g>
</g>
</g>
</g>
</g>
<path d="M85.8303 218.36C85.8303 218.472 85.1576 218.528 84.5409 218.977C83.8682 219.369 83.5879 219.93 83.4757 219.93C83.3636 219.93 83.5318 219.145 84.3167 218.64C85.1015 218.08 85.8864 218.192 85.8303 218.36Z" fill="#252539"/>
<path d="M88.6335 219.481C88.6895 219.593 88.1289 219.818 87.6804 220.378C87.2319 220.939 87.1198 221.499 87.0077 221.499C86.8956 221.499 86.7834 220.771 87.3441 220.098C87.9047 219.425 88.6335 219.313 88.6335 219.481Z" fill="#252539"/>
<path d="M90.2593 222.789C90.1472 222.845 89.979 222.172 90.2593 221.444C90.5957 220.715 91.2124 220.435 91.2684 220.547C91.3245 220.659 90.932 221.051 90.7078 221.612C90.4275 222.229 90.4275 222.789 90.2593 222.789Z" fill="#252539"/>
<path d="M85.6061 215.221C85.5501 215.333 84.9334 215.165 84.2046 215.221C83.4758 215.277 82.9152 215.501 82.803 215.389C82.747 215.277 83.3076 214.828 84.1485 214.772C85.0455 214.66 85.6622 215.109 85.6061 215.221Z" fill="#252539"/>
<path d="M77.4212 149.684C77.4212 149.684 84.7092 149.124 85.494 157.029C86.2789 164.933 87.1198 201.822 87.1198 201.822L70.0771 203.223L67.4422 165.55L40.3083 154.001C40.3083 153.945 72.5438 148.675 77.4212 149.684Z" fill="#252539"/>
<path d="M47.3721 139.033C47.3721 139.033 51.801 151.423 50.9601 152.824C50.1191 154.226 38.7386 159.888 38.7386 159.888L10.3154 170.82C10.3154 170.82 7.40015 166.167 7.40015 159.047C7.40015 151.927 17.267 139.033 17.267 139.033H47.3721Z" fill="#252539"/>
<path d="M38.9629 153.328C38.9629 153.328 39.019 153.384 39.075 153.384C39.1871 153.441 39.2993 153.497 39.4674 153.553C39.8599 153.721 40.3644 153.945 41.0372 154.225C42.4387 154.842 44.4569 155.683 46.9236 156.804C51.9692 158.991 59.089 162.074 67.3301 165.606L67.218 165.494C67.4983 169.194 67.7786 173.23 68.0589 177.379C68.7316 187.077 69.4044 196.047 69.9089 203.167V203.279H70.0211C75.1787 202.831 79.4394 202.438 82.4107 202.214C83.8683 202.102 85.0456 201.99 85.8304 201.878C86.2229 201.822 86.5032 201.822 86.7274 201.766C86.9517 201.766 87.0077 201.71 87.0077 201.71C87.0077 201.71 86.8956 201.71 86.7274 201.71C86.5032 201.71 86.2229 201.766 85.8304 201.766C85.0456 201.822 83.8683 201.934 82.4107 201.99C79.4394 202.214 75.1787 202.551 70.0211 202.943L70.1332 203.055C69.6286 195.935 69.0119 187.021 68.3392 177.267C68.0589 173.118 67.7786 169.082 67.4983 165.382V165.27L67.3862 165.213C59.1451 161.738 52.0253 158.71 46.9236 156.524C44.4009 155.459 42.3827 154.618 40.9811 154.057C40.3084 153.777 39.7478 153.553 39.4114 153.384C39.2432 153.328 39.1311 153.272 39.019 153.216C39.019 153.328 38.9629 153.328 38.9629 153.328Z" fill="#455A64"/>
<path d="M16.314 154.562C16.314 154.562 16.5943 154.506 17.0988 154.338C17.6594 154.169 18.3882 153.945 19.2292 153.665C21.0231 153.104 23.5459 152.319 26.4051 151.871C29.2642 151.422 31.8991 151.591 33.7491 151.983C35.5992 152.375 36.6644 152.88 36.6644 152.824C36.6644 152.824 36.4401 152.656 35.9355 152.432C35.431 152.207 34.7022 151.983 33.8052 151.759C31.9552 151.31 29.2642 151.142 26.349 151.591C23.4338 152.039 20.9671 152.88 19.1731 153.497C18.2761 153.833 17.5473 154.113 17.0428 154.282C16.5943 154.45 16.314 154.562 16.314 154.562Z" fill="#455A64"/>
<path d="M20.3503 148.059C20.3503 148.115 21.3034 147.947 22.8171 148.059C23.6019 148.115 24.4989 148.227 25.508 148.339C26.5171 148.451 27.6384 148.62 28.7596 148.788C31.0581 149.18 33.0763 150.021 34.3097 150.862C35.5991 151.703 36.2158 152.488 36.2158 152.432C36.2158 152.432 36.1037 152.208 35.8234 151.871C35.5431 151.535 35.0946 151.086 34.4218 150.638C33.1324 149.741 31.1142 148.844 28.7596 148.451C27.5823 148.227 26.4611 148.115 25.452 148.003C24.4428 147.891 23.4898 147.779 22.761 147.779C21.9761 147.779 21.3595 147.779 20.911 147.835C20.5746 147.947 20.3503 148.003 20.3503 148.059Z" fill="#455A64"/>
<path d="M17.7482 65.7608C17.5964 71.4085 19.9952 77.0866 24.1551 80.9125C25.0963 78.1494 26.068 75.3862 27.0093 72.6231" fill="#263238"/>
<path d="M39.3053 49.2733C36.8458 47.9373 33.8702 47.7247 31.1374 48.3016C28.4046 48.8482 25.8237 50.0931 23.4249 51.4899C22.0585 52.2793 20.7225 53.1295 19.7205 54.3745C17.929 56.6214 16.1679 60.2954 16.0161 63.1497C15.8643 65.4573 16.7752 71.2569 17.7469 73.352C18.6578 75.2953 22.848 76.7528 24.9128 77.2386L43.9207 55.1336C43.2526 52.6437 41.5523 50.4879 39.3053 49.2733Z" fill="#263238"/>
<path d="M42.5886 52.2491L38.034 51.4293C40.5238 57.3503 41.1918 70.9534 42.619 77.2084C44.289 74.7792 48.2059 67.34 47.9934 64.3947C47.8112 61.4494 48.0238 51.7633 42.5886 52.2491Z" fill="#263238"/>
<path d="M20.9642 62.1472C21.2071 58.6857 23.454 55.8315 26.8244 54.9813L37.3304 52.2789C41.8546 51.7931 44.891 57.3801 45.1947 61.9347C45.5287 67.0055 45.7412 72.3192 45.1339 76.1147C43.9497 83.7057 38.1198 84.6773 38.1198 84.6773C38.1198 84.6773 38.1198 88.2906 38.1198 90.5072L34.5976 105.052L23.2718 89.4141L20.9338 62.2383C20.9338 62.0865 20.9642 62.299 20.9642 62.1472Z" fill="#FFBE9D"/>
<path d="M42.9452 67.6709C42.9756 68.1871 42.5505 68.6122 42.004 68.6425C41.4574 68.6729 41.0323 68.2782 41.0019 67.762C40.9716 67.2458 41.3967 66.8207 41.9432 66.7903C42.4898 66.76 42.9149 67.1547 42.9452 67.6709Z" fill="#263238"/>
<path d="M44.0652 64.9088C43.9437 65.0303 43.215 64.4837 42.1522 64.4837C41.1198 64.4837 40.3304 64.9999 40.2089 64.8784C40.1482 64.8177 40.2697 64.6052 40.6037 64.3623C40.9377 64.1193 41.4842 63.8764 42.1522 63.8764C42.7899 63.8764 43.3668 64.1193 43.6704 64.3623C44.0044 64.6052 44.1259 64.8481 44.0652 64.9088Z" fill="#263238"/>
<path d="M33.7441 67.6722C33.7744 68.1884 33.3493 68.6134 32.8028 68.6438C32.2562 68.6742 31.8311 68.2794 31.8008 67.7633C31.7704 67.2471 32.1955 66.822 32.7421 66.7916C33.2886 66.7612 33.7441 67.156 33.7441 67.6722Z" fill="#263238"/>
<path d="M34.1196 64.9072C33.9981 65.0286 33.2694 64.4821 32.2067 64.4821C31.1743 64.4821 30.3848 64.9983 30.2634 64.8768C30.2026 64.8161 30.3241 64.6035 30.6581 64.3606C30.9921 64.1177 31.5387 63.8748 32.2067 63.8748C32.8443 63.8748 33.4212 64.1177 33.7249 64.3606C34.0589 64.6035 34.1803 64.8465 34.1196 64.9072Z" fill="#263238"/>
<path d="M37.3898 73.1433C37.3898 73.0826 38.0274 72.9611 39.0902 72.8397C39.3634 72.8093 39.6064 72.7486 39.6671 72.5664C39.7278 72.3842 39.6064 72.0806 39.4849 71.7769C39.242 71.1393 38.9687 70.4409 38.6954 69.7425C37.6023 66.8579 36.7825 64.4592 36.904 64.4288C37.0254 64.3985 37.9971 66.7061 39.1205 69.5907C39.3938 70.3195 39.6367 70.9875 39.8796 71.6251C39.9707 71.9287 40.1529 72.2628 40.0315 72.6878C39.9707 72.9004 39.7582 73.0219 39.6064 73.0826C39.4242 73.1433 39.2724 73.1433 39.1509 73.1433C38.0578 73.204 37.3898 73.204 37.3898 73.1433Z" fill="#263238"/>
<path d="M28.062 81.9751C28.062 81.9751 30.5214 87.1977 38.1428 86.469V84.6775C38.1428 84.6775 33.1328 85.0115 28.062 81.9751Z" fill="#EB996E"/>
<path d="M33.765 61.1158C33.6739 61.3891 32.6111 61.2676 31.3966 61.4194C30.1517 61.5409 29.18 61.9052 28.9978 61.6623C28.9371 61.5409 29.0889 61.2676 29.4836 60.9943C29.8784 60.721 30.516 60.4478 31.2448 60.3567C31.9735 60.2656 32.6719 60.387 33.097 60.5692C33.5828 60.7514 33.7953 60.9943 33.765 61.1158Z" fill="#263238"/>
<path d="M43.7101 61.6938C43.5279 61.9367 42.7992 61.6938 41.949 61.6634C41.0684 61.6331 40.3397 61.8152 40.1878 61.5723C40.1271 61.4509 40.2182 61.208 40.5522 60.9954C40.8559 60.7829 41.4024 60.6007 41.9793 60.6007C42.5866 60.631 43.1028 60.8436 43.4064 61.0865C43.7101 61.3294 43.8012 61.5723 43.7101 61.6938Z" fill="#263238"/>
<path d="M43.1261 54.982C42.6706 53.8282 41.3953 53.1602 40.1807 53.0994C38.9358 53.0387 37.7516 53.4942 36.6889 54.1318C32.1646 56.7431 29.857 63.0588 25.3631 65.7612C24.27 66.4292 22.8429 65.822 21.9016 66.7025C20.9603 67.5831 20.353 68.9798 20.8692 70.164C20.2619 69.3442 19.6547 68.494 19.3207 67.5527C18.9866 66.5811 18.9259 65.488 19.4421 64.6074C19.8368 63.9394 20.5049 63.4232 20.687 62.6641C20.8389 61.9961 20.5959 61.3281 20.6263 60.6297C20.6567 59.9313 20.9907 59.2937 21.3247 58.6864C23.0858 55.5893 25.4846 52.7958 28.6121 51.0347C30.6464 49.9112 32.9541 49.2432 35.2618 49.3039C37.5694 49.395 39.9075 50.2452 41.6079 51.8241C42.6099 52.7654 43.6423 53.7371 43.1261 54.982Z" fill="#263238"/>
<path d="M22.0813 67.643C21.9902 67.4304 18.0429 66.0033 17.9821 70.1936C17.9214 74.2927 22.0509 73.4729 22.0813 73.3514C22.0813 73.2603 22.0813 67.643 22.0813 67.643Z" fill="#FFBE9D"/>
<path d="M20.8764 71.8016C20.8461 71.8016 20.8157 71.8624 20.6942 71.8927C20.5728 71.9535 20.3602 71.9838 20.1477 71.8927C19.7226 71.7409 19.3582 71.0425 19.3582 70.3138C19.3582 69.9494 19.419 69.5851 19.5708 69.2814C19.6922 68.9778 19.9048 68.7652 20.1173 68.7349C20.3299 68.6741 20.4817 68.826 20.5424 68.9474C20.6032 69.0689 20.5728 69.1296 20.6032 69.16C20.6032 69.16 20.6942 69.0992 20.6639 68.9171C20.6335 68.826 20.6032 68.7349 20.5121 68.6741C20.421 68.5831 20.2691 68.5527 20.1173 68.5527C19.8137 68.5831 19.51 68.8563 19.3582 69.1903C19.2064 69.5243 19.085 69.9191 19.1153 70.3138C19.1457 71.1336 19.5404 71.9231 20.1477 72.0749C20.421 72.166 20.6639 72.0749 20.7853 71.9838C20.8764 71.8927 20.9068 71.8016 20.8764 71.8016Z" fill="#EB996E"/>
<path d="M20.3969 65.5512C20.3969 65.5512 20.488 65.5208 20.6398 65.3994C20.7916 65.3083 21.0345 65.1565 21.3382 64.9743C21.9151 64.5492 22.7045 63.9115 23.5547 62.9703C24.4049 62.029 25.2855 60.8144 26.2571 59.448C27.2288 58.0816 28.2915 56.5938 29.6275 55.2578C30.3259 54.5898 31.0243 54.0129 31.8137 53.527C32.5728 53.0412 33.3927 52.7072 34.1518 52.4643C35.7307 51.9481 37.2489 51.857 38.4938 51.9177C39.7388 52.0088 40.7408 52.2517 41.4088 52.4947C41.7428 52.5857 41.9857 52.7072 42.1679 52.7679C42.3501 52.8287 42.4412 52.859 42.4412 52.859C42.4412 52.859 42.3501 52.7983 42.1982 52.7376C42.0161 52.6465 41.7732 52.525 41.4391 52.4339C40.7711 52.191 39.7995 51.8874 38.5242 51.7963C37.2793 51.7052 35.7307 51.7963 34.1214 52.2821C33.3319 52.525 32.5121 52.8894 31.7227 53.3448C30.9332 53.8307 30.2045 54.4076 29.5061 55.0756C28.1397 56.442 27.077 57.9602 26.1357 59.3266C25.1944 60.6929 24.3138 61.9075 23.4636 62.8488C22.6438 63.7901 21.8543 64.4581 21.3078 64.8832C21.0345 65.0957 20.7916 65.2476 20.6398 65.3386C20.488 65.4601 20.3969 65.5208 20.3969 65.5512Z" fill="#455A64"/>
<path d="M20.3187 72.5321C19.924 72.4713 19.4989 72.7446 19.3774 73.1393C19.2863 73.5341 19.5292 73.9895 19.924 74.111C20.3187 74.2325 20.7741 74.0199 20.926 73.6252C21.0778 73.2608 20.8956 72.775 20.5009 72.5928" fill="white"/>
<path d="M20.4366 72.593C20.4062 72.6233 20.7099 72.7448 20.8009 73.1395C20.8617 73.3217 20.8313 73.595 20.6491 73.7772C20.4669 73.9593 20.1633 74.0808 19.89 73.9897C19.6167 73.8986 19.4346 73.6253 19.4042 73.3824C19.3738 73.1091 19.4953 72.8966 19.6471 72.7751C19.9508 72.5019 20.2848 72.5626 20.2544 72.5322C20.2544 72.5322 20.1937 72.5019 20.0722 72.5019C19.9508 72.5019 19.7382 72.5322 19.556 72.684C19.3738 72.8055 19.1917 73.1091 19.222 73.4128C19.2524 73.7164 19.4649 74.0808 19.8293 74.2022C20.1937 74.3237 20.558 74.1719 20.7706 73.929C20.9831 73.6861 21.0135 73.3521 20.9224 73.1395C20.8617 72.927 20.7099 72.7751 20.6188 72.684C20.5277 72.593 20.4366 72.593 20.4366 72.593Z" fill="#263238"/>
<path d="M21.4265 66.7029C21.3658 67.8263 21.3051 69.0105 21.8212 69.9822C22.3374 70.9842 23.6431 71.6522 24.6147 71.1056C25.4042 70.6502 25.6471 69.6482 25.7686 68.7372C26.1633 66.1259 26.3455 63.4843 26.7402 60.9033L21.4265 66.7029Z" fill="#263238"/>
<path d="M42.1437 53.0386C42.1437 53.0689 41.7793 52.9778 41.1417 52.9475C40.504 52.9171 39.5324 53.0082 38.4393 53.4333C37.8927 53.6458 37.3158 53.9191 36.7389 54.3138C36.162 54.6782 35.585 55.1337 34.9778 55.6499C33.7936 56.6519 32.579 57.8968 31.5466 59.3543C31.0304 60.083 30.575 60.8421 30.0588 61.5405C29.573 62.2389 29.0264 62.8765 28.4191 63.3927C27.2349 64.4251 26.0204 65.1538 24.9576 65.7004C23.9252 66.2469 23.0447 66.6416 22.4374 66.9149C22.1641 67.0364 21.9212 67.1275 21.739 67.2186C21.5872 67.2793 21.4961 67.3097 21.4961 67.3097C21.4961 67.3097 21.5872 67.2489 21.739 67.1882C21.9212 67.0971 22.1338 66.9757 22.407 66.8542C22.984 66.5506 23.8645 66.1558 24.8969 65.5789C25.9293 65.002 27.1135 64.2733 28.2977 63.2409C28.8746 62.7247 29.4211 62.1174 29.907 61.419C30.3928 60.7207 30.8482 59.9919 31.3948 59.2328C32.4575 57.745 33.6721 56.5304 34.8563 55.498C35.4636 54.9819 36.0405 54.5568 36.6478 54.162C37.2247 53.7673 37.832 53.494 38.3785 53.2815C39.502 52.8564 40.4737 52.7956 41.1417 52.8564C41.4757 52.8867 41.7186 52.9171 41.9008 52.9475C42.0526 53.0082 42.1437 53.0386 42.1437 53.0386Z" fill="#455A64"/>
<path d="M21.3025 64.151C21.3025 64.151 21.181 64.2421 20.9381 64.3939C20.6648 64.5457 20.3005 64.7583 19.9057 65.0012C19.7843 65.0619 19.6628 65.1227 19.5717 65.2138C19.4503 65.2745 19.2985 65.3352 19.1163 65.3656C19.0252 65.3656 18.9341 65.3656 18.843 65.3049C18.7519 65.2441 18.6912 65.153 18.6912 65.0316C18.6912 64.819 18.8126 64.6672 18.8734 64.5154C19.2377 63.9385 19.6325 63.2705 20.0879 62.6024L20.2397 62.7543C19.845 63.0275 19.4199 63.2705 18.9341 63.4223C18.4483 63.5741 17.9624 63.6348 17.4766 63.6045C17.3552 63.6045 17.2337 63.5741 17.1122 63.5437C16.9908 63.5134 16.839 63.4223 16.8086 63.2705C16.7479 63.1186 16.8086 62.9668 16.8693 62.8454C16.9301 62.7543 17.0212 62.6632 17.1122 62.6024C17.7195 62.0255 18.175 61.3879 18.509 60.8413C19.177 59.7482 19.3592 58.9284 19.3896 58.9588C19.3896 58.9588 19.3592 59.1713 19.2681 59.5053C19.1466 59.8393 18.9645 60.3555 18.6608 60.9324C18.3572 61.5093 17.9017 62.147 17.2641 62.7543C17.1122 62.9061 16.9604 63.0579 17.0212 63.1794C17.0819 63.3008 17.2944 63.3616 17.507 63.3616C17.9624 63.3919 18.4179 63.3312 18.9037 63.1794C19.3592 63.0275 19.7843 62.815 20.1487 62.5721L20.6345 62.2077L20.3005 62.7239C19.8754 63.3919 19.4503 64.0599 19.0859 64.6368C18.9948 64.7887 18.9037 64.9101 18.9037 65.0316C18.9037 65.153 18.9948 65.2138 19.1466 65.2138C19.4199 65.2138 19.6628 65.0316 19.8754 64.9101C20.3005 64.6976 20.6648 64.5154 20.9381 64.3636C21.1507 64.2117 21.3025 64.151 21.3025 64.151Z" fill="#455A64"/>
<path d="M33.4221 75.0828C33.5739 74.4451 34.2115 73.9897 34.8492 74.0504C35.3046 74.1111 35.7297 74.4148 35.9423 74.8399C36.1548 75.265 36.1548 75.7508 36.003 76.2063L35.9726 76.2973C35.5475 76.7832 34.7884 76.935 34.2115 76.6617C33.6346 76.3884 33.2702 75.6901 33.4221 75.0828Z" fill="#EB996E"/>
<path d="M36.7297 76.2982C36.7297 76.1464 35.667 76.1768 34.8775 75.3266C34.0881 74.446 34.1488 73.3226 33.997 73.3226C33.9362 73.3226 33.8148 73.5958 33.8148 74.0513C33.8148 74.5068 33.997 75.2051 34.4828 75.7213C34.9686 76.2375 35.6063 76.4501 36.0314 76.4804C36.4565 76.5108 36.7297 76.359 36.7297 76.2982Z" fill="#263238"/>
<path d="M57.9117 103.77C57.9117 103.77 52.8101 95.3048 51.4085 93.5668C50.0631 91.9411 48.3812 90.988 47.26 90.4835C46.6433 90.2031 45.9706 90.035 45.2978 89.9228L37.9537 88.2971C37.9537 88.2971 37.9537 93.2865 32.6839 93.6229C27.4702 93.9593 23.0413 86.6152 23.0413 86.6152C23.0413 86.6152 14.576 87.9046 12.5578 88.9698C10.5396 90.035 7.34407 91.3244 5.60616 100.07L4.3728 108.647L18.9488 109.993L20.3504 131.633L27.5823 136.678C27.5823 136.678 47.5963 141.892 48.8858 142.228C50.1752 142.565 50.5676 109.993 50.5676 109.993C50.5676 109.993 55.7814 106.685 57.9117 103.77Z" fill="#1EA5F7"/>
<path d="M48.3252 100.126C48.3252 100.126 48.4373 100.35 48.6055 100.743C48.7737 101.135 48.9979 101.752 49.2222 102.481C49.6707 103.994 50.2313 106.125 50.5116 108.479C50.7919 110.89 50.7919 113.076 50.7358 114.646C50.6798 115.431 50.6237 116.048 50.5677 116.496C50.5116 116.945 50.4555 117.169 50.4555 117.169C50.4555 117.169 50.4555 116.945 50.4555 116.496C50.5116 116.048 50.5116 115.431 50.5116 114.646C50.5677 113.076 50.5116 110.89 50.2313 108.535C49.951 106.181 49.4464 104.051 49.054 102.537C48.8298 101.808 48.6616 101.191 48.5494 100.743C48.3813 100.407 48.3252 100.182 48.3252 100.126Z" fill="#455A64"/>
<path d="M47.7085 135.613L20.2383 129.614L18.9489 109.993L6.72742 108.871C6.72742 108.871 7.17591 122.27 7.6244 126.25C8.29714 131.969 11.6608 139.817 13.6791 141.387C15.6412 142.957 48.8858 142.228 48.8858 142.228L47.7085 135.613Z" fill="#FFBE9D"/>
<path d="M63.2936 139.201C63.1255 139.593 62.677 139.817 62.2845 139.817C62.1724 139.817 62.1163 139.817 62.0042 139.761C61.3875 139.593 61.4436 138.304 61.4436 138.304L58.5284 137.855C58.5284 137.855 54.7723 140.322 53.4268 141.892C52.0813 143.517 48.6616 142.172 48.6616 142.172L47.4843 135.949L52.8101 131.128C52.8101 131.128 52.4737 131.408 52.8662 130.511C53.2586 129.614 54.9405 129.951 54.9405 129.951C55.2208 129.502 56.2859 129.334 56.2859 129.334L60.9951 129.894C61.9482 130.007 62.8452 130.567 63.3497 131.352L65.3119 134.492C65.3119 134.492 66.377 136.734 66.2089 137.295C65.9285 138.079 65.0876 137.911 65.0876 137.911C65.0876 137.911 64.8634 139.425 64.4709 139.425C64.0785 139.537 63.2936 139.201 63.2936 139.201Z" fill="#FFBE9D"/>
<path d="M53.3147 134.716C53.3147 134.772 53.9313 134.716 54.9404 134.772C55.9496 134.828 57.3511 134.996 58.7526 135.501C59.4814 135.725 60.1542 136.062 60.7148 136.342C61.2754 136.678 61.8921 136.902 62.0603 137.351C62.1724 137.575 62.1163 137.743 62.0042 137.912C61.8921 138.08 61.78 138.136 61.6678 138.192C61.4436 138.304 61.2754 138.248 61.2754 138.248C61.2754 138.248 61.4436 138.36 61.7239 138.304C61.8921 138.248 62.0603 138.192 62.1724 137.968C62.2845 137.799 62.3967 137.519 62.2845 137.239C62.1724 136.959 61.9482 136.734 61.7239 136.566C61.4436 136.398 61.2194 136.23 60.883 136.062C60.2663 135.725 59.5936 135.445 58.8648 135.165C57.4072 134.66 55.9496 134.492 54.9404 134.492C53.9313 134.548 53.2586 134.716 53.3147 134.716Z" fill="#EB996E"/>
<path d="M52.9783 137.743C52.9783 137.855 54.8844 137.743 57.239 137.911C59.5935 138.024 61.4996 138.36 61.4996 138.248C61.4996 138.192 61.0512 138.08 60.2663 137.967C59.4814 137.855 58.4163 137.687 57.239 137.631C56.0617 137.575 54.9965 137.575 54.2116 137.631C53.4268 137.631 52.9783 137.687 52.9783 137.743Z" fill="#EB996E"/>
<path d="M63.2376 139.089C63.2376 139.089 63.2936 138.921 63.2936 138.584C63.2936 138.248 63.3497 137.799 63.2936 137.183C63.2936 136.902 63.2376 136.566 63.1815 136.23C63.1255 135.893 62.9573 135.501 62.733 135.221C62.2845 134.604 61.7239 133.931 60.9951 133.427C60.2663 132.922 59.4815 132.53 58.7527 132.305C58.0239 132.081 57.295 132.025 56.7344 131.969C56.1738 131.969 55.6693 131.969 55.389 131.969C55.0526 131.969 54.8844 132.025 54.8844 132.025C54.8844 132.081 55.6132 132.081 56.7344 132.193C57.295 132.249 57.9678 132.305 58.6966 132.53C59.4254 132.754 60.1542 133.146 60.8269 133.651C61.5557 134.155 62.1163 134.716 62.5088 135.389C62.9573 136.005 63.0694 136.678 63.1255 137.239C63.2376 138.36 63.1815 139.089 63.2376 139.089Z" fill="#EB996E"/>
<path d="M56.4541 130.567C56.4541 130.623 57.1829 130.623 58.3041 130.735C59.3693 130.904 61.1072 130.96 62.1163 132.473C63.1815 133.819 64.0785 135.108 64.4709 136.173C64.8633 137.239 64.8634 137.911 64.9194 137.911C64.9194 137.911 64.9755 137.743 64.9194 137.407C64.9194 137.07 64.8634 136.622 64.6391 136.061C64.3027 134.94 63.3497 133.651 62.2845 132.249C62.0042 131.913 61.7239 131.576 61.3875 131.352C61.0512 131.072 60.6587 130.96 60.2663 130.848C59.5375 130.623 58.8648 130.567 58.2481 130.511C57.1829 130.455 56.4541 130.511 56.4541 130.567Z" fill="#EB996E"/>
<path d="M54.4359 140.882C54.4359 140.882 54.548 140.826 54.7162 140.658C54.9404 140.49 55.1647 140.266 55.501 140.041C56.1738 139.481 57.2389 138.752 58.5844 137.911H58.5284C59.3693 138.079 60.3784 138.247 61.4436 138.416L61.3314 138.304C61.3314 138.528 61.3314 138.752 61.3875 139.032C61.4436 139.257 61.4996 139.537 61.7239 139.705C61.836 139.817 62.0042 139.873 62.1163 139.873C62.2284 139.929 62.3966 139.929 62.5087 139.873C62.7891 139.817 63.0694 139.705 63.2375 139.481C63.2936 139.425 63.3497 139.369 63.3497 139.313V139.257C63.4057 139.257 63.0133 139.369 63.1815 139.313L63.2936 139.369C63.4057 139.425 63.5179 139.481 63.686 139.481C63.7982 139.537 63.9663 139.537 64.0785 139.593C64.1345 139.593 64.2467 139.593 64.3027 139.593C64.3588 139.593 64.4709 139.593 64.583 139.537C64.7512 139.425 64.8073 139.257 64.8633 139.144C64.9194 139.032 64.9755 138.864 65.0315 138.752C65.0876 138.472 65.1436 138.191 65.1997 137.911L65.0315 138.023C65.424 138.079 65.8724 138.023 66.0967 137.631C66.2088 137.463 66.3209 137.294 66.3209 137.07C66.3209 136.846 66.2649 136.678 66.2088 136.51C65.9846 135.781 65.7043 135.108 65.4239 134.435C65.0876 133.875 64.7512 133.314 64.3588 132.753C64.1345 132.417 63.9103 132.025 63.686 131.688C63.4618 131.352 63.2375 130.959 62.9572 130.679C62.6769 130.399 62.2845 130.119 61.8921 130.006C61.4996 129.838 61.0511 129.782 60.7148 129.782C59.145 129.614 57.6874 129.446 56.2859 129.278C56.0056 129.334 55.7813 129.39 55.501 129.502C55.2768 129.614 54.9965 129.726 54.8283 129.95L54.9965 129.894C54.4919 129.67 53.9313 129.67 53.4828 130.006C53.0343 130.287 52.8661 130.735 52.754 131.184L52.8101 131.128C51.2964 132.529 50.007 133.65 49.11 134.435C48.7176 134.828 48.3812 135.108 48.1009 135.332C47.8767 135.557 47.7645 135.669 47.7645 135.669C47.7645 135.669 47.8767 135.557 48.157 135.388C48.4373 135.164 48.7736 134.884 49.1661 134.491C50.0631 133.707 51.3525 132.585 52.9222 131.24V131.184C53.0343 130.791 53.2025 130.399 53.5949 130.175C53.9313 129.95 54.4359 129.95 54.8844 130.119L54.9965 130.175L55.0525 130.062C55.1647 129.894 55.3889 129.782 55.6132 129.726C55.8374 129.67 56.1177 129.558 56.342 129.558H56.2859C57.6874 129.726 59.145 129.894 60.7148 130.062C61.1072 130.119 61.4996 130.119 61.836 130.287C62.1724 130.455 62.5087 130.623 62.7891 130.903C63.0694 131.184 63.2375 131.52 63.4618 131.856C63.686 132.193 63.9103 132.585 64.1345 132.922C64.4709 133.482 64.8633 134.043 65.1997 134.603C65.48 135.276 65.8164 135.949 65.9846 136.622C66.0406 136.79 66.0967 136.958 66.0967 137.126C66.0967 137.238 66.0406 137.407 65.9846 137.519C65.8164 137.743 65.48 137.855 65.1997 137.799H65.0315V137.967C64.9755 138.248 64.9194 138.528 64.8633 138.752C64.8073 138.976 64.6951 139.257 64.583 139.369C64.583 139.369 64.527 139.369 64.4709 139.369C64.4148 139.369 64.3588 139.369 64.3027 139.369C64.1906 139.369 64.0785 139.313 63.9103 139.257C63.7982 139.201 63.686 139.201 63.5739 139.144L63.4618 139.088C63.63 139.032 63.2375 139.144 63.2936 139.144V139.201C63.2375 139.257 63.2375 139.313 63.1815 139.313C63.0133 139.481 62.8451 139.593 62.6209 139.649C62.5087 139.649 62.3966 139.649 62.2845 139.649C62.1724 139.649 62.1163 139.593 62.0042 139.537C61.7239 139.257 61.6678 138.752 61.6678 138.304V138.191H61.5557C60.4905 138.023 59.5375 137.855 58.6405 137.743H58.5844H58.5284C57.1829 138.584 56.1738 139.369 55.501 139.929C55.1647 140.21 54.8844 140.434 54.7722 140.602C54.4919 140.77 54.4359 140.882 54.4359 140.882Z" fill="#EB996E"/>
<path d="M98.8929 121.149L62.7331 121.43C61.5558 121.43 60.4346 121.99 60.2664 123.168L56.3421 149.517H37.7296C37.1129 149.517 36.6644 150.021 36.6644 150.582C36.6644 151.199 37.169 151.647 37.7296 151.647H56.0057H59.4815H97.155L101.191 123.84C101.472 122.439 100.35 121.149 98.8929 121.149Z" fill="#30C46C"/>
<path d="M98.8929 121.149C98.8929 121.149 99.1171 121.149 99.4535 121.205C99.7898 121.317 100.407 121.486 100.855 122.102C101.079 122.383 101.247 122.775 101.304 123.28C101.36 123.728 101.247 124.233 101.191 124.793C101.023 125.858 100.855 127.092 100.687 128.437C99.902 133.987 98.7247 141.948 97.3231 151.703V151.815H97.211C81.8501 151.815 61.6118 151.815 39.5235 151.871C39.019 151.871 38.5144 151.871 37.9538 151.871C37.7296 151.871 37.3932 151.871 37.1129 151.703C36.8326 151.535 36.6644 151.31 36.5523 151.03C36.328 150.47 36.6083 149.797 37.1129 149.517C37.3371 149.348 37.6735 149.348 37.9538 149.348H38.7387C40.7569 149.348 42.7751 149.348 44.7933 149.348C48.7737 149.348 52.642 149.348 56.3981 149.348L56.286 149.46C57.6875 140.042 59.033 131.24 60.2103 123.336C60.2664 122.831 60.4906 122.271 60.883 121.934C61.2755 121.598 61.78 121.374 62.2846 121.317C62.7891 121.261 63.2937 121.261 63.7422 121.261C64.2467 121.261 64.6952 121.261 65.1437 121.261C66.9938 121.261 68.8438 121.261 70.5817 121.205C74.0575 121.205 77.3091 121.149 80.2804 121.149C86.1669 121.093 90.82 121.093 94.0716 121.093C95.6973 121.093 96.9307 121.093 97.7716 121.093C98.1641 121.093 98.5004 121.093 98.7247 121.093C98.7807 121.149 98.8929 121.149 98.8929 121.149C98.8929 121.149 98.7807 121.149 98.5565 121.149C98.3322 121.149 97.9959 121.149 97.6034 121.149C96.7625 121.149 95.5292 121.205 93.9034 121.205C90.7079 121.261 85.9987 121.317 80.1122 121.374C77.197 121.43 73.9454 121.43 70.4135 121.486C68.6756 121.486 66.8256 121.542 64.9755 121.542C64.527 121.542 64.0225 121.542 63.574 121.542C63.1255 121.542 62.621 121.542 62.1725 121.598C61.724 121.654 61.2755 121.822 60.9391 122.158C60.6027 122.495 60.3785 122.887 60.3785 123.392C59.2012 131.296 57.9118 140.098 56.4542 149.517V149.629H56.342C52.5859 149.629 48.7177 149.629 44.7373 149.629C42.7751 149.629 40.7569 149.629 38.6826 149.629H37.8978C37.6174 149.629 37.4493 149.629 37.225 149.741C36.8326 149.965 36.6083 150.47 36.7765 150.862C36.8326 151.086 37.0008 151.254 37.225 151.367C37.4493 151.479 37.6174 151.479 37.8978 151.479C38.4023 151.479 38.9069 151.479 39.4675 151.479C61.5558 151.479 81.794 151.479 97.1549 151.535L97.0428 151.647C98.5004 141.892 99.6777 133.931 100.519 128.381C100.743 126.98 100.911 125.802 101.079 124.737C101.135 124.233 101.304 123.728 101.247 123.28C101.191 122.831 101.023 122.439 100.855 122.158C100.407 121.542 99.8459 121.317 99.5095 121.261C99.061 121.149 98.8929 121.149 98.8929 121.149Z" fill="#263238"/>
<path d="M79.2713 138.304C80.5098 138.304 81.5137 137.3 81.5137 136.062C81.5137 134.824 80.5098 133.82 79.2713 133.82C78.0328 133.82 77.0288 134.824 77.0288 136.062C77.0288 137.3 78.0328 138.304 79.2713 138.304Z" fill="white"/>
<path d="M57.7996 151.423C57.8557 151.423 58.9769 144.695 60.3784 136.454C61.7239 128.157 62.7891 121.43 62.7891 121.43C62.733 121.43 61.6118 128.101 60.2103 136.398C58.8087 144.695 57.7435 151.423 57.7996 151.423Z" fill="#263238"/>
</g>
<defs>
<clipPath id="clip0_0_1136">
<rect width="240" height="248.409" fill="white"/>
</clipPath>
</defs>
</svg>
